G04 #@! TF.GenerationSoftware,KiCad,Pcbnew,8.0.5*
G04 #@! TF.CreationDate,2024-10-22T05:21:46-04:00*
G04 #@! TF.ProjectId,WarpSE-Overclocking-Board,57617270-5345-42d4-9f76-6572636c6f63,1.0*
G04 #@! TF.SameCoordinates,Original*
G04 #@! TF.FileFunction,Copper,L1,Top*
G04 #@! TF.FilePolarity,Positive*
%FSLAX46Y46*%
G04 Gerber Fmt 4.6, Leading zero omitted, Abs format (unit mm)*
G04 Created by KiCad (PCBNEW 8.0.5) date 2024-10-22 05:21:46*
%MOMM*%
%LPD*%
G01*
G04 APERTURE LIST*
G04 Aperture macros list*
%AMRoundRect*
0 Rectangle with rounded corners*
0 $1 Rounding radius*
0 $2 $3 $4 $5 $6 $7 $8 $9 X,Y pos of 4 corners*
0 Add a 4 corners polygon primitive as box body*
4,1,4,$2,$3,$4,$5,$6,$7,$8,$9,$2,$3,0*
0 Add four circle primitives for the rounded corners*
1,1,$1+$1,$2,$3*
1,1,$1+$1,$4,$5*
1,1,$1+$1,$6,$7*
1,1,$1+$1,$8,$9*
0 Add four rect primitives between the rounded corners*
20,1,$1+$1,$2,$3,$4,$5,0*
20,1,$1+$1,$4,$5,$6,$7,0*
20,1,$1+$1,$6,$7,$8,$9,0*
20,1,$1+$1,$8,$9,$2,$3,0*%
G04 Aperture macros list end*
G04 #@! TA.AperFunction,SMDPad,CuDef*
%ADD10RoundRect,0.175000X-0.175000X-0.300000X0.175000X-0.300000X0.175000X0.300000X-0.175000X0.300000X0*%
G04 #@! TD*
G04 #@! TA.AperFunction,SMDPad,CuDef*
%ADD11RoundRect,0.200000X0.200000X-0.475000X0.200000X0.475000X-0.200000X0.475000X-0.200000X-0.475000X0*%
G04 #@! TD*
G04 #@! TA.AperFunction,ComponentPad*
%ADD12R,1.350000X1.350000*%
G04 #@! TD*
G04 #@! TA.AperFunction,ComponentPad*
%ADD13O,1.350000X1.350000*%
G04 #@! TD*
G04 #@! TA.AperFunction,SMDPad,CuDef*
%ADD14RoundRect,0.100000X0.400000X0.100000X-0.400000X0.100000X-0.400000X-0.100000X0.400000X-0.100000X0*%
G04 #@! TD*
G04 #@! TA.AperFunction,SMDPad,CuDef*
%ADD15RoundRect,0.300000X-0.400000X-0.300000X0.400000X-0.300000X0.400000X0.300000X-0.400000X0.300000X0*%
G04 #@! TD*
G04 #@! TA.AperFunction,SMDPad,CuDef*
%ADD16RoundRect,0.190000X0.190000X-0.572000X0.190000X0.572000X-0.190000X0.572000X-0.190000X-0.572000X0*%
G04 #@! TD*
G04 #@! TA.AperFunction,SMDPad,CuDef*
%ADD17RoundRect,0.212500X-0.262500X0.212500X-0.262500X-0.212500X0.262500X-0.212500X0.262500X0.212500X0*%
G04 #@! TD*
G04 #@! TA.AperFunction,SMDPad,CuDef*
%ADD18RoundRect,0.212500X0.212500X0.262500X-0.212500X0.262500X-0.212500X-0.262500X0.212500X-0.262500X0*%
G04 #@! TD*
G04 #@! TA.AperFunction,SMDPad,CuDef*
%ADD19RoundRect,0.100000X-0.400000X-0.100000X0.400000X-0.100000X0.400000X0.100000X-0.400000X0.100000X0*%
G04 #@! TD*
G04 #@! TA.AperFunction,SMDPad,CuDef*
%ADD20RoundRect,0.175000X-0.300000X0.175000X-0.300000X-0.175000X0.300000X-0.175000X0.300000X0.175000X0*%
G04 #@! TD*
G04 #@! TA.AperFunction,ViaPad*
%ADD21C,0.500000*%
G04 #@! TD*
G04 #@! TA.AperFunction,ViaPad*
%ADD22C,0.600000*%
G04 #@! TD*
G04 #@! TA.AperFunction,Conductor*
%ADD23C,0.500000*%
G04 #@! TD*
G04 #@! TA.AperFunction,Conductor*
%ADD24C,0.400000*%
G04 #@! TD*
G04 #@! TA.AperFunction,Conductor*
%ADD25C,0.600000*%
G04 #@! TD*
G04 #@! TA.AperFunction,Conductor*
%ADD26C,0.150000*%
G04 #@! TD*
G04 APERTURE END LIST*
D10*
X93400000Y-116900000D03*
X95000000Y-116900000D03*
D11*
X99600000Y-110850000D03*
X101500000Y-110850000D03*
X100550000Y-108750000D03*
D12*
X103650000Y-116600000D03*
D13*
X105650000Y-116600000D03*
X103650000Y-118600000D03*
X105650000Y-118600000D03*
X103650000Y-120600000D03*
X105650000Y-120600000D03*
X103650000Y-122600000D03*
X105650000Y-122600000D03*
X103650000Y-124600000D03*
X105650000Y-124600000D03*
X103650000Y-126600000D03*
X105650000Y-126600000D03*
D14*
X101250000Y-117050000D03*
X101250000Y-116400000D03*
X101250000Y-115750000D03*
X99550000Y-115750000D03*
X99550000Y-117050000D03*
D15*
X96600000Y-120250000D03*
X98800000Y-120250000D03*
X98800000Y-118550000D03*
X96600000Y-118550000D03*
X96600000Y-124050000D03*
X98800000Y-124050000D03*
X98800000Y-122350000D03*
X96600000Y-122350000D03*
D16*
X91884500Y-115125500D03*
X93154500Y-115125500D03*
X94424500Y-115125500D03*
X95694500Y-115125500D03*
X96964500Y-115125500D03*
X96964500Y-107505500D03*
X95694500Y-107505500D03*
X94424500Y-107505500D03*
X93154500Y-107505500D03*
X91884500Y-107505500D03*
D17*
X94600000Y-118550000D03*
X94600000Y-120050000D03*
D15*
X96600000Y-127850000D03*
X98800000Y-127850000D03*
X98800000Y-126150000D03*
X96600000Y-126150000D03*
D18*
X105650000Y-114400000D03*
X104150000Y-114400000D03*
D17*
X94600000Y-126150000D03*
X94600000Y-127650000D03*
D19*
X91100000Y-126300000D03*
X91100000Y-126950000D03*
X91100000Y-127600000D03*
X92800000Y-127600000D03*
X92800000Y-126300000D03*
D17*
X103450000Y-108750000D03*
X103450000Y-110250000D03*
D20*
X100800000Y-122350000D03*
X100800000Y-123950000D03*
D17*
X94600000Y-122350000D03*
X94600000Y-123850000D03*
D20*
X100800000Y-126150000D03*
X100800000Y-127750000D03*
D18*
X97800000Y-116900000D03*
X96300000Y-116900000D03*
D20*
X100800000Y-118550000D03*
X100800000Y-120150000D03*
D18*
X101300000Y-112750000D03*
X99800000Y-112750000D03*
D10*
X99550000Y-114250000D03*
X101150000Y-114250000D03*
X90600000Y-116900000D03*
X92200000Y-116900000D03*
D19*
X91100000Y-118700000D03*
X91100000Y-119350000D03*
X91100000Y-120000000D03*
X92800000Y-120000000D03*
X92800000Y-118700000D03*
X91100000Y-122500000D03*
X91100000Y-123150000D03*
X91100000Y-123800000D03*
X92800000Y-123800000D03*
X92800000Y-122500000D03*
D21*
X75819000Y-117729000D03*
X95450000Y-123700000D03*
X99885500Y-106616500D03*
X107886500Y-120269000D03*
X77851000Y-128841500D03*
X75819000Y-126809500D03*
X91100000Y-120600000D03*
X102150000Y-115750000D03*
X91100000Y-128200000D03*
X102400000Y-120200000D03*
X107886500Y-115189000D03*
X98800000Y-128850000D03*
X77851000Y-106616500D03*
D22*
X93154500Y-108712000D03*
D21*
X75819000Y-123825000D03*
X102250000Y-123950000D03*
X99750000Y-111900000D03*
X99900000Y-120250000D03*
X87630000Y-128841500D03*
X107886500Y-122809000D03*
X93750000Y-127500000D03*
D22*
X94424500Y-108712000D03*
D21*
X103350000Y-114400000D03*
X104300000Y-113550000D03*
X98800000Y-121250000D03*
X90200000Y-120150000D03*
X98800000Y-110850000D03*
X106934000Y-128778000D03*
X82550000Y-106616500D03*
X105854500Y-106616500D03*
X93750000Y-123700000D03*
X107886500Y-108648500D03*
X75819000Y-114681000D03*
D22*
X91884500Y-108712000D03*
D21*
X91100000Y-124400000D03*
X99900000Y-127850000D03*
X93750000Y-119900000D03*
X101250000Y-115150000D03*
X75819000Y-120777000D03*
X107886500Y-125349000D03*
X95450000Y-127500000D03*
X85090000Y-128841500D03*
X107886500Y-117729000D03*
X75819000Y-111633000D03*
X82550000Y-128841500D03*
X90200000Y-127750000D03*
X95600000Y-117750000D03*
X75819000Y-108648500D03*
X101854000Y-128778000D03*
X92671000Y-128841500D03*
X102600000Y-110100000D03*
X90170000Y-128841500D03*
X107886500Y-110617000D03*
X104300000Y-115250000D03*
X98800000Y-125050000D03*
X103400000Y-111050000D03*
X101350000Y-117650000D03*
X102870000Y-106616500D03*
X90170000Y-106616500D03*
X99900000Y-124050000D03*
D22*
X96964500Y-108712000D03*
D21*
X107823000Y-127889000D03*
X99000000Y-112700000D03*
X96330000Y-116090000D03*
D22*
X95694500Y-108712000D03*
D21*
X95450000Y-119900000D03*
X87630000Y-106616500D03*
X107886500Y-112649000D03*
X85090000Y-106616500D03*
X90200000Y-123950000D03*
X104300000Y-110100000D03*
X95500000Y-118550000D03*
X97950000Y-116050000D03*
X93750000Y-122500000D03*
X92800000Y-121900000D03*
X92400000Y-117850000D03*
X96600000Y-121350000D03*
X95500000Y-122350000D03*
X101350000Y-111900000D03*
X102100000Y-112750000D03*
X95500000Y-126150000D03*
X93750000Y-118700000D03*
X99700000Y-117650000D03*
X92800000Y-125700000D03*
X93750000Y-126300000D03*
X98650000Y-117050000D03*
X102300000Y-110850000D03*
X96600000Y-125150000D03*
X95694500Y-113982500D03*
X94424500Y-113982500D03*
X96964500Y-113982500D03*
X90200000Y-122950000D03*
X90200000Y-126750000D03*
X90200000Y-119150000D03*
X91200000Y-125700000D03*
X91200000Y-121900000D03*
X91100000Y-118100000D03*
X92519500Y-112268000D03*
D23*
X98800000Y-127850000D02*
X99900000Y-127850000D01*
D24*
X91100000Y-123800000D02*
X91100000Y-124400000D01*
X101250000Y-115750000D02*
X102150000Y-115750000D01*
D23*
X95300000Y-127650000D02*
X95450000Y-127500000D01*
X96330000Y-116870000D02*
X96330000Y-116090000D01*
X102750000Y-110250000D02*
X102600000Y-110100000D01*
X99750000Y-112700000D02*
X99750000Y-111900000D01*
X104150000Y-114400000D02*
X103350000Y-114400000D01*
X99800000Y-112750000D02*
X99750000Y-112700000D01*
D25*
X95694500Y-107505500D02*
X95694500Y-108712000D01*
D23*
X103450000Y-110250000D02*
X104150000Y-110250000D01*
X98800000Y-120250000D02*
X98800000Y-121250000D01*
X99750000Y-112700000D02*
X99000000Y-112700000D01*
D24*
X101250000Y-115750000D02*
X101250000Y-115150000D01*
X91100000Y-123800000D02*
X90350000Y-123800000D01*
D25*
X94424500Y-107505500D02*
X94424500Y-108712000D01*
D23*
X96300000Y-116900000D02*
X96330000Y-116870000D01*
X99600000Y-110850000D02*
X98800000Y-110850000D01*
X98800000Y-124050000D02*
X99900000Y-124050000D01*
X94600000Y-123850000D02*
X93900000Y-123850000D01*
D24*
X91100000Y-127600000D02*
X91100000Y-128200000D01*
D23*
X98800000Y-124050000D02*
X98800000Y-125050000D01*
X99600000Y-110850000D02*
X99600000Y-111750000D01*
D25*
X96964500Y-107505500D02*
X96964500Y-108712000D01*
D23*
X98800000Y-120250000D02*
X99900000Y-120250000D01*
X94600000Y-127650000D02*
X95300000Y-127650000D01*
X95300000Y-120050000D02*
X95450000Y-119900000D01*
X104150000Y-115100000D02*
X104300000Y-115250000D01*
D25*
X93154500Y-107505500D02*
X93154500Y-108712000D01*
D23*
X104150000Y-113700000D02*
X104300000Y-113550000D01*
X94600000Y-123850000D02*
X95300000Y-123850000D01*
D24*
X90350000Y-123800000D02*
X90200000Y-123950000D01*
D23*
X94600000Y-120050000D02*
X95300000Y-120050000D01*
X104150000Y-110250000D02*
X104300000Y-110100000D01*
X103450000Y-111000000D02*
X103400000Y-111050000D01*
X98800000Y-127850000D02*
X98800000Y-128850000D01*
X104150000Y-114400000D02*
X104150000Y-113700000D01*
D24*
X101250000Y-117050000D02*
X101250000Y-117550000D01*
D25*
X91884500Y-107505500D02*
X91884500Y-108712000D01*
D24*
X101250000Y-117550000D02*
X101350000Y-117650000D01*
D23*
X95300000Y-123850000D02*
X95450000Y-123700000D01*
X94600000Y-120050000D02*
X93900000Y-120050000D01*
X93900000Y-127650000D02*
X93750000Y-127500000D01*
D24*
X90350000Y-127600000D02*
X90200000Y-127750000D01*
D23*
X94600000Y-127650000D02*
X93900000Y-127650000D01*
X93900000Y-123850000D02*
X93750000Y-123700000D01*
D24*
X91100000Y-127600000D02*
X90350000Y-127600000D01*
D23*
X103450000Y-110250000D02*
X103450000Y-111000000D01*
D24*
X91100000Y-120000000D02*
X90350000Y-120000000D01*
D23*
X104150000Y-114400000D02*
X104150000Y-115100000D01*
X103450000Y-110250000D02*
X102750000Y-110250000D01*
X93900000Y-120050000D02*
X93750000Y-119900000D01*
D24*
X91100000Y-120000000D02*
X91100000Y-120600000D01*
X90350000Y-120000000D02*
X90200000Y-120150000D01*
D23*
X99600000Y-111750000D02*
X99750000Y-111900000D01*
D25*
X105650000Y-116600000D02*
X105650000Y-114400000D01*
D23*
X105650000Y-109950000D02*
X104450000Y-108750000D01*
X104450000Y-108750000D02*
X103450000Y-108750000D01*
X103450000Y-108750000D02*
X100550000Y-108750000D01*
X105650000Y-114400000D02*
X105650000Y-109950000D01*
X101300000Y-112750000D02*
X102100000Y-112750000D01*
D24*
X92200000Y-117650000D02*
X92400000Y-117850000D01*
X92800000Y-118250000D02*
X92400000Y-117850000D01*
D23*
X93900000Y-118550000D02*
X93750000Y-118700000D01*
X93900000Y-122350000D02*
X93750000Y-122500000D01*
D24*
X92800000Y-118700000D02*
X93750000Y-118700000D01*
D23*
X94600000Y-126150000D02*
X93900000Y-126150000D01*
X101500000Y-110850000D02*
X101500000Y-111750000D01*
X101500000Y-110850000D02*
X102300000Y-110850000D01*
D26*
X95000000Y-117550000D02*
X94600000Y-117950000D01*
D23*
X97800000Y-116900000D02*
X97800000Y-116200000D01*
X97800000Y-116900000D02*
X97950000Y-117050000D01*
X101350000Y-112700000D02*
X101350000Y-111900000D01*
X97950000Y-117050000D02*
X98650000Y-117050000D01*
X96600000Y-126150000D02*
X96600000Y-125150000D01*
X94600000Y-118550000D02*
X95500000Y-118550000D01*
X97800000Y-116200000D02*
X97950000Y-116050000D01*
D24*
X99550000Y-117050000D02*
X98650000Y-117050000D01*
X92800000Y-126300000D02*
X93750000Y-126300000D01*
D23*
X96600000Y-122350000D02*
X95500000Y-122350000D01*
X101500000Y-111750000D02*
X101350000Y-111900000D01*
X93900000Y-126150000D02*
X93750000Y-126300000D01*
D26*
X95000000Y-116900000D02*
X95000000Y-117550000D01*
D24*
X92200000Y-116900000D02*
X92200000Y-117650000D01*
X92800000Y-122500000D02*
X93750000Y-122500000D01*
D23*
X94600000Y-122350000D02*
X93900000Y-122350000D01*
X94600000Y-122350000D02*
X95500000Y-122350000D01*
X94600000Y-126150000D02*
X95500000Y-126150000D01*
X96600000Y-126150000D02*
X95500000Y-126150000D01*
D24*
X92800000Y-122500000D02*
X92800000Y-121900000D01*
X92800000Y-118700000D02*
X92800000Y-118250000D01*
D23*
X101300000Y-112750000D02*
X101350000Y-112700000D01*
D24*
X99550000Y-117050000D02*
X99550000Y-117500000D01*
X99550000Y-117500000D02*
X99700000Y-117650000D01*
D23*
X94600000Y-118550000D02*
X93900000Y-118550000D01*
D26*
X94600000Y-117950000D02*
X94600000Y-118550000D01*
D23*
X96600000Y-122350000D02*
X96600000Y-121350000D01*
D24*
X92800000Y-126300000D02*
X92800000Y-125700000D01*
D23*
X96600000Y-118550000D02*
X95500000Y-118550000D01*
D26*
X103200000Y-116150000D02*
X103200000Y-114950000D01*
X103200000Y-114950000D02*
X102500000Y-114250000D01*
X102500000Y-114250000D02*
X101150000Y-114250000D01*
X103650000Y-116600000D02*
X103200000Y-116150000D01*
D25*
X95694500Y-115125500D02*
X95694500Y-113982500D01*
X94424500Y-115125500D02*
X94424500Y-113982500D01*
X96964500Y-115125500D02*
X96964500Y-113982500D01*
D23*
X98800000Y-118550000D02*
X100800000Y-118550000D01*
X100800000Y-122350000D02*
X98800000Y-122350000D01*
X98800000Y-126150000D02*
X100800000Y-126150000D01*
D26*
X90200000Y-118300000D02*
X90200000Y-119150000D01*
X90200000Y-118300000D02*
X90600000Y-117900000D01*
X90600000Y-117900000D02*
X90600000Y-116900000D01*
D24*
X90400000Y-126950000D02*
X90200000Y-126750000D01*
X91100000Y-119350000D02*
X90400000Y-119350000D01*
D26*
X91224500Y-115125500D02*
X91884500Y-115125500D01*
D24*
X91100000Y-126950000D02*
X90400000Y-126950000D01*
D26*
X90600000Y-116900000D02*
X90600000Y-115750000D01*
X90600000Y-115750000D02*
X91224500Y-115125500D01*
D24*
X90400000Y-119350000D02*
X90200000Y-119150000D01*
X90400000Y-123150000D02*
X90200000Y-122950000D01*
X91100000Y-123150000D02*
X90400000Y-123150000D01*
D26*
X93154500Y-116029500D02*
X93154500Y-115125500D01*
D24*
X91200000Y-122400000D02*
X91200000Y-121900000D01*
X91100000Y-126300000D02*
X91200000Y-126200000D01*
D26*
X93400000Y-116275000D02*
X93154500Y-116029500D01*
X93400000Y-116900000D02*
X93400000Y-116275000D01*
D25*
X93154500Y-115125500D02*
X93154500Y-112903000D01*
D24*
X91100000Y-122500000D02*
X91200000Y-122400000D01*
X91200000Y-126200000D02*
X91200000Y-125700000D01*
D25*
X93154500Y-112903000D02*
X92519500Y-112268000D01*
D24*
X91100000Y-118700000D02*
X91100000Y-118100000D01*
D26*
X101550000Y-123950000D02*
X101900000Y-124300000D01*
X101900000Y-123600000D02*
X101550000Y-123950000D01*
X101550000Y-127750000D02*
X100800000Y-127750000D01*
X101750000Y-120150000D02*
X100800000Y-120150000D01*
X101900000Y-127400000D02*
X101550000Y-127750000D01*
X102350000Y-119550000D02*
X101900000Y-120000000D01*
X101900000Y-120000000D02*
X101750000Y-120150000D01*
X101950000Y-116400000D02*
X102350000Y-116800000D01*
X100800000Y-123950000D02*
X101550000Y-123950000D01*
X101250000Y-116400000D02*
X101950000Y-116400000D01*
X101900000Y-124300000D02*
X101900000Y-127400000D01*
X102350000Y-116800000D02*
X102350000Y-119550000D01*
X101900000Y-120300000D02*
X101900000Y-120000000D01*
X101900000Y-120300000D02*
X101900000Y-123600000D01*
X101750000Y-120150000D02*
X101900000Y-120300000D01*
X92800000Y-120000000D02*
X92800000Y-120650000D01*
X95550000Y-121200000D02*
X96500000Y-120250000D01*
X92800000Y-120650000D02*
X93350000Y-121200000D01*
X93350000Y-121200000D02*
X95550000Y-121200000D01*
X96500000Y-120250000D02*
X96600000Y-120250000D01*
X92800000Y-124450000D02*
X93350000Y-125000000D01*
X92800000Y-123800000D02*
X92800000Y-124450000D01*
X93350000Y-125000000D02*
X95550000Y-125000000D01*
X95550000Y-125000000D02*
X96500000Y-124050000D01*
X96500000Y-124050000D02*
X96600000Y-124050000D01*
X95700000Y-128650000D02*
X96500000Y-127850000D01*
X92800000Y-128250000D02*
X93200000Y-128650000D01*
X92800000Y-127600000D02*
X92800000Y-128250000D01*
X96500000Y-127850000D02*
X96600000Y-127850000D01*
X93200000Y-128650000D02*
X95700000Y-128650000D01*
D24*
X99550000Y-114250000D02*
X99550000Y-115750000D01*
G04 #@! TA.AperFunction,Conductor*
G36*
X107127723Y-106325182D02*
G01*
X107301003Y-106340342D01*
X107313704Y-106342581D01*
X107478604Y-106386765D01*
X107490713Y-106391173D01*
X107645439Y-106463323D01*
X107656600Y-106469767D01*
X107772324Y-106550798D01*
X107796437Y-106567682D01*
X107806318Y-106575973D01*
X107927026Y-106696681D01*
X107935317Y-106706562D01*
X108033229Y-106846394D01*
X108039679Y-106857565D01*
X108111823Y-107012278D01*
X108116235Y-107024400D01*
X108160418Y-107189296D01*
X108162657Y-107201998D01*
X108177818Y-107375276D01*
X108178100Y-107381726D01*
X108178100Y-127505363D01*
X108177911Y-127510642D01*
X108161936Y-127733992D01*
X108160434Y-127744443D01*
X108113396Y-127960676D01*
X108110421Y-127970805D01*
X108107006Y-127979963D01*
X108033093Y-128178129D01*
X108028707Y-128187732D01*
X107922655Y-128381952D01*
X107916947Y-128390834D01*
X107784343Y-128567973D01*
X107777429Y-128575953D01*
X107620953Y-128732429D01*
X107612973Y-128739343D01*
X107435834Y-128871947D01*
X107426952Y-128877655D01*
X107232732Y-128983707D01*
X107223129Y-128988093D01*
X107015807Y-129065421D01*
X107005676Y-129068396D01*
X106789443Y-129115434D01*
X106778992Y-129116936D01*
X106555643Y-129132911D01*
X106550364Y-129133100D01*
X76584227Y-129133100D01*
X76577777Y-129132818D01*
X76404498Y-129117657D01*
X76391796Y-129115418D01*
X76226900Y-129071235D01*
X76214778Y-129066823D01*
X76211771Y-129065421D01*
X76060064Y-128994678D01*
X76048894Y-128988229D01*
X75909062Y-128890317D01*
X75899181Y-128882026D01*
X75778473Y-128761318D01*
X75770182Y-128751437D01*
X75759491Y-128736169D01*
X75672267Y-128611600D01*
X75665823Y-128600439D01*
X75593673Y-128445713D01*
X75589265Y-128433604D01*
X75545081Y-128268703D01*
X75542842Y-128256001D01*
X75541370Y-128239181D01*
X75527682Y-128082723D01*
X75527400Y-128076273D01*
X75527400Y-127998097D01*
X75754500Y-127998097D01*
X75754500Y-128160903D01*
X75763300Y-128205142D01*
X75786260Y-128320575D01*
X75786263Y-128320585D01*
X75848563Y-128470992D01*
X75935097Y-128600499D01*
X75939016Y-128606363D01*
X76054137Y-128721484D01*
X76189505Y-128811935D01*
X76189506Y-128811935D01*
X76189507Y-128811936D01*
X76284355Y-128851223D01*
X76339919Y-128874238D01*
X76499597Y-128906000D01*
X76499599Y-128906000D01*
X76662401Y-128906000D01*
X76662403Y-128906000D01*
X76822081Y-128874238D01*
X76972495Y-128811935D01*
X77107863Y-128721484D01*
X77222984Y-128606363D01*
X77313435Y-128470995D01*
X77375738Y-128320581D01*
X77407500Y-128160903D01*
X77407500Y-127998097D01*
X77375738Y-127838419D01*
X77375736Y-127838414D01*
X77339114Y-127750000D01*
X90455048Y-127750000D01*
X90464504Y-127797544D01*
X90519759Y-127880239D01*
X90519760Y-127880240D01*
X90602454Y-127935494D01*
X90675378Y-127950000D01*
X90950000Y-127950000D01*
X91250000Y-127950000D01*
X91524622Y-127950000D01*
X91597545Y-127935494D01*
X91680239Y-127880240D01*
X91680240Y-127880239D01*
X91735495Y-127797544D01*
X91744952Y-127750000D01*
X91250000Y-127750000D01*
X91250000Y-127950000D01*
X90950000Y-127950000D01*
X90950000Y-127750000D01*
X90455048Y-127750000D01*
X77339114Y-127750000D01*
X77313436Y-127688007D01*
X77222986Y-127552640D01*
X77222984Y-127552637D01*
X77107863Y-127437516D01*
X77056347Y-127403094D01*
X76972492Y-127347063D01*
X76822085Y-127284763D01*
X76822075Y-127284760D01*
X76702687Y-127261013D01*
X76662403Y-127253000D01*
X76499597Y-127253000D01*
X76459313Y-127261013D01*
X76339924Y-127284760D01*
X76339914Y-127284763D01*
X76189507Y-127347063D01*
X76054140Y-127437513D01*
X75939013Y-127552640D01*
X75848563Y-127688007D01*
X75786263Y-127838414D01*
X75786260Y-127838424D01*
X75760614Y-127967359D01*
X75754500Y-127998097D01*
X75527400Y-127998097D01*
X75527400Y-126750000D01*
X89794508Y-126750000D01*
X89814353Y-126875301D01*
X89814353Y-126875302D01*
X89814354Y-126875304D01*
X89871950Y-126988342D01*
X89961658Y-127078050D01*
X90006629Y-127100964D01*
X90074693Y-127135645D01*
X90080233Y-127137445D01*
X90079370Y-127140100D01*
X90109838Y-127155520D01*
X90184788Y-127230470D01*
X90242923Y-127264034D01*
X90264712Y-127276614D01*
X90264713Y-127276614D01*
X90264715Y-127276615D01*
X90299614Y-127285966D01*
X90353853Y-127300499D01*
X90353854Y-127300500D01*
X90395987Y-127300500D01*
X90448313Y-127322174D01*
X90469987Y-127374500D01*
X90465852Y-127395291D01*
X90465927Y-127395306D01*
X90455047Y-127450000D01*
X91744952Y-127450000D01*
X91735495Y-127402455D01*
X91678103Y-127316562D01*
X91667054Y-127261013D01*
X91678103Y-127234338D01*
X91680599Y-127230602D01*
X91680601Y-127230601D01*
X91735966Y-127147740D01*
X91750500Y-127074674D01*
X91750500Y-126825326D01*
X91735966Y-126752260D01*
X91680601Y-126669399D01*
X91680599Y-126669398D01*
X91678404Y-126666112D01*
X91667355Y-126610563D01*
X91678404Y-126583888D01*
X91680599Y-126580601D01*
X91680601Y-126580601D01*
X91735966Y-126497740D01*
X91750500Y-126424674D01*
X91750500Y-126175326D01*
X91735966Y-126102260D01*
X91680601Y-126019399D01*
X91597740Y-125964034D01*
X91597739Y-125964033D01*
X91591680Y-125959985D01*
X91593798Y-125956814D01*
X91563288Y-125926288D01*
X91563303Y-125869651D01*
X91565729Y-125864392D01*
X91585646Y-125825304D01*
X91605492Y-125700000D01*
X91585646Y-125574696D01*
X91528050Y-125461658D01*
X91438342Y-125371950D01*
X91325304Y-125314354D01*
X91325302Y-125314353D01*
X91325301Y-125314353D01*
X91200000Y-125294508D01*
X91074698Y-125314353D01*
X90961656Y-125371951D01*
X90871951Y-125461656D01*
X90814353Y-125574698D01*
X90794508Y-125700000D01*
X90814353Y-125825302D01*
X90814353Y-125825303D01*
X90814354Y-125825304D01*
X90822813Y-125841905D01*
X90827258Y-125898366D01*
X90790475Y-125941434D01*
X90756879Y-125949500D01*
X90675326Y-125949500D01*
X90638557Y-125956814D01*
X90602259Y-125964034D01*
X90519399Y-126019398D01*
X90519398Y-126019399D01*
X90464034Y-126102259D01*
X90449500Y-126175327D01*
X90449500Y-126306878D01*
X90427826Y-126359204D01*
X90375500Y-126380878D01*
X90341906Y-126372813D01*
X90325302Y-126364353D01*
X90325304Y-126364353D01*
X90200000Y-126344508D01*
X90074698Y-126364353D01*
X89961656Y-126421951D01*
X89871951Y-126511656D01*
X89814353Y-126624698D01*
X89794508Y-126750000D01*
X75527400Y-126750000D01*
X75527400Y-123950000D01*
X90455048Y-123950000D01*
X90464504Y-123997544D01*
X90519759Y-124080239D01*
X90519760Y-124080240D01*
X90602454Y-124135494D01*
X90675378Y-124150000D01*
X90950000Y-124150000D01*
X91250000Y-124150000D01*
X91524622Y-124150000D01*
X91597545Y-124135494D01*
X91680239Y-124080240D01*
X91680240Y-124080239D01*
X91735495Y-123997544D01*
X91744952Y-123950000D01*
X91250000Y-123950000D01*
X91250000Y-124150000D01*
X90950000Y-124150000D01*
X90950000Y-123950000D01*
X90455048Y-123950000D01*
X75527400Y-123950000D01*
X75527400Y-122950000D01*
X89794508Y-122950000D01*
X89814353Y-123075301D01*
X89814353Y-123075302D01*
X89814354Y-123075304D01*
X89871950Y-123188342D01*
X89961658Y-123278050D01*
X90006629Y-123300964D01*
X90074693Y-123335645D01*
X90080233Y-123337445D01*
X90079370Y-123340100D01*
X90109838Y-123355520D01*
X90184788Y-123430470D01*
X90242923Y-123464034D01*
X90264712Y-123476614D01*
X90264713Y-123476614D01*
X90264715Y-123476615D01*
X90299614Y-123485966D01*
X90353853Y-123500499D01*
X90353854Y-123500500D01*
X90395987Y-123500500D01*
X90448313Y-123522174D01*
X90469987Y-123574500D01*
X90465852Y-123595291D01*
X90465927Y-123595306D01*
X90455047Y-123650000D01*
X91744952Y-123650000D01*
X91735495Y-123602455D01*
X91678103Y-123516562D01*
X91667054Y-123461013D01*
X91678103Y-123434338D01*
X91680599Y-123430602D01*
X91680601Y-123430601D01*
X91735966Y-123347740D01*
X91750500Y-123274674D01*
X91750500Y-123025326D01*
X91735966Y-122952260D01*
X91680601Y-122869399D01*
X91680599Y-122869398D01*
X91678404Y-122866112D01*
X91667355Y-122810563D01*
X91678404Y-122783888D01*
X91680599Y-122780601D01*
X91680601Y-122780601D01*
X91735966Y-122697740D01*
X91750500Y-122624674D01*
X91750500Y-122375326D01*
X91735966Y-122302260D01*
X91680601Y-122219399D01*
X91597740Y-122164034D01*
X91597739Y-122164033D01*
X91591680Y-122159985D01*
X91593798Y-122156814D01*
X91563288Y-122126288D01*
X91563303Y-122069651D01*
X91565729Y-122064392D01*
X91585646Y-122025304D01*
X91605492Y-121900000D01*
X91585646Y-121774696D01*
X91528050Y-121661658D01*
X91438342Y-121571950D01*
X91325304Y-121514354D01*
X91325302Y-121514353D01*
X91325301Y-121514353D01*
X91200000Y-121494508D01*
X91074698Y-121514353D01*
X90961656Y-121571951D01*
X90871951Y-121661656D01*
X90814353Y-121774698D01*
X90794508Y-121900000D01*
X90814353Y-122025302D01*
X90814353Y-122025303D01*
X90814354Y-122025304D01*
X90822813Y-122041905D01*
X90827258Y-122098366D01*
X90790475Y-122141434D01*
X90756879Y-122149500D01*
X90675326Y-122149500D01*
X90638557Y-122156814D01*
X90602259Y-122164034D01*
X90519399Y-122219398D01*
X90519398Y-122219399D01*
X90464034Y-122302259D01*
X90449500Y-122375327D01*
X90449500Y-122506878D01*
X90427826Y-122559204D01*
X90375500Y-122580878D01*
X90341906Y-122572813D01*
X90325302Y-122564353D01*
X90325304Y-122564353D01*
X90200000Y-122544508D01*
X90074698Y-122564353D01*
X89961656Y-122621951D01*
X89871951Y-122711656D01*
X89814353Y-122824698D01*
X89794508Y-122950000D01*
X75527400Y-122950000D01*
X75527400Y-120150000D01*
X90455048Y-120150000D01*
X90464504Y-120197544D01*
X90519759Y-120280239D01*
X90519760Y-120280240D01*
X90602454Y-120335494D01*
X90675378Y-120350000D01*
X90950000Y-120350000D01*
X91250000Y-120350000D01*
X91524622Y-120350000D01*
X91597545Y-120335494D01*
X91680239Y-120280240D01*
X91680240Y-120280239D01*
X91735495Y-120197544D01*
X91744952Y-120150000D01*
X91250000Y-120150000D01*
X91250000Y-120350000D01*
X90950000Y-120350000D01*
X90950000Y-120150000D01*
X90455048Y-120150000D01*
X75527400Y-120150000D01*
X75527400Y-119150000D01*
X89794508Y-119150000D01*
X89814353Y-119275301D01*
X89814353Y-119275302D01*
X89814354Y-119275304D01*
X89871950Y-119388342D01*
X89961658Y-119478050D01*
X90006629Y-119500964D01*
X90074693Y-119535645D01*
X90080233Y-119537445D01*
X90079370Y-119540100D01*
X90109838Y-119555520D01*
X90184788Y-119630470D01*
X90242923Y-119664034D01*
X90264712Y-119676614D01*
X90264713Y-119676614D01*
X90264715Y-119676615D01*
X90299614Y-119685966D01*
X90353853Y-119700499D01*
X90353854Y-119700500D01*
X90395987Y-119700500D01*
X90448313Y-119722174D01*
X90469987Y-119774500D01*
X90465852Y-119795291D01*
X90465927Y-119795306D01*
X90455047Y-119850000D01*
X91744952Y-119850000D01*
X91735495Y-119802455D01*
X91678103Y-119716562D01*
X91667054Y-119661013D01*
X91678103Y-119634338D01*
X91680599Y-119630602D01*
X91680601Y-119630601D01*
X91735966Y-119547740D01*
X91750500Y-119474674D01*
X91750500Y-119225326D01*
X91735966Y-119152260D01*
X91680601Y-119069399D01*
X91680599Y-119069398D01*
X91678404Y-119066112D01*
X91667355Y-119010563D01*
X91678404Y-118983888D01*
X91680599Y-118980601D01*
X91680601Y-118980601D01*
X91735966Y-118897740D01*
X91750500Y-118824674D01*
X91750500Y-118575326D01*
X91735966Y-118502260D01*
X91680601Y-118419399D01*
X91597740Y-118364034D01*
X91527657Y-118350093D01*
X91480565Y-118318627D01*
X91469516Y-118263078D01*
X91476156Y-118243927D01*
X91485646Y-118225304D01*
X91505492Y-118100000D01*
X91485646Y-117974696D01*
X91428050Y-117861658D01*
X91338342Y-117771950D01*
X91225304Y-117714354D01*
X91225302Y-117714353D01*
X91225301Y-117714353D01*
X91100000Y-117694508D01*
X90974698Y-117714353D01*
X90974696Y-117714353D01*
X90974696Y-117714354D01*
X90945238Y-117729364D01*
X90933095Y-117735551D01*
X90876632Y-117739994D01*
X90833565Y-117703211D01*
X90825500Y-117669616D01*
X90825500Y-117582744D01*
X90847174Y-117530418D01*
X90868224Y-117515677D01*
X90964579Y-117470747D01*
X91045747Y-117389579D01*
X91094259Y-117285545D01*
X91100500Y-117238139D01*
X91100499Y-116561862D01*
X91699500Y-116561862D01*
X91699500Y-117238137D01*
X91705740Y-117285543D01*
X91705741Y-117285545D01*
X91754253Y-117389579D01*
X91827826Y-117463152D01*
X91849500Y-117515478D01*
X91849500Y-117696146D01*
X91861564Y-117741168D01*
X91861564Y-117741169D01*
X91873384Y-117785283D01*
X91873386Y-117785288D01*
X91919530Y-117865212D01*
X91994479Y-117940161D01*
X92010067Y-117970576D01*
X92012555Y-117969768D01*
X92014354Y-117975305D01*
X92071948Y-118088340D01*
X92071950Y-118088342D01*
X92161658Y-118178050D01*
X92204737Y-118200000D01*
X92274695Y-118235646D01*
X92277419Y-118236531D01*
X92278879Y-118237778D01*
X92279886Y-118238291D01*
X92279762Y-118238532D01*
X92320488Y-118273311D01*
X92324934Y-118329774D01*
X92295667Y-118368439D01*
X92219399Y-118419398D01*
X92219398Y-118419399D01*
X92164034Y-118502259D01*
X92164034Y-118502260D01*
X92149500Y-118575326D01*
X92149500Y-118824674D01*
X92153664Y-118845606D01*
X92164034Y-118897740D01*
X92216556Y-118976347D01*
X92219399Y-118980601D01*
X92302260Y-119035966D01*
X92375326Y-119050500D01*
X92753856Y-119050500D01*
X92846144Y-119050500D01*
X93536255Y-119050500D01*
X93573256Y-119060415D01*
X93595410Y-119073206D01*
X93595411Y-119073206D01*
X93595412Y-119073207D01*
X93598170Y-119073945D01*
X93612612Y-119079488D01*
X93624696Y-119085646D01*
X93654537Y-119090372D01*
X93662780Y-119091678D01*
X93670355Y-119093288D01*
X93697273Y-119100500D01*
X93712657Y-119100500D01*
X93724232Y-119101410D01*
X93750000Y-119105492D01*
X93775767Y-119101410D01*
X93787343Y-119100500D01*
X93802727Y-119100500D01*
X93829657Y-119093284D01*
X93837205Y-119091680D01*
X93875304Y-119085646D01*
X93887379Y-119079492D01*
X93901834Y-119073945D01*
X93902766Y-119073694D01*
X93904588Y-119073207D01*
X93939524Y-119053034D01*
X93942884Y-119051210D01*
X93988342Y-119028050D01*
X93988343Y-119028048D01*
X93993050Y-119024629D01*
X93994414Y-119026506D01*
X94039001Y-119008027D01*
X94091331Y-119029690D01*
X94123653Y-119062012D01*
X94232491Y-119115220D01*
X94303051Y-119125500D01*
X94896948Y-119125499D01*
X94950181Y-119117744D01*
X94967504Y-119115221D01*
X94967505Y-119115220D01*
X94967509Y-119115220D01*
X95076347Y-119062012D01*
X95162012Y-118976347D01*
X95162012Y-118976346D01*
X95166185Y-118972174D01*
X95218511Y-118950500D01*
X95447273Y-118950500D01*
X95462657Y-118950500D01*
X95474232Y-118951410D01*
X95500000Y-118955492D01*
X95525767Y-118951410D01*
X95537343Y-118950500D01*
X95705377Y-118950500D01*
X95757703Y-118972174D01*
X95775224Y-119000060D01*
X95797205Y-119062880D01*
X95797207Y-119062883D01*
X95877846Y-119172146D01*
X95877853Y-119172153D01*
X95969942Y-119240117D01*
X95999173Y-119288627D01*
X96000000Y-119299657D01*
X96000000Y-119500342D01*
X95978326Y-119552668D01*
X95969943Y-119559882D01*
X95877850Y-119627849D01*
X95877846Y-119627853D01*
X95797207Y-119737116D01*
X95797206Y-119737118D01*
X95752355Y-119865295D01*
X95752354Y-119865299D01*
X95752354Y-119865301D01*
X95749500Y-119895734D01*
X95749500Y-120604266D01*
X95752354Y-120634699D01*
X95752354Y-120634701D01*
X95752775Y-120639181D01*
X95750173Y-120639424D01*
X95741589Y-120687105D01*
X95731648Y-120699445D01*
X95478269Y-120952826D01*
X95425943Y-120974500D01*
X93474058Y-120974500D01*
X93421732Y-120952826D01*
X93047174Y-120578268D01*
X93025500Y-120525942D01*
X93025500Y-120424500D01*
X93047174Y-120372174D01*
X93099500Y-120350500D01*
X93224672Y-120350500D01*
X93224674Y-120350500D01*
X93297740Y-120335966D01*
X93356219Y-120296892D01*
X93975001Y-120296892D01*
X93975002Y-120296908D01*
X93985264Y-120367359D01*
X93985265Y-120367362D01*
X94038401Y-120476053D01*
X94123946Y-120561598D01*
X94232634Y-120614733D01*
X94303099Y-120624999D01*
X94450000Y-120624999D01*
X94750000Y-120624999D01*
X94896893Y-120624999D01*
X94896908Y-120624997D01*
X94967359Y-120614735D01*
X94967362Y-120614734D01*
X95076053Y-120561598D01*
X95161598Y-120476053D01*
X95214733Y-120367365D01*
X95224999Y-120296905D01*
X95225000Y-120296894D01*
X95225000Y-120200000D01*
X94750000Y-120200000D01*
X94750000Y-120624999D01*
X94450000Y-120624999D01*
X94450000Y-120200000D01*
X93975001Y-120200000D01*
X93975001Y-120296892D01*
X93356219Y-120296892D01*
X93380601Y-120280601D01*
X93435966Y-120197740D01*
X93450500Y-120124674D01*
X93450500Y-119875326D01*
X93436132Y-119803094D01*
X93975000Y-119803094D01*
X93975000Y-119900000D01*
X94450000Y-119900000D01*
X94750000Y-119900000D01*
X95224999Y-119900000D01*
X95224999Y-119803107D01*
X95224997Y-119803091D01*
X95214735Y-119732640D01*
X95214734Y-119732637D01*
X95161598Y-119623946D01*
X95076053Y-119538401D01*
X94967365Y-119485266D01*
X94896905Y-119475000D01*
X94750000Y-119475000D01*
X94750000Y-119900000D01*
X94450000Y-119900000D01*
X94450000Y-119475000D01*
X94303099Y-119475000D01*
X94232640Y-119485264D01*
X94232637Y-119485265D01*
X94123946Y-119538401D01*
X94038401Y-119623946D01*
X93985266Y-119732634D01*
X93975000Y-119803094D01*
X93436132Y-119803094D01*
X93435966Y-119802260D01*
X93380601Y-119719399D01*
X93376355Y-119716562D01*
X93297740Y-119664034D01*
X93224674Y-119649500D01*
X92375326Y-119649500D01*
X92326615Y-119659189D01*
X92302259Y-119664034D01*
X92219399Y-119719398D01*
X92219398Y-119719399D01*
X92164034Y-119802259D01*
X92149500Y-119875327D01*
X92149500Y-120124672D01*
X92164034Y-120197740D01*
X92219157Y-120280240D01*
X92219399Y-120280601D01*
X92302260Y-120335966D01*
X92375326Y-120350500D01*
X92500500Y-120350500D01*
X92552826Y-120372174D01*
X92574500Y-120424500D01*
X92574500Y-120599173D01*
X92574499Y-120599187D01*
X92574499Y-120694856D01*
X92598773Y-120753458D01*
X92608829Y-120777734D01*
X92608832Y-120777738D01*
X92682671Y-120851577D01*
X92682672Y-120851577D01*
X93158829Y-121327735D01*
X93158830Y-121327736D01*
X93222264Y-121391170D01*
X93305145Y-121425500D01*
X95496525Y-121425500D01*
X95496533Y-121425501D01*
X95505145Y-121425501D01*
X95594854Y-121425501D01*
X95594855Y-121425501D01*
X95653460Y-121401225D01*
X95677736Y-121391170D01*
X95741170Y-121327736D01*
X95741170Y-121327735D01*
X95751575Y-121317330D01*
X95751577Y-121317327D01*
X96050553Y-121018350D01*
X96102878Y-120996677D01*
X96110788Y-120997530D01*
X96110817Y-120997225D01*
X96115298Y-120997645D01*
X96115301Y-120997646D01*
X96145734Y-121000500D01*
X96207831Y-121000500D01*
X96260157Y-121022174D01*
X96281831Y-121074500D01*
X96273764Y-121108098D01*
X96248792Y-121157104D01*
X96246946Y-121160504D01*
X96226793Y-121195410D01*
X96226789Y-121195421D01*
X96226049Y-121198183D01*
X96220512Y-121212608D01*
X96214353Y-121224696D01*
X96208319Y-121262791D01*
X96206710Y-121270361D01*
X96199500Y-121297274D01*
X96199500Y-121312656D01*
X96198589Y-121324232D01*
X96194508Y-121349999D01*
X96198589Y-121375766D01*
X96199500Y-121387342D01*
X96199500Y-121527073D01*
X96177826Y-121579399D01*
X96132411Y-121600749D01*
X96115301Y-121602354D01*
X96115299Y-121602354D01*
X96115295Y-121602355D01*
X95987118Y-121647206D01*
X95987116Y-121647207D01*
X95877853Y-121727846D01*
X95877846Y-121727853D01*
X95797207Y-121837116D01*
X95797205Y-121837119D01*
X95775224Y-121899940D01*
X95737485Y-121942172D01*
X95705377Y-121949500D01*
X95537343Y-121949500D01*
X95525767Y-121948589D01*
X95500000Y-121944508D01*
X95474233Y-121948589D01*
X95462657Y-121949500D01*
X95218511Y-121949500D01*
X95166185Y-121927826D01*
X95076347Y-121837988D01*
X94967510Y-121784780D01*
X94932229Y-121779640D01*
X94896949Y-121774500D01*
X94896948Y-121774500D01*
X94303059Y-121774500D01*
X94303043Y-121774502D01*
X94232495Y-121784778D01*
X94232492Y-121784779D01*
X94123652Y-121837988D01*
X94033815Y-121927826D01*
X93981489Y-121949500D01*
X93952727Y-121949500D01*
X93847273Y-121949500D01*
X93796342Y-121963146D01*
X93745411Y-121976793D01*
X93745407Y-121976795D01*
X93654090Y-122029517D01*
X93555781Y-122127826D01*
X93503455Y-122149500D01*
X93243121Y-122149500D01*
X93190795Y-122127826D01*
X93169121Y-122075500D01*
X93177186Y-122041906D01*
X93185646Y-122025304D01*
X93205492Y-121900000D01*
X93185646Y-121774696D01*
X93128050Y-121661658D01*
X93038342Y-121571950D01*
X92925304Y-121514354D01*
X92925302Y-121514353D01*
X92925301Y-121514353D01*
X92800000Y-121494508D01*
X92674698Y-121514353D01*
X92561656Y-121571951D01*
X92471951Y-121661656D01*
X92414353Y-121774698D01*
X92394508Y-121900000D01*
X92414353Y-122025301D01*
X92414353Y-122025302D01*
X92414354Y-122025304D01*
X92423840Y-122043921D01*
X92428283Y-122100383D01*
X92391500Y-122143450D01*
X92372343Y-122150093D01*
X92302259Y-122164034D01*
X92219399Y-122219398D01*
X92219398Y-122219399D01*
X92164034Y-122302259D01*
X92164034Y-122302260D01*
X92149500Y-122375326D01*
X92149500Y-122624674D01*
X92155067Y-122652661D01*
X92164034Y-122697740D01*
X92216556Y-122776347D01*
X92219399Y-122780601D01*
X92302260Y-122835966D01*
X92375326Y-122850500D01*
X92753856Y-122850500D01*
X92846144Y-122850500D01*
X93536255Y-122850500D01*
X93573256Y-122860415D01*
X93595410Y-122873206D01*
X93595411Y-122873206D01*
X93595412Y-122873207D01*
X93598170Y-122873945D01*
X93612612Y-122879488D01*
X93624696Y-122885646D01*
X93654537Y-122890372D01*
X93662780Y-122891678D01*
X93670355Y-122893288D01*
X93697273Y-122900500D01*
X93712657Y-122900500D01*
X93724232Y-122901410D01*
X93750000Y-122905492D01*
X93775767Y-122901410D01*
X93787343Y-122900500D01*
X93802727Y-122900500D01*
X93829657Y-122893284D01*
X93837205Y-122891680D01*
X93875304Y-122885646D01*
X93887379Y-122879492D01*
X93901834Y-122873945D01*
X93902766Y-122873694D01*
X93904588Y-122873207D01*
X93939524Y-122853034D01*
X93942884Y-122851210D01*
X93988342Y-122828050D01*
X93988343Y-122828048D01*
X93993050Y-122824629D01*
X93994414Y-122826506D01*
X94039001Y-122808027D01*
X94091331Y-122829690D01*
X94123653Y-122862012D01*
X94232491Y-122915220D01*
X94303051Y-122925500D01*
X94896948Y-122925499D01*
X94950181Y-122917744D01*
X94967504Y-122915221D01*
X94967505Y-122915220D01*
X94967509Y-122915220D01*
X95076347Y-122862012D01*
X95162012Y-122776347D01*
X95162012Y-122776346D01*
X95166185Y-122772174D01*
X95218511Y-122750500D01*
X95447273Y-122750500D01*
X95462657Y-122750500D01*
X95474232Y-122751410D01*
X95500000Y-122755492D01*
X95525767Y-122751410D01*
X95537343Y-122750500D01*
X95705377Y-122750500D01*
X95757703Y-122772174D01*
X95775224Y-122800060D01*
X95797205Y-122862880D01*
X95797207Y-122862883D01*
X95877846Y-122972146D01*
X95877853Y-122972153D01*
X95969942Y-123040117D01*
X95999173Y-123088627D01*
X96000000Y-123099657D01*
X96000000Y-123300342D01*
X95978326Y-123352668D01*
X95969943Y-123359882D01*
X95877850Y-123427849D01*
X95877846Y-123427853D01*
X95797207Y-123537116D01*
X95797206Y-123537118D01*
X95752355Y-123665295D01*
X95752354Y-123665299D01*
X95752354Y-123665301D01*
X95749500Y-123695734D01*
X95749500Y-124404266D01*
X95752354Y-124434699D01*
X95752354Y-124434701D01*
X95752775Y-124439181D01*
X95750173Y-124439424D01*
X95741589Y-124487105D01*
X95731648Y-124499445D01*
X95478269Y-124752826D01*
X95425943Y-124774500D01*
X93474058Y-124774500D01*
X93421732Y-124752826D01*
X93047174Y-124378268D01*
X93025500Y-124325942D01*
X93025500Y-124224500D01*
X93047174Y-124172174D01*
X93099500Y-124150500D01*
X93224672Y-124150500D01*
X93224674Y-124150500D01*
X93297740Y-124135966D01*
X93356219Y-124096892D01*
X93975001Y-124096892D01*
X93975002Y-124096908D01*
X93985264Y-124167359D01*
X93985265Y-124167362D01*
X94038401Y-124276053D01*
X94123946Y-124361598D01*
X94232634Y-124414733D01*
X94303099Y-124424999D01*
X94450000Y-124424999D01*
X94750000Y-124424999D01*
X94896893Y-124424999D01*
X94896908Y-124424997D01*
X94967359Y-124414735D01*
X94967362Y-124414734D01*
X95076053Y-124361598D01*
X95161598Y-124276053D01*
X95214733Y-124167365D01*
X95224999Y-124096905D01*
X95225000Y-124096894D01*
X95225000Y-124000000D01*
X94750000Y-124000000D01*
X94750000Y-124424999D01*
X94450000Y-124424999D01*
X94450000Y-124000000D01*
X93975001Y-124000000D01*
X93975001Y-124096892D01*
X93356219Y-124096892D01*
X93380601Y-124080601D01*
X93435966Y-123997740D01*
X93450500Y-123924674D01*
X93450500Y-123675326D01*
X93436132Y-123603094D01*
X93975000Y-123603094D01*
X93975000Y-123700000D01*
X94450000Y-123700000D01*
X94750000Y-123700000D01*
X95224999Y-123700000D01*
X95224999Y-123603107D01*
X95224997Y-123603091D01*
X95214735Y-123532640D01*
X95214734Y-123532637D01*
X95161598Y-123423946D01*
X95076053Y-123338401D01*
X94967365Y-123285266D01*
X94896905Y-123275000D01*
X94750000Y-123275000D01*
X94750000Y-123700000D01*
X94450000Y-123700000D01*
X94450000Y-123275000D01*
X94303099Y-123275000D01*
X94232640Y-123285264D01*
X94232637Y-123285265D01*
X94123946Y-123338401D01*
X94038401Y-123423946D01*
X93985266Y-123532634D01*
X93975000Y-123603094D01*
X93436132Y-123603094D01*
X93435966Y-123602260D01*
X93380601Y-123519399D01*
X93376355Y-123516562D01*
X93297740Y-123464034D01*
X93224674Y-123449500D01*
X92375326Y-123449500D01*
X92326615Y-123459189D01*
X92302259Y-123464034D01*
X92219399Y-123519398D01*
X92219398Y-123519399D01*
X92164034Y-123602259D01*
X92156767Y-123638793D01*
X92151736Y-123664088D01*
X92149500Y-123675327D01*
X92149500Y-123924672D01*
X92164034Y-123997740D01*
X92219157Y-124080240D01*
X92219399Y-124080601D01*
X92302260Y-124135966D01*
X92375326Y-124150500D01*
X92500500Y-124150500D01*
X92552826Y-124172174D01*
X92574500Y-124224500D01*
X92574500Y-124399173D01*
X92574499Y-124399187D01*
X92574499Y-124494856D01*
X92598773Y-124553458D01*
X92608829Y-124577734D01*
X92608832Y-124577738D01*
X92682671Y-124651577D01*
X92682672Y-124651577D01*
X93158829Y-125127735D01*
X93158830Y-125127736D01*
X93222264Y-125191170D01*
X93305145Y-125225500D01*
X95496525Y-125225500D01*
X95496533Y-125225501D01*
X95505145Y-125225501D01*
X95594854Y-125225501D01*
X95594855Y-125225501D01*
X95653460Y-125201225D01*
X95677736Y-125191170D01*
X95741170Y-125127736D01*
X95741170Y-125127735D01*
X95751575Y-125117330D01*
X95751577Y-125117327D01*
X96050553Y-124818350D01*
X96102878Y-124796677D01*
X96110788Y-124797530D01*
X96110817Y-124797225D01*
X96115298Y-124797645D01*
X96115301Y-124797646D01*
X96145734Y-124800500D01*
X96207831Y-124800500D01*
X96260157Y-124822174D01*
X96281831Y-124874500D01*
X96273764Y-124908098D01*
X96248792Y-124957104D01*
X96246946Y-124960504D01*
X96226793Y-124995410D01*
X96226789Y-124995421D01*
X96226049Y-124998183D01*
X96220512Y-125012608D01*
X96214353Y-125024696D01*
X96208319Y-125062791D01*
X96206710Y-125070361D01*
X96199500Y-125097274D01*
X96199500Y-125112656D01*
X96198589Y-125124232D01*
X96194508Y-125149999D01*
X96198589Y-125175766D01*
X96199500Y-125187342D01*
X96199500Y-125327073D01*
X96177826Y-125379399D01*
X96132411Y-125400749D01*
X96115301Y-125402354D01*
X96115299Y-125402354D01*
X96115295Y-125402355D01*
X95987118Y-125447206D01*
X95987116Y-125447207D01*
X95877853Y-125527846D01*
X95877846Y-125527853D01*
X95797207Y-125637116D01*
X95797205Y-125637119D01*
X95775224Y-125699940D01*
X95737485Y-125742172D01*
X95705377Y-125749500D01*
X95537343Y-125749500D01*
X95525767Y-125748589D01*
X95500000Y-125744508D01*
X95474233Y-125748589D01*
X95462657Y-125749500D01*
X95218511Y-125749500D01*
X95166185Y-125727826D01*
X95076347Y-125637988D01*
X94967510Y-125584780D01*
X94932229Y-125579640D01*
X94896949Y-125574500D01*
X94896948Y-125574500D01*
X94303059Y-125574500D01*
X94303043Y-125574502D01*
X94232495Y-125584778D01*
X94232492Y-125584779D01*
X94123652Y-125637988D01*
X94033815Y-125727826D01*
X93981489Y-125749500D01*
X93952727Y-125749500D01*
X93847273Y-125749500D01*
X93796342Y-125763146D01*
X93745411Y-125776793D01*
X93745407Y-125776795D01*
X93654090Y-125829517D01*
X93555781Y-125927826D01*
X93503455Y-125949500D01*
X93243121Y-125949500D01*
X93190795Y-125927826D01*
X93169121Y-125875500D01*
X93177186Y-125841906D01*
X93185646Y-125825304D01*
X93205492Y-125700000D01*
X93185646Y-125574696D01*
X93128050Y-125461658D01*
X93038342Y-125371950D01*
X92925304Y-125314354D01*
X92925302Y-125314353D01*
X92925301Y-125314353D01*
X92800000Y-125294508D01*
X92674698Y-125314353D01*
X92561656Y-125371951D01*
X92471951Y-125461656D01*
X92414353Y-125574698D01*
X92394508Y-125700000D01*
X92414353Y-125825301D01*
X92414353Y-125825302D01*
X92414354Y-125825304D01*
X92423840Y-125843921D01*
X92428283Y-125900383D01*
X92391500Y-125943450D01*
X92372343Y-125950093D01*
X92302259Y-125964034D01*
X92219399Y-126019398D01*
X92219398Y-126019399D01*
X92164034Y-126102259D01*
X92164034Y-126102260D01*
X92149500Y-126175326D01*
X92149500Y-126424674D01*
X92153664Y-126445606D01*
X92164034Y-126497740D01*
X92216556Y-126576347D01*
X92219399Y-126580601D01*
X92302260Y-126635966D01*
X92375326Y-126650500D01*
X92753856Y-126650500D01*
X92846144Y-126650500D01*
X93536255Y-126650500D01*
X93573256Y-126660415D01*
X93595410Y-126673206D01*
X93595411Y-126673206D01*
X93595412Y-126673207D01*
X93598170Y-126673945D01*
X93612612Y-126679488D01*
X93624696Y-126685646D01*
X93654537Y-126690372D01*
X93662780Y-126691678D01*
X93670355Y-126693288D01*
X93697273Y-126700500D01*
X93712657Y-126700500D01*
X93724232Y-126701410D01*
X93750000Y-126705492D01*
X93775767Y-126701410D01*
X93787343Y-126700500D01*
X93802727Y-126700500D01*
X93829657Y-126693284D01*
X93837205Y-126691680D01*
X93875304Y-126685646D01*
X93887379Y-126679492D01*
X93901834Y-126673945D01*
X93902766Y-126673694D01*
X93904588Y-126673207D01*
X93939524Y-126653034D01*
X93942884Y-126651210D01*
X93988342Y-126628050D01*
X93988343Y-126628048D01*
X93993050Y-126624629D01*
X93994414Y-126626506D01*
X94039001Y-126608027D01*
X94091331Y-126629690D01*
X94123653Y-126662012D01*
X94232491Y-126715220D01*
X94303051Y-126725500D01*
X94896948Y-126725499D01*
X94950181Y-126717744D01*
X94967504Y-126715221D01*
X94967505Y-126715220D01*
X94967509Y-126715220D01*
X95076347Y-126662012D01*
X95162012Y-126576347D01*
X95162012Y-126576346D01*
X95166185Y-126572174D01*
X95218511Y-126550500D01*
X95447273Y-126550500D01*
X95462657Y-126550500D01*
X95474232Y-126551410D01*
X95500000Y-126555492D01*
X95525767Y-126551410D01*
X95537343Y-126550500D01*
X95705377Y-126550500D01*
X95757703Y-126572174D01*
X95775224Y-126600060D01*
X95797205Y-126662880D01*
X95797207Y-126662883D01*
X95877846Y-126772146D01*
X95877853Y-126772153D01*
X95969942Y-126840117D01*
X95999173Y-126888627D01*
X96000000Y-126899657D01*
X96000000Y-127100342D01*
X95978326Y-127152668D01*
X95969943Y-127159882D01*
X95877850Y-127227849D01*
X95877846Y-127227853D01*
X95797207Y-127337116D01*
X95797206Y-127337118D01*
X95752355Y-127465295D01*
X95752354Y-127465299D01*
X95752354Y-127465301D01*
X95749500Y-127495734D01*
X95749500Y-128204266D01*
X95752354Y-128234699D01*
X95752354Y-128234701D01*
X95752775Y-128239181D01*
X95750173Y-128239424D01*
X95741589Y-128287105D01*
X95731648Y-128299444D01*
X95628269Y-128402825D01*
X95575944Y-128424500D01*
X93324058Y-128424500D01*
X93271732Y-128402826D01*
X93047174Y-128178268D01*
X93025500Y-128125942D01*
X93025500Y-128024500D01*
X93047174Y-127972174D01*
X93099500Y-127950500D01*
X93224672Y-127950500D01*
X93224674Y-127950500D01*
X93297740Y-127935966D01*
X93356219Y-127896892D01*
X93975001Y-127896892D01*
X93975002Y-127896908D01*
X93985264Y-127967359D01*
X93985265Y-127967362D01*
X94038401Y-128076053D01*
X94123946Y-128161598D01*
X94232634Y-128214733D01*
X94303099Y-128224999D01*
X94450000Y-128224999D01*
X94750000Y-128224999D01*
X94896893Y-128224999D01*
X94896908Y-128224997D01*
X94967359Y-128214735D01*
X94967362Y-128214734D01*
X95076053Y-128161598D01*
X95161598Y-128076053D01*
X95214733Y-127967365D01*
X95224999Y-127896905D01*
X95225000Y-127896894D01*
X95225000Y-127800000D01*
X94750000Y-127800000D01*
X94750000Y-128224999D01*
X94450000Y-128224999D01*
X94450000Y-127800000D01*
X93975001Y-127800000D01*
X93975001Y-127896892D01*
X93356219Y-127896892D01*
X93380601Y-127880601D01*
X93435966Y-127797740D01*
X93450500Y-127724674D01*
X93450500Y-127475326D01*
X93436132Y-127403094D01*
X93975000Y-127403094D01*
X93975000Y-127500000D01*
X94450000Y-127500000D01*
X94750000Y-127500000D01*
X95224999Y-127500000D01*
X95224999Y-127403107D01*
X95224997Y-127403091D01*
X95214735Y-127332640D01*
X95214734Y-127332637D01*
X95161598Y-127223946D01*
X95076053Y-127138401D01*
X94967365Y-127085266D01*
X94896905Y-127075000D01*
X94750000Y-127075000D01*
X94750000Y-127500000D01*
X94450000Y-127500000D01*
X94450000Y-127075000D01*
X94303099Y-127075000D01*
X94232640Y-127085264D01*
X94232637Y-127085265D01*
X94123946Y-127138401D01*
X94038401Y-127223946D01*
X93985266Y-127332634D01*
X93975000Y-127403094D01*
X93436132Y-127403094D01*
X93435966Y-127402260D01*
X93380601Y-127319399D01*
X93379767Y-127318842D01*
X93297740Y-127264034D01*
X93224674Y-127249500D01*
X92375326Y-127249500D01*
X92326615Y-127259189D01*
X92302259Y-127264034D01*
X92219399Y-127319398D01*
X92219398Y-127319399D01*
X92164034Y-127402259D01*
X92162187Y-127411545D01*
X92149500Y-127475326D01*
X92149500Y-127724674D01*
X92154538Y-127750000D01*
X92164034Y-127797740D01*
X92219157Y-127880240D01*
X92219399Y-127880601D01*
X92302260Y-127935966D01*
X92375326Y-127950500D01*
X92500500Y-127950500D01*
X92552826Y-127972174D01*
X92574500Y-128024500D01*
X92574500Y-128199173D01*
X92574499Y-128199187D01*
X92574499Y-128294856D01*
X92598773Y-128353458D01*
X92608829Y-128377734D01*
X92608832Y-128377738D01*
X92682671Y-128451577D01*
X92682672Y-128451577D01*
X93008829Y-128777735D01*
X93008830Y-128777736D01*
X93072264Y-128841170D01*
X93155145Y-128875500D01*
X95646525Y-128875500D01*
X95646533Y-128875501D01*
X95655145Y-128875501D01*
X95744854Y-128875501D01*
X95744855Y-128875501D01*
X95803460Y-128851225D01*
X95827736Y-128841170D01*
X95891170Y-128777736D01*
X95891170Y-128777735D01*
X95901575Y-128767330D01*
X95901577Y-128767327D01*
X96050553Y-128618350D01*
X96102878Y-128596677D01*
X96110788Y-128597530D01*
X96110817Y-128597225D01*
X96115298Y-128597645D01*
X96115301Y-128597646D01*
X96145734Y-128600500D01*
X96145740Y-128600500D01*
X97054258Y-128600500D01*
X97054266Y-128600500D01*
X97084699Y-128597646D01*
X97212882Y-128552793D01*
X97322150Y-128472150D01*
X97337333Y-128451578D01*
X97390117Y-128380058D01*
X97438627Y-128350827D01*
X97449657Y-128350000D01*
X97950964Y-128350000D01*
X98003290Y-128371674D01*
X98010504Y-128380057D01*
X98078207Y-128471791D01*
X98078208Y-128471792D01*
X98187356Y-128552347D01*
X98187355Y-128552347D01*
X98315385Y-128597146D01*
X98315393Y-128597148D01*
X98345802Y-128599999D01*
X98650000Y-128599999D01*
X98650000Y-128424000D01*
X98671674Y-128371674D01*
X98724000Y-128350000D01*
X98876000Y-128350000D01*
X98928326Y-128371674D01*
X98950000Y-128424000D01*
X98950000Y-128599999D01*
X99254194Y-128599999D01*
X99254205Y-128599998D01*
X99284602Y-128597149D01*
X99284611Y-128597147D01*
X99412643Y-128552347D01*
X99521791Y-128471792D01*
X99521792Y-128471791D01*
X99602347Y-128362643D01*
X99647146Y-128234614D01*
X99647148Y-128234606D01*
X99649999Y-128204198D01*
X99650000Y-128204197D01*
X99650000Y-128000000D01*
X99474000Y-128000000D01*
X99421674Y-127978326D01*
X99400000Y-127926000D01*
X99400000Y-127774000D01*
X99421674Y-127721674D01*
X99474000Y-127700000D01*
X99649999Y-127700000D01*
X99649999Y-127495806D01*
X99649998Y-127495794D01*
X99647149Y-127465397D01*
X99647147Y-127465388D01*
X99602347Y-127337356D01*
X99521792Y-127228208D01*
X99521791Y-127228207D01*
X99430057Y-127160504D01*
X99400826Y-127111993D01*
X99400000Y-127100964D01*
X99400000Y-126899657D01*
X99421674Y-126847331D01*
X99430058Y-126840117D01*
X99522146Y-126772153D01*
X99522146Y-126772152D01*
X99522150Y-126772150D01*
X99602793Y-126662882D01*
X99602794Y-126662880D01*
X99624776Y-126600060D01*
X99662515Y-126557828D01*
X99694623Y-126550500D01*
X100234522Y-126550500D01*
X100286848Y-126572174D01*
X100310421Y-126595747D01*
X100414455Y-126644259D01*
X100461861Y-126650500D01*
X101138138Y-126650499D01*
X101185545Y-126644259D01*
X101289579Y-126595747D01*
X101370747Y-126514579D01*
X101419259Y-126410545D01*
X101425500Y-126363139D01*
X101425499Y-125936862D01*
X101419259Y-125889455D01*
X101370747Y-125785421D01*
X101289579Y-125704253D01*
X101185545Y-125655741D01*
X101185543Y-125655740D01*
X101150619Y-125651142D01*
X101138139Y-125649500D01*
X101138137Y-125649500D01*
X100461862Y-125649500D01*
X100414456Y-125655740D01*
X100414454Y-125655741D01*
X100310420Y-125704253D01*
X100286848Y-125727826D01*
X100234522Y-125749500D01*
X99694623Y-125749500D01*
X99642297Y-125727826D01*
X99624776Y-125699940D01*
X99602794Y-125637119D01*
X99602792Y-125637116D01*
X99522153Y-125527853D01*
X99522146Y-125527846D01*
X99412883Y-125447207D01*
X99412881Y-125447206D01*
X99284704Y-125402355D01*
X99284705Y-125402355D01*
X99284700Y-125402354D01*
X99284699Y-125402354D01*
X99254266Y-125399500D01*
X98345734Y-125399500D01*
X98315301Y-125402354D01*
X98315299Y-125402354D01*
X98315295Y-125402355D01*
X98187118Y-125447206D01*
X98187116Y-125447207D01*
X98077853Y-125527846D01*
X98077846Y-125527853D01*
X98009883Y-125619942D01*
X97961373Y-125649173D01*
X97950343Y-125650000D01*
X97449657Y-125650000D01*
X97397331Y-125628326D01*
X97390117Y-125619942D01*
X97322153Y-125527853D01*
X97322146Y-125527846D01*
X97212883Y-125447207D01*
X97212881Y-125447206D01*
X97084704Y-125402355D01*
X97084705Y-125402355D01*
X97084700Y-125402354D01*
X97084699Y-125402354D01*
X97067588Y-125400749D01*
X97017517Y-125374284D01*
X97000500Y-125327073D01*
X97000500Y-125187342D01*
X97001411Y-125175766D01*
X97005492Y-125149999D01*
X97001411Y-125124232D01*
X97000500Y-125112656D01*
X97000500Y-125097271D01*
X96993288Y-125070359D01*
X96991679Y-125062790D01*
X96985646Y-125024696D01*
X96979487Y-125012608D01*
X96973946Y-124998171D01*
X96973924Y-124998089D01*
X96973207Y-124995413D01*
X96953051Y-124960502D01*
X96951212Y-124957117D01*
X96928050Y-124911658D01*
X96928048Y-124911656D01*
X96926234Y-124908095D01*
X96921791Y-124851632D01*
X96958574Y-124808565D01*
X96992169Y-124800500D01*
X97054258Y-124800500D01*
X97054266Y-124800500D01*
X97084699Y-124797646D01*
X97212882Y-124752793D01*
X97322150Y-124672150D01*
X97337333Y-124651578D01*
X97390117Y-124580058D01*
X97438627Y-124550827D01*
X97449657Y-124550000D01*
X97950964Y-124550000D01*
X98003290Y-124571674D01*
X98010504Y-124580057D01*
X98078207Y-124671791D01*
X98078208Y-124671792D01*
X98187356Y-124752347D01*
X98187355Y-124752347D01*
X98315385Y-124797146D01*
X98315393Y-124797148D01*
X98345802Y-124799999D01*
X98650000Y-124799999D01*
X98650000Y-124624000D01*
X98671674Y-124571674D01*
X98724000Y-124550000D01*
X98876000Y-124550000D01*
X98928326Y-124571674D01*
X98950000Y-124624000D01*
X98950000Y-124799999D01*
X99254194Y-124799999D01*
X99254205Y-124799998D01*
X99284602Y-124797149D01*
X99284611Y-124797147D01*
X99412643Y-124752347D01*
X99521791Y-124671792D01*
X99521792Y-124671791D01*
X99602347Y-124562643D01*
X99647146Y-124434614D01*
X99647148Y-124434606D01*
X99649999Y-124404198D01*
X99650000Y-124404197D01*
X99650000Y-124200000D01*
X99474000Y-124200000D01*
X99421674Y-124178326D01*
X99400000Y-124126000D01*
X99400000Y-123974000D01*
X99421674Y-123921674D01*
X99474000Y-123900000D01*
X99649999Y-123900000D01*
X99649999Y-123695806D01*
X99649998Y-123695794D01*
X99647149Y-123665397D01*
X99647147Y-123665388D01*
X99602347Y-123537356D01*
X99521792Y-123428208D01*
X99521791Y-123428207D01*
X99430057Y-123360504D01*
X99400826Y-123311993D01*
X99400000Y-123300964D01*
X99400000Y-123099657D01*
X99421674Y-123047331D01*
X99430058Y-123040117D01*
X99522146Y-122972153D01*
X99522146Y-122972152D01*
X99522150Y-122972150D01*
X99602793Y-122862882D01*
X99602794Y-122862880D01*
X99624776Y-122800060D01*
X99662515Y-122757828D01*
X99694623Y-122750500D01*
X100234522Y-122750500D01*
X100286848Y-122772174D01*
X100310421Y-122795747D01*
X100414455Y-122844259D01*
X100461861Y-122850500D01*
X101138138Y-122850499D01*
X101185545Y-122844259D01*
X101289579Y-122795747D01*
X101370747Y-122714579D01*
X101419259Y-122610545D01*
X101425500Y-122563139D01*
X101425499Y-122136862D01*
X101419259Y-122089455D01*
X101370747Y-121985421D01*
X101289579Y-121904253D01*
X101185545Y-121855741D01*
X101185543Y-121855740D01*
X101150619Y-121851142D01*
X101138139Y-121849500D01*
X101138137Y-121849500D01*
X100461862Y-121849500D01*
X100414456Y-121855740D01*
X100414454Y-121855741D01*
X100310420Y-121904253D01*
X100286848Y-121927826D01*
X100234522Y-121949500D01*
X99694623Y-121949500D01*
X99642297Y-121927826D01*
X99624776Y-121899940D01*
X99602794Y-121837119D01*
X99602792Y-121837116D01*
X99522153Y-121727853D01*
X99522146Y-121727846D01*
X99412883Y-121647207D01*
X99412881Y-121647206D01*
X99284704Y-121602355D01*
X99284705Y-121602355D01*
X99284700Y-121602354D01*
X99284699Y-121602354D01*
X99254266Y-121599500D01*
X98345734Y-121599500D01*
X98315301Y-121602354D01*
X98315299Y-121602354D01*
X98315295Y-121602355D01*
X98187118Y-121647206D01*
X98187116Y-121647207D01*
X98077853Y-121727846D01*
X98077846Y-121727853D01*
X98009883Y-121819942D01*
X97961373Y-121849173D01*
X97950343Y-121850000D01*
X97449657Y-121850000D01*
X97397331Y-121828326D01*
X97390117Y-121819942D01*
X97322153Y-121727853D01*
X97322146Y-121727846D01*
X97212883Y-121647207D01*
X97212881Y-121647206D01*
X97084704Y-121602355D01*
X97084705Y-121602355D01*
X97084700Y-121602354D01*
X97084699Y-121602354D01*
X97067588Y-121600749D01*
X97017517Y-121574284D01*
X97000500Y-121527073D01*
X97000500Y-121387342D01*
X97001411Y-121375766D01*
X97005492Y-121349999D01*
X97001411Y-121324232D01*
X97000500Y-121312656D01*
X97000500Y-121297271D01*
X96993288Y-121270359D01*
X96991679Y-121262790D01*
X96985646Y-121224696D01*
X96979487Y-121212608D01*
X96973946Y-121198171D01*
X96973924Y-121198089D01*
X96973207Y-121195413D01*
X96953051Y-121160502D01*
X96951212Y-121157117D01*
X96928050Y-121111658D01*
X96928048Y-121111656D01*
X96926234Y-121108095D01*
X96921791Y-121051632D01*
X96958574Y-121008565D01*
X96992169Y-121000500D01*
X97054258Y-121000500D01*
X97054266Y-121000500D01*
X97084699Y-120997646D01*
X97212882Y-120952793D01*
X97322150Y-120872150D01*
X97337333Y-120851578D01*
X97390117Y-120780058D01*
X97438627Y-120750827D01*
X97449657Y-120750000D01*
X97950964Y-120750000D01*
X98003290Y-120771674D01*
X98010504Y-120780057D01*
X98078207Y-120871791D01*
X98078208Y-120871792D01*
X98187356Y-120952347D01*
X98187355Y-120952347D01*
X98315385Y-120997146D01*
X98315393Y-120997148D01*
X98345802Y-120999999D01*
X98650000Y-120999999D01*
X98650000Y-120824000D01*
X98671674Y-120771674D01*
X98724000Y-120750000D01*
X98876000Y-120750000D01*
X98928326Y-120771674D01*
X98950000Y-120824000D01*
X98950000Y-120999999D01*
X99254194Y-120999999D01*
X99254205Y-120999998D01*
X99284602Y-120997149D01*
X99284611Y-120997147D01*
X99412643Y-120952347D01*
X99521791Y-120871792D01*
X99521792Y-120871791D01*
X99602347Y-120762643D01*
X99647146Y-120634614D01*
X99647148Y-120634606D01*
X99649999Y-120604198D01*
X99650000Y-120604197D01*
X99650000Y-120400000D01*
X99474000Y-120400000D01*
X99421674Y-120378326D01*
X99400000Y-120326000D01*
X99400000Y-120174000D01*
X99421674Y-120121674D01*
X99474000Y-120100000D01*
X99649999Y-120100000D01*
X99649999Y-119936862D01*
X100174500Y-119936862D01*
X100174500Y-120363137D01*
X100180740Y-120410543D01*
X100180741Y-120410545D01*
X100229253Y-120514579D01*
X100310421Y-120595747D01*
X100414455Y-120644259D01*
X100461861Y-120650500D01*
X101138138Y-120650499D01*
X101185545Y-120644259D01*
X101289579Y-120595747D01*
X101370747Y-120514579D01*
X101415677Y-120418225D01*
X101457435Y-120379963D01*
X101482744Y-120375500D01*
X101600500Y-120375500D01*
X101652826Y-120397174D01*
X101674500Y-120449500D01*
X101674500Y-123475943D01*
X101652826Y-123528269D01*
X101517006Y-123664088D01*
X101464680Y-123685762D01*
X101412354Y-123664088D01*
X101397613Y-123643036D01*
X101378988Y-123603094D01*
X101370747Y-123585421D01*
X101289579Y-123504253D01*
X101185545Y-123455741D01*
X101185543Y-123455740D01*
X101150619Y-123451142D01*
X101138139Y-123449500D01*
X101138137Y-123449500D01*
X100461862Y-123449500D01*
X100414456Y-123455740D01*
X100414454Y-123455741D01*
X100310420Y-123504253D01*
X100229253Y-123585420D01*
X100180740Y-123689456D01*
X100174500Y-123736862D01*
X100174500Y-124163137D01*
X100180740Y-124210543D01*
X100180741Y-124210545D01*
X100229253Y-124314579D01*
X100310421Y-124395747D01*
X100414455Y-124444259D01*
X100461861Y-124450500D01*
X101138138Y-124450499D01*
X101185545Y-124444259D01*
X101289579Y-124395747D01*
X101370747Y-124314579D01*
X101397613Y-124256963D01*
X101439370Y-124218700D01*
X101495953Y-124221170D01*
X101517006Y-124235911D01*
X101652826Y-124371731D01*
X101674500Y-124424057D01*
X101674500Y-127275943D01*
X101652826Y-127328269D01*
X101517006Y-127464088D01*
X101464680Y-127485762D01*
X101412354Y-127464088D01*
X101397613Y-127443036D01*
X101382929Y-127411546D01*
X101370747Y-127385421D01*
X101289579Y-127304253D01*
X101185545Y-127255741D01*
X101185543Y-127255740D01*
X101150619Y-127251142D01*
X101138139Y-127249500D01*
X101138137Y-127249500D01*
X100461862Y-127249500D01*
X100414456Y-127255740D01*
X100414454Y-127255741D01*
X100310420Y-127304253D01*
X100229253Y-127385420D01*
X100180740Y-127489456D01*
X100174500Y-127536862D01*
X100174500Y-127963137D01*
X100180740Y-128010543D01*
X100180741Y-128010545D01*
X100229253Y-128114579D01*
X100310421Y-128195747D01*
X100414455Y-128244259D01*
X100461861Y-128250500D01*
X101138138Y-128250499D01*
X101185545Y-128244259D01*
X101289579Y-128195747D01*
X101370747Y-128114579D01*
X101415677Y-128018225D01*
X101457435Y-127979963D01*
X101482744Y-127975500D01*
X101496525Y-127975500D01*
X101496533Y-127975501D01*
X101505145Y-127975501D01*
X101594854Y-127975501D01*
X101594855Y-127975501D01*
X101660213Y-127948428D01*
X101677736Y-127941170D01*
X101741170Y-127877736D01*
X101741170Y-127877735D01*
X101751575Y-127867330D01*
X101751577Y-127867327D01*
X102017327Y-127601577D01*
X102017330Y-127601575D01*
X102027735Y-127591170D01*
X102027736Y-127591170D01*
X102091170Y-127527736D01*
X102117031Y-127465301D01*
X102125501Y-127444854D01*
X102125501Y-127355145D01*
X102125501Y-127349187D01*
X102125500Y-127349173D01*
X102125500Y-126600000D01*
X102819953Y-126600000D01*
X102838047Y-126772150D01*
X102838093Y-126772581D01*
X102891711Y-126937605D01*
X102891716Y-126937615D01*
X102978475Y-127087885D01*
X102978478Y-127087890D01*
X103094592Y-127216847D01*
X103234969Y-127318838D01*
X103234976Y-127318842D01*
X103393501Y-127389422D01*
X103563236Y-127425500D01*
X103563237Y-127425500D01*
X103736763Y-127425500D01*
X103736764Y-127425500D01*
X103906499Y-127389422D01*
X104065024Y-127318842D01*
X104065625Y-127318406D01*
X104181333Y-127234338D01*
X104205410Y-127216845D01*
X104321522Y-127087889D01*
X104408286Y-126937611D01*
X104461908Y-126772576D01*
X104480047Y-126600000D01*
X104464281Y-126449999D01*
X104836222Y-126449999D01*
X104836222Y-126450000D01*
X105276082Y-126450000D01*
X105250000Y-126547339D01*
X105250000Y-126652661D01*
X105276082Y-126750000D01*
X104836222Y-126750000D01*
X104838585Y-126772478D01*
X104892172Y-126937402D01*
X104978882Y-127087591D01*
X104978885Y-127087594D01*
X105094929Y-127216473D01*
X105235221Y-127318402D01*
X105235228Y-127318406D01*
X105393655Y-127388942D01*
X105393657Y-127388943D01*
X105500000Y-127411546D01*
X105500000Y-126973918D01*
X105597339Y-127000000D01*
X105702661Y-127000000D01*
X105800000Y-126973918D01*
X105800000Y-127411545D01*
X105906342Y-127388943D01*
X105906344Y-127388942D01*
X106064771Y-127318406D01*
X106064778Y-127318402D01*
X106205070Y-127216473D01*
X106321114Y-127087594D01*
X106321117Y-127087591D01*
X106407827Y-126937402D01*
X106461414Y-126772478D01*
X106463778Y-126750000D01*
X106023918Y-126750000D01*
X106050000Y-126652661D01*
X106050000Y-126547339D01*
X106023918Y-126450000D01*
X106463778Y-126450000D01*
X106463777Y-126449999D01*
X106461414Y-126427521D01*
X106407827Y-126262597D01*
X106321117Y-126112408D01*
X106321114Y-126112405D01*
X106205070Y-125983526D01*
X106064778Y-125881597D01*
X106064771Y-125881593D01*
X105906349Y-125811059D01*
X105800000Y-125788452D01*
X105800000Y-126226081D01*
X105702661Y-126200000D01*
X105597339Y-126200000D01*
X105500000Y-126226081D01*
X105500000Y-125788452D01*
X105499999Y-125788452D01*
X105393650Y-125811059D01*
X105235228Y-125881593D01*
X105235221Y-125881597D01*
X105094929Y-125983526D01*
X104978885Y-126112405D01*
X104978882Y-126112408D01*
X104892172Y-126262597D01*
X104838585Y-126427521D01*
X104836222Y-126449999D01*
X104464281Y-126449999D01*
X104461908Y-126427424D01*
X104441416Y-126364354D01*
X104408288Y-126262394D01*
X104408283Y-126262384D01*
X104321524Y-126112114D01*
X104321521Y-126112109D01*
X104205407Y-125983152D01*
X104065030Y-125881161D01*
X104065023Y-125881157D01*
X103906500Y-125810578D01*
X103906498Y-125810577D01*
X103747561Y-125776795D01*
X103736764Y-125774500D01*
X103563236Y-125774500D01*
X103552439Y-125776795D01*
X103393501Y-125810577D01*
X103393499Y-125810578D01*
X103234978Y-125881156D01*
X103234973Y-125881159D01*
X103094592Y-125983152D01*
X102978478Y-126112109D01*
X102978475Y-126112114D01*
X102891716Y-126262384D01*
X102891711Y-126262394D01*
X102838093Y-126427418D01*
X102838092Y-126427422D01*
X102838092Y-126427424D01*
X102819953Y-126600000D01*
X102125500Y-126600000D01*
X102125500Y-124600000D01*
X102819953Y-124600000D01*
X102836016Y-124752826D01*
X102838093Y-124772581D01*
X102891711Y-124937605D01*
X102891716Y-124937615D01*
X102978475Y-125087885D01*
X102978478Y-125087890D01*
X103094592Y-125216847D01*
X103234969Y-125318838D01*
X103234976Y-125318842D01*
X103393501Y-125389422D01*
X103563236Y-125425500D01*
X103563237Y-125425500D01*
X103736763Y-125425500D01*
X103736764Y-125425500D01*
X103906499Y-125389422D01*
X104065024Y-125318842D01*
X104071202Y-125314354D01*
X104205407Y-125216847D01*
X104205406Y-125216847D01*
X104205410Y-125216845D01*
X104321522Y-125087889D01*
X104408286Y-124937611D01*
X104461908Y-124772576D01*
X104480047Y-124600000D01*
X104819953Y-124600000D01*
X104836016Y-124752826D01*
X104838093Y-124772581D01*
X104891711Y-124937605D01*
X104891716Y-124937615D01*
X104978475Y-125087885D01*
X104978478Y-125087890D01*
X105094592Y-125216847D01*
X105234969Y-125318838D01*
X105234976Y-125318842D01*
X105393501Y-125389422D01*
X105563236Y-125425500D01*
X105563237Y-125425500D01*
X105736763Y-125425500D01*
X105736764Y-125425500D01*
X105906499Y-125389422D01*
X106065024Y-125318842D01*
X106071202Y-125314354D01*
X106205407Y-125216847D01*
X106205406Y-125216847D01*
X106205410Y-125216845D01*
X106321522Y-125087889D01*
X106408286Y-124937611D01*
X106461908Y-124772576D01*
X106480047Y-124600000D01*
X106461908Y-124427424D01*
X106440520Y-124361598D01*
X106408288Y-124262394D01*
X106408283Y-124262384D01*
X106321524Y-124112114D01*
X106321521Y-124112109D01*
X106205407Y-123983152D01*
X106065030Y-123881161D01*
X106065023Y-123881157D01*
X105906500Y-123810578D01*
X105906498Y-123810577D01*
X105772841Y-123782168D01*
X105736764Y-123774500D01*
X105563236Y-123774500D01*
X105533483Y-123780824D01*
X105393501Y-123810577D01*
X105393499Y-123810578D01*
X105234978Y-123881156D01*
X105234973Y-123881159D01*
X105094592Y-123983152D01*
X104978478Y-124112109D01*
X104978475Y-124112114D01*
X104891716Y-124262384D01*
X104891711Y-124262394D01*
X104838093Y-124427418D01*
X104838092Y-124427422D01*
X104838092Y-124427424D01*
X104819953Y-124600000D01*
X104480047Y-124600000D01*
X104461908Y-124427424D01*
X104440520Y-124361598D01*
X104408288Y-124262394D01*
X104408283Y-124262384D01*
X104321524Y-124112114D01*
X104321521Y-124112109D01*
X104205407Y-123983152D01*
X104065030Y-123881161D01*
X104065023Y-123881157D01*
X103906500Y-123810578D01*
X103906498Y-123810577D01*
X103772841Y-123782168D01*
X103736764Y-123774500D01*
X103563236Y-123774500D01*
X103533483Y-123780824D01*
X103393501Y-123810577D01*
X103393499Y-123810578D01*
X103234978Y-123881156D01*
X103234973Y-123881159D01*
X103094592Y-123983152D01*
X102978478Y-124112109D01*
X102978475Y-124112114D01*
X102891716Y-124262384D01*
X102891711Y-124262394D01*
X102838093Y-124427418D01*
X102838092Y-124427422D01*
X102838092Y-124427424D01*
X102819953Y-124600000D01*
X102125500Y-124600000D01*
X102125500Y-124353475D01*
X102125501Y-124353466D01*
X102125501Y-124255147D01*
X102125501Y-124255146D01*
X102096582Y-124185331D01*
X102091170Y-124172264D01*
X102027736Y-124108830D01*
X102023521Y-124104615D01*
X102023514Y-124104609D01*
X101921230Y-124002325D01*
X101899556Y-123949999D01*
X101921228Y-123897675D01*
X102017327Y-123801576D01*
X102017330Y-123801575D01*
X102027735Y-123791170D01*
X102027736Y-123791170D01*
X102091170Y-123727736D01*
X102117031Y-123665301D01*
X102125501Y-123644854D01*
X102125501Y-123555145D01*
X102125501Y-123549187D01*
X102125500Y-123549173D01*
X102125500Y-122449999D01*
X102836222Y-122449999D01*
X102836222Y-122450000D01*
X103276082Y-122450000D01*
X103250000Y-122547339D01*
X103250000Y-122652661D01*
X103276082Y-122750000D01*
X102836222Y-122750000D01*
X102838585Y-122772478D01*
X102892172Y-122937402D01*
X102978882Y-123087591D01*
X102978885Y-123087594D01*
X103094929Y-123216473D01*
X103235221Y-123318402D01*
X103235228Y-123318406D01*
X103393655Y-123388942D01*
X103393657Y-123388943D01*
X103500000Y-123411546D01*
X103500000Y-122973918D01*
X103597339Y-123000000D01*
X103702661Y-123000000D01*
X103800000Y-122973918D01*
X103800000Y-123411545D01*
X103906342Y-123388943D01*
X103906344Y-123388942D01*
X104064771Y-123318406D01*
X104064778Y-123318402D01*
X104205070Y-123216473D01*
X104321114Y-123087594D01*
X104321117Y-123087591D01*
X104407827Y-122937402D01*
X104461414Y-122772478D01*
X104463778Y-122750000D01*
X104023918Y-122750000D01*
X104050000Y-122652661D01*
X104050000Y-122600000D01*
X104819953Y-122600000D01*
X104836296Y-122755492D01*
X104838093Y-122772581D01*
X104891711Y-122937605D01*
X104891716Y-122937615D01*
X104978475Y-123087885D01*
X104978478Y-123087890D01*
X105094592Y-123216847D01*
X105234969Y-123318838D01*
X105234976Y-123318842D01*
X105393501Y-123389422D01*
X105563236Y-123425500D01*
X105563237Y-123425500D01*
X105736763Y-123425500D01*
X105736764Y-123425500D01*
X105906499Y-123389422D01*
X106065024Y-123318842D01*
X106065625Y-123318406D01*
X106205407Y-123216847D01*
X106205406Y-123216847D01*
X106205410Y-123216845D01*
X106321522Y-123087889D01*
X106408286Y-122937611D01*
X106461908Y-122772576D01*
X106480047Y-122600000D01*
X106461908Y-122427424D01*
X106421241Y-122302260D01*
X106408288Y-122262394D01*
X106408283Y-122262384D01*
X106321524Y-122112114D01*
X106321521Y-122112109D01*
X106205407Y-121983152D01*
X106065030Y-121881161D01*
X106065023Y-121881157D01*
X105906500Y-121810578D01*
X105906498Y-121810577D01*
X105772841Y-121782168D01*
X105736764Y-121774500D01*
X105563236Y-121774500D01*
X105533483Y-121780824D01*
X105393501Y-121810577D01*
X105393499Y-121810578D01*
X105234978Y-121881156D01*
X105234973Y-121881159D01*
X105094592Y-121983152D01*
X104978478Y-122112109D01*
X104978475Y-122112114D01*
X104891716Y-122262384D01*
X104891711Y-122262394D01*
X104838093Y-122427418D01*
X104838092Y-122427422D01*
X104838092Y-122427424D01*
X104819953Y-122600000D01*
X104050000Y-122600000D01*
X104050000Y-122547339D01*
X104023918Y-122450000D01*
X104463778Y-122450000D01*
X104463777Y-122449999D01*
X104461414Y-122427521D01*
X104407827Y-122262597D01*
X104321117Y-122112408D01*
X104321114Y-122112405D01*
X104205070Y-121983526D01*
X104064778Y-121881597D01*
X104064771Y-121881593D01*
X103906349Y-121811059D01*
X103800000Y-121788452D01*
X103800000Y-122226081D01*
X103702661Y-122200000D01*
X103597339Y-122200000D01*
X103500000Y-122226081D01*
X103500000Y-121788452D01*
X103499999Y-121788452D01*
X103393650Y-121811059D01*
X103235228Y-121881593D01*
X103235221Y-121881597D01*
X103094929Y-121983526D01*
X102978885Y-122112405D01*
X102978882Y-122112408D01*
X102892172Y-122262597D01*
X102838585Y-122427521D01*
X102836222Y-122449999D01*
X102125500Y-122449999D01*
X102125500Y-120600000D01*
X102819953Y-120600000D01*
X102837997Y-120771674D01*
X102838093Y-120772581D01*
X102891711Y-120937605D01*
X102891716Y-120937615D01*
X102978475Y-121087885D01*
X102978478Y-121087890D01*
X103094592Y-121216847D01*
X103234969Y-121318838D01*
X103234976Y-121318842D01*
X103393501Y-121389422D01*
X103563236Y-121425500D01*
X103563237Y-121425500D01*
X103736763Y-121425500D01*
X103736764Y-121425500D01*
X103906499Y-121389422D01*
X104065024Y-121318842D01*
X104067106Y-121317330D01*
X104205407Y-121216847D01*
X104205406Y-121216847D01*
X104205410Y-121216845D01*
X104321522Y-121087889D01*
X104408286Y-120937611D01*
X104461908Y-120772576D01*
X104480047Y-120600000D01*
X104819953Y-120600000D01*
X104837997Y-120771674D01*
X104838093Y-120772581D01*
X104891711Y-120937605D01*
X104891716Y-120937615D01*
X104978475Y-121087885D01*
X104978478Y-121087890D01*
X105094592Y-121216847D01*
X105234969Y-121318838D01*
X105234976Y-121318842D01*
X105393501Y-121389422D01*
X105563236Y-121425500D01*
X105563237Y-121425500D01*
X105736763Y-121425500D01*
X105736764Y-121425500D01*
X105906499Y-121389422D01*
X106065024Y-121318842D01*
X106067106Y-121317330D01*
X106205407Y-121216847D01*
X106205406Y-121216847D01*
X106205410Y-121216845D01*
X106321522Y-121087889D01*
X106408286Y-120937611D01*
X106461908Y-120772576D01*
X106480047Y-120600000D01*
X106461908Y-120427424D01*
X106446487Y-120379963D01*
X106408288Y-120262394D01*
X106408283Y-120262384D01*
X106321524Y-120112114D01*
X106321521Y-120112109D01*
X106205407Y-119983152D01*
X106065030Y-119881161D01*
X106065023Y-119881157D01*
X105906500Y-119810578D01*
X105906498Y-119810577D01*
X105772841Y-119782168D01*
X105736764Y-119774500D01*
X105563236Y-119774500D01*
X105533483Y-119780824D01*
X105393501Y-119810577D01*
X105393499Y-119810578D01*
X105234978Y-119881156D01*
X105234973Y-119881159D01*
X105094592Y-119983152D01*
X104978478Y-120112109D01*
X104978475Y-120112114D01*
X104891716Y-120262384D01*
X104891711Y-120262394D01*
X104838093Y-120427418D01*
X104838092Y-120427422D01*
X104838092Y-120427424D01*
X104819953Y-120600000D01*
X104480047Y-120600000D01*
X104461908Y-120427424D01*
X104446487Y-120379963D01*
X104408288Y-120262394D01*
X104408283Y-120262384D01*
X104321524Y-120112114D01*
X104321521Y-120112109D01*
X104205407Y-119983152D01*
X104065030Y-119881161D01*
X104065023Y-119881157D01*
X103906500Y-119810578D01*
X103906498Y-119810577D01*
X103772841Y-119782168D01*
X103736764Y-119774500D01*
X103563236Y-119774500D01*
X103533483Y-119780824D01*
X103393501Y-119810577D01*
X103393499Y-119810578D01*
X103234978Y-119881156D01*
X103234973Y-119881159D01*
X103094592Y-119983152D01*
X102978478Y-120112109D01*
X102978475Y-120112114D01*
X102891716Y-120262384D01*
X102891711Y-120262394D01*
X102838093Y-120427418D01*
X102838092Y-120427422D01*
X102838092Y-120427424D01*
X102819953Y-120600000D01*
X102125500Y-120600000D01*
X102125500Y-120353475D01*
X102125501Y-120353466D01*
X102125501Y-120249187D01*
X102125500Y-120249173D01*
X102125500Y-120124056D01*
X102147173Y-120071731D01*
X102467327Y-119751576D01*
X102467330Y-119751575D01*
X102477735Y-119741170D01*
X102477736Y-119741170D01*
X102541170Y-119677736D01*
X102560748Y-119630470D01*
X102575501Y-119594855D01*
X102575501Y-119505145D01*
X102575501Y-119499187D01*
X102575500Y-119499173D01*
X102575500Y-118449999D01*
X102836222Y-118449999D01*
X102836222Y-118450000D01*
X103276082Y-118450000D01*
X103250000Y-118547339D01*
X103250000Y-118652661D01*
X103276082Y-118750000D01*
X102836222Y-118750000D01*
X102838585Y-118772478D01*
X102892172Y-118937402D01*
X102978882Y-119087591D01*
X102978885Y-119087594D01*
X103094929Y-119216473D01*
X103235221Y-119318402D01*
X103235228Y-119318406D01*
X103393655Y-119388942D01*
X103393657Y-119388943D01*
X103500000Y-119411546D01*
X103500000Y-118973918D01*
X103597339Y-119000000D01*
X103702661Y-119000000D01*
X103800000Y-118973918D01*
X103800000Y-119411545D01*
X103906342Y-119388943D01*
X103906344Y-119388942D01*
X104064771Y-119318406D01*
X104064778Y-119318402D01*
X104205070Y-119216473D01*
X104321114Y-119087594D01*
X104321117Y-119087591D01*
X104407827Y-118937402D01*
X104461414Y-118772478D01*
X104463778Y-118750000D01*
X104023918Y-118750000D01*
X104050000Y-118652661D01*
X104050000Y-118547339D01*
X104023918Y-118450000D01*
X104463778Y-118450000D01*
X104463777Y-118449999D01*
X104836222Y-118449999D01*
X104836222Y-118450000D01*
X105276082Y-118450000D01*
X105250000Y-118547339D01*
X105250000Y-118652661D01*
X105276082Y-118750000D01*
X104836222Y-118750000D01*
X104838585Y-118772478D01*
X104892172Y-118937402D01*
X104978882Y-119087591D01*
X104978885Y-119087594D01*
X105094929Y-119216473D01*
X105235221Y-119318402D01*
X105235228Y-119318406D01*
X105393655Y-119388942D01*
X105393657Y-119388943D01*
X105500000Y-119411546D01*
X105500000Y-118973918D01*
X105597339Y-119000000D01*
X105702661Y-119000000D01*
X105800000Y-118973918D01*
X105800000Y-119411545D01*
X105906342Y-119388943D01*
X105906344Y-119388942D01*
X106064771Y-119318406D01*
X106064778Y-119318402D01*
X106205070Y-119216473D01*
X106321114Y-119087594D01*
X106321117Y-119087591D01*
X106407827Y-118937402D01*
X106461414Y-118772478D01*
X106463778Y-118750000D01*
X106023918Y-118750000D01*
X106050000Y-118652661D01*
X106050000Y-118547339D01*
X106023918Y-118450000D01*
X106463778Y-118450000D01*
X106463777Y-118449999D01*
X106461414Y-118427521D01*
X106407827Y-118262597D01*
X106321117Y-118112408D01*
X106321114Y-118112405D01*
X106205070Y-117983526D01*
X106064778Y-117881597D01*
X106064771Y-117881593D01*
X105906349Y-117811059D01*
X105800000Y-117788452D01*
X105800000Y-118226081D01*
X105702661Y-118200000D01*
X105597339Y-118200000D01*
X105500000Y-118226081D01*
X105500000Y-117788452D01*
X105499999Y-117788452D01*
X105393650Y-117811059D01*
X105235228Y-117881593D01*
X105235221Y-117881597D01*
X105094929Y-117983526D01*
X104978885Y-118112405D01*
X104978882Y-118112408D01*
X104892172Y-118262597D01*
X104838585Y-118427521D01*
X104836222Y-118449999D01*
X104463777Y-118449999D01*
X104461414Y-118427521D01*
X104407827Y-118262597D01*
X104321117Y-118112408D01*
X104321114Y-118112405D01*
X104205070Y-117983526D01*
X104064778Y-117881597D01*
X104064771Y-117881593D01*
X103906349Y-117811059D01*
X103800000Y-117788452D01*
X103800000Y-118226081D01*
X103702661Y-118200000D01*
X103597339Y-118200000D01*
X103500000Y-118226081D01*
X103500000Y-117788452D01*
X103499999Y-117788452D01*
X103393650Y-117811059D01*
X103235228Y-117881593D01*
X103235221Y-117881597D01*
X103094929Y-117983526D01*
X102978885Y-118112405D01*
X102978882Y-118112408D01*
X102892172Y-118262597D01*
X102838585Y-118427521D01*
X102836222Y-118449999D01*
X102575500Y-118449999D01*
X102575500Y-116755145D01*
X102575499Y-116755143D01*
X102541171Y-116672266D01*
X102541169Y-116672263D01*
X102477735Y-116608829D01*
X102151578Y-116282673D01*
X102151578Y-116282672D01*
X102077737Y-116208831D01*
X102077733Y-116208828D01*
X102043997Y-116194855D01*
X101994855Y-116174499D01*
X101906972Y-116174499D01*
X101854646Y-116152825D01*
X101845443Y-116141611D01*
X101828103Y-116115660D01*
X101817054Y-116060112D01*
X101828104Y-116033435D01*
X101885494Y-115947545D01*
X101894952Y-115900000D01*
X100605048Y-115900000D01*
X100614504Y-115947544D01*
X100671896Y-116033437D01*
X100682945Y-116088986D01*
X100671896Y-116115660D01*
X100614034Y-116202258D01*
X100606292Y-116241180D01*
X100599500Y-116275326D01*
X100599500Y-116524674D01*
X100614034Y-116597740D01*
X100663828Y-116672264D01*
X100671896Y-116684338D01*
X100682945Y-116739887D01*
X100671896Y-116766562D01*
X100614504Y-116852455D01*
X100605047Y-116900000D01*
X101894952Y-116900000D01*
X101884073Y-116845306D01*
X101887820Y-116844560D01*
X101887804Y-116801447D01*
X101927836Y-116761383D01*
X101984474Y-116761361D01*
X102008508Y-116777413D01*
X102102826Y-116871731D01*
X102124500Y-116924057D01*
X102124500Y-119425942D01*
X102102826Y-119478268D01*
X101946756Y-119634338D01*
X101772265Y-119808829D01*
X101772264Y-119808830D01*
X101708830Y-119872264D01*
X101708829Y-119872265D01*
X101685289Y-119895806D01*
X101678270Y-119902825D01*
X101625944Y-119924500D01*
X101482744Y-119924500D01*
X101430418Y-119902826D01*
X101415677Y-119881774D01*
X101415390Y-119881158D01*
X101370747Y-119785421D01*
X101289579Y-119704253D01*
X101185545Y-119655741D01*
X101185543Y-119655740D01*
X101150619Y-119651142D01*
X101138139Y-119649500D01*
X101138137Y-119649500D01*
X100461862Y-119649500D01*
X100414456Y-119655740D01*
X100414454Y-119655741D01*
X100310420Y-119704253D01*
X100229253Y-119785420D01*
X100180740Y-119889456D01*
X100174500Y-119936862D01*
X99649999Y-119936862D01*
X99649999Y-119895806D01*
X99649998Y-119895794D01*
X99647149Y-119865397D01*
X99647147Y-119865388D01*
X99602347Y-119737356D01*
X99521792Y-119628208D01*
X99521791Y-119628207D01*
X99430057Y-119560504D01*
X99400826Y-119511993D01*
X99400000Y-119500964D01*
X99400000Y-119299657D01*
X99421674Y-119247331D01*
X99430058Y-119240117D01*
X99522146Y-119172153D01*
X99522146Y-119172152D01*
X99522150Y-119172150D01*
X99602793Y-119062882D01*
X99602794Y-119062880D01*
X99624776Y-119000060D01*
X99662515Y-118957828D01*
X99694623Y-118950500D01*
X100234522Y-118950500D01*
X100286848Y-118972174D01*
X100310421Y-118995747D01*
X100414455Y-119044259D01*
X100461861Y-119050500D01*
X101138138Y-119050499D01*
X101185545Y-119044259D01*
X101289579Y-118995747D01*
X101370747Y-118914579D01*
X101419259Y-118810545D01*
X101425500Y-118763139D01*
X101425499Y-118336862D01*
X101419259Y-118289455D01*
X101370747Y-118185421D01*
X101289579Y-118104253D01*
X101185545Y-118055741D01*
X101185543Y-118055740D01*
X101150619Y-118051142D01*
X101138139Y-118049500D01*
X101138137Y-118049500D01*
X100461862Y-118049500D01*
X100414456Y-118055740D01*
X100414454Y-118055741D01*
X100310420Y-118104253D01*
X100286848Y-118127826D01*
X100234522Y-118149500D01*
X99910084Y-118149500D01*
X99857758Y-118127826D01*
X99836084Y-118075500D01*
X99857758Y-118023174D01*
X99876485Y-118009567D01*
X99938342Y-117978050D01*
X100028050Y-117888342D01*
X100085646Y-117775304D01*
X100105492Y-117650000D01*
X100085646Y-117524696D01*
X100053137Y-117460895D01*
X100048695Y-117404435D01*
X100077962Y-117365773D01*
X100130598Y-117330603D01*
X100130597Y-117330603D01*
X100130601Y-117330601D01*
X100185966Y-117247740D01*
X100195462Y-117200000D01*
X100605048Y-117200000D01*
X100614504Y-117247544D01*
X100669759Y-117330239D01*
X100669760Y-117330240D01*
X100752454Y-117385494D01*
X100825378Y-117400000D01*
X101100000Y-117400000D01*
X101400000Y-117400000D01*
X101674622Y-117400000D01*
X101747545Y-117385494D01*
X101830239Y-117330240D01*
X101830240Y-117330239D01*
X101885495Y-117247544D01*
X101894952Y-117200000D01*
X101400000Y-117200000D01*
X101400000Y-117400000D01*
X101100000Y-117400000D01*
X101100000Y-117200000D01*
X100605048Y-117200000D01*
X100195462Y-117200000D01*
X100200500Y-117174674D01*
X100200500Y-116925326D01*
X100185966Y-116852260D01*
X100130601Y-116769399D01*
X100126355Y-116766562D01*
X100047740Y-116714034D01*
X99974674Y-116699500D01*
X99974672Y-116699500D01*
X98863745Y-116699500D01*
X98826745Y-116689586D01*
X98804587Y-116676793D01*
X98801819Y-116676051D01*
X98787390Y-116670511D01*
X98775305Y-116664354D01*
X98775304Y-116664353D01*
X98737212Y-116658320D01*
X98729639Y-116656710D01*
X98702728Y-116649500D01*
X98702727Y-116649500D01*
X98687343Y-116649500D01*
X98675767Y-116648589D01*
X98650000Y-116644508D01*
X98624233Y-116648589D01*
X98612657Y-116649500D01*
X98446266Y-116649500D01*
X98393940Y-116627826D01*
X98373039Y-116586166D01*
X98365221Y-116532496D01*
X98365220Y-116532492D01*
X98356403Y-116514456D01*
X98312012Y-116423653D01*
X98279701Y-116391342D01*
X98258027Y-116339016D01*
X98276502Y-116294411D01*
X98274629Y-116293050D01*
X98278051Y-116288340D01*
X98280939Y-116282672D01*
X98301210Y-116242884D01*
X98303034Y-116239524D01*
X98323207Y-116204588D01*
X98323945Y-116201834D01*
X98329494Y-116187376D01*
X98335646Y-116175304D01*
X98341680Y-116137205D01*
X98343284Y-116129657D01*
X98350500Y-116102727D01*
X98350500Y-116087342D01*
X98351411Y-116075766D01*
X98355492Y-116050000D01*
X98354765Y-116045412D01*
X98351411Y-116024232D01*
X98350500Y-116012656D01*
X98350500Y-115997272D01*
X98343288Y-115970355D01*
X98341678Y-115962780D01*
X98339265Y-115947544D01*
X98335646Y-115924696D01*
X98329488Y-115912612D01*
X98323945Y-115898168D01*
X98323206Y-115895410D01*
X98319670Y-115889286D01*
X98303038Y-115860480D01*
X98301208Y-115857110D01*
X98278050Y-115811658D01*
X98274700Y-115808308D01*
X98274698Y-115808305D01*
X98193334Y-115726941D01*
X98193323Y-115726931D01*
X98188342Y-115721950D01*
X98155358Y-115705144D01*
X98142892Y-115698792D01*
X98139505Y-115696953D01*
X98104588Y-115676793D01*
X98101826Y-115676053D01*
X98087386Y-115670510D01*
X98075305Y-115664354D01*
X98075301Y-115664353D01*
X98037208Y-115658319D01*
X98029638Y-115656709D01*
X98002731Y-115649500D01*
X98002727Y-115649500D01*
X97987343Y-115649500D01*
X97975767Y-115648589D01*
X97950000Y-115644508D01*
X97924233Y-115648589D01*
X97912657Y-115649500D01*
X97897273Y-115649500D01*
X97876428Y-115655084D01*
X97870360Y-115656710D01*
X97862791Y-115658319D01*
X97824694Y-115664354D01*
X97812612Y-115670510D01*
X97798178Y-115676051D01*
X97795413Y-115676791D01*
X97760493Y-115696953D01*
X97757089Y-115698801D01*
X97711661Y-115721947D01*
X97711654Y-115721953D01*
X97704090Y-115729515D01*
X97704091Y-115729516D01*
X97704087Y-115729520D01*
X97618641Y-115814965D01*
X97566315Y-115836639D01*
X97513989Y-115814965D01*
X97492315Y-115762639D01*
X97492946Y-115752998D01*
X97495000Y-115737401D01*
X97495000Y-115625326D01*
X98899500Y-115625326D01*
X98899500Y-115874674D01*
X98904538Y-115900000D01*
X98914034Y-115947740D01*
X98957408Y-116012656D01*
X98969399Y-116030601D01*
X99052260Y-116085966D01*
X99125326Y-116100500D01*
X99125328Y-116100500D01*
X99974672Y-116100500D01*
X99974674Y-116100500D01*
X100047740Y-116085966D01*
X100130601Y-116030601D01*
X100185966Y-115947740D01*
X100200500Y-115874674D01*
X100200500Y-115625326D01*
X100195462Y-115600000D01*
X100605047Y-115600000D01*
X101100000Y-115600000D01*
X101400000Y-115600000D01*
X101894952Y-115600000D01*
X101885495Y-115552455D01*
X101830240Y-115469760D01*
X101830239Y-115469759D01*
X101747545Y-115414505D01*
X101674622Y-115400000D01*
X101400000Y-115400000D01*
X101400000Y-115600000D01*
X101100000Y-115600000D01*
X101100000Y-115400000D01*
X100825378Y-115400000D01*
X100752454Y-115414505D01*
X100669760Y-115469759D01*
X100669759Y-115469760D01*
X100614504Y-115552455D01*
X100605047Y-115600000D01*
X100195462Y-115600000D01*
X100185966Y-115552260D01*
X100130601Y-115469399D01*
X100088442Y-115441230D01*
X100047740Y-115414034D01*
X99974674Y-115399500D01*
X99974672Y-115399500D01*
X99974500Y-115399500D01*
X99974445Y-115399477D01*
X99971053Y-115399143D01*
X99971154Y-115398114D01*
X99922174Y-115377826D01*
X99900500Y-115325500D01*
X99900500Y-114865478D01*
X99922174Y-114813152D01*
X99995747Y-114739579D01*
X100044259Y-114635545D01*
X100050500Y-114588139D01*
X100050499Y-113911862D01*
X100649500Y-113911862D01*
X100649500Y-114588137D01*
X100655740Y-114635543D01*
X100655741Y-114635545D01*
X100704253Y-114739579D01*
X100785421Y-114820747D01*
X100889455Y-114869259D01*
X100936861Y-114875500D01*
X101363138Y-114875499D01*
X101410545Y-114869259D01*
X101514579Y-114820747D01*
X101595747Y-114739579D01*
X101644259Y-114635545D01*
X101650500Y-114588139D01*
X101650500Y-114549500D01*
X101672174Y-114497174D01*
X101724500Y-114475500D01*
X102375943Y-114475500D01*
X102428269Y-114497174D01*
X102952826Y-115021731D01*
X102974500Y-115074057D01*
X102974500Y-115710921D01*
X102952826Y-115763247D01*
X102922584Y-115779414D01*
X102923011Y-115780444D01*
X102916279Y-115783232D01*
X102866496Y-115816495D01*
X102866495Y-115816496D01*
X102833233Y-115866277D01*
X102824500Y-115910180D01*
X102824500Y-117289819D01*
X102833233Y-117333722D01*
X102854648Y-117365773D01*
X102866496Y-117383504D01*
X102916278Y-117416767D01*
X102960180Y-117425500D01*
X102960181Y-117425500D01*
X104339819Y-117425500D01*
X104339820Y-117425500D01*
X104383722Y-117416767D01*
X104433504Y-117383504D01*
X104466767Y-117333722D01*
X104475500Y-117289820D01*
X104475500Y-115910180D01*
X104466767Y-115866278D01*
X104433504Y-115816496D01*
X104426263Y-115811658D01*
X104383722Y-115783233D01*
X104364523Y-115779414D01*
X104339820Y-115774500D01*
X104339819Y-115774500D01*
X103499500Y-115774500D01*
X103447174Y-115752826D01*
X103425500Y-115700500D01*
X103425500Y-114905145D01*
X103425499Y-114905143D01*
X103391171Y-114822266D01*
X103391169Y-114822263D01*
X103327735Y-114758829D01*
X103265798Y-114696892D01*
X103575001Y-114696892D01*
X103575002Y-114696908D01*
X103585264Y-114767359D01*
X103585265Y-114767362D01*
X103638401Y-114876053D01*
X103723946Y-114961598D01*
X103832634Y-115014733D01*
X103903099Y-115024999D01*
X104000000Y-115024999D01*
X104300000Y-115024999D01*
X104396893Y-115024999D01*
X104396908Y-115024997D01*
X104467359Y-115014735D01*
X104467362Y-115014734D01*
X104576053Y-114961598D01*
X104661598Y-114876053D01*
X104714733Y-114767365D01*
X104724999Y-114696905D01*
X104725000Y-114696894D01*
X104725000Y-114550000D01*
X104300000Y-114550000D01*
X104300000Y-115024999D01*
X104000000Y-115024999D01*
X104000000Y-114550000D01*
X103575001Y-114550000D01*
X103575001Y-114696892D01*
X103265798Y-114696892D01*
X102701578Y-114132673D01*
X102701578Y-114132672D01*
X102672000Y-114103094D01*
X103575000Y-114103094D01*
X103575000Y-114250000D01*
X104000000Y-114250000D01*
X104300000Y-114250000D01*
X104724999Y-114250000D01*
X104724999Y-114103107D01*
X104724997Y-114103091D01*
X104714735Y-114032640D01*
X104714734Y-114032637D01*
X104661598Y-113923946D01*
X104576053Y-113838401D01*
X104467365Y-113785266D01*
X104396905Y-113775000D01*
X104300000Y-113775000D01*
X104300000Y-114250000D01*
X104000000Y-114250000D01*
X104000000Y-113775000D01*
X103903099Y-113775000D01*
X103832640Y-113785264D01*
X103832637Y-113785265D01*
X103723946Y-113838401D01*
X103638401Y-113923946D01*
X103585266Y-114032634D01*
X103575000Y-114103094D01*
X102672000Y-114103094D01*
X102627738Y-114058832D01*
X102627736Y-114058830D01*
X102603460Y-114048774D01*
X102603458Y-114048773D01*
X102603458Y-114048772D01*
X102544855Y-114024499D01*
X102455145Y-114024499D01*
X102446533Y-114024499D01*
X102446525Y-114024500D01*
X101724499Y-114024500D01*
X101672173Y-114002826D01*
X101650499Y-113950500D01*
X101650499Y-113911862D01*
X101644259Y-113864456D01*
X101644259Y-113864455D01*
X101595747Y-113760421D01*
X101514579Y-113679253D01*
X101410545Y-113630741D01*
X101410543Y-113630740D01*
X101375619Y-113626142D01*
X101363139Y-113624500D01*
X101363137Y-113624500D01*
X100936862Y-113624500D01*
X100889456Y-113630740D01*
X100889454Y-113630741D01*
X100785420Y-113679253D01*
X100704253Y-113760420D01*
X100655740Y-113864456D01*
X100649500Y-113911862D01*
X100050499Y-113911862D01*
X100044259Y-113864455D01*
X99995747Y-113760421D01*
X99914579Y-113679253D01*
X99810545Y-113630741D01*
X99810543Y-113630740D01*
X99775619Y-113626142D01*
X99763139Y-113624500D01*
X99763137Y-113624500D01*
X99336862Y-113624500D01*
X99289456Y-113630740D01*
X99289454Y-113630741D01*
X99185420Y-113679253D01*
X99104253Y-113760420D01*
X99055740Y-113864456D01*
X99049500Y-113911862D01*
X99049500Y-114588137D01*
X99055740Y-114635543D01*
X99055741Y-114635545D01*
X99104253Y-114739579D01*
X99177826Y-114813152D01*
X99199500Y-114865478D01*
X99199500Y-115325500D01*
X99177826Y-115377826D01*
X99128845Y-115398114D01*
X99128947Y-115399143D01*
X99125554Y-115399477D01*
X99125500Y-115399500D01*
X99125326Y-115399500D01*
X99076615Y-115409189D01*
X99052259Y-115414034D01*
X98969399Y-115469398D01*
X98969398Y-115469399D01*
X98914034Y-115552259D01*
X98914034Y-115552260D01*
X98899500Y-115625326D01*
X97495000Y-115625326D01*
X97494999Y-114513600D01*
X97488472Y-114464013D01*
X97437724Y-114355184D01*
X97436674Y-114354134D01*
X97436218Y-114353033D01*
X97434010Y-114349880D01*
X97434709Y-114349390D01*
X97415000Y-114301808D01*
X97415000Y-113923189D01*
X97414999Y-113923188D01*
X97384300Y-113808617D01*
X97384298Y-113808612D01*
X97324991Y-113705890D01*
X97324990Y-113705889D01*
X97324989Y-113705887D01*
X97241113Y-113622011D01*
X97241110Y-113622009D01*
X97241109Y-113622008D01*
X97138387Y-113562701D01*
X97138382Y-113562699D01*
X97023811Y-113532000D01*
X97023809Y-113532000D01*
X96905191Y-113532000D01*
X96905189Y-113532000D01*
X96790617Y-113562699D01*
X96790612Y-113562701D01*
X96687890Y-113622008D01*
X96604008Y-113705890D01*
X96544701Y-113808612D01*
X96544699Y-113808617D01*
X96514000Y-113923188D01*
X96514000Y-114301808D01*
X96494290Y-114349390D01*
X96494990Y-114349880D01*
X96492781Y-114353033D01*
X96492326Y-114354134D01*
X96491276Y-114355183D01*
X96440527Y-114464014D01*
X96434000Y-114513600D01*
X96434000Y-115737399D01*
X96440527Y-115786985D01*
X96440528Y-115786987D01*
X96491276Y-115895816D01*
X96576184Y-115980724D01*
X96685013Y-116031472D01*
X96734599Y-116038000D01*
X97194400Y-116037999D01*
X97243987Y-116031472D01*
X97313338Y-115999133D01*
X97369921Y-115996661D01*
X97411678Y-116034925D01*
X97416091Y-116085349D01*
X97406969Y-116119397D01*
X97406968Y-116119400D01*
X97399500Y-116147270D01*
X97399500Y-116281489D01*
X97377826Y-116333815D01*
X97287988Y-116423652D01*
X97234780Y-116532489D01*
X97224500Y-116603045D01*
X97224500Y-117196940D01*
X97224502Y-117196956D01*
X97234778Y-117267504D01*
X97234779Y-117267507D01*
X97234780Y-117267509D01*
X97287988Y-117376347D01*
X97373653Y-117462012D01*
X97482491Y-117515220D01*
X97553051Y-117525500D01*
X98046948Y-117525499D01*
X98100972Y-117517629D01*
X98117504Y-117515221D01*
X98117505Y-117515220D01*
X98117509Y-117515220D01*
X98226347Y-117462012D01*
X98226347Y-117462011D01*
X98231855Y-117459319D01*
X98232774Y-117461199D01*
X98266177Y-117450500D01*
X98612657Y-117450500D01*
X98624232Y-117451410D01*
X98650000Y-117455492D01*
X98675767Y-117451410D01*
X98687343Y-117450500D01*
X98702726Y-117450500D01*
X98702727Y-117450500D01*
X98729661Y-117443282D01*
X98737203Y-117441680D01*
X98775304Y-117435646D01*
X98787387Y-117429488D01*
X98801832Y-117423945D01*
X98804587Y-117423207D01*
X98804589Y-117423206D01*
X98826743Y-117410415D01*
X98863744Y-117400500D01*
X99125326Y-117400500D01*
X99125500Y-117400500D01*
X99177826Y-117422174D01*
X99199500Y-117474500D01*
X99199500Y-117546146D01*
X99223251Y-117634784D01*
X99223386Y-117635288D01*
X99254108Y-117688500D01*
X99261501Y-117744652D01*
X99227022Y-117789586D01*
X99190022Y-117799500D01*
X98345734Y-117799500D01*
X98315301Y-117802354D01*
X98315299Y-117802354D01*
X98315295Y-117802355D01*
X98187118Y-117847206D01*
X98187116Y-117847207D01*
X98077853Y-117927846D01*
X98077846Y-117927853D01*
X98009883Y-118019942D01*
X97961373Y-118049173D01*
X97950343Y-118050000D01*
X97449657Y-118050000D01*
X97397331Y-118028326D01*
X97390117Y-118019942D01*
X97322153Y-117927853D01*
X97322146Y-117927846D01*
X97212883Y-117847207D01*
X97212881Y-117847206D01*
X97084704Y-117802355D01*
X97084705Y-117802355D01*
X97084700Y-117802354D01*
X97084699Y-117802354D01*
X97054266Y-117799500D01*
X96145734Y-117799500D01*
X96115301Y-117802354D01*
X96115299Y-117802354D01*
X96115295Y-117802355D01*
X95987118Y-117847206D01*
X95987116Y-117847207D01*
X95877853Y-117927846D01*
X95877846Y-117927853D01*
X95797207Y-118037116D01*
X95797205Y-118037119D01*
X95775224Y-118099940D01*
X95737485Y-118142172D01*
X95705377Y-118149500D01*
X95537343Y-118149500D01*
X95525767Y-118148589D01*
X95500000Y-118144508D01*
X95474233Y-118148589D01*
X95462657Y-118149500D01*
X95218511Y-118149500D01*
X95166185Y-118127826D01*
X95076347Y-118037988D01*
X95004616Y-118002920D01*
X94967126Y-117960466D01*
X94970636Y-117903938D01*
X94984787Y-117884117D01*
X95191170Y-117677736D01*
X95225500Y-117594855D01*
X95225500Y-117582744D01*
X95247174Y-117530418D01*
X95268224Y-117515677D01*
X95364579Y-117470747D01*
X95445747Y-117389579D01*
X95494259Y-117285545D01*
X95500500Y-117238139D01*
X95500500Y-117196892D01*
X95725001Y-117196892D01*
X95725002Y-117196908D01*
X95735264Y-117267359D01*
X95735265Y-117267362D01*
X95788401Y-117376053D01*
X95873946Y-117461598D01*
X95982634Y-117514733D01*
X96053099Y-117524999D01*
X96150000Y-117524999D01*
X96450000Y-117524999D01*
X96546893Y-117524999D01*
X96546908Y-117524997D01*
X96617359Y-117514735D01*
X96617362Y-117514734D01*
X96726053Y-117461598D01*
X96811598Y-117376053D01*
X96864733Y-117267365D01*
X96874999Y-117196905D01*
X96875000Y-117196894D01*
X96875000Y-117050000D01*
X96450000Y-117050000D01*
X96450000Y-117524999D01*
X96150000Y-117524999D01*
X96150000Y-117050000D01*
X95725001Y-117050000D01*
X95725001Y-117196892D01*
X95500500Y-117196892D01*
X95500499Y-116603094D01*
X95725000Y-116603094D01*
X95725000Y-116750000D01*
X96150000Y-116750000D01*
X96450000Y-116750000D01*
X96874999Y-116750000D01*
X96874999Y-116603107D01*
X96874997Y-116603091D01*
X96864735Y-116532640D01*
X96864734Y-116532637D01*
X96811598Y-116423946D01*
X96726053Y-116338401D01*
X96617365Y-116285266D01*
X96546905Y-116275000D01*
X96450000Y-116275000D01*
X96450000Y-116750000D01*
X96150000Y-116750000D01*
X96150000Y-116275000D01*
X96053099Y-116275000D01*
X95982640Y-116285264D01*
X95982637Y-116285265D01*
X95873946Y-116338401D01*
X95788401Y-116423946D01*
X95735266Y-116532634D01*
X95725000Y-116603094D01*
X95500499Y-116603094D01*
X95500499Y-116561862D01*
X95494259Y-116514455D01*
X95445747Y-116410421D01*
X95364579Y-116329253D01*
X95260545Y-116280741D01*
X95260543Y-116280740D01*
X95225498Y-116276127D01*
X95213139Y-116274500D01*
X95213137Y-116274500D01*
X94786862Y-116274500D01*
X94739456Y-116280740D01*
X94739454Y-116280741D01*
X94635420Y-116329253D01*
X94554253Y-116410420D01*
X94505740Y-116514456D01*
X94499500Y-116561862D01*
X94499500Y-117238137D01*
X94505740Y-117285543D01*
X94505741Y-117285545D01*
X94554253Y-117389579D01*
X94635421Y-117470747D01*
X94636656Y-117471612D01*
X94637305Y-117472631D01*
X94639999Y-117475325D01*
X94639401Y-117475922D01*
X94667087Y-117519379D01*
X94654828Y-117574674D01*
X94646537Y-117584555D01*
X94472265Y-117758829D01*
X94408830Y-117822263D01*
X94398774Y-117846536D01*
X94398774Y-117846539D01*
X94384255Y-117881593D01*
X94374498Y-117905148D01*
X94373077Y-117912294D01*
X94369877Y-117911657D01*
X94352825Y-117952826D01*
X94305599Y-117972609D01*
X94305723Y-117974307D01*
X94303056Y-117974500D01*
X94232495Y-117984778D01*
X94232492Y-117984779D01*
X94123652Y-118037988D01*
X94033815Y-118127826D01*
X93981489Y-118149500D01*
X93952727Y-118149500D01*
X93847273Y-118149500D01*
X93796342Y-118163146D01*
X93745411Y-118176793D01*
X93745407Y-118176795D01*
X93654090Y-118229517D01*
X93555781Y-118327826D01*
X93503455Y-118349500D01*
X93224500Y-118349500D01*
X93172174Y-118327826D01*
X93150500Y-118275500D01*
X93150500Y-118203854D01*
X93150499Y-118203853D01*
X93143248Y-118176793D01*
X93126614Y-118114712D01*
X93123218Y-118108830D01*
X93080471Y-118034791D01*
X93080470Y-118034790D01*
X93080469Y-118034788D01*
X93015212Y-117969531D01*
X92805519Y-117759837D01*
X92790117Y-117729364D01*
X92787445Y-117730233D01*
X92785645Y-117724693D01*
X92728049Y-117611657D01*
X92638342Y-117521950D01*
X92636057Y-117520290D01*
X92635067Y-117518675D01*
X92634224Y-117517832D01*
X92634426Y-117517629D01*
X92606465Y-117471998D01*
X92619687Y-117416926D01*
X92627223Y-117408102D01*
X92645747Y-117389579D01*
X92694259Y-117285545D01*
X92700500Y-117238139D01*
X92700499Y-116561862D01*
X92694259Y-116514455D01*
X92645747Y-116410421D01*
X92564579Y-116329253D01*
X92460545Y-116280741D01*
X92460543Y-116280740D01*
X92425498Y-116276127D01*
X92413139Y-116274500D01*
X92413137Y-116274500D01*
X91986862Y-116274500D01*
X91939456Y-116280740D01*
X91939454Y-116280741D01*
X91835420Y-116329253D01*
X91754253Y-116410420D01*
X91705740Y-116514456D01*
X91699500Y-116561862D01*
X91100499Y-116561862D01*
X91094259Y-116514455D01*
X91045747Y-116410421D01*
X90964579Y-116329253D01*
X90868225Y-116284322D01*
X90829963Y-116242565D01*
X90825500Y-116217256D01*
X90825500Y-115874057D01*
X90847174Y-115821731D01*
X91068905Y-115600000D01*
X91227676Y-115441229D01*
X91280001Y-115419556D01*
X91332327Y-115441230D01*
X91354001Y-115493556D01*
X91354001Y-115737399D01*
X91360527Y-115786985D01*
X91360528Y-115786987D01*
X91411276Y-115895816D01*
X91496184Y-115980724D01*
X91605013Y-116031472D01*
X91654599Y-116038000D01*
X92114400Y-116037999D01*
X92163987Y-116031472D01*
X92272816Y-115980724D01*
X92357724Y-115895816D01*
X92408472Y-115786987D01*
X92415000Y-115737401D01*
X92414999Y-114513600D01*
X92408472Y-114464013D01*
X92357724Y-114355184D01*
X92272816Y-114270276D01*
X92163987Y-114219528D01*
X92163985Y-114219527D01*
X92127455Y-114214718D01*
X92114401Y-114213000D01*
X92114399Y-114213000D01*
X91654600Y-114213000D01*
X91605014Y-114219527D01*
X91605012Y-114219528D01*
X91496183Y-114270276D01*
X91411276Y-114355183D01*
X91360527Y-114464014D01*
X91354000Y-114513600D01*
X91354000Y-114826000D01*
X91332326Y-114878326D01*
X91280000Y-114900000D01*
X91179645Y-114900000D01*
X91096766Y-114934328D01*
X90408830Y-115622264D01*
X90403197Y-115635863D01*
X90374499Y-115705144D01*
X90374499Y-115803466D01*
X90374500Y-115803475D01*
X90374500Y-116217255D01*
X90352826Y-116269581D01*
X90331774Y-116284322D01*
X90235421Y-116329253D01*
X90235420Y-116329253D01*
X90154253Y-116410420D01*
X90105740Y-116514456D01*
X90099500Y-116561862D01*
X90099500Y-117238137D01*
X90105740Y-117285543D01*
X90105741Y-117285545D01*
X90154253Y-117389579D01*
X90235421Y-117470747D01*
X90331774Y-117515677D01*
X90370037Y-117557435D01*
X90374500Y-117582744D01*
X90374500Y-117775942D01*
X90352826Y-117828268D01*
X90008829Y-118172265D01*
X90008827Y-118172268D01*
X90003380Y-118185420D01*
X90003380Y-118185421D01*
X89974499Y-118255145D01*
X89974499Y-118353466D01*
X89974500Y-118353475D01*
X89974500Y-118778456D01*
X89952826Y-118830782D01*
X89871951Y-118911656D01*
X89814353Y-119024698D01*
X89794508Y-119150000D01*
X75527400Y-119150000D01*
X75527400Y-112208691D01*
X92069001Y-112208691D01*
X92069001Y-112327309D01*
X92087661Y-112396950D01*
X92099701Y-112441887D01*
X92099703Y-112441891D01*
X92159008Y-112544610D01*
X92159009Y-112544611D01*
X92159011Y-112544614D01*
X92682326Y-113067929D01*
X92704000Y-113120254D01*
X92704000Y-114301808D01*
X92684290Y-114349390D01*
X92684990Y-114349880D01*
X92682781Y-114353033D01*
X92682326Y-114354134D01*
X92681276Y-114355183D01*
X92630527Y-114464014D01*
X92624000Y-114513600D01*
X92624000Y-115737399D01*
X92630527Y-115786985D01*
X92630528Y-115786987D01*
X92681276Y-115895816D01*
X92766184Y-115980724D01*
X92875013Y-116031472D01*
X92875016Y-116031472D01*
X92880451Y-116033057D01*
X92879612Y-116035934D01*
X92920008Y-116059247D01*
X92929675Y-116075987D01*
X92953273Y-116132958D01*
X92963329Y-116157234D01*
X92963332Y-116157238D01*
X93033058Y-116226964D01*
X93054732Y-116279290D01*
X93033058Y-116331616D01*
X92954253Y-116410420D01*
X92905740Y-116514456D01*
X92899500Y-116561862D01*
X92899500Y-117238137D01*
X92905740Y-117285543D01*
X92905741Y-117285545D01*
X92954253Y-117389579D01*
X93035421Y-117470747D01*
X93139455Y-117519259D01*
X93186861Y-117525500D01*
X93613138Y-117525499D01*
X93660545Y-117519259D01*
X93764579Y-117470747D01*
X93845747Y-117389579D01*
X93894259Y-117285545D01*
X93900500Y-117238139D01*
X93900499Y-116561862D01*
X93894259Y-116514455D01*
X93845747Y-116410421D01*
X93764579Y-116329253D01*
X93666996Y-116283749D01*
X93628734Y-116241993D01*
X93625692Y-116231113D01*
X93625500Y-116230152D01*
X93625500Y-116230145D01*
X93595301Y-116157238D01*
X93591171Y-116147266D01*
X93591169Y-116147263D01*
X93535663Y-116091757D01*
X93513989Y-116039431D01*
X93535663Y-115987105D01*
X93540461Y-115983078D01*
X93542814Y-115980724D01*
X93542816Y-115980724D01*
X93627724Y-115895816D01*
X93678472Y-115786987D01*
X93685000Y-115737401D01*
X93684999Y-114513600D01*
X93894000Y-114513600D01*
X93894000Y-115737399D01*
X93900527Y-115786985D01*
X93900528Y-115786987D01*
X93951276Y-115895816D01*
X94036184Y-115980724D01*
X94145013Y-116031472D01*
X94194599Y-116038000D01*
X94654400Y-116037999D01*
X94703987Y-116031472D01*
X94812816Y-115980724D01*
X94897724Y-115895816D01*
X94948472Y-115786987D01*
X94955000Y-115737401D01*
X94954999Y-114513600D01*
X95164000Y-114513600D01*
X95164000Y-115737399D01*
X95170527Y-115786985D01*
X95170528Y-115786987D01*
X95221276Y-115895816D01*
X95306184Y-115980724D01*
X95415013Y-116031472D01*
X95464599Y-116038000D01*
X95924400Y-116037999D01*
X95973987Y-116031472D01*
X96082816Y-115980724D01*
X96167724Y-115895816D01*
X96218472Y-115786987D01*
X96225000Y-115737401D01*
X96224999Y-114513600D01*
X96218472Y-114464013D01*
X96167724Y-114355184D01*
X96166674Y-114354134D01*
X96166218Y-114353033D01*
X96164010Y-114349880D01*
X96164709Y-114349390D01*
X96145000Y-114301808D01*
X96145000Y-113923189D01*
X96144999Y-113923188D01*
X96114300Y-113808617D01*
X96114298Y-113808612D01*
X96054991Y-113705890D01*
X96054990Y-113705889D01*
X96054989Y-113705887D01*
X95971113Y-113622011D01*
X95971110Y-113622009D01*
X95971109Y-113622008D01*
X95868387Y-113562701D01*
X95868382Y-113562699D01*
X95753811Y-113532000D01*
X95753809Y-113532000D01*
X95635191Y-113532000D01*
X95635189Y-113532000D01*
X95520617Y-113562699D01*
X95520612Y-113562701D01*
X95417890Y-113622008D01*
X95334008Y-113705890D01*
X95274701Y-113808612D01*
X95274699Y-113808617D01*
X95244000Y-113923188D01*
X95244000Y-114301808D01*
X95224290Y-114349390D01*
X95224990Y-114349880D01*
X95222781Y-114353033D01*
X95222326Y-114354134D01*
X95221276Y-114355183D01*
X95170527Y-114464014D01*
X95164000Y-114513600D01*
X94954999Y-114513600D01*
X94948472Y-114464013D01*
X94897724Y-114355184D01*
X94896674Y-114354134D01*
X94896218Y-114353033D01*
X94894010Y-114349880D01*
X94894709Y-114349390D01*
X94875000Y-114301808D01*
X94875000Y-113923189D01*
X94874999Y-113923188D01*
X94844300Y-113808617D01*
X94844298Y-113808612D01*
X94784991Y-113705890D01*
X94784990Y-113705889D01*
X94784989Y-113705887D01*
X94701113Y-113622011D01*
X94701110Y-113622009D01*
X94701109Y-113622008D01*
X94598387Y-113562701D01*
X94598382Y-113562699D01*
X94483811Y-113532000D01*
X94483809Y-113532000D01*
X94365191Y-113532000D01*
X94365189Y-113532000D01*
X94250617Y-113562699D01*
X94250612Y-113562701D01*
X94147890Y-113622008D01*
X94064008Y-113705890D01*
X94004701Y-113808612D01*
X94004699Y-113808617D01*
X93974000Y-113923188D01*
X93974000Y-114301808D01*
X93954290Y-114349390D01*
X93954990Y-114349880D01*
X93952781Y-114353033D01*
X93952326Y-114354134D01*
X93951276Y-114355183D01*
X93900527Y-114464014D01*
X93894000Y-114513600D01*
X93684999Y-114513600D01*
X93678472Y-114464013D01*
X93627724Y-114355184D01*
X93626674Y-114354134D01*
X93626218Y-114353033D01*
X93624010Y-114349880D01*
X93624709Y-114349390D01*
X93605000Y-114301808D01*
X93605000Y-113046892D01*
X99225001Y-113046892D01*
X99225002Y-113046908D01*
X99235264Y-113117359D01*
X99235265Y-113117362D01*
X99288401Y-113226053D01*
X99373946Y-113311598D01*
X99482634Y-113364733D01*
X99553099Y-113374999D01*
X99650000Y-113374999D01*
X99950000Y-113374999D01*
X100046893Y-113374999D01*
X100046908Y-113374997D01*
X100117359Y-113364735D01*
X100117362Y-113364734D01*
X100226053Y-113311598D01*
X100311598Y-113226053D01*
X100364733Y-113117365D01*
X100374999Y-113046905D01*
X100375000Y-113046894D01*
X100375000Y-112900000D01*
X99950000Y-112900000D01*
X99950000Y-113374999D01*
X99650000Y-113374999D01*
X99650000Y-112900000D01*
X99225001Y-112900000D01*
X99225001Y-113046892D01*
X93605000Y-113046892D01*
X93605000Y-112843689D01*
X93604999Y-112843688D01*
X93574299Y-112729114D01*
X93514990Y-112626386D01*
X93341698Y-112453094D01*
X99225000Y-112453094D01*
X99225000Y-112600000D01*
X99650000Y-112600000D01*
X99950000Y-112600000D01*
X100374999Y-112600000D01*
X100374999Y-112453107D01*
X100374997Y-112453091D01*
X100374990Y-112453045D01*
X100724500Y-112453045D01*
X100724500Y-113046940D01*
X100724502Y-113046956D01*
X100734778Y-113117504D01*
X100734779Y-113117507D01*
X100734780Y-113117509D01*
X100787988Y-113226347D01*
X100873653Y-113312012D01*
X100982491Y-113365220D01*
X101053051Y-113375500D01*
X101546948Y-113375499D01*
X101600181Y-113367744D01*
X101617504Y-113365221D01*
X101617505Y-113365220D01*
X101617509Y-113365220D01*
X101726347Y-113312012D01*
X101812012Y-113226347D01*
X101828804Y-113191998D01*
X101871257Y-113154509D01*
X101895285Y-113150500D01*
X102062657Y-113150500D01*
X102074232Y-113151410D01*
X102100000Y-113155492D01*
X102125767Y-113151410D01*
X102137343Y-113150500D01*
X102152726Y-113150500D01*
X102152727Y-113150500D01*
X102179661Y-113143282D01*
X102187203Y-113141680D01*
X102225304Y-113135646D01*
X102237387Y-113129488D01*
X102251832Y-113123945D01*
X102254587Y-113123207D01*
X102254590Y-113123205D01*
X102254591Y-113123205D01*
X102289493Y-113103053D01*
X102292883Y-113101211D01*
X102338342Y-113078050D01*
X102339813Y-113076577D01*
X102339821Y-113076573D01*
X102339820Y-113076572D01*
X102345911Y-113070480D01*
X102345913Y-113070480D01*
X102420480Y-112995913D01*
X102420480Y-112995911D01*
X102426572Y-112989820D01*
X102426573Y-112989821D01*
X102426577Y-112989813D01*
X102428050Y-112988342D01*
X102451211Y-112942883D01*
X102453053Y-112939493D01*
X102473205Y-112904591D01*
X102473205Y-112904590D01*
X102473207Y-112904587D01*
X102473945Y-112901831D01*
X102479488Y-112887387D01*
X102485646Y-112875304D01*
X102491680Y-112837203D01*
X102493282Y-112829661D01*
X102500500Y-112802727D01*
X102500500Y-112787342D01*
X102501411Y-112775766D01*
X102505492Y-112749999D01*
X102501411Y-112724232D01*
X102500500Y-112712656D01*
X102500500Y-112697271D01*
X102493288Y-112670359D01*
X102491679Y-112662790D01*
X102485646Y-112624696D01*
X102479489Y-112612612D01*
X102473946Y-112598171D01*
X102473924Y-112598089D01*
X102473207Y-112595413D01*
X102453051Y-112560502D01*
X102451203Y-112557099D01*
X102428050Y-112511658D01*
X102424700Y-112508308D01*
X102424698Y-112508305D01*
X102343334Y-112426941D01*
X102343323Y-112426931D01*
X102338342Y-112421950D01*
X102292904Y-112398798D01*
X102289500Y-112396950D01*
X102254587Y-112376793D01*
X102251819Y-112376051D01*
X102237390Y-112370511D01*
X102225305Y-112364354D01*
X102225304Y-112364353D01*
X102187212Y-112358320D01*
X102179639Y-112356710D01*
X102152728Y-112349500D01*
X102152727Y-112349500D01*
X102137343Y-112349500D01*
X102125767Y-112348589D01*
X102100000Y-112344508D01*
X102074233Y-112348589D01*
X102062657Y-112349500D01*
X101895285Y-112349500D01*
X101842959Y-112327826D01*
X101828804Y-112308001D01*
X101812012Y-112273653D01*
X101772174Y-112233815D01*
X101750500Y-112181489D01*
X101750500Y-112096544D01*
X101772173Y-112044219D01*
X101820480Y-111995913D01*
X101873207Y-111904588D01*
X101900500Y-111802727D01*
X101900500Y-111697273D01*
X101900500Y-111650832D01*
X101922173Y-111598507D01*
X101989198Y-111531483D01*
X102040573Y-111426393D01*
X102050500Y-111358260D01*
X102050500Y-111324500D01*
X102072174Y-111272174D01*
X102124500Y-111250500D01*
X102262657Y-111250500D01*
X102274232Y-111251410D01*
X102300000Y-111255492D01*
X102325767Y-111251410D01*
X102337343Y-111250500D01*
X102352726Y-111250500D01*
X102352727Y-111250500D01*
X102379661Y-111243282D01*
X102387203Y-111241680D01*
X102425304Y-111235646D01*
X102437387Y-111229488D01*
X102451832Y-111223945D01*
X102454587Y-111223207D01*
X102454590Y-111223205D01*
X102454591Y-111223205D01*
X102489493Y-111203053D01*
X102492883Y-111201211D01*
X102538342Y-111178050D01*
X102539813Y-111176577D01*
X102539821Y-111176573D01*
X102539820Y-111176572D01*
X102545911Y-111170480D01*
X102545913Y-111170480D01*
X102620480Y-111095913D01*
X102620480Y-111095911D01*
X102626572Y-111089820D01*
X102626573Y-111089821D01*
X102626577Y-111089813D01*
X102628050Y-111088342D01*
X102651211Y-111042883D01*
X102653053Y-111039493D01*
X102673205Y-111004591D01*
X102673205Y-111004590D01*
X102673207Y-111004587D01*
X102673945Y-111001831D01*
X102679488Y-110987387D01*
X102685646Y-110975304D01*
X102691680Y-110937203D01*
X102693282Y-110929661D01*
X102700500Y-110902727D01*
X102700500Y-110887342D01*
X102701411Y-110875766D01*
X102705492Y-110849999D01*
X102701411Y-110824232D01*
X102700500Y-110812656D01*
X102700500Y-110797271D01*
X102693288Y-110770359D01*
X102691679Y-110762790D01*
X102685646Y-110724696D01*
X102679489Y-110712612D01*
X102673946Y-110698171D01*
X102673924Y-110698089D01*
X102673207Y-110695413D01*
X102653051Y-110660502D01*
X102651203Y-110657099D01*
X102628050Y-110611658D01*
X102624700Y-110608308D01*
X102624698Y-110608305D01*
X102543334Y-110526941D01*
X102543323Y-110526931D01*
X102538342Y-110521950D01*
X102492904Y-110498798D01*
X102489500Y-110496950D01*
X102489400Y-110496892D01*
X102825001Y-110496892D01*
X102825002Y-110496908D01*
X102835264Y-110567359D01*
X102835265Y-110567362D01*
X102888401Y-110676053D01*
X102973946Y-110761598D01*
X103082634Y-110814733D01*
X103153099Y-110824999D01*
X103300000Y-110824999D01*
X103600000Y-110824999D01*
X103746893Y-110824999D01*
X103746908Y-110824997D01*
X103817359Y-110814735D01*
X103817362Y-110814734D01*
X103926053Y-110761598D01*
X104011598Y-110676053D01*
X104064733Y-110567365D01*
X104074999Y-110496905D01*
X104075000Y-110496894D01*
X104075000Y-110400000D01*
X103600000Y-110400000D01*
X103600000Y-110824999D01*
X103300000Y-110824999D01*
X103300000Y-110400000D01*
X102825001Y-110400000D01*
X102825001Y-110496892D01*
X102489400Y-110496892D01*
X102454587Y-110476793D01*
X102451819Y-110476051D01*
X102437390Y-110470511D01*
X102425305Y-110464354D01*
X102425304Y-110464353D01*
X102387212Y-110458320D01*
X102379639Y-110456710D01*
X102352728Y-110449500D01*
X102352727Y-110449500D01*
X102337343Y-110449500D01*
X102325767Y-110448589D01*
X102300000Y-110444508D01*
X102274233Y-110448589D01*
X102262657Y-110449500D01*
X102124500Y-110449500D01*
X102072174Y-110427826D01*
X102050500Y-110375500D01*
X102050500Y-110341746D01*
X102050500Y-110341740D01*
X102040573Y-110273607D01*
X101989198Y-110168517D01*
X101906483Y-110085802D01*
X101906482Y-110085801D01*
X101801394Y-110034427D01*
X101733264Y-110024500D01*
X101733260Y-110024500D01*
X101266740Y-110024500D01*
X101266735Y-110024500D01*
X101198606Y-110034427D01*
X101198605Y-110034427D01*
X101093517Y-110085801D01*
X101010801Y-110168517D01*
X100959427Y-110273605D01*
X100959427Y-110273606D01*
X100949500Y-110341735D01*
X100949500Y-111358264D01*
X100959427Y-111426393D01*
X100959427Y-111426394D01*
X101010801Y-111531482D01*
X101029137Y-111549818D01*
X101050811Y-111602144D01*
X101029142Y-111654465D01*
X101021950Y-111661657D01*
X101021947Y-111661661D01*
X100998801Y-111707089D01*
X100996953Y-111710492D01*
X100976793Y-111745409D01*
X100976790Y-111745423D01*
X100976049Y-111748186D01*
X100970512Y-111762609D01*
X100964353Y-111774697D01*
X100958319Y-111812791D01*
X100956710Y-111820361D01*
X100949500Y-111847274D01*
X100949500Y-111862656D01*
X100948589Y-111874232D01*
X100944508Y-111899999D01*
X100948589Y-111925766D01*
X100949500Y-111937342D01*
X100949500Y-112104714D01*
X100927826Y-112157040D01*
X100908002Y-112171194D01*
X100873655Y-112187985D01*
X100873654Y-112187987D01*
X100787988Y-112273652D01*
X100734780Y-112382489D01*
X100724500Y-112453045D01*
X100374990Y-112453045D01*
X100364735Y-112382640D01*
X100364734Y-112382637D01*
X100311598Y-112273946D01*
X100226053Y-112188401D01*
X100117365Y-112135266D01*
X100046905Y-112125000D01*
X99950000Y-112125000D01*
X99950000Y-112600000D01*
X99650000Y-112600000D01*
X99650000Y-112125000D01*
X99553099Y-112125000D01*
X99482640Y-112135264D01*
X99482637Y-112135265D01*
X99373946Y-112188401D01*
X99288401Y-112273946D01*
X99235266Y-112382634D01*
X99225000Y-112453094D01*
X93341698Y-112453094D01*
X93341649Y-112453045D01*
X92796114Y-111907511D01*
X92796111Y-111907509D01*
X92796110Y-111907508D01*
X92693391Y-111848203D01*
X92693387Y-111848201D01*
X92689924Y-111847273D01*
X92578809Y-111817501D01*
X92460191Y-111817501D01*
X92402902Y-111832851D01*
X92345612Y-111848201D01*
X92345608Y-111848203D01*
X92242889Y-111907508D01*
X92159008Y-111991389D01*
X92099703Y-112094108D01*
X92099701Y-112094112D01*
X92091425Y-112125000D01*
X92069001Y-112208691D01*
X75527400Y-112208691D01*
X75527400Y-111358224D01*
X99050001Y-111358224D01*
X99059912Y-111426250D01*
X99111213Y-111531188D01*
X99193810Y-111613785D01*
X99298750Y-111665087D01*
X99366781Y-111674999D01*
X99450000Y-111674999D01*
X99750000Y-111674999D01*
X99833211Y-111674999D01*
X99833224Y-111674998D01*
X99901250Y-111665087D01*
X100006188Y-111613786D01*
X100088785Y-111531189D01*
X100140087Y-111426249D01*
X100149999Y-111358223D01*
X100150000Y-111358212D01*
X100150000Y-111000000D01*
X99750000Y-111000000D01*
X99750000Y-111674999D01*
X99450000Y-111674999D01*
X99450000Y-111000000D01*
X99050001Y-111000000D01*
X99050001Y-111358224D01*
X75527400Y-111358224D01*
X75527400Y-110341776D01*
X99050000Y-110341776D01*
X99050000Y-110700000D01*
X99450000Y-110700000D01*
X99750000Y-110700000D01*
X100149999Y-110700000D01*
X100149999Y-110341789D01*
X100149998Y-110341775D01*
X100140087Y-110273749D01*
X100088786Y-110168811D01*
X100006189Y-110086214D01*
X99901249Y-110034912D01*
X99833223Y-110025000D01*
X99750000Y-110025000D01*
X99750000Y-110700000D01*
X99450000Y-110700000D01*
X99450000Y-110025000D01*
X99366788Y-110025000D01*
X99366776Y-110025001D01*
X99298749Y-110034912D01*
X99193811Y-110086213D01*
X99111214Y-110168810D01*
X99059912Y-110273750D01*
X99050000Y-110341776D01*
X75527400Y-110341776D01*
X75527400Y-110003094D01*
X102825000Y-110003094D01*
X102825000Y-110100000D01*
X103300000Y-110100000D01*
X103600000Y-110100000D01*
X104074999Y-110100000D01*
X104074999Y-110003107D01*
X104074997Y-110003091D01*
X104064735Y-109932640D01*
X104064734Y-109932637D01*
X104011598Y-109823946D01*
X103926053Y-109738401D01*
X103817365Y-109685266D01*
X103746905Y-109675000D01*
X103600000Y-109675000D01*
X103600000Y-110100000D01*
X103300000Y-110100000D01*
X103300000Y-109675000D01*
X103153099Y-109675000D01*
X103082640Y-109685264D01*
X103082637Y-109685265D01*
X102973946Y-109738401D01*
X102888401Y-109823946D01*
X102835266Y-109932634D01*
X102825000Y-110003094D01*
X75527400Y-110003094D01*
X75527400Y-107381726D01*
X75527682Y-107375276D01*
X75534522Y-107297098D01*
X75754500Y-107297098D01*
X75754500Y-107459901D01*
X75786260Y-107619575D01*
X75786263Y-107619585D01*
X75848563Y-107769992D01*
X75848564Y-107769994D01*
X75848565Y-107769995D01*
X75939016Y-107905363D01*
X76054137Y-108020484D01*
X76189505Y-108110935D01*
X76189506Y-108110935D01*
X76189507Y-108110936D01*
X76339914Y-108173236D01*
X76339919Y-108173238D01*
X76499597Y-108205000D01*
X76499599Y-108205000D01*
X76662401Y-108205000D01*
X76662403Y-108205000D01*
X76822081Y-108173238D01*
X76957037Y-108117338D01*
X91354500Y-108117338D01*
X91361018Y-108166854D01*
X91411692Y-108275524D01*
X91496475Y-108360307D01*
X91605146Y-108410981D01*
X91605145Y-108410981D01*
X91654662Y-108417500D01*
X91734500Y-108417500D01*
X92034500Y-108417500D01*
X92114338Y-108417500D01*
X92163854Y-108410981D01*
X92272524Y-108360307D01*
X92357307Y-108275524D01*
X92407981Y-108166854D01*
X92414500Y-108117338D01*
X92624500Y-108117338D01*
X92631018Y-108166854D01*
X92681692Y-108275524D01*
X92766475Y-108360307D01*
X92875146Y-108410981D01*
X92875145Y-108410981D01*
X92924662Y-108417500D01*
X93004500Y-108417500D01*
X93304500Y-108417500D01*
X93384338Y-108417500D01*
X93433854Y-108410981D01*
X93542524Y-108360307D01*
X93627307Y-108275524D01*
X93677981Y-108166854D01*
X93684500Y-108117338D01*
X93894500Y-108117338D01*
X93901018Y-108166854D01*
X93951692Y-108275524D01*
X94036475Y-108360307D01*
X94145146Y-108410981D01*
X94145145Y-108410981D01*
X94194662Y-108417500D01*
X94274500Y-108417500D01*
X94574500Y-108417500D01*
X94654338Y-108417500D01*
X94703854Y-108410981D01*
X94812524Y-108360307D01*
X94897307Y-108275524D01*
X94947981Y-108166854D01*
X94954500Y-108117338D01*
X95164500Y-108117338D01*
X95171018Y-108166854D01*
X95221692Y-108275524D01*
X95306475Y-108360307D01*
X95415146Y-108410981D01*
X95415145Y-108410981D01*
X95464662Y-108417500D01*
X95544500Y-108417500D01*
X95844500Y-108417500D01*
X95924338Y-108417500D01*
X95973854Y-108410981D01*
X96082524Y-108360307D01*
X96167307Y-108275524D01*
X96217981Y-108166854D01*
X96224500Y-108117338D01*
X96434500Y-108117338D01*
X96441018Y-108166854D01*
X96491692Y-108275524D01*
X96576475Y-108360307D01*
X96685146Y-108410981D01*
X96685145Y-108410981D01*
X96734662Y-108417500D01*
X96814500Y-108417500D01*
X97114500Y-108417500D01*
X97194338Y-108417500D01*
X97243854Y-108410981D01*
X97352524Y-108360307D01*
X97437307Y-108275524D01*
X97453063Y-108241735D01*
X99999500Y-108241735D01*
X99999500Y-109258264D01*
X100009427Y-109326393D01*
X100009427Y-109326394D01*
X100060801Y-109431482D01*
X100060802Y-109431483D01*
X100143517Y-109514198D01*
X100248607Y-109565573D01*
X100316740Y-109575500D01*
X100316746Y-109575500D01*
X100783254Y-109575500D01*
X100783260Y-109575500D01*
X100851393Y-109565573D01*
X100956483Y-109514198D01*
X101039198Y-109431483D01*
X101090573Y-109326393D01*
X101100500Y-109258260D01*
X101100500Y-109224500D01*
X101122174Y-109172174D01*
X101174500Y-109150500D01*
X102831489Y-109150500D01*
X102883815Y-109172174D01*
X102887988Y-109176347D01*
X102973653Y-109262012D01*
X103082491Y-109315220D01*
X103153051Y-109325500D01*
X103746948Y-109325499D01*
X103800181Y-109317744D01*
X103817504Y-109315221D01*
X103817505Y-109315220D01*
X103817509Y-109315220D01*
X103926347Y-109262012D01*
X104012012Y-109176347D01*
X104012012Y-109176346D01*
X104016185Y-109172174D01*
X104068511Y-109150500D01*
X104253455Y-109150500D01*
X104305781Y-109172174D01*
X105227826Y-110094219D01*
X105249500Y-110146545D01*
X105249500Y-113781489D01*
X105227826Y-113833815D01*
X105137988Y-113923652D01*
X105084780Y-114032489D01*
X105074500Y-114103045D01*
X105074500Y-114696940D01*
X105074502Y-114696956D01*
X105084778Y-114767504D01*
X105084779Y-114767507D01*
X105137988Y-114876347D01*
X105177826Y-114916185D01*
X105199500Y-114968511D01*
X105199500Y-115869228D01*
X105177826Y-115921554D01*
X105168996Y-115929095D01*
X105094592Y-115983152D01*
X104978478Y-116112109D01*
X104978475Y-116112114D01*
X104891716Y-116262384D01*
X104891711Y-116262394D01*
X104838093Y-116427418D01*
X104838092Y-116427422D01*
X104838092Y-116427424D01*
X104819953Y-116600000D01*
X104837758Y-116769399D01*
X104838093Y-116772581D01*
X104891711Y-116937605D01*
X104891716Y-116937615D01*
X104978475Y-117087885D01*
X104978478Y-117087890D01*
X105094592Y-117216847D01*
X105234969Y-117318838D01*
X105234976Y-117318842D01*
X105393501Y-117389422D01*
X105563236Y-117425500D01*
X105563237Y-117425500D01*
X105736763Y-117425500D01*
X105736764Y-117425500D01*
X105906499Y-117389422D01*
X106065024Y-117318842D01*
X106104971Y-117289819D01*
X106205407Y-117216847D01*
X106205406Y-117216847D01*
X106205410Y-117216845D01*
X106321522Y-117087889D01*
X106408286Y-116937611D01*
X106461908Y-116772576D01*
X106480047Y-116600000D01*
X106461908Y-116427424D01*
X106455546Y-116407844D01*
X106408288Y-116262394D01*
X106408283Y-116262384D01*
X106397042Y-116242915D01*
X106369295Y-116194855D01*
X106321524Y-116112114D01*
X106321521Y-116112109D01*
X106254792Y-116038000D01*
X106205410Y-115983155D01*
X106131003Y-115929094D01*
X106101411Y-115880802D01*
X106100500Y-115869227D01*
X106100500Y-114968511D01*
X106122174Y-114916185D01*
X106138359Y-114900000D01*
X106162012Y-114876347D01*
X106215220Y-114767509D01*
X106225500Y-114696949D01*
X106225499Y-114103052D01*
X106215242Y-114032640D01*
X106215221Y-114032495D01*
X106215220Y-114032492D01*
X106211313Y-114024500D01*
X106162012Y-113923653D01*
X106076347Y-113837988D01*
X106072174Y-113833815D01*
X106050500Y-113781489D01*
X106050500Y-109897273D01*
X106023207Y-109795413D01*
X106023207Y-109795412D01*
X105970482Y-109704090D01*
X105970481Y-109704089D01*
X105970480Y-109704087D01*
X104695913Y-108429520D01*
X104695910Y-108429518D01*
X104695909Y-108429517D01*
X104604592Y-108376795D01*
X104604588Y-108376793D01*
X104543060Y-108360307D01*
X104502727Y-108349500D01*
X104502726Y-108349500D01*
X104068511Y-108349500D01*
X104016185Y-108327826D01*
X103926347Y-108237988D01*
X103817510Y-108184780D01*
X103782229Y-108179640D01*
X103746949Y-108174500D01*
X103746948Y-108174500D01*
X103153059Y-108174500D01*
X103153043Y-108174502D01*
X103082495Y-108184778D01*
X103082492Y-108184779D01*
X102973652Y-108237988D01*
X102883815Y-108327826D01*
X102831489Y-108349500D01*
X101174500Y-108349500D01*
X101122174Y-108327826D01*
X101100500Y-108275500D01*
X101100500Y-108241746D01*
X101100500Y-108241740D01*
X101090573Y-108173607D01*
X101039198Y-108068517D01*
X100956483Y-107985802D01*
X100956482Y-107985801D01*
X100851394Y-107934427D01*
X100783264Y-107924500D01*
X100783260Y-107924500D01*
X100316740Y-107924500D01*
X100316735Y-107924500D01*
X100248606Y-107934427D01*
X100248605Y-107934427D01*
X100143517Y-107985801D01*
X100060801Y-108068517D01*
X100009427Y-108173605D01*
X100009427Y-108173606D01*
X99999500Y-108241735D01*
X97453063Y-108241735D01*
X97487981Y-108166854D01*
X97494500Y-108117338D01*
X97494500Y-107655500D01*
X97114500Y-107655500D01*
X97114500Y-108417500D01*
X96814500Y-108417500D01*
X96814500Y-107655500D01*
X96434500Y-107655500D01*
X96434500Y-108117338D01*
X96224500Y-108117338D01*
X96224500Y-107655500D01*
X95844500Y-107655500D01*
X95844500Y-108417500D01*
X95544500Y-108417500D01*
X95544500Y-107655500D01*
X95164500Y-107655500D01*
X95164500Y-108117338D01*
X94954500Y-108117338D01*
X94954500Y-107655500D01*
X94574500Y-107655500D01*
X94574500Y-108417500D01*
X94274500Y-108417500D01*
X94274500Y-107655500D01*
X93894500Y-107655500D01*
X93894500Y-108117338D01*
X93684500Y-108117338D01*
X93684500Y-107655500D01*
X93304500Y-107655500D01*
X93304500Y-108417500D01*
X93004500Y-108417500D01*
X93004500Y-107655500D01*
X92624500Y-107655500D01*
X92624500Y-108117338D01*
X92414500Y-108117338D01*
X92414500Y-107655500D01*
X92034500Y-107655500D01*
X92034500Y-108417500D01*
X91734500Y-108417500D01*
X91734500Y-107655500D01*
X91354500Y-107655500D01*
X91354500Y-108117338D01*
X76957037Y-108117338D01*
X76972495Y-108110935D01*
X77107863Y-108020484D01*
X77222984Y-107905363D01*
X77313435Y-107769995D01*
X77375738Y-107619581D01*
X77407500Y-107459903D01*
X77407500Y-107297097D01*
X77375738Y-107137419D01*
X77375736Y-107137414D01*
X77313436Y-106987007D01*
X77251064Y-106893661D01*
X91354500Y-106893661D01*
X91354500Y-107355500D01*
X91734500Y-107355500D01*
X92034500Y-107355500D01*
X92414500Y-107355500D01*
X92414500Y-106893661D01*
X92624500Y-106893661D01*
X92624500Y-107355500D01*
X93004500Y-107355500D01*
X93304500Y-107355500D01*
X93684500Y-107355500D01*
X93684500Y-106893661D01*
X93894500Y-106893661D01*
X93894500Y-107355500D01*
X94274500Y-107355500D01*
X94574500Y-107355500D01*
X94954500Y-107355500D01*
X94954500Y-106893661D01*
X95164500Y-106893661D01*
X95164500Y-107355500D01*
X95544500Y-107355500D01*
X95844500Y-107355500D01*
X96224500Y-107355500D01*
X96224500Y-106893661D01*
X96434500Y-106893661D01*
X96434500Y-107355500D01*
X96814500Y-107355500D01*
X97114500Y-107355500D01*
X97494500Y-107355500D01*
X97494500Y-107297098D01*
X106298000Y-107297098D01*
X106298000Y-107459901D01*
X106329760Y-107619575D01*
X106329763Y-107619585D01*
X106392063Y-107769992D01*
X106392064Y-107769994D01*
X106392065Y-107769995D01*
X106482516Y-107905363D01*
X106597637Y-108020484D01*
X106733005Y-108110935D01*
X106733006Y-108110935D01*
X106733007Y-108110936D01*
X106883414Y-108173236D01*
X106883419Y-108173238D01*
X107043097Y-108205000D01*
X107043099Y-108205000D01*
X107205901Y-108205000D01*
X107205903Y-108205000D01*
X107365581Y-108173238D01*
X107515995Y-108110935D01*
X107651363Y-108020484D01*
X107766484Y-107905363D01*
X107856935Y-107769995D01*
X107919238Y-107619581D01*
X107951000Y-107459903D01*
X107951000Y-107297097D01*
X107919238Y-107137419D01*
X107919236Y-107137414D01*
X107856936Y-106987007D01*
X107766486Y-106851640D01*
X107766484Y-106851637D01*
X107651363Y-106736516D01*
X107649805Y-106735475D01*
X107515992Y-106646063D01*
X107365585Y-106583763D01*
X107365575Y-106583760D01*
X107258645Y-106562491D01*
X107205903Y-106552000D01*
X107043097Y-106552000D01*
X106997831Y-106561003D01*
X106883424Y-106583760D01*
X106883414Y-106583763D01*
X106733007Y-106646063D01*
X106597640Y-106736513D01*
X106482513Y-106851640D01*
X106392063Y-106987007D01*
X106329763Y-107137414D01*
X106329760Y-107137424D01*
X106298000Y-107297098D01*
X97494500Y-107297098D01*
X97494500Y-106893661D01*
X97487981Y-106844145D01*
X97437307Y-106735475D01*
X97352524Y-106650692D01*
X97243853Y-106600018D01*
X97243854Y-106600018D01*
X97194338Y-106593500D01*
X97114500Y-106593500D01*
X97114500Y-107355500D01*
X96814500Y-107355500D01*
X96814500Y-106593500D01*
X96734662Y-106593500D01*
X96685145Y-106600018D01*
X96576475Y-106650692D01*
X96491692Y-106735475D01*
X96441018Y-106844145D01*
X96434500Y-106893661D01*
X96224500Y-106893661D01*
X96217981Y-106844145D01*
X96167307Y-106735475D01*
X96082524Y-106650692D01*
X95973853Y-106600018D01*
X95973854Y-106600018D01*
X95924338Y-106593500D01*
X95844500Y-106593500D01*
X95844500Y-107355500D01*
X95544500Y-107355500D01*
X95544500Y-106593500D01*
X95464662Y-106593500D01*
X95415145Y-106600018D01*
X95306475Y-106650692D01*
X95221692Y-106735475D01*
X95171018Y-106844145D01*
X95164500Y-106893661D01*
X94954500Y-106893661D01*
X94947981Y-106844145D01*
X94897307Y-106735475D01*
X94812524Y-106650692D01*
X94703853Y-106600018D01*
X94703854Y-106600018D01*
X94654338Y-106593500D01*
X94574500Y-106593500D01*
X94574500Y-107355500D01*
X94274500Y-107355500D01*
X94274500Y-106593500D01*
X94194662Y-106593500D01*
X94145145Y-106600018D01*
X94036475Y-106650692D01*
X93951692Y-106735475D01*
X93901018Y-106844145D01*
X93894500Y-106893661D01*
X93684500Y-106893661D01*
X93677981Y-106844145D01*
X93627307Y-106735475D01*
X93542524Y-106650692D01*
X93433853Y-106600018D01*
X93433854Y-106600018D01*
X93384338Y-106593500D01*
X93304500Y-106593500D01*
X93304500Y-107355500D01*
X93004500Y-107355500D01*
X93004500Y-106593500D01*
X92924662Y-106593500D01*
X92875145Y-106600018D01*
X92766475Y-106650692D01*
X92681692Y-106735475D01*
X92631018Y-106844145D01*
X92624500Y-106893661D01*
X92414500Y-106893661D01*
X92407981Y-106844145D01*
X92357307Y-106735475D01*
X92272524Y-106650692D01*
X92163853Y-106600018D01*
X92163854Y-106600018D01*
X92114338Y-106593500D01*
X92034500Y-106593500D01*
X92034500Y-107355500D01*
X91734500Y-107355500D01*
X91734500Y-106593500D01*
X91654662Y-106593500D01*
X91605145Y-106600018D01*
X91496475Y-106650692D01*
X91411692Y-106735475D01*
X91361018Y-106844145D01*
X91354500Y-106893661D01*
X77251064Y-106893661D01*
X77222986Y-106851640D01*
X77222984Y-106851637D01*
X77107863Y-106736516D01*
X77106305Y-106735475D01*
X76972492Y-106646063D01*
X76822085Y-106583763D01*
X76822075Y-106583760D01*
X76715145Y-106562491D01*
X76662403Y-106552000D01*
X76499597Y-106552000D01*
X76454331Y-106561003D01*
X76339924Y-106583760D01*
X76339914Y-106583763D01*
X76189507Y-106646063D01*
X76054140Y-106736513D01*
X75939013Y-106851640D01*
X75848563Y-106987007D01*
X75786263Y-107137414D01*
X75786260Y-107137424D01*
X75754500Y-107297098D01*
X75534522Y-107297098D01*
X75534522Y-107297097D01*
X75542842Y-107201994D01*
X75545081Y-107189296D01*
X75558980Y-107137424D01*
X75589266Y-107024391D01*
X75593671Y-107012289D01*
X75665825Y-106857555D01*
X75672263Y-106846404D01*
X75770186Y-106706556D01*
X75778467Y-106696687D01*
X75899187Y-106575967D01*
X75909056Y-106567686D01*
X76048904Y-106469763D01*
X76060055Y-106463325D01*
X76214789Y-106391171D01*
X76226891Y-106386766D01*
X76391797Y-106342580D01*
X76404494Y-106340342D01*
X76577777Y-106325182D01*
X76584227Y-106324900D01*
X76639503Y-106324900D01*
X107065997Y-106324900D01*
X107121273Y-106324900D01*
X107127723Y-106325182D01*
G37*
G04 #@! TD.AperFunction*
M02*
