M48
; DRILL file {KiCad 8.0.5} date 2024-10-22T05:21:47-0400
; FORMAT={-:-/ absolute / metric / decimal}
; #@! TF.CreationDate,2024-10-22T05:21:47-04:00
; #@! TF.GenerationSoftware,Kicad,Pcbnew,8.0.5
; #@! TF.FileFunction,MixedPlating,1,4
FMAT,2
METRIC
; #@! TA.AperFunction,Plated,PTH,ViaDrill
T1C0.300
; #@! TA.AperFunction,Plated,PTH,ComponentDrill
T2C0.800
; #@! TA.AperFunction,NonPlated,NPTH,ComponentDrill
T3C1.152
%
G90
G05
T1
X75.819Y-108.648
X75.819Y-111.633
X75.819Y-114.681
X75.819Y-117.729
X75.819Y-120.777
X75.819Y-123.825
X75.819Y-126.809
X77.851Y-106.617
X77.851Y-128.841
X82.55Y-106.617
X82.55Y-128.841
X85.09Y-106.617
X85.09Y-128.841
X87.63Y-106.617
X87.63Y-128.841
X90.17Y-106.617
X90.17Y-128.841
X90.2Y-119.15
X90.2Y-120.15
X90.2Y-122.95
X90.2Y-123.95
X90.2Y-126.75
X90.2Y-127.75
X91.1Y-118.1
X91.1Y-120.6
X91.1Y-124.4
X91.1Y-128.2
X91.2Y-121.9
X91.2Y-125.7
X91.885Y-108.712
X92.4Y-117.85
X92.519Y-112.268
X92.671Y-128.841
X92.8Y-121.9
X92.8Y-125.7
X93.154Y-108.712
X93.75Y-118.7
X93.75Y-119.9
X93.75Y-122.5
X93.75Y-123.7
X93.75Y-126.3
X93.75Y-127.5
X94.424Y-108.712
X94.424Y-113.983
X95.45Y-119.9
X95.45Y-123.7
X95.45Y-127.5
X95.5Y-118.55
X95.5Y-122.35
X95.5Y-126.15
X95.6Y-117.75
X95.694Y-108.712
X95.694Y-113.983
X96.33Y-116.09
X96.6Y-121.35
X96.6Y-125.15
X96.965Y-108.712
X96.965Y-113.983
X97.95Y-116.05
X98.65Y-117.05
X98.8Y-110.85
X98.8Y-121.25
X98.8Y-125.05
X98.8Y-128.85
X99.0Y-112.7
X99.7Y-117.65
X99.75Y-111.9
X99.885Y-106.617
X99.9Y-120.25
X99.9Y-124.05
X99.9Y-127.85
X101.25Y-115.15
X101.35Y-111.9
X101.35Y-117.65
X101.854Y-128.778
X102.1Y-112.75
X102.15Y-115.75
X102.25Y-123.95
X102.3Y-110.85
X102.4Y-120.2
X102.6Y-110.1
X102.87Y-106.617
X103.35Y-114.4
X103.4Y-111.05
X104.3Y-110.1
X104.3Y-113.55
X104.3Y-115.25
X105.855Y-106.617
X106.934Y-128.778
X107.823Y-127.889
X107.886Y-108.648
X107.886Y-110.617
X107.886Y-112.649
X107.886Y-115.189
X107.886Y-117.729
X107.886Y-120.269
X107.886Y-122.809
X107.886Y-125.349
T2
X103.65Y-116.6
X103.65Y-118.6
X103.65Y-120.6
X103.65Y-122.6
X103.65Y-124.6
X103.65Y-126.6
X105.65Y-116.6
X105.65Y-118.6
X105.65Y-120.6
X105.65Y-122.6
X105.65Y-124.6
X105.65Y-126.6
T3
X76.581Y-107.378
X76.581Y-128.079
X107.124Y-107.378
M30
