G04 #@! TF.GenerationSoftware,KiCad,Pcbnew,8.0.6*
G04 #@! TF.CreationDate,2025-01-09T21:15:21-05:00*
G04 #@! TF.ProjectId,WarpSE-Overclocking-Board,57617270-5345-42d4-9f76-6572636c6f63,1.0*
G04 #@! TF.SameCoordinates,Original*
G04 #@! TF.FileFunction,Copper,L3,Inr*
G04 #@! TF.FilePolarity,Positive*
%FSLAX46Y46*%
G04 Gerber Fmt 4.6, Leading zero omitted, Abs format (unit mm)*
G04 Created by KiCad (PCBNEW 8.0.6) date 2025-01-09 21:15:21*
%MOMM*%
%LPD*%
G01*
G04 APERTURE LIST*
G04 Aperture macros list*
%AMRoundRect*
0 Rectangle with rounded corners*
0 $1 Rounding radius*
0 $2 $3 $4 $5 $6 $7 $8 $9 X,Y pos of 4 corners*
0 Add a 4 corners polygon primitive as box body*
4,1,4,$2,$3,$4,$5,$6,$7,$8,$9,$2,$3,0*
0 Add four circle primitives for the rounded corners*
1,1,$1+$1,$2,$3*
1,1,$1+$1,$4,$5*
1,1,$1+$1,$6,$7*
1,1,$1+$1,$8,$9*
0 Add four rect primitives between the rounded corners*
20,1,$1+$1,$2,$3,$4,$5,0*
20,1,$1+$1,$4,$5,$6,$7,0*
20,1,$1+$1,$6,$7,$8,$9,0*
20,1,$1+$1,$8,$9,$2,$3,0*%
G04 Aperture macros list end*
G04 #@! TA.AperFunction,ComponentPad*
%ADD10RoundRect,0.200000X-0.475000X-0.475000X0.475000X-0.475000X0.475000X0.475000X-0.475000X0.475000X0*%
G04 #@! TD*
G04 #@! TA.AperFunction,ComponentPad*
%ADD11O,1.350000X1.350000*%
G04 #@! TD*
G04 #@! TA.AperFunction,ViaPad*
%ADD12C,0.500000*%
G04 #@! TD*
G04 #@! TA.AperFunction,ViaPad*
%ADD13C,0.600000*%
G04 #@! TD*
G04 #@! TA.AperFunction,Conductor*
%ADD14C,0.150000*%
G04 #@! TD*
G04 APERTURE END LIST*
D10*
X103650000Y-116600000D03*
D11*
X105650000Y-116600000D03*
X103650000Y-118600000D03*
X105650000Y-118600000D03*
X103650000Y-120600000D03*
X105650000Y-120600000D03*
X103650000Y-122600000D03*
X105650000Y-122600000D03*
X103650000Y-124600000D03*
X105650000Y-124600000D03*
X103650000Y-126600000D03*
X105650000Y-126600000D03*
D12*
X75819000Y-117729000D03*
X95450000Y-123700000D03*
X99885500Y-106616500D03*
X95500000Y-121550000D03*
X107886500Y-120269000D03*
X77851000Y-128841500D03*
X75819000Y-126809500D03*
X91100000Y-120600000D03*
X102150000Y-115750000D03*
X91100000Y-128200000D03*
X102400000Y-120200000D03*
X107886500Y-115189000D03*
X98800000Y-128850000D03*
X77851000Y-106616500D03*
D13*
X93154500Y-108712000D03*
D12*
X75819000Y-123825000D03*
X104394000Y-128778000D03*
X102250000Y-123950000D03*
X99750000Y-111900000D03*
X92450000Y-120950000D03*
X99900000Y-120250000D03*
X87630000Y-128841500D03*
X107886500Y-122809000D03*
X93750000Y-127500000D03*
D13*
X94424500Y-108712000D03*
D12*
X103350000Y-114300000D03*
X104300000Y-113450000D03*
X98800000Y-121250000D03*
X90200000Y-120150000D03*
X98800000Y-110850000D03*
X106934000Y-128778000D03*
X95500000Y-125350000D03*
X82550000Y-106616500D03*
X105854500Y-106616500D03*
X93750000Y-123700000D03*
X107886500Y-108648500D03*
X75819000Y-114681000D03*
D13*
X91884500Y-108712000D03*
D12*
X91100000Y-124400000D03*
X99900000Y-127850000D03*
X93750000Y-119900000D03*
X101250000Y-115150000D03*
X75819000Y-120777000D03*
X107886500Y-125349000D03*
X95450000Y-127500000D03*
X85090000Y-128841500D03*
X107886500Y-117729000D03*
X75819000Y-111633000D03*
X82550000Y-128841500D03*
X90200000Y-127750000D03*
X95600000Y-117750000D03*
X75819000Y-108648500D03*
X101854000Y-128778000D03*
X92671000Y-128841500D03*
X102600000Y-110100000D03*
X90170000Y-128841500D03*
X107886500Y-110617000D03*
X104300000Y-115150000D03*
X98800000Y-125050000D03*
X103400000Y-111050000D03*
X101350000Y-117650000D03*
X102870000Y-106616500D03*
X90170000Y-106616500D03*
X99900000Y-124050000D03*
D13*
X96964500Y-108712000D03*
D12*
X107823000Y-127889000D03*
X99000000Y-112700000D03*
X96330000Y-116090000D03*
D13*
X95694500Y-108712000D03*
D12*
X95450000Y-119900000D03*
X87630000Y-106616500D03*
X92450000Y-124750000D03*
X107886500Y-112649000D03*
X85090000Y-106616500D03*
X90200000Y-123950000D03*
X104300000Y-110100000D03*
X95500000Y-118550000D03*
X97950000Y-116050000D03*
X93750000Y-122500000D03*
X92800000Y-121900000D03*
X92800000Y-118100000D03*
X96600000Y-121350000D03*
X95500000Y-122350000D03*
X101350000Y-111900000D03*
X102100000Y-112750000D03*
X95500000Y-126150000D03*
X93750000Y-118700000D03*
X99700000Y-117650000D03*
X92800000Y-125700000D03*
X93750000Y-126300000D03*
X98650000Y-117050000D03*
X102300000Y-110850000D03*
X96600000Y-125150000D03*
X96964500Y-109982000D03*
X91200000Y-125700000D03*
X91200000Y-121900000D03*
X91100000Y-118100000D03*
X91100000Y-113100000D03*
X94424500Y-109982000D03*
X95694500Y-109982000D03*
D14*
X96964500Y-109982000D02*
X99246500Y-107700000D01*
X106750000Y-121500000D02*
X105650000Y-122600000D01*
X99246500Y-107700000D02*
X104650000Y-107700000D01*
X106750000Y-109800000D02*
X106750000Y-121500000D01*
X104650000Y-107700000D02*
X106750000Y-109800000D01*
X91200000Y-125700000D02*
X91200000Y-125450000D01*
X91000000Y-122100000D02*
X91200000Y-121900000D01*
X91200000Y-121900000D02*
X91200000Y-121650000D01*
X91100000Y-119450000D02*
X91100000Y-118100000D01*
X91900000Y-120250000D02*
X91100000Y-119450000D01*
X91200000Y-125450000D02*
X91900000Y-124750000D01*
X91000000Y-123150000D02*
X91000000Y-122100000D01*
X91100000Y-113100000D02*
X91100000Y-118100000D01*
X91900000Y-120950000D02*
X91900000Y-120250000D01*
X91900000Y-124050000D02*
X91000000Y-123150000D01*
X91200000Y-121650000D02*
X91900000Y-120950000D01*
X91900000Y-124750000D02*
X91900000Y-124050000D01*
X103100000Y-125600000D02*
X101750000Y-124250000D01*
X98957500Y-107100000D02*
X104950000Y-107100000D01*
X95059500Y-109347000D02*
X95059500Y-108585000D01*
X95059500Y-108585000D02*
X95504000Y-108140500D01*
X94424500Y-109982000D02*
X95059500Y-109347000D01*
X101750000Y-124250000D02*
X101750000Y-122500000D01*
X107350000Y-124800000D02*
X106550000Y-125600000D01*
X101750000Y-122500000D02*
X103650000Y-120600000D01*
X97917000Y-108140500D02*
X98957500Y-107100000D01*
X95504000Y-108140500D02*
X97917000Y-108140500D01*
X106550000Y-125600000D02*
X103100000Y-125600000D01*
X104950000Y-107100000D02*
X107350000Y-109500000D01*
X107350000Y-109500000D02*
X107350000Y-124800000D01*
X95694500Y-109982000D02*
X96393000Y-109283500D01*
X104650000Y-121600000D02*
X105650000Y-120600000D01*
X104800000Y-107400000D02*
X107050000Y-109650000D01*
X107050000Y-109650000D02*
X107050000Y-123150000D01*
X104650000Y-123200000D02*
X104650000Y-121600000D01*
X96393000Y-109283500D02*
X97218500Y-109283500D01*
X106600000Y-123600000D02*
X105050000Y-123600000D01*
X99102000Y-107400000D02*
X104800000Y-107400000D01*
X105050000Y-123600000D02*
X104650000Y-123200000D01*
X97218500Y-109283500D02*
X99102000Y-107400000D01*
X107050000Y-123150000D02*
X106600000Y-123600000D01*
G04 #@! TA.AperFunction,Conductor*
G36*
X99965077Y-127612252D02*
G01*
X99987092Y-127619405D01*
X100035360Y-127643999D01*
X100054087Y-127657605D01*
X100092391Y-127695909D01*
X100106000Y-127714640D01*
X100130591Y-127762903D01*
X100137745Y-127784921D01*
X100146219Y-127838422D01*
X100146219Y-127861576D01*
X100137745Y-127915077D01*
X100130591Y-127937095D01*
X100106000Y-127985358D01*
X100092391Y-128004089D01*
X100054089Y-128042391D01*
X100035358Y-128056000D01*
X99987095Y-128080591D01*
X99965077Y-128087745D01*
X99911576Y-128096219D01*
X99888422Y-128096219D01*
X99834921Y-128087745D01*
X99812903Y-128080591D01*
X99764640Y-128056000D01*
X99745909Y-128042391D01*
X99707605Y-128004087D01*
X99693999Y-127985360D01*
X99669405Y-127937092D01*
X99662252Y-127915075D01*
X99657545Y-127885356D01*
X99653779Y-127861572D01*
X99653779Y-127838424D01*
X99662252Y-127784921D01*
X99669407Y-127762903D01*
X99670085Y-127761574D01*
X99694000Y-127714636D01*
X99707607Y-127695909D01*
X99745910Y-127657605D01*
X99764637Y-127644000D01*
X99773214Y-127639630D01*
X99812905Y-127619406D01*
X99834921Y-127612252D01*
X99888425Y-127603779D01*
X99911573Y-127603779D01*
X99965077Y-127612252D01*
G37*
G04 #@! TD.AperFunction*
G04 #@! TA.AperFunction,Conductor*
G36*
X90265077Y-127512252D02*
G01*
X90287092Y-127519405D01*
X90335360Y-127543999D01*
X90354087Y-127557605D01*
X90392391Y-127595909D01*
X90406000Y-127614640D01*
X90430591Y-127662903D01*
X90437745Y-127684921D01*
X90446219Y-127738422D01*
X90446219Y-127761575D01*
X90437745Y-127815078D01*
X90430592Y-127837094D01*
X90427218Y-127843714D01*
X90424017Y-127849999D01*
X90411077Y-127875394D01*
X90406000Y-127885359D01*
X90392392Y-127904088D01*
X90354089Y-127942391D01*
X90335358Y-127956000D01*
X90287095Y-127980591D01*
X90265077Y-127987745D01*
X90211576Y-127996219D01*
X90188422Y-127996219D01*
X90134921Y-127987745D01*
X90112903Y-127980591D01*
X90064640Y-127956000D01*
X90045909Y-127942391D01*
X90007605Y-127904087D01*
X89993998Y-127885359D01*
X89969405Y-127837092D01*
X89962252Y-127815075D01*
X89957476Y-127784921D01*
X89953779Y-127761572D01*
X89953779Y-127738424D01*
X89962252Y-127684921D01*
X89969407Y-127662903D01*
X89972107Y-127657605D01*
X89994000Y-127614636D01*
X90007607Y-127595909D01*
X90045910Y-127557605D01*
X90064637Y-127544000D01*
X90078660Y-127536855D01*
X90112905Y-127519406D01*
X90134921Y-127512252D01*
X90188425Y-127503779D01*
X90211573Y-127503779D01*
X90265077Y-127512252D01*
G37*
G04 #@! TD.AperFunction*
G04 #@! TA.AperFunction,Conductor*
G36*
X93815077Y-127262252D02*
G01*
X93837092Y-127269405D01*
X93885360Y-127293999D01*
X93904087Y-127307605D01*
X93942391Y-127345909D01*
X93956000Y-127364640D01*
X93980591Y-127412903D01*
X93987745Y-127434921D01*
X93996219Y-127488422D01*
X93996219Y-127511576D01*
X93987745Y-127565077D01*
X93980591Y-127587095D01*
X93956000Y-127635358D01*
X93942391Y-127654089D01*
X93904089Y-127692391D01*
X93885358Y-127706000D01*
X93837095Y-127730591D01*
X93815077Y-127737745D01*
X93761576Y-127746219D01*
X93738422Y-127746219D01*
X93684921Y-127737745D01*
X93662903Y-127730591D01*
X93614640Y-127706000D01*
X93595909Y-127692391D01*
X93557605Y-127654087D01*
X93543999Y-127635360D01*
X93519405Y-127587092D01*
X93512252Y-127565075D01*
X93511069Y-127557608D01*
X93503779Y-127511572D01*
X93503779Y-127488424D01*
X93512252Y-127434921D01*
X93519407Y-127412903D01*
X93543999Y-127364640D01*
X93544000Y-127364636D01*
X93557607Y-127345909D01*
X93595911Y-127307604D01*
X93614637Y-127294000D01*
X93638773Y-127281703D01*
X93662906Y-127269405D01*
X93684921Y-127262252D01*
X93738425Y-127253779D01*
X93761573Y-127253779D01*
X93815077Y-127262252D01*
G37*
G04 #@! TD.AperFunction*
G04 #@! TA.AperFunction,Conductor*
G36*
X95515077Y-127262252D02*
G01*
X95537092Y-127269405D01*
X95585360Y-127293999D01*
X95604087Y-127307605D01*
X95642391Y-127345909D01*
X95656000Y-127364640D01*
X95680591Y-127412903D01*
X95687745Y-127434921D01*
X95696219Y-127488422D01*
X95696219Y-127511576D01*
X95687745Y-127565077D01*
X95680591Y-127587095D01*
X95656000Y-127635358D01*
X95642391Y-127654089D01*
X95604088Y-127692392D01*
X95585363Y-127705998D01*
X95574671Y-127711447D01*
X95574664Y-127711450D01*
X95537096Y-127730591D01*
X95515078Y-127737745D01*
X95461575Y-127746219D01*
X95438422Y-127746219D01*
X95384921Y-127737745D01*
X95362903Y-127730591D01*
X95314640Y-127706000D01*
X95295909Y-127692391D01*
X95257605Y-127654087D01*
X95243999Y-127635360D01*
X95219405Y-127587092D01*
X95212252Y-127565075D01*
X95211069Y-127557608D01*
X95203779Y-127511572D01*
X95203779Y-127488424D01*
X95212252Y-127434921D01*
X95219407Y-127412903D01*
X95243999Y-127364640D01*
X95244000Y-127364636D01*
X95257607Y-127345909D01*
X95295911Y-127307604D01*
X95314637Y-127294000D01*
X95338773Y-127281703D01*
X95362906Y-127269405D01*
X95384921Y-127262252D01*
X95438425Y-127253779D01*
X95461573Y-127253779D01*
X95515077Y-127262252D01*
G37*
G04 #@! TD.AperFunction*
G04 #@! TA.AperFunction,Conductor*
G36*
X95565077Y-125112252D02*
G01*
X95587092Y-125119405D01*
X95635360Y-125143999D01*
X95654087Y-125157605D01*
X95692391Y-125195909D01*
X95706000Y-125214640D01*
X95730591Y-125262903D01*
X95737745Y-125284921D01*
X95746219Y-125338422D01*
X95746219Y-125361576D01*
X95737745Y-125415077D01*
X95730591Y-125437095D01*
X95706000Y-125485358D01*
X95692391Y-125504089D01*
X95654089Y-125542391D01*
X95635358Y-125556000D01*
X95587095Y-125580591D01*
X95565077Y-125587745D01*
X95511576Y-125596219D01*
X95488422Y-125596219D01*
X95434921Y-125587745D01*
X95412903Y-125580591D01*
X95364640Y-125556000D01*
X95345909Y-125542391D01*
X95307605Y-125504087D01*
X95293999Y-125485360D01*
X95269405Y-125437092D01*
X95262252Y-125415075D01*
X95253779Y-125361574D01*
X95253779Y-125338424D01*
X95262252Y-125284921D01*
X95269407Y-125262903D01*
X95272925Y-125256000D01*
X95294000Y-125214636D01*
X95307607Y-125195909D01*
X95345910Y-125157605D01*
X95364637Y-125144000D01*
X95378189Y-125137095D01*
X95412905Y-125119406D01*
X95434921Y-125112252D01*
X95488425Y-125103779D01*
X95511573Y-125103779D01*
X95565077Y-125112252D01*
G37*
G04 #@! TD.AperFunction*
G04 #@! TA.AperFunction,Conductor*
G36*
X98865077Y-124812252D02*
G01*
X98887092Y-124819405D01*
X98935360Y-124843999D01*
X98954087Y-124857605D01*
X98992391Y-124895909D01*
X99006000Y-124914640D01*
X99030591Y-124962903D01*
X99037745Y-124984921D01*
X99046219Y-125038422D01*
X99046219Y-125061576D01*
X99037745Y-125115077D01*
X99030591Y-125137095D01*
X99006000Y-125185358D01*
X98992391Y-125204089D01*
X98954089Y-125242391D01*
X98935358Y-125256000D01*
X98887095Y-125280591D01*
X98865077Y-125287745D01*
X98811576Y-125296219D01*
X98788422Y-125296219D01*
X98734921Y-125287745D01*
X98712903Y-125280591D01*
X98664640Y-125256000D01*
X98645909Y-125242391D01*
X98607605Y-125204087D01*
X98593999Y-125185360D01*
X98569405Y-125137092D01*
X98562252Y-125115075D01*
X98562095Y-125114086D01*
X98553779Y-125061572D01*
X98553779Y-125038423D01*
X98553780Y-125038422D01*
X98562252Y-124984926D01*
X98569406Y-124962909D01*
X98582004Y-124938183D01*
X98594001Y-124914636D01*
X98607607Y-124895908D01*
X98645910Y-124857605D01*
X98664637Y-124844000D01*
X98684803Y-124833725D01*
X98712905Y-124819406D01*
X98734921Y-124812252D01*
X98788425Y-124803779D01*
X98811573Y-124803779D01*
X98865077Y-124812252D01*
G37*
G04 #@! TD.AperFunction*
G04 #@! TA.AperFunction,Conductor*
G36*
X92515077Y-124512252D02*
G01*
X92537092Y-124519405D01*
X92585360Y-124543999D01*
X92604087Y-124557605D01*
X92642391Y-124595909D01*
X92656000Y-124614640D01*
X92680591Y-124662903D01*
X92687745Y-124684921D01*
X92696219Y-124738422D01*
X92696219Y-124761576D01*
X92687745Y-124815077D01*
X92680591Y-124837095D01*
X92656000Y-124885358D01*
X92642391Y-124904089D01*
X92604089Y-124942391D01*
X92585358Y-124956000D01*
X92537095Y-124980591D01*
X92515077Y-124987745D01*
X92461576Y-124996219D01*
X92438422Y-124996219D01*
X92384921Y-124987745D01*
X92362903Y-124980591D01*
X92314640Y-124956000D01*
X92295909Y-124942391D01*
X92246986Y-124893468D01*
X92239447Y-124884641D01*
X92232676Y-124875322D01*
X92231654Y-124873953D01*
X92230223Y-124872036D01*
X92166364Y-124823036D01*
X92166362Y-124823035D01*
X92166358Y-124823032D01*
X92162499Y-124820804D01*
X92128021Y-124775870D01*
X92125500Y-124756719D01*
X92125500Y-124643879D01*
X92147174Y-124591553D01*
X92193694Y-124570108D01*
X92245293Y-124566048D01*
X92303690Y-124549579D01*
X92362910Y-124519404D01*
X92384920Y-124512253D01*
X92438426Y-124503779D01*
X92461573Y-124503779D01*
X92515077Y-124512252D01*
G37*
G04 #@! TD.AperFunction*
G04 #@! TA.AperFunction,Conductor*
G36*
X91165077Y-124162252D02*
G01*
X91187092Y-124169405D01*
X91235360Y-124193999D01*
X91254087Y-124207605D01*
X91292391Y-124245909D01*
X91306000Y-124264640D01*
X91330591Y-124312903D01*
X91337745Y-124334921D01*
X91346219Y-124388422D01*
X91346219Y-124411576D01*
X91337745Y-124465077D01*
X91330591Y-124487095D01*
X91306000Y-124535358D01*
X91292391Y-124554089D01*
X91254089Y-124592391D01*
X91235358Y-124606000D01*
X91187095Y-124630591D01*
X91165077Y-124637745D01*
X91111576Y-124646219D01*
X91088422Y-124646219D01*
X91034921Y-124637745D01*
X91012903Y-124630591D01*
X90964640Y-124606000D01*
X90945909Y-124592391D01*
X90907605Y-124554087D01*
X90893999Y-124535360D01*
X90869405Y-124487092D01*
X90862252Y-124465075D01*
X90853779Y-124411574D01*
X90853779Y-124388424D01*
X90862252Y-124334921D01*
X90869407Y-124312903D01*
X90873758Y-124304365D01*
X90894000Y-124264636D01*
X90907607Y-124245909D01*
X90945910Y-124207605D01*
X90964637Y-124194000D01*
X90973424Y-124189523D01*
X91012905Y-124169406D01*
X91034921Y-124162252D01*
X91088425Y-124153779D01*
X91111573Y-124153779D01*
X91165077Y-124162252D01*
G37*
G04 #@! TD.AperFunction*
G04 #@! TA.AperFunction,Conductor*
G36*
X99965077Y-123812252D02*
G01*
X99987092Y-123819405D01*
X100035360Y-123843999D01*
X100054087Y-123857605D01*
X100092391Y-123895909D01*
X100106000Y-123914640D01*
X100130591Y-123962903D01*
X100137745Y-123984921D01*
X100146219Y-124038422D01*
X100146219Y-124061576D01*
X100137745Y-124115077D01*
X100130591Y-124137095D01*
X100106000Y-124185358D01*
X100092391Y-124204089D01*
X100054089Y-124242391D01*
X100035358Y-124256000D01*
X99987095Y-124280591D01*
X99965077Y-124287745D01*
X99911576Y-124296219D01*
X99888422Y-124296219D01*
X99834921Y-124287745D01*
X99812903Y-124280591D01*
X99764640Y-124256000D01*
X99745909Y-124242391D01*
X99707605Y-124204087D01*
X99693999Y-124185360D01*
X99669405Y-124137092D01*
X99662252Y-124115075D01*
X99657545Y-124085356D01*
X99653779Y-124061572D01*
X99653779Y-124038424D01*
X99662252Y-123984921D01*
X99669407Y-123962903D01*
X99670084Y-123961576D01*
X99694000Y-123914636D01*
X99707607Y-123895909D01*
X99745910Y-123857605D01*
X99764637Y-123844000D01*
X99772501Y-123839993D01*
X99812905Y-123819406D01*
X99834921Y-123812252D01*
X99888425Y-123803779D01*
X99911573Y-123803779D01*
X99965077Y-123812252D01*
G37*
G04 #@! TD.AperFunction*
G04 #@! TA.AperFunction,Conductor*
G36*
X102315077Y-123712252D02*
G01*
X102337092Y-123719405D01*
X102385360Y-123743999D01*
X102404087Y-123757605D01*
X102442391Y-123795909D01*
X102456000Y-123814640D01*
X102480591Y-123862903D01*
X102487745Y-123884921D01*
X102496219Y-123938422D01*
X102496219Y-123961576D01*
X102487745Y-124015077D01*
X102480591Y-124037095D01*
X102456000Y-124085358D01*
X102442391Y-124104089D01*
X102404089Y-124142391D01*
X102385358Y-124156000D01*
X102337095Y-124180591D01*
X102315081Y-124187744D01*
X102303863Y-124189521D01*
X102303845Y-124189525D01*
X102257587Y-124204555D01*
X102216830Y-124225322D01*
X102216829Y-124225323D01*
X102192766Y-124240505D01*
X102192763Y-124240508D01*
X102186233Y-124249018D01*
X102137184Y-124277336D01*
X102082477Y-124262676D01*
X102075200Y-124256295D01*
X102044228Y-124225323D01*
X101997174Y-124178268D01*
X101975500Y-124125942D01*
X101975500Y-123818403D01*
X101997174Y-123766077D01*
X102043694Y-123744632D01*
X102095293Y-123740572D01*
X102153690Y-123724103D01*
X102162908Y-123719405D01*
X102184921Y-123712253D01*
X102238426Y-123703779D01*
X102261573Y-123703779D01*
X102315077Y-123712252D01*
G37*
G04 #@! TD.AperFunction*
G04 #@! TA.AperFunction,Conductor*
G36*
X90265077Y-123712252D02*
G01*
X90287092Y-123719405D01*
X90335360Y-123743999D01*
X90354087Y-123757605D01*
X90392391Y-123795909D01*
X90406000Y-123814640D01*
X90430591Y-123862903D01*
X90437745Y-123884921D01*
X90446219Y-123938422D01*
X90446219Y-123961576D01*
X90437745Y-124015077D01*
X90430591Y-124037095D01*
X90406000Y-124085358D01*
X90392391Y-124104089D01*
X90354089Y-124142391D01*
X90335358Y-124156000D01*
X90287095Y-124180591D01*
X90265077Y-124187745D01*
X90211576Y-124196219D01*
X90188422Y-124196219D01*
X90134921Y-124187745D01*
X90112903Y-124180591D01*
X90064640Y-124156000D01*
X90045909Y-124142391D01*
X90007605Y-124104087D01*
X89993999Y-124085360D01*
X89969405Y-124037092D01*
X89962252Y-124015075D01*
X89957476Y-123984921D01*
X89953779Y-123961572D01*
X89953779Y-123938424D01*
X89962252Y-123884921D01*
X89969407Y-123862903D01*
X89972107Y-123857605D01*
X89994000Y-123814636D01*
X90007607Y-123795909D01*
X90045910Y-123757605D01*
X90064637Y-123744000D01*
X90103687Y-123724103D01*
X90112905Y-123719406D01*
X90134921Y-123712252D01*
X90188425Y-123703779D01*
X90211573Y-123703779D01*
X90265077Y-123712252D01*
G37*
G04 #@! TD.AperFunction*
G04 #@! TA.AperFunction,Conductor*
G36*
X93815077Y-123462252D02*
G01*
X93837092Y-123469405D01*
X93885360Y-123493999D01*
X93904087Y-123507605D01*
X93942391Y-123545909D01*
X93956000Y-123564640D01*
X93980591Y-123612903D01*
X93987745Y-123634921D01*
X93996219Y-123688422D01*
X93996219Y-123711576D01*
X93987745Y-123765077D01*
X93980591Y-123787095D01*
X93956000Y-123835358D01*
X93942391Y-123854089D01*
X93904089Y-123892391D01*
X93885358Y-123906000D01*
X93837095Y-123930591D01*
X93815077Y-123937745D01*
X93761576Y-123946219D01*
X93738422Y-123946219D01*
X93684921Y-123937745D01*
X93662903Y-123930591D01*
X93614640Y-123906000D01*
X93595909Y-123892391D01*
X93557605Y-123854087D01*
X93543999Y-123835360D01*
X93519405Y-123787092D01*
X93512252Y-123765075D01*
X93511069Y-123757608D01*
X93503779Y-123711572D01*
X93503779Y-123688424D01*
X93512252Y-123634921D01*
X93519407Y-123612903D01*
X93533887Y-123584486D01*
X93544000Y-123564636D01*
X93557607Y-123545909D01*
X93595910Y-123507605D01*
X93614637Y-123494000D01*
X93614645Y-123493996D01*
X93662905Y-123469406D01*
X93684921Y-123462252D01*
X93738425Y-123453779D01*
X93761573Y-123453779D01*
X93815077Y-123462252D01*
G37*
G04 #@! TD.AperFunction*
G04 #@! TA.AperFunction,Conductor*
G36*
X95515077Y-123462252D02*
G01*
X95537092Y-123469405D01*
X95585360Y-123493999D01*
X95604087Y-123507605D01*
X95642391Y-123545909D01*
X95656000Y-123564640D01*
X95680591Y-123612903D01*
X95687745Y-123634921D01*
X95696219Y-123688422D01*
X95696219Y-123711576D01*
X95687745Y-123765077D01*
X95680591Y-123787095D01*
X95656000Y-123835358D01*
X95642391Y-123854089D01*
X95604088Y-123892392D01*
X95585363Y-123905998D01*
X95574671Y-123911447D01*
X95574664Y-123911450D01*
X95537096Y-123930591D01*
X95515078Y-123937745D01*
X95461575Y-123946219D01*
X95438422Y-123946219D01*
X95384921Y-123937745D01*
X95362903Y-123930591D01*
X95314640Y-123906000D01*
X95295909Y-123892391D01*
X95257605Y-123854087D01*
X95243999Y-123835360D01*
X95219405Y-123787092D01*
X95212252Y-123765075D01*
X95211069Y-123757608D01*
X95203779Y-123711572D01*
X95203779Y-123688424D01*
X95212252Y-123634921D01*
X95219407Y-123612903D01*
X95233887Y-123584486D01*
X95244000Y-123564636D01*
X95257607Y-123545909D01*
X95295910Y-123507605D01*
X95314637Y-123494000D01*
X95314645Y-123493996D01*
X95362905Y-123469406D01*
X95384921Y-123462252D01*
X95438425Y-123453779D01*
X95461573Y-123453779D01*
X95515077Y-123462252D01*
G37*
G04 #@! TD.AperFunction*
G04 #@! TA.AperFunction,Conductor*
G36*
X95565077Y-121312252D02*
G01*
X95587092Y-121319405D01*
X95635360Y-121343999D01*
X95654087Y-121357605D01*
X95692391Y-121395909D01*
X95706000Y-121414640D01*
X95730591Y-121462903D01*
X95737745Y-121484921D01*
X95746219Y-121538422D01*
X95746219Y-121561576D01*
X95737745Y-121615077D01*
X95730591Y-121637095D01*
X95706000Y-121685358D01*
X95692391Y-121704089D01*
X95654089Y-121742391D01*
X95635358Y-121756000D01*
X95587095Y-121780591D01*
X95565077Y-121787745D01*
X95511576Y-121796219D01*
X95488422Y-121796219D01*
X95434921Y-121787745D01*
X95412903Y-121780591D01*
X95364640Y-121756000D01*
X95345909Y-121742391D01*
X95307605Y-121704087D01*
X95293999Y-121685360D01*
X95269405Y-121637092D01*
X95262252Y-121615075D01*
X95253779Y-121561574D01*
X95253779Y-121538424D01*
X95262252Y-121484921D01*
X95269407Y-121462903D01*
X95272925Y-121456000D01*
X95294000Y-121414636D01*
X95307607Y-121395909D01*
X95345910Y-121357605D01*
X95364637Y-121344000D01*
X95378189Y-121337095D01*
X95412905Y-121319406D01*
X95434921Y-121312252D01*
X95488425Y-121303779D01*
X95511573Y-121303779D01*
X95565077Y-121312252D01*
G37*
G04 #@! TD.AperFunction*
G04 #@! TA.AperFunction,Conductor*
G36*
X98865077Y-121012252D02*
G01*
X98887092Y-121019405D01*
X98935360Y-121043999D01*
X98954087Y-121057605D01*
X98992391Y-121095909D01*
X99006000Y-121114640D01*
X99030591Y-121162903D01*
X99037745Y-121184921D01*
X99046219Y-121238422D01*
X99046219Y-121261576D01*
X99037745Y-121315077D01*
X99030591Y-121337095D01*
X99006000Y-121385358D01*
X98992391Y-121404089D01*
X98954089Y-121442391D01*
X98935358Y-121456000D01*
X98887095Y-121480591D01*
X98865077Y-121487745D01*
X98811576Y-121496219D01*
X98788422Y-121496219D01*
X98734921Y-121487745D01*
X98712903Y-121480591D01*
X98664640Y-121456000D01*
X98645909Y-121442391D01*
X98607605Y-121404087D01*
X98593999Y-121385360D01*
X98569405Y-121337092D01*
X98562252Y-121315075D01*
X98562095Y-121314086D01*
X98553779Y-121261572D01*
X98553779Y-121238423D01*
X98553780Y-121238422D01*
X98562252Y-121184926D01*
X98569406Y-121162909D01*
X98579860Y-121142391D01*
X98594001Y-121114636D01*
X98607607Y-121095908D01*
X98645910Y-121057605D01*
X98664637Y-121044000D01*
X98678189Y-121037095D01*
X98712905Y-121019406D01*
X98734921Y-121012252D01*
X98788425Y-121003779D01*
X98811573Y-121003779D01*
X98865077Y-121012252D01*
G37*
G04 #@! TD.AperFunction*
G04 #@! TA.AperFunction,Conductor*
G36*
X92515077Y-120712252D02*
G01*
X92537092Y-120719405D01*
X92585360Y-120743999D01*
X92604087Y-120757605D01*
X92642391Y-120795909D01*
X92656000Y-120814640D01*
X92680591Y-120862903D01*
X92687745Y-120884921D01*
X92696219Y-120938422D01*
X92696219Y-120961576D01*
X92687745Y-121015077D01*
X92680591Y-121037095D01*
X92656000Y-121085358D01*
X92642391Y-121104089D01*
X92604089Y-121142391D01*
X92585358Y-121156000D01*
X92537095Y-121180591D01*
X92515077Y-121187745D01*
X92461576Y-121196219D01*
X92438422Y-121196219D01*
X92384921Y-121187745D01*
X92362903Y-121180591D01*
X92314640Y-121156000D01*
X92295909Y-121142391D01*
X92246986Y-121093468D01*
X92239447Y-121084641D01*
X92232676Y-121075322D01*
X92232654Y-121075292D01*
X92230223Y-121072036D01*
X92166364Y-121023036D01*
X92166362Y-121023035D01*
X92166358Y-121023032D01*
X92162499Y-121020804D01*
X92128021Y-120975870D01*
X92125500Y-120956719D01*
X92125500Y-120843879D01*
X92147174Y-120791553D01*
X92193694Y-120770108D01*
X92245293Y-120766048D01*
X92303690Y-120749579D01*
X92362910Y-120719404D01*
X92384920Y-120712253D01*
X92438426Y-120703779D01*
X92461573Y-120703779D01*
X92515077Y-120712252D01*
G37*
G04 #@! TD.AperFunction*
G04 #@! TA.AperFunction,Conductor*
G36*
X91165077Y-120362252D02*
G01*
X91187092Y-120369405D01*
X91235360Y-120393999D01*
X91254087Y-120407605D01*
X91292391Y-120445909D01*
X91306000Y-120464640D01*
X91330591Y-120512903D01*
X91337745Y-120534921D01*
X91346219Y-120588422D01*
X91346219Y-120611576D01*
X91337745Y-120665077D01*
X91330591Y-120687095D01*
X91306000Y-120735358D01*
X91292391Y-120754089D01*
X91254089Y-120792391D01*
X91235358Y-120806000D01*
X91187095Y-120830591D01*
X91165077Y-120837745D01*
X91111576Y-120846219D01*
X91088422Y-120846219D01*
X91034921Y-120837745D01*
X91012903Y-120830591D01*
X90964640Y-120806000D01*
X90945909Y-120792391D01*
X90907605Y-120754087D01*
X90893999Y-120735360D01*
X90869405Y-120687092D01*
X90862252Y-120665075D01*
X90853779Y-120611574D01*
X90853779Y-120588424D01*
X90862252Y-120534921D01*
X90869407Y-120512903D01*
X90875887Y-120500187D01*
X90894000Y-120464636D01*
X90907607Y-120445909D01*
X90945910Y-120407605D01*
X90964637Y-120394000D01*
X90976913Y-120387745D01*
X91012905Y-120369406D01*
X91034921Y-120362252D01*
X91088425Y-120353779D01*
X91111573Y-120353779D01*
X91165077Y-120362252D01*
G37*
G04 #@! TD.AperFunction*
G04 #@! TA.AperFunction,Conductor*
G36*
X99965077Y-120012252D02*
G01*
X99987092Y-120019405D01*
X100035360Y-120043999D01*
X100054087Y-120057605D01*
X100092391Y-120095909D01*
X100106000Y-120114640D01*
X100130591Y-120162903D01*
X100137744Y-120184918D01*
X100140133Y-120199996D01*
X100140134Y-120200001D01*
X100146219Y-120238424D01*
X100146219Y-120261576D01*
X100137745Y-120315077D01*
X100130591Y-120337095D01*
X100106000Y-120385358D01*
X100092391Y-120404089D01*
X100054089Y-120442391D01*
X100035358Y-120456000D01*
X99987095Y-120480591D01*
X99965077Y-120487745D01*
X99911576Y-120496219D01*
X99888422Y-120496219D01*
X99834921Y-120487745D01*
X99812903Y-120480591D01*
X99764640Y-120456000D01*
X99745909Y-120442391D01*
X99707605Y-120404087D01*
X99693999Y-120385360D01*
X99669405Y-120337092D01*
X99662252Y-120315075D01*
X99659719Y-120299084D01*
X99653779Y-120261572D01*
X99653779Y-120238424D01*
X99662252Y-120184921D01*
X99669407Y-120162903D01*
X99670084Y-120161576D01*
X99694000Y-120114636D01*
X99707607Y-120095909D01*
X99745910Y-120057605D01*
X99764637Y-120044000D01*
X99781602Y-120035356D01*
X99812905Y-120019406D01*
X99834921Y-120012252D01*
X99888425Y-120003779D01*
X99911573Y-120003779D01*
X99965077Y-120012252D01*
G37*
G04 #@! TD.AperFunction*
G04 #@! TA.AperFunction,Conductor*
G36*
X102465077Y-119962252D02*
G01*
X102487092Y-119969405D01*
X102535360Y-119993999D01*
X102554087Y-120007605D01*
X102592391Y-120045909D01*
X102606000Y-120064640D01*
X102630591Y-120112903D01*
X102637745Y-120134920D01*
X102645537Y-120184114D01*
X102647017Y-120192094D01*
X102648622Y-120199652D01*
X102648624Y-120199656D01*
X102663394Y-120231698D01*
X102665615Y-120288291D01*
X102637303Y-120324204D01*
X102592022Y-120354460D01*
X102592017Y-120354464D01*
X102554088Y-120392392D01*
X102535358Y-120406000D01*
X102487095Y-120430591D01*
X102465077Y-120437745D01*
X102411576Y-120446219D01*
X102388422Y-120446219D01*
X102334921Y-120437745D01*
X102312903Y-120430591D01*
X102264640Y-120406000D01*
X102245909Y-120392391D01*
X102207605Y-120354087D01*
X102193999Y-120335360D01*
X102169405Y-120287092D01*
X102162252Y-120265075D01*
X102161763Y-120261990D01*
X102153779Y-120211572D01*
X102153779Y-120188424D01*
X102162253Y-120134920D01*
X102169407Y-120112903D01*
X102170148Y-120111450D01*
X102194000Y-120064636D01*
X102207607Y-120045909D01*
X102245910Y-120007605D01*
X102264637Y-119994000D01*
X102278189Y-119987095D01*
X102312905Y-119969406D01*
X102334921Y-119962252D01*
X102388425Y-119953779D01*
X102411573Y-119953779D01*
X102465077Y-119962252D01*
G37*
G04 #@! TD.AperFunction*
G04 #@! TA.AperFunction,Conductor*
G36*
X90265077Y-119912252D02*
G01*
X90287092Y-119919405D01*
X90335360Y-119943999D01*
X90354087Y-119957605D01*
X90392391Y-119995909D01*
X90406000Y-120014640D01*
X90430591Y-120062903D01*
X90437745Y-120084921D01*
X90446219Y-120138422D01*
X90446219Y-120161576D01*
X90437745Y-120215077D01*
X90430591Y-120237095D01*
X90406000Y-120285358D01*
X90392391Y-120304089D01*
X90354089Y-120342391D01*
X90335358Y-120356000D01*
X90287095Y-120380591D01*
X90265077Y-120387745D01*
X90211576Y-120396219D01*
X90188422Y-120396219D01*
X90134921Y-120387745D01*
X90112903Y-120380591D01*
X90064640Y-120356000D01*
X90045909Y-120342391D01*
X90007605Y-120304087D01*
X89993999Y-120285360D01*
X89969405Y-120237092D01*
X89962252Y-120215075D01*
X89959864Y-120199999D01*
X89953779Y-120161572D01*
X89953779Y-120138424D01*
X89962252Y-120084921D01*
X89969407Y-120062903D01*
X89972107Y-120057605D01*
X89994000Y-120014636D01*
X90007607Y-119995909D01*
X90045910Y-119957605D01*
X90064637Y-119944000D01*
X90064645Y-119943996D01*
X90112905Y-119919406D01*
X90134921Y-119912252D01*
X90188425Y-119903779D01*
X90211573Y-119903779D01*
X90265077Y-119912252D01*
G37*
G04 #@! TD.AperFunction*
G04 #@! TA.AperFunction,Conductor*
G36*
X93815077Y-119662252D02*
G01*
X93837092Y-119669405D01*
X93885360Y-119693999D01*
X93904087Y-119707605D01*
X93942391Y-119745909D01*
X93956000Y-119764640D01*
X93980591Y-119812903D01*
X93987745Y-119834921D01*
X93996219Y-119888422D01*
X93996219Y-119911576D01*
X93987745Y-119965077D01*
X93980591Y-119987095D01*
X93956000Y-120035358D01*
X93942391Y-120054089D01*
X93904089Y-120092391D01*
X93885358Y-120106000D01*
X93837095Y-120130591D01*
X93815077Y-120137745D01*
X93761576Y-120146219D01*
X93738422Y-120146219D01*
X93684921Y-120137745D01*
X93662903Y-120130591D01*
X93614640Y-120106000D01*
X93595909Y-120092391D01*
X93557605Y-120054087D01*
X93543999Y-120035360D01*
X93519405Y-119987092D01*
X93512252Y-119965075D01*
X93512095Y-119964086D01*
X93503779Y-119911572D01*
X93503779Y-119888424D01*
X93512252Y-119834921D01*
X93519407Y-119812903D01*
X93543999Y-119764640D01*
X93544000Y-119764636D01*
X93557607Y-119745909D01*
X93595910Y-119707605D01*
X93614637Y-119694000D01*
X93614645Y-119693996D01*
X93662905Y-119669406D01*
X93684921Y-119662252D01*
X93738425Y-119653779D01*
X93761573Y-119653779D01*
X93815077Y-119662252D01*
G37*
G04 #@! TD.AperFunction*
G04 #@! TA.AperFunction,Conductor*
G36*
X95515077Y-119662252D02*
G01*
X95537092Y-119669405D01*
X95585360Y-119693999D01*
X95604087Y-119707605D01*
X95642391Y-119745909D01*
X95656000Y-119764640D01*
X95680591Y-119812903D01*
X95687745Y-119834921D01*
X95696219Y-119888422D01*
X95696219Y-119911576D01*
X95687745Y-119965077D01*
X95680591Y-119987095D01*
X95656000Y-120035358D01*
X95642391Y-120054089D01*
X95604088Y-120092392D01*
X95585363Y-120105998D01*
X95574671Y-120111447D01*
X95574664Y-120111450D01*
X95537096Y-120130591D01*
X95515078Y-120137745D01*
X95461575Y-120146219D01*
X95438422Y-120146219D01*
X95384921Y-120137745D01*
X95362903Y-120130591D01*
X95314640Y-120106000D01*
X95295909Y-120092391D01*
X95257605Y-120054087D01*
X95243999Y-120035360D01*
X95219405Y-119987092D01*
X95212252Y-119965075D01*
X95212095Y-119964086D01*
X95203779Y-119911572D01*
X95203779Y-119888424D01*
X95212252Y-119834921D01*
X95219407Y-119812903D01*
X95243999Y-119764640D01*
X95244000Y-119764636D01*
X95257607Y-119745909D01*
X95295910Y-119707605D01*
X95314637Y-119694000D01*
X95314645Y-119693996D01*
X95362905Y-119669406D01*
X95384921Y-119662252D01*
X95438425Y-119653779D01*
X95461573Y-119653779D01*
X95515077Y-119662252D01*
G37*
G04 #@! TD.AperFunction*
G04 #@! TA.AperFunction,Conductor*
G36*
X95665077Y-117512252D02*
G01*
X95687092Y-117519405D01*
X95735360Y-117543999D01*
X95754087Y-117557605D01*
X95792392Y-117595910D01*
X95806001Y-117614642D01*
X95824014Y-117649996D01*
X95830590Y-117662901D01*
X95837746Y-117684923D01*
X95846219Y-117738422D01*
X95846219Y-117761574D01*
X95837745Y-117815076D01*
X95830591Y-117837095D01*
X95806000Y-117885358D01*
X95792391Y-117904089D01*
X95754089Y-117942391D01*
X95735358Y-117956000D01*
X95687095Y-117980591D01*
X95665077Y-117987745D01*
X95611576Y-117996219D01*
X95588422Y-117996219D01*
X95534921Y-117987745D01*
X95512903Y-117980591D01*
X95464640Y-117956000D01*
X95445909Y-117942391D01*
X95407605Y-117904087D01*
X95393999Y-117885360D01*
X95369405Y-117837092D01*
X95362252Y-117815077D01*
X95353779Y-117761572D01*
X95353779Y-117738424D01*
X95362252Y-117684921D01*
X95369407Y-117662903D01*
X95370084Y-117661576D01*
X95394000Y-117614636D01*
X95407605Y-117595910D01*
X95445910Y-117557605D01*
X95464637Y-117544000D01*
X95464645Y-117543996D01*
X95512905Y-117519406D01*
X95534921Y-117512252D01*
X95588425Y-117503779D01*
X95611573Y-117503779D01*
X95665077Y-117512252D01*
G37*
G04 #@! TD.AperFunction*
G04 #@! TA.AperFunction,Conductor*
G36*
X101415077Y-117412252D02*
G01*
X101437092Y-117419405D01*
X101485360Y-117443999D01*
X101504087Y-117457605D01*
X101542391Y-117495909D01*
X101556000Y-117514640D01*
X101580591Y-117562903D01*
X101587745Y-117584921D01*
X101596219Y-117638422D01*
X101596219Y-117661576D01*
X101587745Y-117715077D01*
X101580591Y-117737095D01*
X101556000Y-117785358D01*
X101542391Y-117804089D01*
X101504089Y-117842391D01*
X101485358Y-117856000D01*
X101437095Y-117880591D01*
X101415077Y-117887745D01*
X101361576Y-117896219D01*
X101338422Y-117896219D01*
X101284921Y-117887745D01*
X101262903Y-117880591D01*
X101214640Y-117856000D01*
X101195909Y-117842391D01*
X101157605Y-117804087D01*
X101143999Y-117785360D01*
X101119405Y-117737092D01*
X101112252Y-117715075D01*
X101105798Y-117674325D01*
X101103779Y-117661572D01*
X101103779Y-117638424D01*
X101112252Y-117584921D01*
X101119407Y-117562903D01*
X101120248Y-117561254D01*
X101144000Y-117514636D01*
X101157607Y-117495909D01*
X101195910Y-117457605D01*
X101214637Y-117444000D01*
X101214645Y-117443996D01*
X101262905Y-117419406D01*
X101284921Y-117412252D01*
X101338425Y-117403779D01*
X101361573Y-117403779D01*
X101415077Y-117412252D01*
G37*
G04 #@! TD.AperFunction*
G04 #@! TA.AperFunction,Conductor*
G36*
X96395077Y-115852252D02*
G01*
X96417096Y-115859407D01*
X96465359Y-115883999D01*
X96484089Y-115897607D01*
X96522391Y-115935909D01*
X96536000Y-115954640D01*
X96560591Y-116002903D01*
X96567745Y-116024921D01*
X96576219Y-116078421D01*
X96576220Y-116101566D01*
X96575994Y-116102994D01*
X96575993Y-116103002D01*
X96567745Y-116155077D01*
X96560590Y-116177097D01*
X96535999Y-116225359D01*
X96522391Y-116244089D01*
X96484089Y-116282391D01*
X96465358Y-116296000D01*
X96417095Y-116320591D01*
X96395077Y-116327745D01*
X96341576Y-116336219D01*
X96318422Y-116336219D01*
X96264921Y-116327745D01*
X96242903Y-116320591D01*
X96194640Y-116296000D01*
X96175909Y-116282391D01*
X96137605Y-116244087D01*
X96123998Y-116225359D01*
X96099405Y-116177092D01*
X96092252Y-116155075D01*
X96083779Y-116101574D01*
X96083779Y-116078424D01*
X96092252Y-116024921D01*
X96099407Y-116002903D01*
X96101879Y-115998053D01*
X96124000Y-115954636D01*
X96137607Y-115935909D01*
X96175910Y-115897605D01*
X96194637Y-115884000D01*
X96194639Y-115883999D01*
X96242905Y-115859406D01*
X96264921Y-115852252D01*
X96318425Y-115843779D01*
X96341573Y-115843779D01*
X96395077Y-115852252D01*
G37*
G04 #@! TD.AperFunction*
G04 #@! TA.AperFunction,Conductor*
G36*
X102215077Y-115512252D02*
G01*
X102237092Y-115519405D01*
X102285360Y-115543999D01*
X102304087Y-115557605D01*
X102342391Y-115595909D01*
X102356000Y-115614640D01*
X102380591Y-115662903D01*
X102387745Y-115684921D01*
X102396219Y-115738422D01*
X102396219Y-115761576D01*
X102387745Y-115815077D01*
X102380591Y-115837095D01*
X102356000Y-115885358D01*
X102342391Y-115904089D01*
X102304087Y-115942393D01*
X102285356Y-115956002D01*
X102237096Y-115980591D01*
X102215077Y-115987745D01*
X102161575Y-115996219D01*
X102138422Y-115996219D01*
X102084921Y-115987745D01*
X102062903Y-115980591D01*
X102014640Y-115956000D01*
X101995909Y-115942391D01*
X101957605Y-115904087D01*
X101943999Y-115885360D01*
X101919405Y-115837092D01*
X101912252Y-115815075D01*
X101903779Y-115761574D01*
X101903779Y-115738424D01*
X101912252Y-115684921D01*
X101919407Y-115662903D01*
X101943999Y-115614640D01*
X101944000Y-115614636D01*
X101957607Y-115595909D01*
X101995910Y-115557605D01*
X102014637Y-115544000D01*
X102014645Y-115543996D01*
X102062905Y-115519406D01*
X102084921Y-115512252D01*
X102138425Y-115503779D01*
X102161573Y-115503779D01*
X102215077Y-115512252D01*
G37*
G04 #@! TD.AperFunction*
G04 #@! TA.AperFunction,Conductor*
G36*
X101315077Y-114912252D02*
G01*
X101337092Y-114919405D01*
X101385360Y-114943999D01*
X101404087Y-114957605D01*
X101442391Y-114995909D01*
X101456000Y-115014640D01*
X101480591Y-115062903D01*
X101487745Y-115084921D01*
X101496219Y-115138422D01*
X101496219Y-115161576D01*
X101487745Y-115215077D01*
X101480591Y-115237095D01*
X101456000Y-115285358D01*
X101442391Y-115304089D01*
X101404089Y-115342391D01*
X101385358Y-115356000D01*
X101337095Y-115380591D01*
X101315077Y-115387745D01*
X101261576Y-115396219D01*
X101238422Y-115396219D01*
X101184921Y-115387745D01*
X101162903Y-115380591D01*
X101114640Y-115356000D01*
X101095909Y-115342391D01*
X101057605Y-115304087D01*
X101043999Y-115285360D01*
X101019405Y-115237092D01*
X101012252Y-115215075D01*
X101003779Y-115161574D01*
X101003779Y-115138424D01*
X101012252Y-115084921D01*
X101019407Y-115062903D01*
X101043999Y-115014640D01*
X101044000Y-115014636D01*
X101057607Y-114995909D01*
X101095910Y-114957605D01*
X101114637Y-114944000D01*
X101114645Y-114943996D01*
X101162905Y-114919406D01*
X101184921Y-114912252D01*
X101238425Y-114903779D01*
X101261573Y-114903779D01*
X101315077Y-114912252D01*
G37*
G04 #@! TD.AperFunction*
G04 #@! TA.AperFunction,Conductor*
G36*
X104365077Y-114912252D02*
G01*
X104387092Y-114919405D01*
X104435360Y-114943999D01*
X104454087Y-114957605D01*
X104492391Y-114995909D01*
X104506000Y-115014640D01*
X104530591Y-115062903D01*
X104537745Y-115084921D01*
X104546219Y-115138422D01*
X104546219Y-115161576D01*
X104537745Y-115215077D01*
X104530591Y-115237095D01*
X104506000Y-115285358D01*
X104492391Y-115304089D01*
X104454089Y-115342391D01*
X104435358Y-115356000D01*
X104387095Y-115380591D01*
X104365077Y-115387745D01*
X104311576Y-115396219D01*
X104288422Y-115396219D01*
X104234921Y-115387745D01*
X104212903Y-115380591D01*
X104164640Y-115356000D01*
X104145909Y-115342391D01*
X104107605Y-115304087D01*
X104093999Y-115285360D01*
X104069405Y-115237092D01*
X104062252Y-115215075D01*
X104053779Y-115161574D01*
X104053779Y-115138424D01*
X104062252Y-115084921D01*
X104069407Y-115062903D01*
X104093999Y-115014640D01*
X104094000Y-115014636D01*
X104107607Y-114995909D01*
X104145910Y-114957605D01*
X104164637Y-114944000D01*
X104164645Y-114943996D01*
X104212905Y-114919406D01*
X104234921Y-114912252D01*
X104288425Y-114903779D01*
X104311573Y-114903779D01*
X104365077Y-114912252D01*
G37*
G04 #@! TD.AperFunction*
G04 #@! TA.AperFunction,Conductor*
G36*
X103415077Y-114062252D02*
G01*
X103437092Y-114069405D01*
X103485360Y-114093999D01*
X103504087Y-114107605D01*
X103542391Y-114145909D01*
X103556000Y-114164640D01*
X103580591Y-114212903D01*
X103587745Y-114234921D01*
X103596219Y-114288422D01*
X103596219Y-114311576D01*
X103587745Y-114365077D01*
X103580591Y-114387095D01*
X103556000Y-114435358D01*
X103542391Y-114454089D01*
X103504089Y-114492391D01*
X103485358Y-114506000D01*
X103437095Y-114530591D01*
X103415077Y-114537745D01*
X103361576Y-114546219D01*
X103338422Y-114546219D01*
X103284921Y-114537745D01*
X103262903Y-114530591D01*
X103214640Y-114506000D01*
X103195909Y-114492391D01*
X103157605Y-114454087D01*
X103143999Y-114435360D01*
X103119405Y-114387092D01*
X103112252Y-114365075D01*
X103103779Y-114311574D01*
X103103779Y-114288424D01*
X103112252Y-114234921D01*
X103119407Y-114212903D01*
X103143999Y-114164640D01*
X103144000Y-114164636D01*
X103157607Y-114145909D01*
X103195910Y-114107605D01*
X103214637Y-114094000D01*
X103214645Y-114093996D01*
X103262905Y-114069406D01*
X103284921Y-114062252D01*
X103338425Y-114053779D01*
X103361573Y-114053779D01*
X103415077Y-114062252D01*
G37*
G04 #@! TD.AperFunction*
G04 #@! TA.AperFunction,Conductor*
G36*
X104365077Y-113212252D02*
G01*
X104387092Y-113219405D01*
X104435360Y-113243999D01*
X104454087Y-113257605D01*
X104492391Y-113295909D01*
X104506000Y-113314640D01*
X104530591Y-113362903D01*
X104537745Y-113384921D01*
X104546219Y-113438422D01*
X104546219Y-113461576D01*
X104537745Y-113515077D01*
X104530591Y-113537095D01*
X104506000Y-113585358D01*
X104492391Y-113604089D01*
X104454089Y-113642391D01*
X104435358Y-113656000D01*
X104387095Y-113680591D01*
X104365077Y-113687745D01*
X104311576Y-113696219D01*
X104288422Y-113696219D01*
X104234921Y-113687745D01*
X104212903Y-113680591D01*
X104164640Y-113656000D01*
X104145909Y-113642391D01*
X104107605Y-113604087D01*
X104093999Y-113585360D01*
X104069405Y-113537092D01*
X104062252Y-113515075D01*
X104053779Y-113461574D01*
X104053779Y-113438424D01*
X104062252Y-113384921D01*
X104069407Y-113362903D01*
X104093999Y-113314640D01*
X104094000Y-113314636D01*
X104107607Y-113295909D01*
X104145910Y-113257605D01*
X104164637Y-113244000D01*
X104164645Y-113243996D01*
X104212905Y-113219406D01*
X104234921Y-113212252D01*
X104288425Y-113203779D01*
X104311573Y-113203779D01*
X104365077Y-113212252D01*
G37*
G04 #@! TD.AperFunction*
G04 #@! TA.AperFunction,Conductor*
G36*
X99065077Y-112462252D02*
G01*
X99087092Y-112469405D01*
X99135360Y-112493999D01*
X99154087Y-112507605D01*
X99192391Y-112545909D01*
X99206000Y-112564640D01*
X99230591Y-112612903D01*
X99237745Y-112634921D01*
X99246219Y-112688422D01*
X99246219Y-112711576D01*
X99237745Y-112765077D01*
X99230591Y-112787095D01*
X99206000Y-112835358D01*
X99192391Y-112854089D01*
X99154089Y-112892391D01*
X99135358Y-112906000D01*
X99087095Y-112930591D01*
X99065077Y-112937745D01*
X99011576Y-112946219D01*
X98988422Y-112946219D01*
X98934921Y-112937745D01*
X98912903Y-112930591D01*
X98864640Y-112906000D01*
X98845909Y-112892391D01*
X98807605Y-112854087D01*
X98793999Y-112835360D01*
X98769405Y-112787092D01*
X98762252Y-112765075D01*
X98753779Y-112711574D01*
X98753779Y-112688424D01*
X98762252Y-112634921D01*
X98769407Y-112612903D01*
X98793999Y-112564640D01*
X98794000Y-112564636D01*
X98807607Y-112545909D01*
X98845910Y-112507605D01*
X98864637Y-112494000D01*
X98864645Y-112493996D01*
X98912905Y-112469406D01*
X98934921Y-112462252D01*
X98988425Y-112453779D01*
X99011573Y-112453779D01*
X99065077Y-112462252D01*
G37*
G04 #@! TD.AperFunction*
G04 #@! TA.AperFunction,Conductor*
G36*
X99815077Y-111662252D02*
G01*
X99837092Y-111669405D01*
X99885360Y-111693999D01*
X99904087Y-111707605D01*
X99942391Y-111745909D01*
X99956000Y-111764640D01*
X99980591Y-111812903D01*
X99987745Y-111834921D01*
X99996219Y-111888422D01*
X99996219Y-111911576D01*
X99987745Y-111965077D01*
X99980591Y-111987095D01*
X99956000Y-112035358D01*
X99942391Y-112054089D01*
X99904089Y-112092391D01*
X99885358Y-112106000D01*
X99837095Y-112130591D01*
X99815077Y-112137745D01*
X99761576Y-112146219D01*
X99738422Y-112146219D01*
X99684921Y-112137745D01*
X99662903Y-112130591D01*
X99614640Y-112106000D01*
X99595909Y-112092391D01*
X99557605Y-112054087D01*
X99543999Y-112035360D01*
X99519405Y-111987092D01*
X99512252Y-111965075D01*
X99503779Y-111911574D01*
X99503779Y-111888424D01*
X99512252Y-111834921D01*
X99519407Y-111812903D01*
X99523116Y-111805625D01*
X99544000Y-111764636D01*
X99557607Y-111745909D01*
X99595910Y-111707605D01*
X99614637Y-111694000D01*
X99614645Y-111693996D01*
X99662905Y-111669406D01*
X99684921Y-111662252D01*
X99738425Y-111653779D01*
X99761573Y-111653779D01*
X99815077Y-111662252D01*
G37*
G04 #@! TD.AperFunction*
G04 #@! TA.AperFunction,Conductor*
G36*
X103465077Y-110812252D02*
G01*
X103487092Y-110819405D01*
X103535360Y-110843999D01*
X103554087Y-110857605D01*
X103592391Y-110895909D01*
X103606000Y-110914640D01*
X103630591Y-110962903D01*
X103637745Y-110984921D01*
X103646219Y-111038422D01*
X103646219Y-111061576D01*
X103637745Y-111115077D01*
X103630591Y-111137095D01*
X103606000Y-111185358D01*
X103592391Y-111204089D01*
X103554089Y-111242391D01*
X103535358Y-111256000D01*
X103487095Y-111280591D01*
X103465077Y-111287745D01*
X103411576Y-111296219D01*
X103388422Y-111296219D01*
X103334921Y-111287745D01*
X103312903Y-111280591D01*
X103264640Y-111256000D01*
X103245909Y-111242391D01*
X103207605Y-111204087D01*
X103193999Y-111185360D01*
X103169405Y-111137092D01*
X103162252Y-111115075D01*
X103159556Y-111098053D01*
X103153779Y-111061572D01*
X103153779Y-111038424D01*
X103162252Y-110984921D01*
X103169407Y-110962903D01*
X103187878Y-110926653D01*
X103194000Y-110914636D01*
X103207607Y-110895909D01*
X103245910Y-110857605D01*
X103264637Y-110844000D01*
X103264645Y-110843996D01*
X103312905Y-110819406D01*
X103334921Y-110812252D01*
X103388425Y-110803779D01*
X103411573Y-110803779D01*
X103465077Y-110812252D01*
G37*
G04 #@! TD.AperFunction*
G04 #@! TA.AperFunction,Conductor*
G36*
X98865077Y-110612252D02*
G01*
X98887092Y-110619405D01*
X98935360Y-110643999D01*
X98954087Y-110657605D01*
X98992391Y-110695909D01*
X99006000Y-110714640D01*
X99030591Y-110762903D01*
X99037745Y-110784921D01*
X99046219Y-110838422D01*
X99046219Y-110861576D01*
X99037745Y-110915077D01*
X99030591Y-110937093D01*
X99009035Y-110979402D01*
X99009031Y-110979411D01*
X99005997Y-110985364D01*
X98992392Y-111004088D01*
X98954089Y-111042391D01*
X98935358Y-111056000D01*
X98887095Y-111080591D01*
X98865077Y-111087745D01*
X98811576Y-111096219D01*
X98788422Y-111096219D01*
X98734921Y-111087745D01*
X98712903Y-111080591D01*
X98664640Y-111056000D01*
X98645909Y-111042391D01*
X98607605Y-111004087D01*
X98593999Y-110985360D01*
X98569405Y-110937092D01*
X98562252Y-110915075D01*
X98560529Y-110904198D01*
X98553779Y-110861572D01*
X98553779Y-110838424D01*
X98562252Y-110784921D01*
X98569407Y-110762903D01*
X98593999Y-110714640D01*
X98594000Y-110714636D01*
X98607607Y-110695909D01*
X98645910Y-110657605D01*
X98664637Y-110644000D01*
X98664645Y-110643996D01*
X98712905Y-110619406D01*
X98734921Y-110612252D01*
X98788425Y-110603779D01*
X98811573Y-110603779D01*
X98865077Y-110612252D01*
G37*
G04 #@! TD.AperFunction*
G04 #@! TA.AperFunction,Conductor*
G36*
X102665077Y-109862252D02*
G01*
X102687092Y-109869405D01*
X102735360Y-109893999D01*
X102754087Y-109907605D01*
X102792391Y-109945909D01*
X102806000Y-109964640D01*
X102830591Y-110012903D01*
X102837745Y-110034921D01*
X102846219Y-110088422D01*
X102846219Y-110111576D01*
X102837745Y-110165077D01*
X102830591Y-110187095D01*
X102806000Y-110235358D01*
X102792391Y-110254089D01*
X102754089Y-110292391D01*
X102735358Y-110306000D01*
X102687095Y-110330591D01*
X102665077Y-110337745D01*
X102611576Y-110346219D01*
X102588422Y-110346219D01*
X102534921Y-110337745D01*
X102512903Y-110330591D01*
X102464640Y-110306000D01*
X102445909Y-110292391D01*
X102407605Y-110254087D01*
X102393999Y-110235360D01*
X102369405Y-110187092D01*
X102362252Y-110165075D01*
X102353779Y-110111574D01*
X102353779Y-110088424D01*
X102362252Y-110034921D01*
X102369407Y-110012903D01*
X102393999Y-109964640D01*
X102394000Y-109964636D01*
X102407607Y-109945909D01*
X102445910Y-109907605D01*
X102464637Y-109894000D01*
X102464645Y-109893996D01*
X102512905Y-109869406D01*
X102534921Y-109862252D01*
X102588425Y-109853779D01*
X102611573Y-109853779D01*
X102665077Y-109862252D01*
G37*
G04 #@! TD.AperFunction*
G04 #@! TA.AperFunction,Conductor*
G36*
X104365077Y-109862252D02*
G01*
X104387092Y-109869405D01*
X104435360Y-109893999D01*
X104454087Y-109907605D01*
X104492391Y-109945909D01*
X104506000Y-109964640D01*
X104530591Y-110012903D01*
X104537745Y-110034921D01*
X104546219Y-110088422D01*
X104546219Y-110111576D01*
X104537745Y-110165077D01*
X104530591Y-110187095D01*
X104506000Y-110235358D01*
X104492391Y-110254089D01*
X104454089Y-110292391D01*
X104435358Y-110306000D01*
X104387095Y-110330591D01*
X104365077Y-110337745D01*
X104311576Y-110346219D01*
X104288422Y-110346219D01*
X104234921Y-110337745D01*
X104212903Y-110330591D01*
X104164640Y-110306000D01*
X104145909Y-110292391D01*
X104107605Y-110254087D01*
X104093999Y-110235360D01*
X104069405Y-110187092D01*
X104062252Y-110165075D01*
X104053779Y-110111574D01*
X104053779Y-110088424D01*
X104062252Y-110034921D01*
X104069407Y-110012903D01*
X104093999Y-109964640D01*
X104094000Y-109964636D01*
X104107607Y-109945909D01*
X104145910Y-109907605D01*
X104164637Y-109894000D01*
X104164645Y-109893996D01*
X104212905Y-109869406D01*
X104234921Y-109862252D01*
X104288425Y-109853779D01*
X104311573Y-109853779D01*
X104365077Y-109862252D01*
G37*
G04 #@! TD.AperFunction*
G04 #@! TA.AperFunction,Conductor*
G36*
X97171157Y-108387674D02*
G01*
X97192783Y-108437359D01*
X97194058Y-108473055D01*
X97194173Y-108476282D01*
X97194174Y-108476288D01*
X97208126Y-108535333D01*
X97208126Y-108535334D01*
X97208127Y-108535336D01*
X97215222Y-108550872D01*
X97246509Y-108619380D01*
X97250100Y-108630006D01*
X97250258Y-108629957D01*
X97251145Y-108632791D01*
X97251146Y-108632794D01*
X97258641Y-108656731D01*
X97266014Y-108680275D01*
X97286930Y-108722059D01*
X97302614Y-108747117D01*
X97302617Y-108747120D01*
X97302618Y-108747121D01*
X97311129Y-108753652D01*
X97339448Y-108802700D01*
X97324790Y-108857408D01*
X97318407Y-108864686D01*
X97146769Y-109036326D01*
X97094443Y-109058000D01*
X96810169Y-109058000D01*
X96757843Y-109036326D01*
X96736216Y-108986641D01*
X96735884Y-108977349D01*
X96734826Y-108947712D01*
X96733710Y-108942991D01*
X96725537Y-108908405D01*
X96720872Y-108888663D01*
X96682955Y-108805638D01*
X96677022Y-108785430D01*
X96671514Y-108747121D01*
X96667979Y-108722529D01*
X96667979Y-108701468D01*
X96671295Y-108678405D01*
X96677023Y-108638563D01*
X96682954Y-108618363D01*
X96720873Y-108535334D01*
X96731371Y-108503794D01*
X96738058Y-108473057D01*
X96740282Y-108460297D01*
X96738881Y-108449659D01*
X96753539Y-108394953D01*
X96802587Y-108366633D01*
X96812248Y-108366000D01*
X97118831Y-108366000D01*
X97171157Y-108387674D01*
G37*
G04 #@! TD.AperFunction*
G04 #@! TA.AperFunction,Conductor*
G36*
X91937121Y-108419997D02*
G01*
X91998099Y-108437900D01*
X92017254Y-108446648D01*
X92024437Y-108451264D01*
X92024439Y-108451265D01*
X92070717Y-108481006D01*
X92086634Y-108494797D01*
X92128257Y-108542834D01*
X92139641Y-108560548D01*
X92166041Y-108618355D01*
X92171975Y-108638565D01*
X92181019Y-108701468D01*
X92181019Y-108722530D01*
X92171975Y-108785433D01*
X92166041Y-108805643D01*
X92139641Y-108863450D01*
X92128254Y-108881168D01*
X92086637Y-108929197D01*
X92070718Y-108942991D01*
X92017256Y-108977349D01*
X91998098Y-108986098D01*
X91937125Y-109004002D01*
X91916276Y-109007000D01*
X91852724Y-109007000D01*
X91831876Y-109004002D01*
X91770901Y-108986098D01*
X91751742Y-108977349D01*
X91698280Y-108942991D01*
X91682361Y-108929197D01*
X91640742Y-108881165D01*
X91629359Y-108863453D01*
X91602955Y-108805639D01*
X91597023Y-108785434D01*
X91587979Y-108722530D01*
X91587979Y-108701468D01*
X91591295Y-108678405D01*
X91597023Y-108638563D01*
X91602954Y-108618363D01*
X91629362Y-108560538D01*
X91640742Y-108542831D01*
X91682360Y-108494799D01*
X91698274Y-108481010D01*
X91751743Y-108446647D01*
X91770899Y-108437899D01*
X91831877Y-108419996D01*
X91852723Y-108417000D01*
X91916274Y-108417000D01*
X91937121Y-108419997D01*
G37*
G04 #@! TD.AperFunction*
G04 #@! TA.AperFunction,Conductor*
G36*
X93207121Y-108419997D02*
G01*
X93268099Y-108437900D01*
X93287254Y-108446648D01*
X93294437Y-108451264D01*
X93294439Y-108451265D01*
X93340717Y-108481006D01*
X93356634Y-108494797D01*
X93398257Y-108542834D01*
X93409641Y-108560548D01*
X93436041Y-108618355D01*
X93441975Y-108638565D01*
X93451019Y-108701468D01*
X93451019Y-108722530D01*
X93441975Y-108785433D01*
X93436041Y-108805643D01*
X93409641Y-108863450D01*
X93398254Y-108881168D01*
X93356637Y-108929197D01*
X93340718Y-108942991D01*
X93287256Y-108977349D01*
X93268098Y-108986098D01*
X93207125Y-109004002D01*
X93186276Y-109007000D01*
X93122724Y-109007000D01*
X93101876Y-109004002D01*
X93040901Y-108986098D01*
X93021742Y-108977349D01*
X92968280Y-108942991D01*
X92952361Y-108929197D01*
X92910742Y-108881165D01*
X92899359Y-108863453D01*
X92872955Y-108805639D01*
X92867023Y-108785434D01*
X92857979Y-108722530D01*
X92857979Y-108701468D01*
X92861295Y-108678405D01*
X92867023Y-108638563D01*
X92872954Y-108618363D01*
X92899362Y-108560538D01*
X92910742Y-108542831D01*
X92952360Y-108494799D01*
X92968274Y-108481010D01*
X93021743Y-108446647D01*
X93040899Y-108437899D01*
X93101877Y-108419996D01*
X93122723Y-108417000D01*
X93186274Y-108417000D01*
X93207121Y-108419997D01*
G37*
G04 #@! TD.AperFunction*
G04 #@! TA.AperFunction,Conductor*
G36*
X94477121Y-108419997D02*
G01*
X94538099Y-108437900D01*
X94557254Y-108446648D01*
X94564437Y-108451264D01*
X94564439Y-108451265D01*
X94610722Y-108481008D01*
X94626635Y-108494797D01*
X94662080Y-108535704D01*
X94665800Y-108539844D01*
X94665820Y-108539866D01*
X94669401Y-108543711D01*
X94669402Y-108543712D01*
X94723690Y-108581402D01*
X94776000Y-108603072D01*
X94776011Y-108603075D01*
X94776015Y-108603077D01*
X94779151Y-108603917D01*
X94824085Y-108638395D01*
X94834000Y-108675396D01*
X94834000Y-108821257D01*
X94812326Y-108873583D01*
X94760000Y-108895257D01*
X94753843Y-108895000D01*
X94748122Y-108894522D01*
X94748121Y-108894522D01*
X94692387Y-108904577D01*
X94635923Y-108926794D01*
X94557257Y-108977349D01*
X94538099Y-108986098D01*
X94477127Y-109004002D01*
X94456278Y-109007000D01*
X94392724Y-109007000D01*
X94371876Y-109004002D01*
X94310901Y-108986098D01*
X94291742Y-108977349D01*
X94238280Y-108942991D01*
X94222361Y-108929197D01*
X94180742Y-108881165D01*
X94169359Y-108863453D01*
X94142955Y-108805639D01*
X94137023Y-108785434D01*
X94127979Y-108722530D01*
X94127979Y-108701468D01*
X94131295Y-108678405D01*
X94137023Y-108638563D01*
X94142954Y-108618363D01*
X94169362Y-108560538D01*
X94180742Y-108542831D01*
X94222360Y-108494799D01*
X94238274Y-108481010D01*
X94291743Y-108446647D01*
X94310899Y-108437899D01*
X94371877Y-108419996D01*
X94392723Y-108417000D01*
X94456274Y-108417000D01*
X94477121Y-108419997D01*
G37*
G04 #@! TD.AperFunction*
G04 #@! TA.AperFunction,Conductor*
G36*
X95901157Y-108387674D02*
G01*
X95922783Y-108437359D01*
X95924058Y-108473055D01*
X95924173Y-108476282D01*
X95924174Y-108476288D01*
X95938126Y-108535333D01*
X95938126Y-108535334D01*
X95938127Y-108535336D01*
X95976041Y-108618355D01*
X95981975Y-108638564D01*
X95987972Y-108680275D01*
X95991020Y-108701467D01*
X95991020Y-108722531D01*
X95981975Y-108785434D01*
X95976041Y-108805643D01*
X95949641Y-108863450D01*
X95938254Y-108881168D01*
X95896637Y-108929197D01*
X95880718Y-108942991D01*
X95827256Y-108977349D01*
X95808098Y-108986098D01*
X95747125Y-109004002D01*
X95726276Y-109007000D01*
X95662721Y-109007000D01*
X95641879Y-109004003D01*
X95580897Y-108986098D01*
X95561748Y-108977353D01*
X95483074Y-108926792D01*
X95483071Y-108926790D01*
X95442803Y-108908402D01*
X95402815Y-108896662D01*
X95402802Y-108896659D01*
X95379298Y-108891692D01*
X95379290Y-108891692D01*
X95368657Y-108893092D01*
X95313950Y-108878432D01*
X95285633Y-108829382D01*
X95285000Y-108819725D01*
X95285000Y-108709057D01*
X95306674Y-108656731D01*
X95575731Y-108387674D01*
X95628057Y-108366000D01*
X95848831Y-108366000D01*
X95901157Y-108387674D01*
G37*
G04 #@! TD.AperFunction*
G04 #@! TA.AperFunction,Conductor*
G36*
X107127723Y-106325182D02*
G01*
X107301003Y-106340342D01*
X107313704Y-106342581D01*
X107478604Y-106386765D01*
X107490713Y-106391173D01*
X107645439Y-106463323D01*
X107656600Y-106469767D01*
X107772324Y-106550798D01*
X107796437Y-106567682D01*
X107806318Y-106575973D01*
X107927026Y-106696681D01*
X107935317Y-106706562D01*
X108032755Y-106845718D01*
X108033229Y-106846394D01*
X108039678Y-106857564D01*
X108093164Y-106972265D01*
X108111823Y-107012278D01*
X108116235Y-107024400D01*
X108160418Y-107189296D01*
X108162657Y-107201998D01*
X108177818Y-107375276D01*
X108178100Y-107381726D01*
X108178100Y-127505363D01*
X108177911Y-127510642D01*
X108161936Y-127733992D01*
X108160434Y-127744443D01*
X108113396Y-127960676D01*
X108110421Y-127970807D01*
X108033093Y-128178129D01*
X108028707Y-128187732D01*
X107922655Y-128381952D01*
X107916947Y-128390834D01*
X107784343Y-128567973D01*
X107777429Y-128575953D01*
X107620953Y-128732429D01*
X107612973Y-128739343D01*
X107435834Y-128871947D01*
X107426952Y-128877655D01*
X107232732Y-128983707D01*
X107223129Y-128988093D01*
X107015807Y-129065421D01*
X107005676Y-129068396D01*
X106789443Y-129115434D01*
X106778992Y-129116936D01*
X106555643Y-129132911D01*
X106550364Y-129133100D01*
X76584227Y-129133100D01*
X76577777Y-129132818D01*
X76404498Y-129117657D01*
X76391796Y-129115418D01*
X76226900Y-129071235D01*
X76214778Y-129066823D01*
X76211771Y-129065421D01*
X76060064Y-128994678D01*
X76048894Y-128988229D01*
X75909062Y-128890317D01*
X75899181Y-128882026D01*
X75778473Y-128761318D01*
X75770182Y-128751437D01*
X75759491Y-128736169D01*
X75672267Y-128611600D01*
X75665823Y-128600439D01*
X75593673Y-128445713D01*
X75589265Y-128433604D01*
X75550009Y-128287096D01*
X75545081Y-128268703D01*
X75542842Y-128256001D01*
X75540996Y-128234906D01*
X75527682Y-128082723D01*
X75527400Y-128076273D01*
X75527400Y-127998097D01*
X75754500Y-127998097D01*
X75754500Y-128160903D01*
X75759837Y-128187732D01*
X75786260Y-128320575D01*
X75786263Y-128320585D01*
X75848563Y-128470992D01*
X75938496Y-128605586D01*
X75939016Y-128606363D01*
X76054137Y-128721484D01*
X76189505Y-128811935D01*
X76339919Y-128874238D01*
X76499597Y-128906000D01*
X76499599Y-128906000D01*
X76662401Y-128906000D01*
X76662403Y-128906000D01*
X76822081Y-128874238D01*
X76972495Y-128811935D01*
X77107863Y-128721484D01*
X77222984Y-128606363D01*
X77313435Y-128470995D01*
X77375738Y-128320581D01*
X77407500Y-128160903D01*
X77407500Y-127998097D01*
X77375738Y-127838419D01*
X77344459Y-127762903D01*
X77313436Y-127688007D01*
X77303640Y-127673347D01*
X77222984Y-127552637D01*
X77107863Y-127437516D01*
X77103979Y-127434921D01*
X76972492Y-127347063D01*
X76822085Y-127284763D01*
X76822075Y-127284760D01*
X76708916Y-127262252D01*
X76662403Y-127253000D01*
X76499597Y-127253000D01*
X76454331Y-127262003D01*
X76339924Y-127284760D01*
X76339914Y-127284763D01*
X76189507Y-127347063D01*
X76054140Y-127437513D01*
X75939013Y-127552640D01*
X75848563Y-127688007D01*
X75786263Y-127838414D01*
X75786260Y-127838424D01*
X75760207Y-127969406D01*
X75754500Y-127998097D01*
X75527400Y-127998097D01*
X75527400Y-109631653D01*
X75981000Y-109631653D01*
X75981000Y-111356186D01*
X75985294Y-111392475D01*
X75985295Y-111392484D01*
X75993357Y-111426068D01*
X75993361Y-111426081D01*
X76001610Y-111448442D01*
X76002012Y-111452523D01*
X76005015Y-111458417D01*
X76005018Y-111458423D01*
X76009812Y-111467833D01*
X76009818Y-111467842D01*
X76049591Y-111545904D01*
X76056745Y-111567921D01*
X76065219Y-111621422D01*
X76065219Y-111644576D01*
X76056745Y-111698077D01*
X76049591Y-111720094D01*
X76008500Y-111800743D01*
X76008499Y-111800745D01*
X76006012Y-111805625D01*
X75993365Y-111839906D01*
X75987654Y-111863694D01*
X75985297Y-111873508D01*
X75982162Y-111899996D01*
X75981000Y-111909812D01*
X75981000Y-114404186D01*
X75985294Y-114440475D01*
X75985295Y-114440484D01*
X75993357Y-114474068D01*
X75993361Y-114474081D01*
X76000115Y-114492391D01*
X76001610Y-114496442D01*
X76002012Y-114500523D01*
X76005015Y-114506417D01*
X76005018Y-114506423D01*
X76009812Y-114515833D01*
X76009818Y-114515842D01*
X76049591Y-114593904D01*
X76056745Y-114615921D01*
X76065219Y-114669422D01*
X76065219Y-114692576D01*
X76056745Y-114746076D01*
X76049591Y-114768093D01*
X76006012Y-114853626D01*
X76006010Y-114853630D01*
X75993364Y-114887909D01*
X75985296Y-114921511D01*
X75981000Y-114957812D01*
X75981000Y-117452186D01*
X75985294Y-117488475D01*
X75985295Y-117488484D01*
X75993357Y-117522068D01*
X75993361Y-117522081D01*
X76001610Y-117544442D01*
X76002012Y-117548523D01*
X76005015Y-117554417D01*
X76005018Y-117554423D01*
X76009812Y-117563833D01*
X76009818Y-117563842D01*
X76049591Y-117641904D01*
X76056745Y-117663921D01*
X76065219Y-117717422D01*
X76065219Y-117740576D01*
X76056745Y-117794077D01*
X76049591Y-117816094D01*
X76008500Y-117896743D01*
X76008499Y-117896745D01*
X76006016Y-117901616D01*
X75993363Y-117935912D01*
X75985296Y-117969511D01*
X75981000Y-118005812D01*
X75981000Y-120500186D01*
X75985294Y-120536475D01*
X75985295Y-120536479D01*
X75985296Y-120536486D01*
X75993361Y-120570081D01*
X76001610Y-120592444D01*
X76002011Y-120596522D01*
X76039753Y-120670595D01*
X76039753Y-120670596D01*
X76049591Y-120689905D01*
X76056745Y-120711922D01*
X76065219Y-120765423D01*
X76065219Y-120788577D01*
X76056745Y-120842077D01*
X76049591Y-120864094D01*
X76015232Y-120931531D01*
X76015231Y-120931533D01*
X76006016Y-120949616D01*
X75993363Y-120983912D01*
X75985296Y-121017511D01*
X75981000Y-121053812D01*
X75981000Y-123548186D01*
X75985294Y-123584475D01*
X75985295Y-123584484D01*
X75993357Y-123618068D01*
X75993361Y-123618081D01*
X76001610Y-123640442D01*
X76002012Y-123644523D01*
X76005015Y-123650417D01*
X76005018Y-123650423D01*
X76009812Y-123659833D01*
X76009818Y-123659842D01*
X76049591Y-123737904D01*
X76056745Y-123759921D01*
X76065219Y-123813422D01*
X76065219Y-123836575D01*
X76056745Y-123890079D01*
X76049591Y-123912095D01*
X76030279Y-123949999D01*
X76030267Y-123950023D01*
X76029128Y-123952255D01*
X76029124Y-123952264D01*
X76026482Y-123957452D01*
X76026481Y-123957453D01*
X76012484Y-123984924D01*
X76006011Y-123997628D01*
X75993364Y-124031909D01*
X75985296Y-124065511D01*
X75981000Y-124101812D01*
X75981000Y-125826346D01*
X75992835Y-125885849D01*
X75992838Y-125885859D01*
X76014510Y-125938180D01*
X76048218Y-125988628D01*
X78671871Y-128612281D01*
X78722319Y-128645989D01*
X78773377Y-128667138D01*
X78774645Y-128667663D01*
X78834152Y-128679500D01*
X78834154Y-128679500D01*
X82273186Y-128679500D01*
X82273187Y-128679500D01*
X82309486Y-128675204D01*
X82343081Y-128667139D01*
X82377390Y-128654480D01*
X82382264Y-128651996D01*
X82382263Y-128651995D01*
X82393621Y-128646208D01*
X82393626Y-128646206D01*
X82446221Y-128619407D01*
X82462905Y-128610906D01*
X82484921Y-128603752D01*
X82538425Y-128595279D01*
X82561573Y-128595279D01*
X82615080Y-128603753D01*
X82637092Y-128610905D01*
X82714379Y-128650285D01*
X82714401Y-128650297D01*
X82717743Y-128651999D01*
X82717746Y-128652002D01*
X82722621Y-128654486D01*
X82722628Y-128654488D01*
X82722629Y-128654489D01*
X82756913Y-128667137D01*
X82756914Y-128667137D01*
X82756919Y-128667139D01*
X82790514Y-128675204D01*
X82826813Y-128679500D01*
X82826814Y-128679500D01*
X84813186Y-128679500D01*
X84813187Y-128679500D01*
X84849486Y-128675204D01*
X84883081Y-128667139D01*
X84917390Y-128654480D01*
X84922264Y-128651996D01*
X84922263Y-128651995D01*
X84933621Y-128646208D01*
X84933626Y-128646206D01*
X84986221Y-128619407D01*
X85002905Y-128610906D01*
X85024921Y-128603752D01*
X85078425Y-128595279D01*
X85101573Y-128595279D01*
X85155080Y-128603753D01*
X85177092Y-128610905D01*
X85254379Y-128650285D01*
X85254401Y-128650297D01*
X85257743Y-128651999D01*
X85257746Y-128652002D01*
X85262621Y-128654486D01*
X85262628Y-128654488D01*
X85262629Y-128654489D01*
X85296913Y-128667137D01*
X85296914Y-128667137D01*
X85296919Y-128667139D01*
X85330514Y-128675204D01*
X85366813Y-128679500D01*
X85366814Y-128679500D01*
X87353186Y-128679500D01*
X87353187Y-128679500D01*
X87389486Y-128675204D01*
X87423081Y-128667139D01*
X87457390Y-128654480D01*
X87462264Y-128651996D01*
X87462263Y-128651995D01*
X87473621Y-128646208D01*
X87473626Y-128646206D01*
X87526221Y-128619407D01*
X87542905Y-128610906D01*
X87564921Y-128603752D01*
X87618425Y-128595279D01*
X87641573Y-128595279D01*
X87695080Y-128603753D01*
X87717092Y-128610905D01*
X87794379Y-128650285D01*
X87794401Y-128650297D01*
X87797743Y-128651999D01*
X87797746Y-128652002D01*
X87802621Y-128654486D01*
X87802628Y-128654488D01*
X87802629Y-128654489D01*
X87836913Y-128667137D01*
X87836914Y-128667137D01*
X87836919Y-128667139D01*
X87870514Y-128675204D01*
X87906813Y-128679500D01*
X87906814Y-128679500D01*
X89893186Y-128679500D01*
X89893187Y-128679500D01*
X89929486Y-128675204D01*
X89963081Y-128667139D01*
X89997390Y-128654480D01*
X90002264Y-128651996D01*
X90002263Y-128651995D01*
X90013621Y-128646208D01*
X90013626Y-128646206D01*
X90066221Y-128619407D01*
X90082905Y-128610906D01*
X90104921Y-128603752D01*
X90158425Y-128595279D01*
X90181573Y-128595279D01*
X90235080Y-128603753D01*
X90257092Y-128610905D01*
X90334379Y-128650285D01*
X90334401Y-128650297D01*
X90337743Y-128651999D01*
X90337746Y-128652002D01*
X90342621Y-128654486D01*
X90342628Y-128654488D01*
X90342629Y-128654489D01*
X90376913Y-128667137D01*
X90376914Y-128667137D01*
X90376919Y-128667139D01*
X90410514Y-128675204D01*
X90446813Y-128679500D01*
X90446814Y-128679500D01*
X90694837Y-128679500D01*
X90694838Y-128679500D01*
X90731137Y-128675204D01*
X90764732Y-128667139D01*
X90780341Y-128662515D01*
X90804389Y-128645987D01*
X90846675Y-128616925D01*
X90850642Y-128612281D01*
X90883460Y-128573855D01*
X90905567Y-128539813D01*
X90920237Y-128460668D01*
X90915794Y-128404207D01*
X90899324Y-128345810D01*
X90899323Y-128345809D01*
X90899323Y-128345807D01*
X90869407Y-128287096D01*
X90862252Y-128265077D01*
X90853779Y-128211572D01*
X90853779Y-128188424D01*
X90862252Y-128134921D01*
X90869407Y-128112903D01*
X90893999Y-128064640D01*
X90894000Y-128064636D01*
X90907607Y-128045909D01*
X90945910Y-128007605D01*
X90964637Y-127994000D01*
X90976913Y-127987745D01*
X91012905Y-127969406D01*
X91034921Y-127962252D01*
X91088425Y-127953779D01*
X91111573Y-127953779D01*
X91165077Y-127962252D01*
X91187092Y-127969405D01*
X91235360Y-127993999D01*
X91254087Y-128007605D01*
X91292391Y-128045909D01*
X91306000Y-128064640D01*
X91330591Y-128112903D01*
X91337745Y-128134921D01*
X91346219Y-128188422D01*
X91346219Y-128211576D01*
X91337745Y-128265076D01*
X91330591Y-128287093D01*
X91300674Y-128345809D01*
X91288019Y-128380114D01*
X91279958Y-128413695D01*
X91279956Y-128413706D01*
X91276992Y-128429703D01*
X91276992Y-128429706D01*
X91287498Y-128509505D01*
X91287498Y-128509506D01*
X91309172Y-128561831D01*
X91309178Y-128561843D01*
X91329467Y-128596986D01*
X91329469Y-128596988D01*
X91329470Y-128596989D01*
X91393329Y-128645989D01*
X91413850Y-128654489D01*
X91444387Y-128667138D01*
X91445655Y-128667663D01*
X91505162Y-128679500D01*
X91505164Y-128679500D01*
X92394186Y-128679500D01*
X92394187Y-128679500D01*
X92430486Y-128675204D01*
X92464081Y-128667139D01*
X92498390Y-128654480D01*
X92503264Y-128651996D01*
X92503263Y-128651995D01*
X92514621Y-128646208D01*
X92514626Y-128646206D01*
X92567221Y-128619407D01*
X92583905Y-128610906D01*
X92605921Y-128603752D01*
X92659425Y-128595279D01*
X92682573Y-128595279D01*
X92736080Y-128603753D01*
X92758092Y-128610905D01*
X92835379Y-128650285D01*
X92835401Y-128650297D01*
X92838743Y-128651999D01*
X92838746Y-128652002D01*
X92843621Y-128654486D01*
X92843628Y-128654488D01*
X92843629Y-128654489D01*
X92877913Y-128667137D01*
X92877914Y-128667137D01*
X92877919Y-128667139D01*
X92911514Y-128675204D01*
X92947813Y-128679500D01*
X92947814Y-128679500D01*
X98539868Y-128679500D01*
X98539869Y-128679500D01*
X98554694Y-128677745D01*
X98576163Y-128675204D01*
X98576164Y-128675203D01*
X98576170Y-128675203D01*
X98609763Y-128667138D01*
X98644057Y-128654487D01*
X98712912Y-128619403D01*
X98734918Y-128612253D01*
X98788426Y-128603779D01*
X98811573Y-128603779D01*
X98865077Y-128612252D01*
X98887095Y-128619406D01*
X98955941Y-128654486D01*
X98955943Y-128654487D01*
X98990219Y-128667133D01*
X98990228Y-128667136D01*
X98990237Y-128667139D01*
X99023831Y-128675204D01*
X99060131Y-128679500D01*
X99060132Y-128679500D01*
X101510954Y-128679500D01*
X101510956Y-128679500D01*
X101570463Y-128667663D01*
X101622789Y-128645989D01*
X101673238Y-128612280D01*
X101699909Y-128585607D01*
X101718637Y-128572000D01*
X101718645Y-128571996D01*
X101766905Y-128547406D01*
X101788921Y-128540252D01*
X101842425Y-128531779D01*
X101865573Y-128531779D01*
X101919077Y-128540252D01*
X101941092Y-128547405D01*
X101989360Y-128571999D01*
X102008087Y-128585605D01*
X102034763Y-128612281D01*
X102085211Y-128645989D01*
X102136269Y-128667138D01*
X102137537Y-128667663D01*
X102197044Y-128679500D01*
X102197046Y-128679500D01*
X104050954Y-128679500D01*
X104050956Y-128679500D01*
X104110463Y-128667663D01*
X104162789Y-128645989D01*
X104213238Y-128612280D01*
X104239909Y-128585607D01*
X104258637Y-128572000D01*
X104258645Y-128571996D01*
X104306905Y-128547406D01*
X104328921Y-128540252D01*
X104382425Y-128531779D01*
X104405573Y-128531779D01*
X104459077Y-128540252D01*
X104481092Y-128547405D01*
X104529360Y-128571999D01*
X104548087Y-128585605D01*
X104574763Y-128612281D01*
X104625211Y-128645989D01*
X104676269Y-128667138D01*
X104677537Y-128667663D01*
X104737044Y-128679500D01*
X104737046Y-128679500D01*
X106522346Y-128679500D01*
X106522348Y-128679500D01*
X106581855Y-128667663D01*
X106634181Y-128645989D01*
X106684629Y-128612281D01*
X107657281Y-127639629D01*
X107690989Y-127589181D01*
X107712663Y-127536855D01*
X107724500Y-127477348D01*
X107724500Y-125625812D01*
X107720203Y-125589509D01*
X107712137Y-125555914D01*
X107699485Y-125521621D01*
X107655906Y-125436093D01*
X107648754Y-125414081D01*
X107640279Y-125360572D01*
X107640279Y-125337422D01*
X107646514Y-125298053D01*
X107648752Y-125283923D01*
X107655904Y-125261909D01*
X107692870Y-125189363D01*
X107705522Y-125155066D01*
X107713587Y-125121471D01*
X107716553Y-125105469D01*
X107706046Y-125025665D01*
X107684372Y-124973339D01*
X107684366Y-124973328D01*
X107664077Y-124938185D01*
X107664075Y-124938183D01*
X107608982Y-124895909D01*
X107604452Y-124892433D01*
X107576134Y-124843383D01*
X107575501Y-124833725D01*
X107575501Y-124749187D01*
X107575500Y-124749173D01*
X107575500Y-109553475D01*
X107575501Y-109553466D01*
X107575501Y-109455146D01*
X107547130Y-109386653D01*
X107541170Y-109372264D01*
X107473521Y-109304615D01*
X107473514Y-109304609D01*
X105466003Y-107297098D01*
X106298000Y-107297098D01*
X106298000Y-107459901D01*
X106329760Y-107619575D01*
X106329763Y-107619585D01*
X106392063Y-107769992D01*
X106392064Y-107769994D01*
X106392065Y-107769995D01*
X106482516Y-107905363D01*
X106597637Y-108020484D01*
X106733005Y-108110935D01*
X106883419Y-108173238D01*
X107043097Y-108205000D01*
X107043099Y-108205000D01*
X107205901Y-108205000D01*
X107205903Y-108205000D01*
X107365581Y-108173238D01*
X107515995Y-108110935D01*
X107651363Y-108020484D01*
X107766484Y-107905363D01*
X107856935Y-107769995D01*
X107919238Y-107619581D01*
X107951000Y-107459903D01*
X107951000Y-107297097D01*
X107919238Y-107137419D01*
X107919236Y-107137414D01*
X107856936Y-106987007D01*
X107854039Y-106982672D01*
X107766484Y-106851637D01*
X107651363Y-106736516D01*
X107591746Y-106696681D01*
X107515992Y-106646063D01*
X107365585Y-106583763D01*
X107365575Y-106583760D01*
X107258645Y-106562491D01*
X107205903Y-106552000D01*
X107043097Y-106552000D01*
X106997831Y-106561003D01*
X106883424Y-106583760D01*
X106883414Y-106583763D01*
X106733007Y-106646063D01*
X106597640Y-106736513D01*
X106482513Y-106851640D01*
X106392063Y-106987007D01*
X106329763Y-107137414D01*
X106329760Y-107137424D01*
X106298000Y-107297098D01*
X105466003Y-107297098D01*
X105151578Y-106982673D01*
X105151578Y-106982672D01*
X105077738Y-106908832D01*
X105077736Y-106908830D01*
X105053460Y-106898774D01*
X105053458Y-106898773D01*
X105053458Y-106898772D01*
X104994855Y-106874499D01*
X104905145Y-106874499D01*
X104896533Y-106874499D01*
X104896525Y-106874500D01*
X98912645Y-106874500D01*
X98897749Y-106880669D01*
X98888881Y-106884343D01*
X98832244Y-106884341D01*
X98804931Y-106864770D01*
X98801634Y-106861011D01*
X98737777Y-106812012D01*
X98737773Y-106812010D01*
X98685453Y-106790338D01*
X98685443Y-106790335D01*
X98645596Y-106782409D01*
X98625942Y-106778500D01*
X90446813Y-106778500D01*
X90442219Y-106779043D01*
X90410524Y-106782794D01*
X90410520Y-106782795D01*
X90410517Y-106782795D01*
X90410514Y-106782796D01*
X90398192Y-106785754D01*
X90376920Y-106790860D01*
X90342645Y-106803502D01*
X90342636Y-106803506D01*
X90336412Y-106806676D01*
X90336333Y-106806718D01*
X90257094Y-106847091D01*
X90235077Y-106854245D01*
X90181576Y-106862719D01*
X90158422Y-106862719D01*
X90104921Y-106854245D01*
X90082904Y-106847091D01*
X90014051Y-106812010D01*
X90004839Y-106807316D01*
X90004833Y-106807312D01*
X89995423Y-106802518D01*
X89995417Y-106802515D01*
X89989523Y-106799512D01*
X89985443Y-106799110D01*
X89963081Y-106790861D01*
X89963068Y-106790857D01*
X89929484Y-106782795D01*
X89929475Y-106782794D01*
X89898446Y-106779122D01*
X89893187Y-106778500D01*
X87906813Y-106778500D01*
X87902219Y-106779043D01*
X87870524Y-106782794D01*
X87870520Y-106782795D01*
X87870517Y-106782795D01*
X87870514Y-106782796D01*
X87858192Y-106785754D01*
X87836920Y-106790860D01*
X87802645Y-106803502D01*
X87802636Y-106803506D01*
X87796412Y-106806676D01*
X87796333Y-106806718D01*
X87717094Y-106847091D01*
X87695077Y-106854245D01*
X87641576Y-106862719D01*
X87618422Y-106862719D01*
X87564921Y-106854245D01*
X87542904Y-106847091D01*
X87474051Y-106812010D01*
X87464839Y-106807316D01*
X87464833Y-106807312D01*
X87455423Y-106802518D01*
X87455417Y-106802515D01*
X87449523Y-106799512D01*
X87445443Y-106799110D01*
X87423081Y-106790861D01*
X87423068Y-106790857D01*
X87389484Y-106782795D01*
X87389475Y-106782794D01*
X87358446Y-106779122D01*
X87353187Y-106778500D01*
X85366813Y-106778500D01*
X85362219Y-106779043D01*
X85330524Y-106782794D01*
X85330520Y-106782795D01*
X85330517Y-106782795D01*
X85330514Y-106782796D01*
X85318192Y-106785754D01*
X85296920Y-106790860D01*
X85262645Y-106803502D01*
X85262636Y-106803506D01*
X85256412Y-106806676D01*
X85256333Y-106806718D01*
X85177094Y-106847091D01*
X85155077Y-106854245D01*
X85101576Y-106862719D01*
X85078422Y-106862719D01*
X85024921Y-106854245D01*
X85002904Y-106847091D01*
X84934051Y-106812010D01*
X84924839Y-106807316D01*
X84924833Y-106807312D01*
X84915423Y-106802518D01*
X84915417Y-106802515D01*
X84909523Y-106799512D01*
X84905443Y-106799110D01*
X84883081Y-106790861D01*
X84883068Y-106790857D01*
X84849484Y-106782795D01*
X84849475Y-106782794D01*
X84818446Y-106779122D01*
X84813187Y-106778500D01*
X82826813Y-106778500D01*
X82822219Y-106779043D01*
X82790524Y-106782794D01*
X82790520Y-106782795D01*
X82790517Y-106782795D01*
X82790514Y-106782796D01*
X82778192Y-106785754D01*
X82756920Y-106790860D01*
X82722645Y-106803502D01*
X82722636Y-106803506D01*
X82716412Y-106806676D01*
X82716333Y-106806718D01*
X82637094Y-106847091D01*
X82615077Y-106854245D01*
X82561576Y-106862719D01*
X82538422Y-106862719D01*
X82484921Y-106854245D01*
X82462904Y-106847091D01*
X82394051Y-106812010D01*
X82384839Y-106807316D01*
X82384833Y-106807312D01*
X82375423Y-106802518D01*
X82375417Y-106802515D01*
X82369523Y-106799512D01*
X82365443Y-106799110D01*
X82343081Y-106790861D01*
X82343068Y-106790857D01*
X82309484Y-106782795D01*
X82309475Y-106782794D01*
X82278446Y-106779122D01*
X82273187Y-106778500D01*
X78834152Y-106778500D01*
X78817283Y-106781855D01*
X78774650Y-106790335D01*
X78774640Y-106790338D01*
X78722319Y-106812010D01*
X78671871Y-106845718D01*
X78671870Y-106845720D01*
X76048220Y-109469370D01*
X76048218Y-109469371D01*
X76014510Y-109519819D01*
X75992838Y-109572140D01*
X75992835Y-109572150D01*
X75981000Y-109631653D01*
X75527400Y-109631653D01*
X75527400Y-107381726D01*
X75527682Y-107375276D01*
X75534522Y-107297098D01*
X75754500Y-107297098D01*
X75754500Y-107459901D01*
X75786260Y-107619575D01*
X75786263Y-107619585D01*
X75848563Y-107769992D01*
X75848564Y-107769994D01*
X75848565Y-107769995D01*
X75939016Y-107905363D01*
X76054137Y-108020484D01*
X76189505Y-108110935D01*
X76339919Y-108173238D01*
X76499597Y-108205000D01*
X76499599Y-108205000D01*
X76662401Y-108205000D01*
X76662403Y-108205000D01*
X76822081Y-108173238D01*
X76972495Y-108110935D01*
X77107863Y-108020484D01*
X77222984Y-107905363D01*
X77313435Y-107769995D01*
X77375738Y-107619581D01*
X77407500Y-107459903D01*
X77407500Y-107297097D01*
X77375738Y-107137419D01*
X77375736Y-107137414D01*
X77313436Y-106987007D01*
X77310539Y-106982672D01*
X77222984Y-106851637D01*
X77107863Y-106736516D01*
X77048246Y-106696681D01*
X76972492Y-106646063D01*
X76822085Y-106583763D01*
X76822075Y-106583760D01*
X76715145Y-106562491D01*
X76662403Y-106552000D01*
X76499597Y-106552000D01*
X76454331Y-106561003D01*
X76339924Y-106583760D01*
X76339914Y-106583763D01*
X76189507Y-106646063D01*
X76054140Y-106736513D01*
X75939013Y-106851640D01*
X75848563Y-106987007D01*
X75786263Y-107137414D01*
X75786260Y-107137424D01*
X75754500Y-107297098D01*
X75534522Y-107297098D01*
X75534522Y-107297097D01*
X75542842Y-107201994D01*
X75545081Y-107189296D01*
X75558980Y-107137424D01*
X75589266Y-107024391D01*
X75593671Y-107012289D01*
X75665825Y-106857555D01*
X75672263Y-106846404D01*
X75770186Y-106706556D01*
X75778467Y-106696687D01*
X75899187Y-106575967D01*
X75909056Y-106567686D01*
X76048904Y-106469763D01*
X76060055Y-106463325D01*
X76214789Y-106391171D01*
X76226891Y-106386766D01*
X76391797Y-106342580D01*
X76404494Y-106340342D01*
X76577777Y-106325182D01*
X76584227Y-106324900D01*
X76639503Y-106324900D01*
X107065997Y-106324900D01*
X107121273Y-106324900D01*
X107127723Y-106325182D01*
G37*
G04 #@! TD.AperFunction*
G04 #@! TA.AperFunction,Conductor*
G36*
X82306782Y-106942065D02*
G01*
X82311656Y-106944548D01*
X82311658Y-106944550D01*
X82424696Y-107002146D01*
X82550000Y-107021992D01*
X82675304Y-107002146D01*
X82788342Y-106944550D01*
X82788343Y-106944548D01*
X82793218Y-106942065D01*
X82826813Y-106934000D01*
X84813187Y-106934000D01*
X84846782Y-106942065D01*
X84851656Y-106944548D01*
X84851658Y-106944550D01*
X84964696Y-107002146D01*
X85090000Y-107021992D01*
X85215304Y-107002146D01*
X85328342Y-106944550D01*
X85328343Y-106944548D01*
X85333218Y-106942065D01*
X85366813Y-106934000D01*
X87353187Y-106934000D01*
X87386782Y-106942065D01*
X87391656Y-106944548D01*
X87391658Y-106944550D01*
X87504696Y-107002146D01*
X87630000Y-107021992D01*
X87755304Y-107002146D01*
X87868342Y-106944550D01*
X87868343Y-106944548D01*
X87873218Y-106942065D01*
X87906813Y-106934000D01*
X89893187Y-106934000D01*
X89926782Y-106942065D01*
X89931656Y-106944548D01*
X89931658Y-106944550D01*
X90044696Y-107002146D01*
X90170000Y-107021992D01*
X90295304Y-107002146D01*
X90408342Y-106944550D01*
X90408343Y-106944548D01*
X90413218Y-106942065D01*
X90446813Y-106934000D01*
X98625942Y-106934000D01*
X98678268Y-106955674D01*
X98699942Y-107008000D01*
X98678268Y-107060326D01*
X97845269Y-107893326D01*
X97792943Y-107915000D01*
X95557475Y-107915000D01*
X95557467Y-107914999D01*
X95548855Y-107914999D01*
X95459145Y-107914999D01*
X95400539Y-107939274D01*
X95400537Y-107939275D01*
X95400536Y-107939274D01*
X95376263Y-107949330D01*
X94931764Y-108393830D01*
X94931763Y-108393830D01*
X94887851Y-108437741D01*
X94835525Y-108459415D01*
X94783200Y-108437740D01*
X94779600Y-108433874D01*
X94722552Y-108368036D01*
X94722550Y-108368035D01*
X94722549Y-108368033D01*
X94648508Y-108320450D01*
X94613568Y-108297995D01*
X94489272Y-108261500D01*
X94359728Y-108261500D01*
X94235431Y-108297995D01*
X94126454Y-108368031D01*
X94126450Y-108368034D01*
X94041619Y-108465935D01*
X93987802Y-108583776D01*
X93969367Y-108712000D01*
X93987802Y-108840223D01*
X93987802Y-108840224D01*
X93987803Y-108840226D01*
X94041618Y-108958063D01*
X94126451Y-109055967D01*
X94235431Y-109126004D01*
X94359728Y-109162500D01*
X94489272Y-109162500D01*
X94613569Y-109126004D01*
X94719994Y-109057608D01*
X94775730Y-109047553D01*
X94822253Y-109079854D01*
X94834000Y-109119862D01*
X94834000Y-109222942D01*
X94812326Y-109275268D01*
X94525908Y-109561685D01*
X94473582Y-109583359D01*
X94462007Y-109582448D01*
X94424500Y-109576508D01*
X94299198Y-109596353D01*
X94186156Y-109653951D01*
X94096451Y-109743656D01*
X94038853Y-109856698D01*
X94019008Y-109982000D01*
X94038853Y-110107301D01*
X94038853Y-110107302D01*
X94038854Y-110107304D01*
X94096450Y-110220342D01*
X94186158Y-110310050D01*
X94299196Y-110367646D01*
X94424500Y-110387492D01*
X94549804Y-110367646D01*
X94662842Y-110310050D01*
X94752550Y-110220342D01*
X94810146Y-110107304D01*
X94829992Y-109982000D01*
X94824051Y-109944490D01*
X94837273Y-109889419D01*
X94844808Y-109880595D01*
X95176827Y-109548577D01*
X95176830Y-109548575D01*
X95187235Y-109538170D01*
X95187236Y-109538170D01*
X95250670Y-109474736D01*
X95271478Y-109424500D01*
X95285001Y-109391854D01*
X95285001Y-109302145D01*
X95285001Y-109296187D01*
X95285000Y-109296173D01*
X95285000Y-109119862D01*
X95306674Y-109067536D01*
X95359000Y-109045862D01*
X95399004Y-109057607D01*
X95505431Y-109126004D01*
X95629728Y-109162500D01*
X95759272Y-109162500D01*
X95883569Y-109126004D01*
X95992549Y-109055967D01*
X96077382Y-108958063D01*
X96131197Y-108840226D01*
X96149633Y-108712000D01*
X96131197Y-108583774D01*
X96079574Y-108470738D01*
X96077554Y-108414140D01*
X96116147Y-108372687D01*
X96146888Y-108366000D01*
X96512112Y-108366000D01*
X96564438Y-108387674D01*
X96586112Y-108440000D01*
X96579425Y-108470737D01*
X96532159Y-108574235D01*
X96527802Y-108583776D01*
X96509367Y-108712000D01*
X96527802Y-108840223D01*
X96527802Y-108840224D01*
X96527803Y-108840226D01*
X96579425Y-108953261D01*
X96581446Y-109009860D01*
X96542853Y-109051313D01*
X96512112Y-109058000D01*
X96348145Y-109058000D01*
X96265266Y-109092328D01*
X96201829Y-109155765D01*
X95795908Y-109561685D01*
X95743582Y-109583359D01*
X95732007Y-109582448D01*
X95694500Y-109576508D01*
X95569198Y-109596353D01*
X95456156Y-109653951D01*
X95366451Y-109743656D01*
X95308853Y-109856698D01*
X95289008Y-109982000D01*
X95308853Y-110107301D01*
X95308853Y-110107302D01*
X95308854Y-110107304D01*
X95366450Y-110220342D01*
X95456158Y-110310050D01*
X95569196Y-110367646D01*
X95694500Y-110387492D01*
X95819804Y-110367646D01*
X95932842Y-110310050D01*
X96022550Y-110220342D01*
X96080146Y-110107304D01*
X96099992Y-109982000D01*
X96094051Y-109944490D01*
X96107273Y-109889419D01*
X96114807Y-109880596D01*
X96464731Y-109530674D01*
X96517057Y-109509000D01*
X96702407Y-109509000D01*
X96754733Y-109530674D01*
X96776407Y-109583000D01*
X96754733Y-109635326D01*
X96736005Y-109648932D01*
X96726387Y-109653833D01*
X96726156Y-109653951D01*
X96636451Y-109743656D01*
X96578853Y-109856698D01*
X96559008Y-109982000D01*
X96578853Y-110107301D01*
X96578853Y-110107302D01*
X96578854Y-110107304D01*
X96636450Y-110220342D01*
X96726158Y-110310050D01*
X96839196Y-110367646D01*
X96964500Y-110387492D01*
X97089804Y-110367646D01*
X97202842Y-110310050D01*
X97292550Y-110220342D01*
X97350146Y-110107304D01*
X97351303Y-110100000D01*
X102194508Y-110100000D01*
X102214353Y-110225301D01*
X102214353Y-110225302D01*
X102214354Y-110225304D01*
X102271950Y-110338342D01*
X102361658Y-110428050D01*
X102474696Y-110485646D01*
X102600000Y-110505492D01*
X102725304Y-110485646D01*
X102838342Y-110428050D01*
X102928050Y-110338342D01*
X102985646Y-110225304D01*
X103005492Y-110100000D01*
X103894508Y-110100000D01*
X103914353Y-110225301D01*
X103914353Y-110225302D01*
X103914354Y-110225304D01*
X103971950Y-110338342D01*
X104061658Y-110428050D01*
X104174696Y-110485646D01*
X104300000Y-110505492D01*
X104425304Y-110485646D01*
X104538342Y-110428050D01*
X104628050Y-110338342D01*
X104685646Y-110225304D01*
X104705492Y-110100000D01*
X104685646Y-109974696D01*
X104628050Y-109861658D01*
X104538342Y-109771950D01*
X104425304Y-109714354D01*
X104425302Y-109714353D01*
X104425301Y-109714353D01*
X104300000Y-109694508D01*
X104174698Y-109714353D01*
X104061656Y-109771951D01*
X103971951Y-109861656D01*
X103914353Y-109974698D01*
X103894508Y-110100000D01*
X103005492Y-110100000D01*
X102985646Y-109974696D01*
X102928050Y-109861658D01*
X102838342Y-109771950D01*
X102725304Y-109714354D01*
X102725302Y-109714353D01*
X102725301Y-109714353D01*
X102600000Y-109694508D01*
X102474698Y-109714353D01*
X102361656Y-109771951D01*
X102271951Y-109861656D01*
X102214353Y-109974698D01*
X102194508Y-110100000D01*
X97351303Y-110100000D01*
X97369992Y-109982000D01*
X97364051Y-109944490D01*
X97377273Y-109889419D01*
X97384807Y-109880596D01*
X99318232Y-107947174D01*
X99370558Y-107925500D01*
X104525943Y-107925500D01*
X104578269Y-107947174D01*
X106502826Y-109871731D01*
X106524500Y-109924057D01*
X106524500Y-116187505D01*
X106502826Y-116239831D01*
X106450500Y-116261505D01*
X106398174Y-116239831D01*
X106386414Y-116224505D01*
X106321524Y-116112114D01*
X106321521Y-116112109D01*
X106205407Y-115983152D01*
X106065030Y-115881161D01*
X106065023Y-115881157D01*
X105906500Y-115810578D01*
X105906498Y-115810577D01*
X105772841Y-115782168D01*
X105736764Y-115774500D01*
X105563236Y-115774500D01*
X105533483Y-115780824D01*
X105393501Y-115810577D01*
X105393499Y-115810578D01*
X105234978Y-115881156D01*
X105234973Y-115881159D01*
X105094592Y-115983152D01*
X104978478Y-116112109D01*
X104978475Y-116112114D01*
X104891716Y-116262384D01*
X104891711Y-116262394D01*
X104838093Y-116427418D01*
X104819953Y-116600000D01*
X104838093Y-116772581D01*
X104891711Y-116937605D01*
X104891716Y-116937615D01*
X104978475Y-117087885D01*
X104978478Y-117087890D01*
X105094592Y-117216847D01*
X105234969Y-117318838D01*
X105234976Y-117318842D01*
X105393501Y-117389422D01*
X105563236Y-117425500D01*
X105563237Y-117425500D01*
X105736763Y-117425500D01*
X105736764Y-117425500D01*
X105906499Y-117389422D01*
X106065024Y-117318842D01*
X106116446Y-117281482D01*
X106205407Y-117216847D01*
X106205406Y-117216847D01*
X106205410Y-117216845D01*
X106321522Y-117087889D01*
X106386414Y-116975494D01*
X106431348Y-116941015D01*
X106487500Y-116948408D01*
X106521979Y-116993342D01*
X106524500Y-117012494D01*
X106524500Y-118187505D01*
X106502826Y-118239831D01*
X106450500Y-118261505D01*
X106398174Y-118239831D01*
X106386414Y-118224505D01*
X106321524Y-118112114D01*
X106321521Y-118112109D01*
X106205407Y-117983152D01*
X106065030Y-117881161D01*
X106065023Y-117881157D01*
X105906500Y-117810578D01*
X105906498Y-117810577D01*
X105766319Y-117780782D01*
X105736764Y-117774500D01*
X105563236Y-117774500D01*
X105533681Y-117780782D01*
X105393501Y-117810577D01*
X105393499Y-117810578D01*
X105234978Y-117881156D01*
X105234973Y-117881159D01*
X105094592Y-117983152D01*
X104978478Y-118112109D01*
X104978475Y-118112114D01*
X104891716Y-118262384D01*
X104891711Y-118262394D01*
X104838093Y-118427418D01*
X104838092Y-118427422D01*
X104838092Y-118427424D01*
X104833455Y-118471543D01*
X104819953Y-118600000D01*
X104838093Y-118772581D01*
X104891711Y-118937605D01*
X104891716Y-118937615D01*
X104978475Y-119087885D01*
X104978478Y-119087890D01*
X105094592Y-119216847D01*
X105234969Y-119318838D01*
X105234976Y-119318842D01*
X105393501Y-119389422D01*
X105563236Y-119425500D01*
X105563237Y-119425500D01*
X105736763Y-119425500D01*
X105736764Y-119425500D01*
X105906499Y-119389422D01*
X106065024Y-119318842D01*
X106205410Y-119216845D01*
X106321522Y-119087889D01*
X106386414Y-118975494D01*
X106431348Y-118941015D01*
X106487500Y-118948408D01*
X106521979Y-118993342D01*
X106524500Y-119012494D01*
X106524500Y-120187505D01*
X106502826Y-120239831D01*
X106450500Y-120261505D01*
X106398174Y-120239831D01*
X106386414Y-120224505D01*
X106321524Y-120112114D01*
X106321521Y-120112109D01*
X106205407Y-119983152D01*
X106065030Y-119881161D01*
X106065023Y-119881157D01*
X105906500Y-119810578D01*
X105906498Y-119810577D01*
X105772841Y-119782168D01*
X105736764Y-119774500D01*
X105563236Y-119774500D01*
X105533483Y-119780824D01*
X105393501Y-119810577D01*
X105393499Y-119810578D01*
X105234978Y-119881156D01*
X105234973Y-119881159D01*
X105094592Y-119983152D01*
X104978478Y-120112109D01*
X104978475Y-120112114D01*
X104891716Y-120262384D01*
X104891711Y-120262394D01*
X104838093Y-120427418D01*
X104838092Y-120427422D01*
X104838092Y-120427424D01*
X104819953Y-120600000D01*
X104833123Y-120725304D01*
X104838093Y-120772581D01*
X104891713Y-120937609D01*
X104891713Y-120937610D01*
X104900572Y-120952953D01*
X104907966Y-121009105D01*
X104888813Y-121042280D01*
X104522265Y-121408829D01*
X104458831Y-121472263D01*
X104458830Y-121472265D01*
X104424499Y-121555144D01*
X104424499Y-121653466D01*
X104424500Y-121653475D01*
X104424500Y-122033702D01*
X104402826Y-122086028D01*
X104350500Y-122107702D01*
X104298174Y-122086028D01*
X104295507Y-122083218D01*
X104205407Y-121983152D01*
X104065030Y-121881161D01*
X104065023Y-121881157D01*
X103906500Y-121810578D01*
X103906498Y-121810577D01*
X103772841Y-121782168D01*
X103736764Y-121774500D01*
X103563236Y-121774500D01*
X103533483Y-121780824D01*
X103393501Y-121810577D01*
X103393499Y-121810578D01*
X103234978Y-121881156D01*
X103234973Y-121881159D01*
X103094592Y-121983152D01*
X102978478Y-122112109D01*
X102978475Y-122112114D01*
X102891716Y-122262384D01*
X102891711Y-122262394D01*
X102838093Y-122427418D01*
X102838092Y-122427422D01*
X102838092Y-122427424D01*
X102819953Y-122600000D01*
X102822481Y-122624056D01*
X102838093Y-122772581D01*
X102891711Y-122937605D01*
X102891716Y-122937615D01*
X102978475Y-123087885D01*
X102978478Y-123087890D01*
X103039035Y-123155145D01*
X103092471Y-123214492D01*
X103094592Y-123216847D01*
X103234969Y-123318838D01*
X103234976Y-123318842D01*
X103393501Y-123389422D01*
X103563236Y-123425500D01*
X103563237Y-123425500D01*
X103736763Y-123425500D01*
X103736764Y-123425500D01*
X103906499Y-123389422D01*
X104065024Y-123318842D01*
X104071202Y-123314354D01*
X104205410Y-123216845D01*
X104295506Y-123116783D01*
X104346626Y-123092399D01*
X104400014Y-123111305D01*
X104424398Y-123162425D01*
X104424499Y-123166298D01*
X104424499Y-123244855D01*
X104445067Y-123294509D01*
X104458828Y-123327733D01*
X104458831Y-123327737D01*
X104532671Y-123401577D01*
X104532672Y-123401577D01*
X104922264Y-123791170D01*
X105005145Y-123825500D01*
X105083834Y-123825500D01*
X105136160Y-123847174D01*
X105157834Y-123899500D01*
X105136160Y-123951826D01*
X105127330Y-123959367D01*
X105094592Y-123983152D01*
X104978478Y-124112109D01*
X104978475Y-124112114D01*
X104891716Y-124262384D01*
X104891711Y-124262394D01*
X104838093Y-124427418D01*
X104838092Y-124427422D01*
X104838092Y-124427424D01*
X104819953Y-124600000D01*
X104835719Y-124750000D01*
X104838093Y-124772581D01*
X104891711Y-124937605D01*
X104891716Y-124937615D01*
X104978475Y-125087885D01*
X104978478Y-125087890D01*
X105094592Y-125216847D01*
X105127330Y-125240633D01*
X105156923Y-125288924D01*
X105143701Y-125343996D01*
X105095410Y-125373589D01*
X105083834Y-125374500D01*
X104216166Y-125374500D01*
X104163840Y-125352826D01*
X104142166Y-125300500D01*
X104163840Y-125248174D01*
X104172670Y-125240633D01*
X104205407Y-125216847D01*
X104205406Y-125216847D01*
X104205410Y-125216845D01*
X104321522Y-125087889D01*
X104408286Y-124937611D01*
X104461908Y-124772576D01*
X104480047Y-124600000D01*
X104461908Y-124427424D01*
X104441416Y-124364354D01*
X104408288Y-124262394D01*
X104408283Y-124262384D01*
X104321524Y-124112114D01*
X104321521Y-124112109D01*
X104205407Y-123983152D01*
X104065030Y-123881161D01*
X104065023Y-123881157D01*
X103906500Y-123810578D01*
X103906498Y-123810577D01*
X103772841Y-123782168D01*
X103736764Y-123774500D01*
X103563236Y-123774500D01*
X103533483Y-123780824D01*
X103393501Y-123810577D01*
X103393499Y-123810578D01*
X103234978Y-123881156D01*
X103234973Y-123881159D01*
X103094592Y-123983152D01*
X102978478Y-124112109D01*
X102978475Y-124112114D01*
X102891716Y-124262384D01*
X102891711Y-124262394D01*
X102838093Y-124427418D01*
X102838092Y-124427422D01*
X102838092Y-124427424D01*
X102819953Y-124600000D01*
X102825901Y-124656594D01*
X102838093Y-124772582D01*
X102861536Y-124844733D01*
X102857092Y-124901196D01*
X102814025Y-124937978D01*
X102757562Y-124933534D01*
X102738832Y-124919926D01*
X102287429Y-124468524D01*
X102265755Y-124416198D01*
X102287429Y-124363872D01*
X102328178Y-124343109D01*
X102375304Y-124335646D01*
X102488342Y-124278050D01*
X102578050Y-124188342D01*
X102635646Y-124075304D01*
X102655492Y-123950000D01*
X102635646Y-123824696D01*
X102578050Y-123711658D01*
X102488342Y-123621950D01*
X102375304Y-123564354D01*
X102375302Y-123564353D01*
X102375301Y-123564353D01*
X102250000Y-123544508D01*
X102124698Y-123564353D01*
X102124696Y-123564353D01*
X102124696Y-123564354D01*
X102107618Y-123573056D01*
X102083095Y-123585551D01*
X102026632Y-123589994D01*
X101983565Y-123553211D01*
X101975500Y-123519616D01*
X101975500Y-122624056D01*
X101997173Y-122571731D01*
X103209453Y-121359450D01*
X103261778Y-121337777D01*
X103291874Y-121344174D01*
X103393501Y-121389422D01*
X103563236Y-121425500D01*
X103563237Y-121425500D01*
X103736763Y-121425500D01*
X103736764Y-121425500D01*
X103906499Y-121389422D01*
X104065024Y-121318842D01*
X104205410Y-121216845D01*
X104321522Y-121087889D01*
X104408286Y-120937611D01*
X104411393Y-120928050D01*
X104440540Y-120838342D01*
X104461908Y-120772576D01*
X104480047Y-120600000D01*
X104461908Y-120427424D01*
X104422291Y-120305492D01*
X104408288Y-120262394D01*
X104408283Y-120262384D01*
X104321524Y-120112114D01*
X104321521Y-120112109D01*
X104205407Y-119983152D01*
X104065030Y-119881161D01*
X104065023Y-119881157D01*
X103906500Y-119810578D01*
X103906498Y-119810577D01*
X103772841Y-119782168D01*
X103736764Y-119774500D01*
X103563236Y-119774500D01*
X103533483Y-119780824D01*
X103393501Y-119810577D01*
X103393499Y-119810578D01*
X103234978Y-119881156D01*
X103234973Y-119881159D01*
X103094592Y-119983152D01*
X102978478Y-120112109D01*
X102978478Y-120112110D01*
X102936292Y-120185178D01*
X102891358Y-120219656D01*
X102835205Y-120212263D01*
X102800727Y-120167329D01*
X102799119Y-120159763D01*
X102785646Y-120074696D01*
X102728050Y-119961658D01*
X102638342Y-119871950D01*
X102525304Y-119814354D01*
X102525302Y-119814353D01*
X102525301Y-119814353D01*
X102400000Y-119794508D01*
X102274698Y-119814353D01*
X102161656Y-119871951D01*
X102071951Y-119961656D01*
X102014353Y-120074698D01*
X101994508Y-120200000D01*
X102014353Y-120325301D01*
X102014353Y-120325302D01*
X102014354Y-120325304D01*
X102071950Y-120438342D01*
X102161658Y-120528050D01*
X102274696Y-120585646D01*
X102400000Y-120605492D01*
X102525304Y-120585646D01*
X102638342Y-120528050D01*
X102701970Y-120464421D01*
X102754294Y-120442748D01*
X102806621Y-120464422D01*
X102828295Y-120516747D01*
X102827890Y-120524483D01*
X102822260Y-120578048D01*
X102819953Y-120600000D01*
X102833123Y-120725304D01*
X102838093Y-120772581D01*
X102891713Y-120937609D01*
X102891713Y-120937610D01*
X102900572Y-120952953D01*
X102907966Y-121009105D01*
X102888813Y-121042280D01*
X101622265Y-122308829D01*
X101558830Y-122372264D01*
X101553197Y-122385863D01*
X101524499Y-122455144D01*
X101524499Y-122553466D01*
X101524500Y-122553475D01*
X101524500Y-124199173D01*
X101524499Y-124199187D01*
X101524499Y-124294855D01*
X101541396Y-124335647D01*
X101558828Y-124377733D01*
X101558831Y-124377737D01*
X101632671Y-124451577D01*
X101632672Y-124451577D01*
X102908829Y-125727735D01*
X102908830Y-125727736D01*
X102972264Y-125791170D01*
X103055145Y-125825500D01*
X103083834Y-125825500D01*
X103136160Y-125847174D01*
X103157834Y-125899500D01*
X103136160Y-125951826D01*
X103127330Y-125959367D01*
X103094592Y-125983152D01*
X102978478Y-126112109D01*
X102978475Y-126112114D01*
X102891716Y-126262384D01*
X102891711Y-126262394D01*
X102838093Y-126427418D01*
X102838092Y-126427422D01*
X102838092Y-126427424D01*
X102822985Y-126571158D01*
X102819953Y-126600000D01*
X102838093Y-126772581D01*
X102891711Y-126937605D01*
X102891716Y-126937615D01*
X102978475Y-127087885D01*
X102978478Y-127087890D01*
X103094592Y-127216847D01*
X103234969Y-127318838D01*
X103234976Y-127318842D01*
X103393501Y-127389422D01*
X103563236Y-127425500D01*
X103563237Y-127425500D01*
X103736763Y-127425500D01*
X103736764Y-127425500D01*
X103906499Y-127389422D01*
X104065024Y-127318842D01*
X104205410Y-127216845D01*
X104321522Y-127087889D01*
X104408286Y-126937611D01*
X104461908Y-126772576D01*
X104480047Y-126600000D01*
X104461908Y-126427424D01*
X104408286Y-126262389D01*
X104321522Y-126112111D01*
X104321521Y-126112109D01*
X104205407Y-125983152D01*
X104172670Y-125959367D01*
X104143077Y-125911076D01*
X104156299Y-125856004D01*
X104204590Y-125826411D01*
X104216166Y-125825500D01*
X105083834Y-125825500D01*
X105136160Y-125847174D01*
X105157834Y-125899500D01*
X105136160Y-125951826D01*
X105127330Y-125959367D01*
X105094592Y-125983152D01*
X104978478Y-126112109D01*
X104978475Y-126112114D01*
X104891716Y-126262384D01*
X104891711Y-126262394D01*
X104838093Y-126427418D01*
X104838092Y-126427422D01*
X104838092Y-126427424D01*
X104822985Y-126571158D01*
X104819953Y-126600000D01*
X104838093Y-126772581D01*
X104891711Y-126937605D01*
X104891716Y-126937615D01*
X104978475Y-127087885D01*
X104978478Y-127087890D01*
X105094592Y-127216847D01*
X105234969Y-127318838D01*
X105234976Y-127318842D01*
X105393501Y-127389422D01*
X105563236Y-127425500D01*
X105563237Y-127425500D01*
X105736763Y-127425500D01*
X105736764Y-127425500D01*
X105906499Y-127389422D01*
X106065024Y-127318842D01*
X106205410Y-127216845D01*
X106321522Y-127087889D01*
X106408286Y-126937611D01*
X106461908Y-126772576D01*
X106480047Y-126600000D01*
X106461908Y-126427424D01*
X106408286Y-126262389D01*
X106321522Y-126112111D01*
X106321521Y-126112109D01*
X106205407Y-125983152D01*
X106172670Y-125959367D01*
X106143077Y-125911076D01*
X106156299Y-125856004D01*
X106204590Y-125826411D01*
X106216166Y-125825500D01*
X106496525Y-125825500D01*
X106496533Y-125825501D01*
X106505145Y-125825501D01*
X106594854Y-125825501D01*
X106594855Y-125825501D01*
X106653460Y-125801225D01*
X106677736Y-125791170D01*
X106741170Y-125727736D01*
X106741170Y-125727735D01*
X106751575Y-125717330D01*
X106751577Y-125717327D01*
X107436058Y-125032845D01*
X107488383Y-125011172D01*
X107540709Y-125032846D01*
X107562383Y-125085172D01*
X107554318Y-125118767D01*
X107500853Y-125223698D01*
X107481008Y-125349000D01*
X107500854Y-125474304D01*
X107560934Y-125592217D01*
X107569000Y-125625812D01*
X107569000Y-127477348D01*
X107547326Y-127529674D01*
X106574674Y-128502326D01*
X106522348Y-128524000D01*
X104737044Y-128524000D01*
X104684718Y-128502326D01*
X104632343Y-128449951D01*
X104632342Y-128449950D01*
X104519304Y-128392354D01*
X104519302Y-128392353D01*
X104519301Y-128392353D01*
X104394000Y-128372508D01*
X104268698Y-128392353D01*
X104155656Y-128449951D01*
X104103282Y-128502326D01*
X104050956Y-128524000D01*
X102197044Y-128524000D01*
X102144718Y-128502326D01*
X102092343Y-128449951D01*
X102092342Y-128449950D01*
X101979304Y-128392354D01*
X101979302Y-128392353D01*
X101979301Y-128392353D01*
X101854000Y-128372508D01*
X101728698Y-128392353D01*
X101615656Y-128449951D01*
X101563282Y-128502326D01*
X101510956Y-128524000D01*
X99060131Y-128524000D01*
X99026537Y-128515935D01*
X98925304Y-128464354D01*
X98925302Y-128464353D01*
X98925301Y-128464353D01*
X98800000Y-128444508D01*
X98674698Y-128464353D01*
X98674696Y-128464353D01*
X98674696Y-128464354D01*
X98573462Y-128515935D01*
X98539869Y-128524000D01*
X92947813Y-128524000D01*
X92914218Y-128515935D01*
X92909343Y-128513451D01*
X92909342Y-128513450D01*
X92796304Y-128455854D01*
X92796302Y-128455853D01*
X92796301Y-128455853D01*
X92671000Y-128436008D01*
X92545698Y-128455853D01*
X92545696Y-128455853D01*
X92545696Y-128455854D01*
X92432658Y-128513450D01*
X92432656Y-128513451D01*
X92427782Y-128515935D01*
X92394187Y-128524000D01*
X91505162Y-128524000D01*
X91452836Y-128502326D01*
X91431162Y-128450000D01*
X91439226Y-128416406D01*
X91485646Y-128325304D01*
X91505492Y-128200000D01*
X91485646Y-128074696D01*
X91428050Y-127961658D01*
X91338342Y-127871950D01*
X91225304Y-127814354D01*
X91225302Y-127814353D01*
X91225301Y-127814353D01*
X91100000Y-127794508D01*
X90974698Y-127814353D01*
X90861656Y-127871951D01*
X90771951Y-127961656D01*
X90714353Y-128074698D01*
X90694508Y-128200000D01*
X90714353Y-128325301D01*
X90714353Y-128325302D01*
X90714354Y-128325304D01*
X90760773Y-128416406D01*
X90765216Y-128472867D01*
X90728433Y-128515935D01*
X90694838Y-128524000D01*
X90446813Y-128524000D01*
X90413218Y-128515935D01*
X90408343Y-128513451D01*
X90408342Y-128513450D01*
X90295304Y-128455854D01*
X90295302Y-128455853D01*
X90295301Y-128455853D01*
X90170000Y-128436008D01*
X90044698Y-128455853D01*
X90044696Y-128455853D01*
X90044696Y-128455854D01*
X89931658Y-128513450D01*
X89931656Y-128513451D01*
X89926782Y-128515935D01*
X89893187Y-128524000D01*
X87906813Y-128524000D01*
X87873218Y-128515935D01*
X87868343Y-128513451D01*
X87868342Y-128513450D01*
X87755304Y-128455854D01*
X87755302Y-128455853D01*
X87755301Y-128455853D01*
X87630000Y-128436008D01*
X87504698Y-128455853D01*
X87504696Y-128455853D01*
X87504696Y-128455854D01*
X87391658Y-128513450D01*
X87391656Y-128513451D01*
X87386782Y-128515935D01*
X87353187Y-128524000D01*
X85366813Y-128524000D01*
X85333218Y-128515935D01*
X85328343Y-128513451D01*
X85328342Y-128513450D01*
X85215304Y-128455854D01*
X85215302Y-128455853D01*
X85215301Y-128455853D01*
X85090000Y-128436008D01*
X84964698Y-128455853D01*
X84964696Y-128455853D01*
X84964696Y-128455854D01*
X84851658Y-128513450D01*
X84851656Y-128513451D01*
X84846782Y-128515935D01*
X84813187Y-128524000D01*
X82826813Y-128524000D01*
X82793218Y-128515935D01*
X82788343Y-128513451D01*
X82788342Y-128513450D01*
X82675304Y-128455854D01*
X82675302Y-128455853D01*
X82675301Y-128455853D01*
X82550000Y-128436008D01*
X82424698Y-128455853D01*
X82424696Y-128455853D01*
X82424696Y-128455854D01*
X82311658Y-128513450D01*
X82311656Y-128513451D01*
X82306782Y-128515935D01*
X82273187Y-128524000D01*
X78834152Y-128524000D01*
X78781826Y-128502326D01*
X78029500Y-127750000D01*
X89794508Y-127750000D01*
X89814353Y-127875301D01*
X89814353Y-127875302D01*
X89814354Y-127875304D01*
X89871950Y-127988342D01*
X89961658Y-128078050D01*
X90074696Y-128135646D01*
X90200000Y-128155492D01*
X90325304Y-128135646D01*
X90438342Y-128078050D01*
X90528050Y-127988342D01*
X90585646Y-127875304D01*
X90605492Y-127750000D01*
X90585646Y-127624696D01*
X90528050Y-127511658D01*
X90516392Y-127500000D01*
X93344508Y-127500000D01*
X93364353Y-127625301D01*
X93364353Y-127625302D01*
X93364354Y-127625304D01*
X93421950Y-127738342D01*
X93511658Y-127828050D01*
X93624696Y-127885646D01*
X93750000Y-127905492D01*
X93875304Y-127885646D01*
X93988342Y-127828050D01*
X94078050Y-127738342D01*
X94135646Y-127625304D01*
X94155492Y-127500000D01*
X95044508Y-127500000D01*
X95064353Y-127625301D01*
X95064353Y-127625302D01*
X95064354Y-127625304D01*
X95121950Y-127738342D01*
X95211658Y-127828050D01*
X95324696Y-127885646D01*
X95450000Y-127905492D01*
X95575304Y-127885646D01*
X95645263Y-127850000D01*
X99494508Y-127850000D01*
X99514353Y-127975301D01*
X99514353Y-127975302D01*
X99514354Y-127975304D01*
X99571950Y-128088342D01*
X99661658Y-128178050D01*
X99774696Y-128235646D01*
X99900000Y-128255492D01*
X100025304Y-128235646D01*
X100138342Y-128178050D01*
X100228050Y-128088342D01*
X100285646Y-127975304D01*
X100305492Y-127850000D01*
X100285646Y-127724696D01*
X100228050Y-127611658D01*
X100138342Y-127521950D01*
X100025304Y-127464354D01*
X100025302Y-127464353D01*
X100025301Y-127464353D01*
X99900000Y-127444508D01*
X99774698Y-127464353D01*
X99661656Y-127521951D01*
X99571951Y-127611656D01*
X99514353Y-127724698D01*
X99494508Y-127850000D01*
X95645263Y-127850000D01*
X95688342Y-127828050D01*
X95778050Y-127738342D01*
X95835646Y-127625304D01*
X95855492Y-127500000D01*
X95835646Y-127374696D01*
X95778050Y-127261658D01*
X95688342Y-127171950D01*
X95575304Y-127114354D01*
X95575302Y-127114353D01*
X95575301Y-127114353D01*
X95450000Y-127094508D01*
X95324698Y-127114353D01*
X95324696Y-127114353D01*
X95324696Y-127114354D01*
X95268177Y-127143152D01*
X95211656Y-127171951D01*
X95121951Y-127261656D01*
X95064353Y-127374698D01*
X95044508Y-127500000D01*
X94155492Y-127500000D01*
X94135646Y-127374696D01*
X94078050Y-127261658D01*
X93988342Y-127171950D01*
X93875304Y-127114354D01*
X93875302Y-127114353D01*
X93875301Y-127114353D01*
X93750000Y-127094508D01*
X93624698Y-127114353D01*
X93624696Y-127114353D01*
X93624696Y-127114354D01*
X93568177Y-127143152D01*
X93511656Y-127171951D01*
X93421951Y-127261656D01*
X93364353Y-127374698D01*
X93344508Y-127500000D01*
X90516392Y-127500000D01*
X90438342Y-127421950D01*
X90325304Y-127364354D01*
X90325302Y-127364353D01*
X90325301Y-127364353D01*
X90200000Y-127344508D01*
X90074698Y-127364353D01*
X89961656Y-127421951D01*
X89871951Y-127511656D01*
X89814353Y-127624698D01*
X89794508Y-127750000D01*
X78029500Y-127750000D01*
X76158174Y-125878674D01*
X76136500Y-125826348D01*
X76136500Y-124400000D01*
X90694508Y-124400000D01*
X90714353Y-124525301D01*
X90714353Y-124525302D01*
X90714354Y-124525304D01*
X90771950Y-124638342D01*
X90861658Y-124728050D01*
X90974696Y-124785646D01*
X91100000Y-124805492D01*
X91225304Y-124785646D01*
X91338342Y-124728050D01*
X91428050Y-124638342D01*
X91485646Y-124525304D01*
X91505492Y-124400000D01*
X91485646Y-124274696D01*
X91428050Y-124161658D01*
X91338342Y-124071950D01*
X91225304Y-124014354D01*
X91225302Y-124014353D01*
X91225301Y-124014353D01*
X91100000Y-123994508D01*
X90974698Y-124014353D01*
X90861656Y-124071951D01*
X90771951Y-124161656D01*
X90714353Y-124274698D01*
X90694508Y-124400000D01*
X76136500Y-124400000D01*
X76136500Y-124101812D01*
X76144566Y-124068217D01*
X76165033Y-124028048D01*
X76204646Y-123950304D01*
X76204694Y-123950000D01*
X89794508Y-123950000D01*
X89814353Y-124075301D01*
X89814353Y-124075302D01*
X89814354Y-124075304D01*
X89871950Y-124188342D01*
X89961658Y-124278050D01*
X90074696Y-124335646D01*
X90200000Y-124355492D01*
X90325304Y-124335646D01*
X90438342Y-124278050D01*
X90528050Y-124188342D01*
X90585646Y-124075304D01*
X90605492Y-123950000D01*
X90585646Y-123824696D01*
X90528050Y-123711658D01*
X90438342Y-123621950D01*
X90325304Y-123564354D01*
X90325302Y-123564353D01*
X90325301Y-123564353D01*
X90200000Y-123544508D01*
X90074698Y-123564353D01*
X89961656Y-123621951D01*
X89871951Y-123711656D01*
X89814353Y-123824698D01*
X89794508Y-123950000D01*
X76204694Y-123950000D01*
X76224492Y-123825000D01*
X76204646Y-123699696D01*
X76147050Y-123586658D01*
X76147048Y-123586656D01*
X76144565Y-123581782D01*
X76136500Y-123548187D01*
X76136500Y-121053812D01*
X76144566Y-121020217D01*
X76153782Y-121002130D01*
X76204646Y-120902304D01*
X76224492Y-120777000D01*
X76204646Y-120651696D01*
X76178305Y-120600000D01*
X90694508Y-120600000D01*
X90714353Y-120725301D01*
X90714353Y-120725302D01*
X90714354Y-120725304D01*
X90771950Y-120838342D01*
X90861658Y-120928050D01*
X90974696Y-120985646D01*
X91100000Y-121005492D01*
X91225304Y-120985646D01*
X91338342Y-120928050D01*
X91428050Y-120838342D01*
X91485646Y-120725304D01*
X91505492Y-120600000D01*
X91485646Y-120474696D01*
X91428050Y-120361658D01*
X91338342Y-120271950D01*
X91225304Y-120214354D01*
X91225302Y-120214353D01*
X91225301Y-120214353D01*
X91100000Y-120194508D01*
X90974698Y-120214353D01*
X90861656Y-120271951D01*
X90771951Y-120361656D01*
X90714353Y-120474698D01*
X90694508Y-120600000D01*
X76178305Y-120600000D01*
X76147050Y-120538658D01*
X76147048Y-120538656D01*
X76144565Y-120533782D01*
X76136500Y-120500187D01*
X76136500Y-120150000D01*
X89794508Y-120150000D01*
X89814353Y-120275301D01*
X89814353Y-120275302D01*
X89814354Y-120275304D01*
X89871950Y-120388342D01*
X89961658Y-120478050D01*
X90074696Y-120535646D01*
X90200000Y-120555492D01*
X90325304Y-120535646D01*
X90438342Y-120478050D01*
X90528050Y-120388342D01*
X90585646Y-120275304D01*
X90605492Y-120150000D01*
X90585646Y-120024696D01*
X90528050Y-119911658D01*
X90438342Y-119821950D01*
X90325304Y-119764354D01*
X90325302Y-119764353D01*
X90325301Y-119764353D01*
X90200000Y-119744508D01*
X90074698Y-119764353D01*
X89961656Y-119821951D01*
X89871951Y-119911656D01*
X89814353Y-120024698D01*
X89794508Y-120150000D01*
X76136500Y-120150000D01*
X76136500Y-118005812D01*
X76144566Y-117972217D01*
X76147050Y-117967342D01*
X76204646Y-117854304D01*
X76224492Y-117729000D01*
X76204646Y-117603696D01*
X76147050Y-117490658D01*
X76147048Y-117490656D01*
X76144565Y-117485782D01*
X76136500Y-117452187D01*
X76136500Y-114957812D01*
X76144566Y-114924217D01*
X76196673Y-114821951D01*
X76204646Y-114806304D01*
X76224492Y-114681000D01*
X76204646Y-114555696D01*
X76147050Y-114442658D01*
X76147048Y-114442656D01*
X76144565Y-114437782D01*
X76136500Y-114404187D01*
X76136500Y-113100000D01*
X90694508Y-113100000D01*
X90714353Y-113225301D01*
X90714353Y-113225302D01*
X90714354Y-113225304D01*
X90771950Y-113338342D01*
X90852826Y-113419218D01*
X90874500Y-113471543D01*
X90874500Y-117728456D01*
X90852826Y-117780782D01*
X90771951Y-117861656D01*
X90714353Y-117974698D01*
X90694508Y-118100000D01*
X90714353Y-118225301D01*
X90714353Y-118225302D01*
X90714354Y-118225304D01*
X90771950Y-118338342D01*
X90852826Y-118419218D01*
X90874500Y-118471543D01*
X90874500Y-119399173D01*
X90874499Y-119399187D01*
X90874499Y-119494856D01*
X90898773Y-119553458D01*
X90908829Y-119577734D01*
X90908832Y-119577738D01*
X90982671Y-119651577D01*
X90982673Y-119651578D01*
X91652826Y-120321731D01*
X91674500Y-120374057D01*
X91674500Y-120825942D01*
X91652826Y-120878268D01*
X91008830Y-121522263D01*
X91006865Y-121527008D01*
X91006857Y-121527027D01*
X91005802Y-121529572D01*
X90971044Y-121567165D01*
X90961663Y-121571945D01*
X90961659Y-121571949D01*
X90871951Y-121661656D01*
X90814353Y-121774698D01*
X90794508Y-121900000D01*
X90803484Y-121956674D01*
X90798762Y-121996568D01*
X90774499Y-122055143D01*
X90774499Y-122153466D01*
X90774500Y-122153475D01*
X90774500Y-123099173D01*
X90774499Y-123099187D01*
X90774499Y-123105145D01*
X90774499Y-123194855D01*
X90795210Y-123244855D01*
X90808830Y-123277736D01*
X90872264Y-123341170D01*
X90882671Y-123351577D01*
X90882673Y-123351578D01*
X91652826Y-124121731D01*
X91674500Y-124174057D01*
X91674500Y-124625942D01*
X91652826Y-124678268D01*
X91008829Y-125322264D01*
X91006115Y-125328818D01*
X91006083Y-125328895D01*
X91005778Y-125329629D01*
X90971044Y-125367165D01*
X90961663Y-125371945D01*
X90961659Y-125371949D01*
X90871951Y-125461656D01*
X90814353Y-125574698D01*
X90794508Y-125700000D01*
X90814353Y-125825301D01*
X90814353Y-125825302D01*
X90814354Y-125825304D01*
X90871950Y-125938342D01*
X90961658Y-126028050D01*
X91074696Y-126085646D01*
X91200000Y-126105492D01*
X91325304Y-126085646D01*
X91438342Y-126028050D01*
X91528050Y-125938342D01*
X91585646Y-125825304D01*
X91605492Y-125700000D01*
X91585646Y-125574696D01*
X91545435Y-125495779D01*
X91540992Y-125439318D01*
X91559042Y-125409861D01*
X91618903Y-125350000D01*
X95094508Y-125350000D01*
X95114353Y-125475301D01*
X95114353Y-125475302D01*
X95114354Y-125475304D01*
X95171950Y-125588342D01*
X95261658Y-125678050D01*
X95374696Y-125735646D01*
X95500000Y-125755492D01*
X95625304Y-125735646D01*
X95738342Y-125678050D01*
X95828050Y-125588342D01*
X95885646Y-125475304D01*
X95905492Y-125350000D01*
X95885646Y-125224696D01*
X95828050Y-125111658D01*
X95766392Y-125050000D01*
X98394508Y-125050000D01*
X98414353Y-125175301D01*
X98414353Y-125175302D01*
X98414354Y-125175304D01*
X98471950Y-125288342D01*
X98561658Y-125378050D01*
X98674696Y-125435646D01*
X98800000Y-125455492D01*
X98925304Y-125435646D01*
X99038342Y-125378050D01*
X99128050Y-125288342D01*
X99185646Y-125175304D01*
X99205492Y-125050000D01*
X99185646Y-124924696D01*
X99128050Y-124811658D01*
X99038342Y-124721950D01*
X98925304Y-124664354D01*
X98925302Y-124664353D01*
X98925301Y-124664353D01*
X98800000Y-124644508D01*
X98674698Y-124664353D01*
X98561656Y-124721951D01*
X98471951Y-124811656D01*
X98471950Y-124811658D01*
X98429649Y-124894679D01*
X98414353Y-124924698D01*
X98394508Y-125050000D01*
X95766392Y-125050000D01*
X95738342Y-125021950D01*
X95625304Y-124964354D01*
X95625302Y-124964353D01*
X95625301Y-124964353D01*
X95500000Y-124944508D01*
X95374698Y-124964353D01*
X95261656Y-125021951D01*
X95171951Y-125111656D01*
X95114353Y-125224698D01*
X95094508Y-125350000D01*
X91618903Y-125350000D01*
X92002206Y-124966698D01*
X92054531Y-124945025D01*
X92106857Y-124966699D01*
X92120463Y-124985424D01*
X92121950Y-124988342D01*
X92211658Y-125078050D01*
X92324696Y-125135646D01*
X92450000Y-125155492D01*
X92575304Y-125135646D01*
X92688342Y-125078050D01*
X92778050Y-124988342D01*
X92835646Y-124875304D01*
X92855492Y-124750000D01*
X92835646Y-124624696D01*
X92778050Y-124511658D01*
X92688342Y-124421950D01*
X92575304Y-124364354D01*
X92575302Y-124364353D01*
X92575301Y-124364353D01*
X92450000Y-124344508D01*
X92324698Y-124364353D01*
X92233095Y-124411027D01*
X92176632Y-124415470D01*
X92133565Y-124378687D01*
X92125500Y-124345092D01*
X92125500Y-124005145D01*
X92125499Y-124005143D01*
X92116391Y-123983155D01*
X92102784Y-123950304D01*
X92091171Y-123922266D01*
X92091169Y-123922263D01*
X92023521Y-123854615D01*
X92023514Y-123854609D01*
X91868905Y-123700000D01*
X93344508Y-123700000D01*
X93364353Y-123825301D01*
X93364353Y-123825302D01*
X93364354Y-123825304D01*
X93421950Y-123938342D01*
X93511658Y-124028050D01*
X93624696Y-124085646D01*
X93750000Y-124105492D01*
X93875304Y-124085646D01*
X93988342Y-124028050D01*
X94078050Y-123938342D01*
X94135646Y-123825304D01*
X94155492Y-123700000D01*
X95044508Y-123700000D01*
X95064353Y-123825301D01*
X95064353Y-123825302D01*
X95064354Y-123825304D01*
X95121950Y-123938342D01*
X95211658Y-124028050D01*
X95324696Y-124085646D01*
X95450000Y-124105492D01*
X95575304Y-124085646D01*
X95645263Y-124050000D01*
X99494508Y-124050000D01*
X99514353Y-124175301D01*
X99514353Y-124175302D01*
X99514354Y-124175304D01*
X99571950Y-124288342D01*
X99661658Y-124378050D01*
X99774696Y-124435646D01*
X99900000Y-124455492D01*
X100025304Y-124435646D01*
X100138342Y-124378050D01*
X100228050Y-124288342D01*
X100285646Y-124175304D01*
X100305492Y-124050000D01*
X100285646Y-123924696D01*
X100228050Y-123811658D01*
X100138342Y-123721950D01*
X100025304Y-123664354D01*
X100025302Y-123664353D01*
X100025301Y-123664353D01*
X99900000Y-123644508D01*
X99774698Y-123664353D01*
X99661656Y-123721951D01*
X99571951Y-123811656D01*
X99514353Y-123924698D01*
X99494508Y-124050000D01*
X95645263Y-124050000D01*
X95688342Y-124028050D01*
X95778050Y-123938342D01*
X95835646Y-123825304D01*
X95855492Y-123700000D01*
X95835646Y-123574696D01*
X95778050Y-123461658D01*
X95688342Y-123371950D01*
X95575304Y-123314354D01*
X95575302Y-123314353D01*
X95575301Y-123314353D01*
X95450000Y-123294508D01*
X95324698Y-123314353D01*
X95211656Y-123371951D01*
X95121951Y-123461656D01*
X95064353Y-123574698D01*
X95044508Y-123700000D01*
X94155492Y-123700000D01*
X94135646Y-123574696D01*
X94078050Y-123461658D01*
X93988342Y-123371950D01*
X93875304Y-123314354D01*
X93875302Y-123314353D01*
X93875301Y-123314353D01*
X93750000Y-123294508D01*
X93624698Y-123314353D01*
X93511656Y-123371951D01*
X93421951Y-123461656D01*
X93364353Y-123574698D01*
X93344508Y-123700000D01*
X91868905Y-123700000D01*
X91247174Y-123078269D01*
X91225500Y-123025943D01*
X91225500Y-122364655D01*
X91247174Y-122312329D01*
X91287924Y-122291566D01*
X91325304Y-122285646D01*
X91438342Y-122228050D01*
X91528050Y-122138342D01*
X91585646Y-122025304D01*
X91605492Y-121900000D01*
X91585646Y-121774696D01*
X91545435Y-121695779D01*
X91540992Y-121639318D01*
X91559042Y-121609861D01*
X91618903Y-121550000D01*
X95094508Y-121550000D01*
X95114353Y-121675301D01*
X95114353Y-121675302D01*
X95114354Y-121675304D01*
X95171950Y-121788342D01*
X95261658Y-121878050D01*
X95374696Y-121935646D01*
X95500000Y-121955492D01*
X95625304Y-121935646D01*
X95738342Y-121878050D01*
X95828050Y-121788342D01*
X95885646Y-121675304D01*
X95905492Y-121550000D01*
X95885646Y-121424696D01*
X95828050Y-121311658D01*
X95766392Y-121250000D01*
X98394508Y-121250000D01*
X98414353Y-121375301D01*
X98414353Y-121375302D01*
X98414354Y-121375304D01*
X98471950Y-121488342D01*
X98561658Y-121578050D01*
X98674696Y-121635646D01*
X98800000Y-121655492D01*
X98925304Y-121635646D01*
X99038342Y-121578050D01*
X99128050Y-121488342D01*
X99185646Y-121375304D01*
X99205492Y-121250000D01*
X99185646Y-121124696D01*
X99128050Y-121011658D01*
X99038342Y-120921950D01*
X98925304Y-120864354D01*
X98925302Y-120864353D01*
X98925301Y-120864353D01*
X98800000Y-120844508D01*
X98674698Y-120864353D01*
X98561656Y-120921951D01*
X98471951Y-121011656D01*
X98471950Y-121011658D01*
X98429649Y-121094679D01*
X98414353Y-121124698D01*
X98394508Y-121250000D01*
X95766392Y-121250000D01*
X95738342Y-121221950D01*
X95625304Y-121164354D01*
X95625302Y-121164353D01*
X95625301Y-121164353D01*
X95500000Y-121144508D01*
X95374698Y-121164353D01*
X95261656Y-121221951D01*
X95171951Y-121311656D01*
X95114353Y-121424698D01*
X95094508Y-121550000D01*
X91618903Y-121550000D01*
X92002206Y-121166698D01*
X92054531Y-121145025D01*
X92106857Y-121166699D01*
X92120463Y-121185424D01*
X92121950Y-121188342D01*
X92211658Y-121278050D01*
X92324696Y-121335646D01*
X92450000Y-121355492D01*
X92575304Y-121335646D01*
X92688342Y-121278050D01*
X92778050Y-121188342D01*
X92835646Y-121075304D01*
X92855492Y-120950000D01*
X92835646Y-120824696D01*
X92778050Y-120711658D01*
X92688342Y-120621950D01*
X92575304Y-120564354D01*
X92575302Y-120564353D01*
X92575301Y-120564353D01*
X92450000Y-120544508D01*
X92324698Y-120564353D01*
X92233095Y-120611027D01*
X92176632Y-120615470D01*
X92133565Y-120578687D01*
X92125500Y-120545092D01*
X92125500Y-120303475D01*
X92125501Y-120303466D01*
X92125501Y-120205144D01*
X92091170Y-120122265D01*
X92091169Y-120122263D01*
X92023521Y-120054615D01*
X92023514Y-120054609D01*
X91868905Y-119900000D01*
X93344508Y-119900000D01*
X93364353Y-120025301D01*
X93364353Y-120025302D01*
X93364354Y-120025304D01*
X93421950Y-120138342D01*
X93511658Y-120228050D01*
X93624696Y-120285646D01*
X93750000Y-120305492D01*
X93875304Y-120285646D01*
X93988342Y-120228050D01*
X94078050Y-120138342D01*
X94135646Y-120025304D01*
X94155492Y-119900000D01*
X95044508Y-119900000D01*
X95064353Y-120025301D01*
X95064353Y-120025302D01*
X95064354Y-120025304D01*
X95121950Y-120138342D01*
X95211658Y-120228050D01*
X95324696Y-120285646D01*
X95450000Y-120305492D01*
X95575304Y-120285646D01*
X95645263Y-120250000D01*
X99494508Y-120250000D01*
X99514353Y-120375301D01*
X99514353Y-120375302D01*
X99514354Y-120375304D01*
X99571950Y-120488342D01*
X99661658Y-120578050D01*
X99774696Y-120635646D01*
X99900000Y-120655492D01*
X100025304Y-120635646D01*
X100138342Y-120578050D01*
X100228050Y-120488342D01*
X100285646Y-120375304D01*
X100305492Y-120250000D01*
X100285646Y-120124696D01*
X100228050Y-120011658D01*
X100138342Y-119921950D01*
X100025304Y-119864354D01*
X100025302Y-119864353D01*
X100025301Y-119864353D01*
X99900000Y-119844508D01*
X99774698Y-119864353D01*
X99661656Y-119921951D01*
X99571951Y-120011656D01*
X99514353Y-120124698D01*
X99494508Y-120250000D01*
X95645263Y-120250000D01*
X95688342Y-120228050D01*
X95778050Y-120138342D01*
X95835646Y-120025304D01*
X95855492Y-119900000D01*
X95835646Y-119774696D01*
X95778050Y-119661658D01*
X95688342Y-119571950D01*
X95575304Y-119514354D01*
X95575302Y-119514353D01*
X95575301Y-119514353D01*
X95450000Y-119494508D01*
X95324698Y-119514353D01*
X95211656Y-119571951D01*
X95121951Y-119661656D01*
X95064353Y-119774698D01*
X95044508Y-119900000D01*
X94155492Y-119900000D01*
X94135646Y-119774696D01*
X94078050Y-119661658D01*
X93988342Y-119571950D01*
X93875304Y-119514354D01*
X93875302Y-119514353D01*
X93875301Y-119514353D01*
X93750000Y-119494508D01*
X93624698Y-119514353D01*
X93511656Y-119571951D01*
X93421951Y-119661656D01*
X93364353Y-119774698D01*
X93344508Y-119900000D01*
X91868905Y-119900000D01*
X91347174Y-119378269D01*
X91325500Y-119325943D01*
X91325500Y-118600000D01*
X102819953Y-118600000D01*
X102838093Y-118772581D01*
X102891711Y-118937605D01*
X102891716Y-118937615D01*
X102978475Y-119087885D01*
X102978478Y-119087890D01*
X103094592Y-119216847D01*
X103234969Y-119318838D01*
X103234976Y-119318842D01*
X103393501Y-119389422D01*
X103563236Y-119425500D01*
X103563237Y-119425500D01*
X103736763Y-119425500D01*
X103736764Y-119425500D01*
X103906499Y-119389422D01*
X104065024Y-119318842D01*
X104205410Y-119216845D01*
X104321522Y-119087889D01*
X104408286Y-118937611D01*
X104461908Y-118772576D01*
X104480047Y-118600000D01*
X104461908Y-118427424D01*
X104455546Y-118407844D01*
X104408288Y-118262394D01*
X104408283Y-118262384D01*
X104321524Y-118112114D01*
X104321521Y-118112109D01*
X104205407Y-117983152D01*
X104065030Y-117881161D01*
X104065023Y-117881157D01*
X103906500Y-117810578D01*
X103906498Y-117810577D01*
X103766319Y-117780782D01*
X103736764Y-117774500D01*
X103563236Y-117774500D01*
X103533681Y-117780782D01*
X103393501Y-117810577D01*
X103393499Y-117810578D01*
X103234978Y-117881156D01*
X103234973Y-117881159D01*
X103094592Y-117983152D01*
X102978478Y-118112109D01*
X102978475Y-118112114D01*
X102891716Y-118262384D01*
X102891711Y-118262394D01*
X102838093Y-118427418D01*
X102838092Y-118427422D01*
X102838092Y-118427424D01*
X102833455Y-118471543D01*
X102819953Y-118600000D01*
X91325500Y-118600000D01*
X91325500Y-118471543D01*
X91347173Y-118419218D01*
X91428050Y-118338342D01*
X91485646Y-118225304D01*
X91505492Y-118100000D01*
X91485646Y-117974696D01*
X91428050Y-117861658D01*
X91347174Y-117780782D01*
X91334424Y-117750000D01*
X95194508Y-117750000D01*
X95214353Y-117875301D01*
X95214353Y-117875302D01*
X95214354Y-117875304D01*
X95271950Y-117988342D01*
X95361658Y-118078050D01*
X95474696Y-118135646D01*
X95600000Y-118155492D01*
X95725304Y-118135646D01*
X95838342Y-118078050D01*
X95928050Y-117988342D01*
X95985646Y-117875304D01*
X96005492Y-117750000D01*
X95989654Y-117650000D01*
X100944508Y-117650000D01*
X100964353Y-117775301D01*
X100964353Y-117775302D01*
X100964354Y-117775304D01*
X101021950Y-117888342D01*
X101111658Y-117978050D01*
X101224696Y-118035646D01*
X101350000Y-118055492D01*
X101475304Y-118035646D01*
X101588342Y-117978050D01*
X101678050Y-117888342D01*
X101735646Y-117775304D01*
X101755492Y-117650000D01*
X101735646Y-117524696D01*
X101678050Y-117411658D01*
X101588342Y-117321950D01*
X101475304Y-117264354D01*
X101475302Y-117264353D01*
X101475301Y-117264353D01*
X101350000Y-117244508D01*
X101224698Y-117264353D01*
X101111656Y-117321951D01*
X101021951Y-117411656D01*
X100964353Y-117524698D01*
X100944508Y-117650000D01*
X95989654Y-117650000D01*
X95985646Y-117624696D01*
X95928050Y-117511658D01*
X95838342Y-117421950D01*
X95725304Y-117364354D01*
X95725302Y-117364353D01*
X95725301Y-117364353D01*
X95600000Y-117344508D01*
X95474698Y-117364353D01*
X95361656Y-117421951D01*
X95271951Y-117511656D01*
X95214353Y-117624698D01*
X95194508Y-117750000D01*
X91334424Y-117750000D01*
X91325500Y-117728456D01*
X91325500Y-116090000D01*
X95924508Y-116090000D01*
X95944353Y-116215301D01*
X95944353Y-116215302D01*
X95944354Y-116215304D01*
X96001950Y-116328342D01*
X96091658Y-116418050D01*
X96204696Y-116475646D01*
X96330000Y-116495492D01*
X96455304Y-116475646D01*
X96568342Y-116418050D01*
X96658050Y-116328342D01*
X96715646Y-116215304D01*
X96735492Y-116090000D01*
X96715646Y-115964696D01*
X96658050Y-115851658D01*
X96568342Y-115761950D01*
X96544889Y-115750000D01*
X101744508Y-115750000D01*
X101764353Y-115875301D01*
X101764353Y-115875302D01*
X101764354Y-115875304D01*
X101821950Y-115988342D01*
X101911658Y-116078050D01*
X102024696Y-116135646D01*
X102150000Y-116155492D01*
X102275304Y-116135646D01*
X102361484Y-116091735D01*
X102824500Y-116091735D01*
X102824500Y-117108264D01*
X102834427Y-117176393D01*
X102834427Y-117176394D01*
X102885801Y-117281482D01*
X102885802Y-117281483D01*
X102968517Y-117364198D01*
X103073607Y-117415573D01*
X103141740Y-117425500D01*
X103141746Y-117425500D01*
X104158254Y-117425500D01*
X104158260Y-117425500D01*
X104226393Y-117415573D01*
X104331483Y-117364198D01*
X104414198Y-117281483D01*
X104465573Y-117176393D01*
X104475500Y-117108260D01*
X104475500Y-116091740D01*
X104465573Y-116023607D01*
X104414198Y-115918517D01*
X104331483Y-115835802D01*
X104331482Y-115835801D01*
X104226394Y-115784427D01*
X104158264Y-115774500D01*
X104158260Y-115774500D01*
X103141740Y-115774500D01*
X103141735Y-115774500D01*
X103073606Y-115784427D01*
X103073605Y-115784427D01*
X102968517Y-115835801D01*
X102885801Y-115918517D01*
X102834427Y-116023605D01*
X102834427Y-116023606D01*
X102824500Y-116091735D01*
X102361484Y-116091735D01*
X102388342Y-116078050D01*
X102478050Y-115988342D01*
X102535646Y-115875304D01*
X102555492Y-115750000D01*
X102535646Y-115624696D01*
X102478050Y-115511658D01*
X102388342Y-115421950D01*
X102275304Y-115364354D01*
X102275302Y-115364353D01*
X102275301Y-115364353D01*
X102150000Y-115344508D01*
X102024698Y-115364353D01*
X101911656Y-115421951D01*
X101821951Y-115511656D01*
X101764353Y-115624698D01*
X101744508Y-115750000D01*
X96544889Y-115750000D01*
X96455304Y-115704354D01*
X96455302Y-115704353D01*
X96455301Y-115704353D01*
X96330000Y-115684508D01*
X96204698Y-115704353D01*
X96091656Y-115761951D01*
X96001951Y-115851656D01*
X95944353Y-115964698D01*
X95924508Y-116090000D01*
X91325500Y-116090000D01*
X91325500Y-115150000D01*
X100844508Y-115150000D01*
X100864353Y-115275301D01*
X100864353Y-115275302D01*
X100864354Y-115275304D01*
X100921950Y-115388342D01*
X101011658Y-115478050D01*
X101124696Y-115535646D01*
X101250000Y-115555492D01*
X101375304Y-115535646D01*
X101488342Y-115478050D01*
X101578050Y-115388342D01*
X101635646Y-115275304D01*
X101655492Y-115150000D01*
X103894508Y-115150000D01*
X103914353Y-115275301D01*
X103914353Y-115275302D01*
X103914354Y-115275304D01*
X103971950Y-115388342D01*
X104061658Y-115478050D01*
X104174696Y-115535646D01*
X104300000Y-115555492D01*
X104425304Y-115535646D01*
X104538342Y-115478050D01*
X104628050Y-115388342D01*
X104685646Y-115275304D01*
X104705492Y-115150000D01*
X104685646Y-115024696D01*
X104628050Y-114911658D01*
X104538342Y-114821950D01*
X104425304Y-114764354D01*
X104425302Y-114764353D01*
X104425301Y-114764353D01*
X104300000Y-114744508D01*
X104174698Y-114764353D01*
X104061656Y-114821951D01*
X103971951Y-114911656D01*
X103914353Y-115024698D01*
X103894508Y-115150000D01*
X101655492Y-115150000D01*
X101635646Y-115024696D01*
X101578050Y-114911658D01*
X101488342Y-114821950D01*
X101375304Y-114764354D01*
X101375302Y-114764353D01*
X101375301Y-114764353D01*
X101250000Y-114744508D01*
X101124698Y-114764353D01*
X101011656Y-114821951D01*
X100921951Y-114911656D01*
X100864353Y-115024698D01*
X100844508Y-115150000D01*
X91325500Y-115150000D01*
X91325500Y-114300000D01*
X102944508Y-114300000D01*
X102964353Y-114425301D01*
X102964353Y-114425302D01*
X102964354Y-114425304D01*
X103021950Y-114538342D01*
X103111658Y-114628050D01*
X103224696Y-114685646D01*
X103350000Y-114705492D01*
X103475304Y-114685646D01*
X103588342Y-114628050D01*
X103678050Y-114538342D01*
X103735646Y-114425304D01*
X103755492Y-114300000D01*
X103735646Y-114174696D01*
X103678050Y-114061658D01*
X103588342Y-113971950D01*
X103475304Y-113914354D01*
X103475302Y-113914353D01*
X103475301Y-113914353D01*
X103350000Y-113894508D01*
X103224698Y-113914353D01*
X103111656Y-113971951D01*
X103021951Y-114061656D01*
X102964353Y-114174698D01*
X102944508Y-114300000D01*
X91325500Y-114300000D01*
X91325500Y-113471543D01*
X91334423Y-113450000D01*
X103894508Y-113450000D01*
X103914353Y-113575301D01*
X103914353Y-113575302D01*
X103914354Y-113575304D01*
X103971950Y-113688342D01*
X104061658Y-113778050D01*
X104174696Y-113835646D01*
X104300000Y-113855492D01*
X104425304Y-113835646D01*
X104538342Y-113778050D01*
X104628050Y-113688342D01*
X104685646Y-113575304D01*
X104705492Y-113450000D01*
X104685646Y-113324696D01*
X104628050Y-113211658D01*
X104538342Y-113121950D01*
X104425304Y-113064354D01*
X104425302Y-113064353D01*
X104425301Y-113064353D01*
X104300000Y-113044508D01*
X104174698Y-113064353D01*
X104061656Y-113121951D01*
X103971951Y-113211656D01*
X103914353Y-113324698D01*
X103894508Y-113450000D01*
X91334423Y-113450000D01*
X91347173Y-113419218D01*
X91428050Y-113338342D01*
X91485646Y-113225304D01*
X91505492Y-113100000D01*
X91485646Y-112974696D01*
X91428050Y-112861658D01*
X91338342Y-112771950D01*
X91225304Y-112714354D01*
X91225302Y-112714353D01*
X91225301Y-112714353D01*
X91134676Y-112700000D01*
X98594508Y-112700000D01*
X98614353Y-112825301D01*
X98614353Y-112825302D01*
X98614354Y-112825304D01*
X98671950Y-112938342D01*
X98761658Y-113028050D01*
X98874696Y-113085646D01*
X99000000Y-113105492D01*
X99125304Y-113085646D01*
X99238342Y-113028050D01*
X99328050Y-112938342D01*
X99385646Y-112825304D01*
X99405492Y-112700000D01*
X99385646Y-112574696D01*
X99328050Y-112461658D01*
X99238342Y-112371950D01*
X99125304Y-112314354D01*
X99125302Y-112314353D01*
X99125301Y-112314353D01*
X99000000Y-112294508D01*
X98874698Y-112314353D01*
X98761656Y-112371951D01*
X98671951Y-112461656D01*
X98614353Y-112574698D01*
X98594508Y-112700000D01*
X91134676Y-112700000D01*
X91100000Y-112694508D01*
X90974698Y-112714353D01*
X90861656Y-112771951D01*
X90771951Y-112861656D01*
X90714353Y-112974698D01*
X90694508Y-113100000D01*
X76136500Y-113100000D01*
X76136500Y-111909812D01*
X76138856Y-111900000D01*
X99344508Y-111900000D01*
X99364353Y-112025301D01*
X99364353Y-112025302D01*
X99364354Y-112025304D01*
X99421950Y-112138342D01*
X99511658Y-112228050D01*
X99624696Y-112285646D01*
X99750000Y-112305492D01*
X99875304Y-112285646D01*
X99988342Y-112228050D01*
X100078050Y-112138342D01*
X100135646Y-112025304D01*
X100155492Y-111900000D01*
X100135646Y-111774696D01*
X100078050Y-111661658D01*
X99988342Y-111571950D01*
X99875304Y-111514354D01*
X99875302Y-111514353D01*
X99875301Y-111514353D01*
X99750000Y-111494508D01*
X99624698Y-111514353D01*
X99511656Y-111571951D01*
X99421951Y-111661656D01*
X99364353Y-111774698D01*
X99344508Y-111900000D01*
X76138856Y-111900000D01*
X76144566Y-111876217D01*
X76147050Y-111871342D01*
X76204646Y-111758304D01*
X76224492Y-111633000D01*
X76204646Y-111507696D01*
X76147050Y-111394658D01*
X76147048Y-111394656D01*
X76144565Y-111389782D01*
X76136500Y-111356187D01*
X76136500Y-110850000D01*
X98394508Y-110850000D01*
X98414353Y-110975301D01*
X98414353Y-110975302D01*
X98414354Y-110975304D01*
X98471950Y-111088342D01*
X98561658Y-111178050D01*
X98674696Y-111235646D01*
X98800000Y-111255492D01*
X98925304Y-111235646D01*
X99038342Y-111178050D01*
X99128050Y-111088342D01*
X99147586Y-111050000D01*
X102994508Y-111050000D01*
X103014353Y-111175301D01*
X103014353Y-111175302D01*
X103014354Y-111175304D01*
X103071950Y-111288342D01*
X103161658Y-111378050D01*
X103274696Y-111435646D01*
X103400000Y-111455492D01*
X103525304Y-111435646D01*
X103638342Y-111378050D01*
X103728050Y-111288342D01*
X103785646Y-111175304D01*
X103805492Y-111050000D01*
X103785646Y-110924696D01*
X103728050Y-110811658D01*
X103638342Y-110721950D01*
X103525304Y-110664354D01*
X103525302Y-110664353D01*
X103525301Y-110664353D01*
X103400000Y-110644508D01*
X103274698Y-110664353D01*
X103161656Y-110721951D01*
X103071951Y-110811656D01*
X103014353Y-110924698D01*
X102994508Y-111050000D01*
X99147586Y-111050000D01*
X99185646Y-110975304D01*
X99205492Y-110850000D01*
X99185646Y-110724696D01*
X99128050Y-110611658D01*
X99038342Y-110521950D01*
X98925304Y-110464354D01*
X98925302Y-110464353D01*
X98925301Y-110464353D01*
X98800000Y-110444508D01*
X98674698Y-110464353D01*
X98561656Y-110521951D01*
X98471951Y-110611656D01*
X98414353Y-110724698D01*
X98394508Y-110850000D01*
X76136500Y-110850000D01*
X76136500Y-109631652D01*
X76158174Y-109579326D01*
X77025500Y-108712000D01*
X91429367Y-108712000D01*
X91447802Y-108840223D01*
X91447802Y-108840224D01*
X91447803Y-108840226D01*
X91501618Y-108958063D01*
X91586451Y-109055967D01*
X91695431Y-109126004D01*
X91819728Y-109162500D01*
X91949272Y-109162500D01*
X92073569Y-109126004D01*
X92182549Y-109055967D01*
X92267382Y-108958063D01*
X92321197Y-108840226D01*
X92339633Y-108712000D01*
X92699367Y-108712000D01*
X92717802Y-108840223D01*
X92717802Y-108840224D01*
X92717803Y-108840226D01*
X92771618Y-108958063D01*
X92856451Y-109055967D01*
X92965431Y-109126004D01*
X93089728Y-109162500D01*
X93219272Y-109162500D01*
X93343569Y-109126004D01*
X93452549Y-109055967D01*
X93537382Y-108958063D01*
X93591197Y-108840226D01*
X93609633Y-108712000D01*
X93591197Y-108583774D01*
X93537382Y-108465937D01*
X93452549Y-108368033D01*
X93378508Y-108320450D01*
X93343568Y-108297995D01*
X93219272Y-108261500D01*
X93089728Y-108261500D01*
X92965431Y-108297995D01*
X92856454Y-108368031D01*
X92856450Y-108368034D01*
X92771619Y-108465935D01*
X92717802Y-108583776D01*
X92699367Y-108712000D01*
X92339633Y-108712000D01*
X92321197Y-108583774D01*
X92267382Y-108465937D01*
X92182549Y-108368033D01*
X92108508Y-108320450D01*
X92073568Y-108297995D01*
X91949272Y-108261500D01*
X91819728Y-108261500D01*
X91695431Y-108297995D01*
X91586454Y-108368031D01*
X91586450Y-108368034D01*
X91501619Y-108465935D01*
X91447802Y-108583776D01*
X91429367Y-108712000D01*
X77025500Y-108712000D01*
X78781826Y-106955674D01*
X78834152Y-106934000D01*
X82273187Y-106934000D01*
X82306782Y-106942065D01*
G37*
G04 #@! TD.AperFunction*
M02*
