G04 #@! TF.GenerationSoftware,KiCad,Pcbnew,8.0.5*
G04 #@! TF.CreationDate,2024-10-22T05:21:46-04:00*
G04 #@! TF.ProjectId,WarpSE-Overclocking-Board,57617270-5345-42d4-9f76-6572636c6f63,1.0*
G04 #@! TF.SameCoordinates,Original*
G04 #@! TF.FileFunction,Copper,L3,Inr*
G04 #@! TF.FilePolarity,Positive*
%FSLAX46Y46*%
G04 Gerber Fmt 4.6, Leading zero omitted, Abs format (unit mm)*
G04 Created by KiCad (PCBNEW 8.0.5) date 2024-10-22 05:21:46*
%MOMM*%
%LPD*%
G01*
G04 APERTURE LIST*
G04 #@! TA.AperFunction,ComponentPad*
%ADD10R,1.350000X1.350000*%
G04 #@! TD*
G04 #@! TA.AperFunction,ComponentPad*
%ADD11O,1.350000X1.350000*%
G04 #@! TD*
G04 #@! TA.AperFunction,ViaPad*
%ADD12C,0.500000*%
G04 #@! TD*
G04 #@! TA.AperFunction,ViaPad*
%ADD13C,0.600000*%
G04 #@! TD*
G04 #@! TA.AperFunction,Conductor*
%ADD14C,0.150000*%
G04 #@! TD*
G04 APERTURE END LIST*
D10*
X103650000Y-116600000D03*
D11*
X105650000Y-116600000D03*
X103650000Y-118600000D03*
X105650000Y-118600000D03*
X103650000Y-120600000D03*
X105650000Y-120600000D03*
X103650000Y-122600000D03*
X105650000Y-122600000D03*
X103650000Y-124600000D03*
X105650000Y-124600000D03*
X103650000Y-126600000D03*
X105650000Y-126600000D03*
D12*
X75819000Y-117729000D03*
X95450000Y-123700000D03*
X99885500Y-106616500D03*
X107886500Y-120269000D03*
X77851000Y-128841500D03*
X75819000Y-126809500D03*
X91100000Y-120600000D03*
X102150000Y-115750000D03*
X91100000Y-128200000D03*
X102400000Y-120200000D03*
X107886500Y-115189000D03*
X98800000Y-128850000D03*
X77851000Y-106616500D03*
D13*
X93154500Y-108712000D03*
D12*
X75819000Y-123825000D03*
X102250000Y-123950000D03*
X99750000Y-111900000D03*
X99900000Y-120250000D03*
X87630000Y-128841500D03*
X107886500Y-122809000D03*
X93750000Y-127500000D03*
D13*
X94424500Y-108712000D03*
D12*
X103350000Y-114400000D03*
X104300000Y-113550000D03*
X98800000Y-121250000D03*
X90200000Y-120150000D03*
X98800000Y-110850000D03*
X106934000Y-128778000D03*
X82550000Y-106616500D03*
X105854500Y-106616500D03*
X93750000Y-123700000D03*
X107886500Y-108648500D03*
X75819000Y-114681000D03*
D13*
X91884500Y-108712000D03*
D12*
X91100000Y-124400000D03*
X99900000Y-127850000D03*
X93750000Y-119900000D03*
X101250000Y-115150000D03*
X75819000Y-120777000D03*
X107886500Y-125349000D03*
X95450000Y-127500000D03*
X85090000Y-128841500D03*
X107886500Y-117729000D03*
X75819000Y-111633000D03*
X82550000Y-128841500D03*
X90200000Y-127750000D03*
X95600000Y-117750000D03*
X75819000Y-108648500D03*
X101854000Y-128778000D03*
X92671000Y-128841500D03*
X102600000Y-110100000D03*
X90170000Y-128841500D03*
X107886500Y-110617000D03*
X104300000Y-115250000D03*
X98800000Y-125050000D03*
X103400000Y-111050000D03*
X101350000Y-117650000D03*
X102870000Y-106616500D03*
X90170000Y-106616500D03*
X99900000Y-124050000D03*
D13*
X96964500Y-108712000D03*
D12*
X107823000Y-127889000D03*
X99000000Y-112700000D03*
X96330000Y-116090000D03*
D13*
X95694500Y-108712000D03*
D12*
X95450000Y-119900000D03*
X87630000Y-106616500D03*
X107886500Y-112649000D03*
X85090000Y-106616500D03*
X90200000Y-123950000D03*
X104300000Y-110100000D03*
X95500000Y-118550000D03*
X97950000Y-116050000D03*
X93750000Y-122500000D03*
X92800000Y-121900000D03*
X92400000Y-117850000D03*
X96600000Y-121350000D03*
X95500000Y-122350000D03*
X101350000Y-111900000D03*
X102100000Y-112750000D03*
X95500000Y-126150000D03*
X93750000Y-118700000D03*
X99700000Y-117650000D03*
X92800000Y-125700000D03*
X93750000Y-126300000D03*
X98650000Y-117050000D03*
X102300000Y-110850000D03*
X96600000Y-125150000D03*
X95694500Y-113982500D03*
X94424500Y-113982500D03*
X96964500Y-113982500D03*
X90200000Y-122950000D03*
X90200000Y-126750000D03*
X90200000Y-119150000D03*
X91200000Y-125700000D03*
X91200000Y-121900000D03*
X91100000Y-118100000D03*
X92519500Y-112268000D03*
D14*
X97900000Y-113500000D02*
X101850000Y-117450000D01*
X101850000Y-118800000D02*
X103650000Y-120600000D01*
X96177000Y-113500000D02*
X97900000Y-113500000D01*
X101850000Y-117450000D02*
X101850000Y-118800000D01*
X95694500Y-113982500D02*
X96177000Y-113500000D01*
X105650000Y-120600000D02*
X104650000Y-119600000D01*
X98050000Y-113200000D02*
X95207000Y-113200000D01*
X102150000Y-117300000D02*
X98050000Y-113200000D01*
X102150000Y-118650000D02*
X102150000Y-117300000D01*
X95207000Y-113200000D02*
X94424500Y-113982500D01*
X103100000Y-119600000D02*
X102150000Y-118650000D01*
X104650000Y-119600000D02*
X103100000Y-119600000D01*
X97932500Y-113982500D02*
X100850000Y-116900000D01*
X96964500Y-113982500D02*
X97932500Y-113982500D01*
X100850000Y-117834000D02*
X101550000Y-118534000D01*
X100850000Y-116900000D02*
X100850000Y-117834000D01*
X101900000Y-120550000D02*
X102950000Y-121600000D01*
X101550000Y-118534000D02*
X101550000Y-118950000D01*
X101900000Y-119300000D02*
X101900000Y-120550000D01*
X102950000Y-121600000D02*
X104650000Y-121600000D01*
X104650000Y-121600000D02*
X105650000Y-122600000D01*
X101550000Y-118950000D02*
X101900000Y-119300000D01*
X91600000Y-120400000D02*
X90350000Y-119150000D01*
X90700000Y-125500000D02*
X91600000Y-124600000D01*
X90700000Y-126250000D02*
X90700000Y-125500000D01*
X90350000Y-119150000D02*
X90200000Y-119150000D01*
X90350000Y-122950000D02*
X90200000Y-122950000D01*
X91600000Y-120800000D02*
X91600000Y-120400000D01*
X90700000Y-122450000D02*
X90700000Y-121700000D01*
X90700000Y-121700000D02*
X91600000Y-120800000D01*
X90200000Y-122950000D02*
X90700000Y-122450000D01*
X90200000Y-126750000D02*
X90700000Y-126250000D01*
X91600000Y-124200000D02*
X90350000Y-122950000D01*
X91600000Y-124600000D02*
X91600000Y-124200000D01*
X91200000Y-125700000D02*
X91200000Y-125450000D01*
X91000000Y-122100000D02*
X91200000Y-121900000D01*
X91200000Y-121900000D02*
X91200000Y-121650000D01*
X91100000Y-113687500D02*
X92519500Y-112268000D01*
X91100000Y-119450000D02*
X91100000Y-118100000D01*
X91900000Y-120250000D02*
X91100000Y-119450000D01*
X91100000Y-118100000D02*
X91100000Y-113687500D01*
X91200000Y-125450000D02*
X91900000Y-124750000D01*
X91000000Y-123150000D02*
X91000000Y-122100000D01*
X91900000Y-120950000D02*
X91900000Y-120250000D01*
X91900000Y-124050000D02*
X91000000Y-123150000D01*
X91200000Y-121650000D02*
X91900000Y-120950000D01*
X91900000Y-124750000D02*
X91900000Y-124050000D01*
G04 #@! TA.AperFunction,Conductor*
G36*
X77481656Y-106346574D02*
G01*
X77503330Y-106398900D01*
X77495264Y-106432493D01*
X77479558Y-106463320D01*
X77465353Y-106491197D01*
X77445508Y-106616500D01*
X77465353Y-106741801D01*
X77465353Y-106741802D01*
X77465354Y-106741804D01*
X77522950Y-106854842D01*
X77612658Y-106944550D01*
X77725696Y-107002146D01*
X77851000Y-107021992D01*
X77976304Y-107002146D01*
X78089342Y-106944550D01*
X78179050Y-106854842D01*
X78236646Y-106741804D01*
X78256492Y-106616500D01*
X78236646Y-106491196D01*
X78206735Y-106432494D01*
X78202292Y-106376033D01*
X78239074Y-106332966D01*
X78272670Y-106324900D01*
X82128330Y-106324900D01*
X82180656Y-106346574D01*
X82202330Y-106398900D01*
X82194264Y-106432493D01*
X82178558Y-106463320D01*
X82164353Y-106491197D01*
X82144508Y-106616500D01*
X82164353Y-106741801D01*
X82164353Y-106741802D01*
X82164354Y-106741804D01*
X82221950Y-106854842D01*
X82311658Y-106944550D01*
X82424696Y-107002146D01*
X82550000Y-107021992D01*
X82675304Y-107002146D01*
X82788342Y-106944550D01*
X82878050Y-106854842D01*
X82935646Y-106741804D01*
X82955492Y-106616500D01*
X82935646Y-106491196D01*
X82905735Y-106432494D01*
X82901292Y-106376033D01*
X82938074Y-106332966D01*
X82971670Y-106324900D01*
X84668330Y-106324900D01*
X84720656Y-106346574D01*
X84742330Y-106398900D01*
X84734264Y-106432493D01*
X84718558Y-106463320D01*
X84704353Y-106491197D01*
X84684508Y-106616500D01*
X84704353Y-106741801D01*
X84704353Y-106741802D01*
X84704354Y-106741804D01*
X84761950Y-106854842D01*
X84851658Y-106944550D01*
X84964696Y-107002146D01*
X85090000Y-107021992D01*
X85215304Y-107002146D01*
X85328342Y-106944550D01*
X85418050Y-106854842D01*
X85475646Y-106741804D01*
X85495492Y-106616500D01*
X85475646Y-106491196D01*
X85445735Y-106432494D01*
X85441292Y-106376033D01*
X85478074Y-106332966D01*
X85511670Y-106324900D01*
X87208330Y-106324900D01*
X87260656Y-106346574D01*
X87282330Y-106398900D01*
X87274264Y-106432493D01*
X87258558Y-106463320D01*
X87244353Y-106491197D01*
X87224508Y-106616500D01*
X87244353Y-106741801D01*
X87244353Y-106741802D01*
X87244354Y-106741804D01*
X87301950Y-106854842D01*
X87391658Y-106944550D01*
X87504696Y-107002146D01*
X87630000Y-107021992D01*
X87755304Y-107002146D01*
X87868342Y-106944550D01*
X87958050Y-106854842D01*
X88015646Y-106741804D01*
X88035492Y-106616500D01*
X88015646Y-106491196D01*
X87985735Y-106432494D01*
X87981292Y-106376033D01*
X88018074Y-106332966D01*
X88051670Y-106324900D01*
X89748330Y-106324900D01*
X89800656Y-106346574D01*
X89822330Y-106398900D01*
X89814264Y-106432493D01*
X89798558Y-106463320D01*
X89784353Y-106491197D01*
X89764508Y-106616500D01*
X89784353Y-106741801D01*
X89784353Y-106741802D01*
X89784354Y-106741804D01*
X89841950Y-106854842D01*
X89931658Y-106944550D01*
X90044696Y-107002146D01*
X90170000Y-107021992D01*
X90295304Y-107002146D01*
X90408342Y-106944550D01*
X90498050Y-106854842D01*
X90555646Y-106741804D01*
X90575492Y-106616500D01*
X90555646Y-106491196D01*
X90525735Y-106432494D01*
X90521292Y-106376033D01*
X90558074Y-106332966D01*
X90591670Y-106324900D01*
X99463830Y-106324900D01*
X99516156Y-106346574D01*
X99537830Y-106398900D01*
X99529764Y-106432493D01*
X99514058Y-106463320D01*
X99499853Y-106491197D01*
X99480008Y-106616500D01*
X99499853Y-106741801D01*
X99499853Y-106741802D01*
X99499854Y-106741804D01*
X99557450Y-106854842D01*
X99647158Y-106944550D01*
X99760196Y-107002146D01*
X99885500Y-107021992D01*
X100010804Y-107002146D01*
X100123842Y-106944550D01*
X100213550Y-106854842D01*
X100271146Y-106741804D01*
X100290992Y-106616500D01*
X100271146Y-106491196D01*
X100241235Y-106432494D01*
X100236792Y-106376033D01*
X100273574Y-106332966D01*
X100307170Y-106324900D01*
X102448330Y-106324900D01*
X102500656Y-106346574D01*
X102522330Y-106398900D01*
X102514264Y-106432493D01*
X102498558Y-106463320D01*
X102484353Y-106491197D01*
X102464508Y-106616500D01*
X102484353Y-106741801D01*
X102484353Y-106741802D01*
X102484354Y-106741804D01*
X102541950Y-106854842D01*
X102631658Y-106944550D01*
X102744696Y-107002146D01*
X102870000Y-107021992D01*
X102995304Y-107002146D01*
X103108342Y-106944550D01*
X103198050Y-106854842D01*
X103255646Y-106741804D01*
X103275492Y-106616500D01*
X103255646Y-106491196D01*
X103225735Y-106432494D01*
X103221292Y-106376033D01*
X103258074Y-106332966D01*
X103291670Y-106324900D01*
X105432830Y-106324900D01*
X105485156Y-106346574D01*
X105506830Y-106398900D01*
X105498764Y-106432493D01*
X105483058Y-106463320D01*
X105468853Y-106491197D01*
X105449008Y-106616500D01*
X105468853Y-106741801D01*
X105468853Y-106741802D01*
X105468854Y-106741804D01*
X105526450Y-106854842D01*
X105616158Y-106944550D01*
X105729196Y-107002146D01*
X105854500Y-107021992D01*
X105979804Y-107002146D01*
X106092842Y-106944550D01*
X106182550Y-106854842D01*
X106240146Y-106741804D01*
X106259992Y-106616500D01*
X106240146Y-106491196D01*
X106210235Y-106432494D01*
X106205792Y-106376033D01*
X106242574Y-106332966D01*
X106276170Y-106324900D01*
X107065997Y-106324900D01*
X107121273Y-106324900D01*
X107127723Y-106325182D01*
X107301003Y-106340342D01*
X107313703Y-106342581D01*
X107345862Y-106351198D01*
X107478604Y-106386765D01*
X107490713Y-106391173D01*
X107645439Y-106463323D01*
X107656600Y-106469767D01*
X107772324Y-106550798D01*
X107796437Y-106567682D01*
X107806318Y-106575973D01*
X107927026Y-106696681D01*
X107935317Y-106706562D01*
X108033229Y-106846394D01*
X108039679Y-106857565D01*
X108111823Y-107012278D01*
X108116235Y-107024400D01*
X108160418Y-107189296D01*
X108162657Y-107201998D01*
X108177818Y-107375276D01*
X108178100Y-107381726D01*
X108178100Y-108226829D01*
X108156426Y-108279155D01*
X108104100Y-108300829D01*
X108070505Y-108292764D01*
X108043796Y-108279155D01*
X108011804Y-108262854D01*
X108011802Y-108262853D01*
X108011801Y-108262853D01*
X107886500Y-108243008D01*
X107761198Y-108262853D01*
X107648156Y-108320451D01*
X107558451Y-108410156D01*
X107500853Y-108523198D01*
X107481008Y-108648500D01*
X107500853Y-108773801D01*
X107500853Y-108773802D01*
X107500854Y-108773804D01*
X107558450Y-108886842D01*
X107648158Y-108976550D01*
X107761196Y-109034146D01*
X107886500Y-109053992D01*
X108011804Y-109034146D01*
X108070505Y-109004235D01*
X108126967Y-108999792D01*
X108170034Y-109036574D01*
X108178100Y-109070170D01*
X108178100Y-110195329D01*
X108156426Y-110247655D01*
X108104100Y-110269329D01*
X108070505Y-110261264D01*
X108043796Y-110247655D01*
X108011804Y-110231354D01*
X108011802Y-110231353D01*
X108011801Y-110231353D01*
X107886500Y-110211508D01*
X107761198Y-110231353D01*
X107648156Y-110288951D01*
X107558451Y-110378656D01*
X107500853Y-110491698D01*
X107481008Y-110617000D01*
X107500853Y-110742301D01*
X107500853Y-110742302D01*
X107500854Y-110742304D01*
X107558450Y-110855342D01*
X107648158Y-110945050D01*
X107761196Y-111002646D01*
X107886500Y-111022492D01*
X108011804Y-111002646D01*
X108070505Y-110972735D01*
X108126967Y-110968292D01*
X108170034Y-111005074D01*
X108178100Y-111038670D01*
X108178100Y-112227329D01*
X108156426Y-112279655D01*
X108104100Y-112301329D01*
X108070505Y-112293264D01*
X108043796Y-112279655D01*
X108011804Y-112263354D01*
X108011802Y-112263353D01*
X108011801Y-112263353D01*
X107886500Y-112243508D01*
X107761198Y-112263353D01*
X107648156Y-112320951D01*
X107558451Y-112410656D01*
X107500853Y-112523698D01*
X107481008Y-112649000D01*
X107500853Y-112774301D01*
X107500853Y-112774302D01*
X107500854Y-112774304D01*
X107558450Y-112887342D01*
X107648158Y-112977050D01*
X107761196Y-113034646D01*
X107886500Y-113054492D01*
X108011804Y-113034646D01*
X108070505Y-113004735D01*
X108126967Y-113000292D01*
X108170034Y-113037074D01*
X108178100Y-113070670D01*
X108178100Y-114767329D01*
X108156426Y-114819655D01*
X108104100Y-114841329D01*
X108070505Y-114833264D01*
X108011804Y-114803354D01*
X108011802Y-114803353D01*
X108011801Y-114803353D01*
X107886500Y-114783508D01*
X107761198Y-114803353D01*
X107761196Y-114803353D01*
X107761196Y-114803354D01*
X107704677Y-114832152D01*
X107648156Y-114860951D01*
X107558451Y-114950656D01*
X107500853Y-115063698D01*
X107481008Y-115189000D01*
X107500853Y-115314301D01*
X107500853Y-115314302D01*
X107500854Y-115314304D01*
X107558450Y-115427342D01*
X107648158Y-115517050D01*
X107761196Y-115574646D01*
X107886500Y-115594492D01*
X108011804Y-115574646D01*
X108070505Y-115544735D01*
X108126967Y-115540292D01*
X108170034Y-115577074D01*
X108178100Y-115610670D01*
X108178100Y-117307329D01*
X108156426Y-117359655D01*
X108104100Y-117381329D01*
X108070505Y-117373264D01*
X108011804Y-117343354D01*
X108011802Y-117343353D01*
X108011801Y-117343353D01*
X107886500Y-117323508D01*
X107761198Y-117343353D01*
X107648156Y-117400951D01*
X107558451Y-117490656D01*
X107500853Y-117603698D01*
X107481008Y-117729000D01*
X107500853Y-117854301D01*
X107500853Y-117854302D01*
X107500854Y-117854304D01*
X107558450Y-117967342D01*
X107648158Y-118057050D01*
X107761196Y-118114646D01*
X107886500Y-118134492D01*
X108011804Y-118114646D01*
X108070505Y-118084735D01*
X108126967Y-118080292D01*
X108170034Y-118117074D01*
X108178100Y-118150670D01*
X108178100Y-119847329D01*
X108156426Y-119899655D01*
X108104100Y-119921329D01*
X108070505Y-119913264D01*
X108067353Y-119911658D01*
X108011804Y-119883354D01*
X108011802Y-119883353D01*
X108011801Y-119883353D01*
X107886500Y-119863508D01*
X107761198Y-119883353D01*
X107648156Y-119940951D01*
X107558451Y-120030656D01*
X107500853Y-120143698D01*
X107481008Y-120269000D01*
X107500853Y-120394301D01*
X107500853Y-120394302D01*
X107500854Y-120394304D01*
X107558450Y-120507342D01*
X107648158Y-120597050D01*
X107761196Y-120654646D01*
X107886500Y-120674492D01*
X108011804Y-120654646D01*
X108070505Y-120624735D01*
X108126967Y-120620292D01*
X108170034Y-120657074D01*
X108178100Y-120690670D01*
X108178100Y-122387329D01*
X108156426Y-122439655D01*
X108104100Y-122461329D01*
X108070505Y-122453264D01*
X108043796Y-122439655D01*
X108011804Y-122423354D01*
X108011802Y-122423353D01*
X108011801Y-122423353D01*
X107886500Y-122403508D01*
X107761198Y-122423353D01*
X107648156Y-122480951D01*
X107558451Y-122570656D01*
X107500853Y-122683698D01*
X107481008Y-122809000D01*
X107500853Y-122934301D01*
X107500853Y-122934302D01*
X107500854Y-122934304D01*
X107558450Y-123047342D01*
X107648158Y-123137050D01*
X107761196Y-123194646D01*
X107886500Y-123214492D01*
X108011804Y-123194646D01*
X108070505Y-123164735D01*
X108126967Y-123160292D01*
X108170034Y-123197074D01*
X108178100Y-123230670D01*
X108178100Y-124927329D01*
X108156426Y-124979655D01*
X108104100Y-125001329D01*
X108070505Y-124993264D01*
X108043796Y-124979655D01*
X108011804Y-124963354D01*
X108011802Y-124963353D01*
X108011801Y-124963353D01*
X107886500Y-124943508D01*
X107761198Y-124963353D01*
X107648156Y-125020951D01*
X107558451Y-125110656D01*
X107500853Y-125223698D01*
X107481008Y-125349000D01*
X107500853Y-125474301D01*
X107500853Y-125474302D01*
X107500854Y-125474304D01*
X107558450Y-125587342D01*
X107648158Y-125677050D01*
X107761196Y-125734646D01*
X107886500Y-125754492D01*
X108011804Y-125734646D01*
X108070505Y-125704735D01*
X108126967Y-125700292D01*
X108170034Y-125737074D01*
X108178100Y-125770670D01*
X108178100Y-127500546D01*
X108156426Y-127552872D01*
X108104100Y-127574546D01*
X108067080Y-127562519D01*
X108066532Y-127563595D01*
X108061343Y-127560951D01*
X108061342Y-127560950D01*
X107948304Y-127503354D01*
X107948302Y-127503353D01*
X107948301Y-127503353D01*
X107823000Y-127483508D01*
X107697698Y-127503353D01*
X107697696Y-127503353D01*
X107697696Y-127503354D01*
X107641177Y-127532152D01*
X107584656Y-127560951D01*
X107494951Y-127650656D01*
X107494950Y-127650658D01*
X107444333Y-127750000D01*
X107437353Y-127763698D01*
X107417508Y-127889000D01*
X107437353Y-128014301D01*
X107437353Y-128014302D01*
X107437354Y-128014304D01*
X107494950Y-128127342D01*
X107584658Y-128217050D01*
X107697696Y-128274646D01*
X107823000Y-128294492D01*
X107831326Y-128293173D01*
X107886398Y-128306391D01*
X107915993Y-128354681D01*
X107902775Y-128409754D01*
X107902145Y-128410607D01*
X107784343Y-128567973D01*
X107777429Y-128575953D01*
X107620953Y-128732429D01*
X107612973Y-128739343D01*
X107455607Y-128857145D01*
X107400729Y-128871152D01*
X107352021Y-128842251D01*
X107338014Y-128787373D01*
X107338173Y-128786325D01*
X107339492Y-128778000D01*
X107331050Y-128724698D01*
X107319646Y-128652696D01*
X107262050Y-128539658D01*
X107172342Y-128449950D01*
X107059304Y-128392354D01*
X107059302Y-128392353D01*
X107059301Y-128392353D01*
X106934000Y-128372508D01*
X106808698Y-128392353D01*
X106695656Y-128449951D01*
X106605951Y-128539656D01*
X106548353Y-128652698D01*
X106528508Y-128778000D01*
X106548353Y-128903301D01*
X106548353Y-128903302D01*
X106548354Y-128903304D01*
X106605950Y-129016342D01*
X106605951Y-129016343D01*
X106608595Y-129021532D01*
X106607029Y-129022329D01*
X106618634Y-129070683D01*
X106589037Y-129118971D01*
X106545546Y-129133100D01*
X102242454Y-129133100D01*
X102190128Y-129111426D01*
X102168454Y-129059100D01*
X102180480Y-129022080D01*
X102179405Y-129021532D01*
X102182048Y-129016343D01*
X102182050Y-129016342D01*
X102239646Y-128903304D01*
X102259492Y-128778000D01*
X102239646Y-128652696D01*
X102182050Y-128539658D01*
X102092342Y-128449950D01*
X101979304Y-128392354D01*
X101979302Y-128392353D01*
X101979301Y-128392353D01*
X101854000Y-128372508D01*
X101728698Y-128392353D01*
X101615656Y-128449951D01*
X101525951Y-128539656D01*
X101468353Y-128652698D01*
X101448508Y-128778000D01*
X101468353Y-128903301D01*
X101468353Y-128903302D01*
X101468354Y-128903304D01*
X101525950Y-129016342D01*
X101525951Y-129016343D01*
X101528595Y-129021532D01*
X101527029Y-129022329D01*
X101538634Y-129070683D01*
X101509037Y-129118971D01*
X101465546Y-129133100D01*
X99226001Y-129133100D01*
X99173675Y-129111426D01*
X99152001Y-129059100D01*
X99160066Y-129025506D01*
X99185646Y-128975304D01*
X99205492Y-128850000D01*
X99185646Y-128724696D01*
X99128050Y-128611658D01*
X99038342Y-128521950D01*
X98925304Y-128464354D01*
X98925302Y-128464353D01*
X98925301Y-128464353D01*
X98800000Y-128444508D01*
X98674698Y-128464353D01*
X98561656Y-128521951D01*
X98471951Y-128611656D01*
X98414353Y-128724698D01*
X98394508Y-128850000D01*
X98414353Y-128975302D01*
X98414353Y-128975303D01*
X98414354Y-128975304D01*
X98439933Y-129025505D01*
X98444377Y-129081967D01*
X98407595Y-129125034D01*
X98373999Y-129133100D01*
X93092670Y-129133100D01*
X93040344Y-129111426D01*
X93018670Y-129059100D01*
X93026735Y-129025506D01*
X93056646Y-128966804D01*
X93076492Y-128841500D01*
X93056646Y-128716196D01*
X92999050Y-128603158D01*
X92909342Y-128513450D01*
X92796304Y-128455854D01*
X92796302Y-128455853D01*
X92796301Y-128455853D01*
X92671000Y-128436008D01*
X92545698Y-128455853D01*
X92432656Y-128513451D01*
X92342951Y-128603156D01*
X92285353Y-128716198D01*
X92265508Y-128841500D01*
X92285353Y-128966802D01*
X92285353Y-128966803D01*
X92285354Y-128966804D01*
X92315264Y-129025505D01*
X92319708Y-129081967D01*
X92282926Y-129125034D01*
X92249330Y-129133100D01*
X90591670Y-129133100D01*
X90539344Y-129111426D01*
X90517670Y-129059100D01*
X90525735Y-129025506D01*
X90555646Y-128966804D01*
X90575492Y-128841500D01*
X90555646Y-128716196D01*
X90498050Y-128603158D01*
X90408342Y-128513450D01*
X90295304Y-128455854D01*
X90295302Y-128455853D01*
X90295301Y-128455853D01*
X90170000Y-128436008D01*
X90044698Y-128455853D01*
X89931656Y-128513451D01*
X89841951Y-128603156D01*
X89784353Y-128716198D01*
X89764508Y-128841500D01*
X89784353Y-128966802D01*
X89784353Y-128966803D01*
X89784354Y-128966804D01*
X89814264Y-129025505D01*
X89818708Y-129081967D01*
X89781926Y-129125034D01*
X89748330Y-129133100D01*
X88051670Y-129133100D01*
X87999344Y-129111426D01*
X87977670Y-129059100D01*
X87985735Y-129025506D01*
X88015646Y-128966804D01*
X88035492Y-128841500D01*
X88015646Y-128716196D01*
X87958050Y-128603158D01*
X87868342Y-128513450D01*
X87755304Y-128455854D01*
X87755302Y-128455853D01*
X87755301Y-128455853D01*
X87630000Y-128436008D01*
X87504698Y-128455853D01*
X87391656Y-128513451D01*
X87301951Y-128603156D01*
X87244353Y-128716198D01*
X87224508Y-128841500D01*
X87244353Y-128966802D01*
X87244353Y-128966803D01*
X87244354Y-128966804D01*
X87274264Y-129025505D01*
X87278708Y-129081967D01*
X87241926Y-129125034D01*
X87208330Y-129133100D01*
X85511670Y-129133100D01*
X85459344Y-129111426D01*
X85437670Y-129059100D01*
X85445735Y-129025506D01*
X85475646Y-128966804D01*
X85495492Y-128841500D01*
X85475646Y-128716196D01*
X85418050Y-128603158D01*
X85328342Y-128513450D01*
X85215304Y-128455854D01*
X85215302Y-128455853D01*
X85215301Y-128455853D01*
X85090000Y-128436008D01*
X84964698Y-128455853D01*
X84851656Y-128513451D01*
X84761951Y-128603156D01*
X84704353Y-128716198D01*
X84684508Y-128841500D01*
X84704353Y-128966802D01*
X84704353Y-128966803D01*
X84704354Y-128966804D01*
X84734264Y-129025505D01*
X84738708Y-129081967D01*
X84701926Y-129125034D01*
X84668330Y-129133100D01*
X82971670Y-129133100D01*
X82919344Y-129111426D01*
X82897670Y-129059100D01*
X82905735Y-129025506D01*
X82935646Y-128966804D01*
X82955492Y-128841500D01*
X82935646Y-128716196D01*
X82878050Y-128603158D01*
X82788342Y-128513450D01*
X82675304Y-128455854D01*
X82675302Y-128455853D01*
X82675301Y-128455853D01*
X82550000Y-128436008D01*
X82424698Y-128455853D01*
X82311656Y-128513451D01*
X82221951Y-128603156D01*
X82164353Y-128716198D01*
X82144508Y-128841500D01*
X82164353Y-128966802D01*
X82164353Y-128966803D01*
X82164354Y-128966804D01*
X82194264Y-129025505D01*
X82198708Y-129081967D01*
X82161926Y-129125034D01*
X82128330Y-129133100D01*
X78272670Y-129133100D01*
X78220344Y-129111426D01*
X78198670Y-129059100D01*
X78206735Y-129025506D01*
X78236646Y-128966804D01*
X78256492Y-128841500D01*
X78236646Y-128716196D01*
X78179050Y-128603158D01*
X78089342Y-128513450D01*
X77976304Y-128455854D01*
X77976302Y-128455853D01*
X77976301Y-128455853D01*
X77851000Y-128436008D01*
X77725698Y-128455853D01*
X77612656Y-128513451D01*
X77522951Y-128603156D01*
X77465353Y-128716198D01*
X77445508Y-128841500D01*
X77465353Y-128966802D01*
X77465353Y-128966803D01*
X77465354Y-128966804D01*
X77495264Y-129025505D01*
X77499708Y-129081967D01*
X77462926Y-129125034D01*
X77429330Y-129133100D01*
X76584227Y-129133100D01*
X76577777Y-129132818D01*
X76404498Y-129117657D01*
X76391796Y-129115418D01*
X76226900Y-129071235D01*
X76214778Y-129066823D01*
X76126169Y-129025504D01*
X76060064Y-128994678D01*
X76048894Y-128988229D01*
X76030435Y-128975304D01*
X75933176Y-128907202D01*
X75909062Y-128890317D01*
X75899181Y-128882026D01*
X75778473Y-128761318D01*
X75770182Y-128751437D01*
X75759491Y-128736169D01*
X75672267Y-128611600D01*
X75665823Y-128600439D01*
X75593673Y-128445713D01*
X75589265Y-128433604D01*
X75545081Y-128268703D01*
X75542842Y-128256001D01*
X75542797Y-128255492D01*
X75527682Y-128082723D01*
X75527400Y-128076273D01*
X75527400Y-127998097D01*
X75754500Y-127998097D01*
X75754500Y-128160903D01*
X75757911Y-128178050D01*
X75786260Y-128320575D01*
X75786263Y-128320585D01*
X75848563Y-128470992D01*
X75894444Y-128539658D01*
X75939016Y-128606363D01*
X76054137Y-128721484D01*
X76189505Y-128811935D01*
X76189506Y-128811935D01*
X76189507Y-128811936D01*
X76339914Y-128874236D01*
X76339919Y-128874238D01*
X76499597Y-128906000D01*
X76499599Y-128906000D01*
X76662401Y-128906000D01*
X76662403Y-128906000D01*
X76822081Y-128874238D01*
X76972495Y-128811935D01*
X77107863Y-128721484D01*
X77222984Y-128606363D01*
X77313435Y-128470995D01*
X77375738Y-128320581D01*
X77399723Y-128200000D01*
X90694508Y-128200000D01*
X90714353Y-128325301D01*
X90714353Y-128325302D01*
X90714354Y-128325304D01*
X90771950Y-128438342D01*
X90861658Y-128528050D01*
X90974696Y-128585646D01*
X91100000Y-128605492D01*
X91225304Y-128585646D01*
X91338342Y-128528050D01*
X91428050Y-128438342D01*
X91485646Y-128325304D01*
X91505492Y-128200000D01*
X91485646Y-128074696D01*
X91428050Y-127961658D01*
X91338342Y-127871950D01*
X91225304Y-127814354D01*
X91225302Y-127814353D01*
X91225301Y-127814353D01*
X91100000Y-127794508D01*
X90974698Y-127814353D01*
X90861656Y-127871951D01*
X90771951Y-127961656D01*
X90714353Y-128074698D01*
X90694508Y-128200000D01*
X77399723Y-128200000D01*
X77407500Y-128160903D01*
X77407500Y-127998097D01*
X77375738Y-127838419D01*
X77339114Y-127750000D01*
X89794508Y-127750000D01*
X89814353Y-127875301D01*
X89814353Y-127875302D01*
X89814354Y-127875304D01*
X89871950Y-127988342D01*
X89961658Y-128078050D01*
X90074696Y-128135646D01*
X90200000Y-128155492D01*
X90325304Y-128135646D01*
X90438342Y-128078050D01*
X90528050Y-127988342D01*
X90585646Y-127875304D01*
X90605492Y-127750000D01*
X90585646Y-127624696D01*
X90528050Y-127511658D01*
X90516392Y-127500000D01*
X93344508Y-127500000D01*
X93364353Y-127625301D01*
X93364353Y-127625302D01*
X93364354Y-127625304D01*
X93421950Y-127738342D01*
X93511658Y-127828050D01*
X93624696Y-127885646D01*
X93750000Y-127905492D01*
X93875304Y-127885646D01*
X93988342Y-127828050D01*
X94078050Y-127738342D01*
X94135646Y-127625304D01*
X94155492Y-127500000D01*
X95044508Y-127500000D01*
X95064353Y-127625301D01*
X95064353Y-127625302D01*
X95064354Y-127625304D01*
X95121950Y-127738342D01*
X95211658Y-127828050D01*
X95324696Y-127885646D01*
X95450000Y-127905492D01*
X95575304Y-127885646D01*
X95645263Y-127850000D01*
X99494508Y-127850000D01*
X99514353Y-127975301D01*
X99514353Y-127975302D01*
X99514354Y-127975304D01*
X99571950Y-128088342D01*
X99661658Y-128178050D01*
X99774696Y-128235646D01*
X99900000Y-128255492D01*
X100025304Y-128235646D01*
X100138342Y-128178050D01*
X100228050Y-128088342D01*
X100285646Y-127975304D01*
X100305492Y-127850000D01*
X100285646Y-127724696D01*
X100228050Y-127611658D01*
X100138342Y-127521950D01*
X100025304Y-127464354D01*
X100025302Y-127464353D01*
X100025301Y-127464353D01*
X99900000Y-127444508D01*
X99774698Y-127464353D01*
X99661656Y-127521951D01*
X99571951Y-127611656D01*
X99514353Y-127724698D01*
X99494508Y-127850000D01*
X95645263Y-127850000D01*
X95688342Y-127828050D01*
X95778050Y-127738342D01*
X95835646Y-127625304D01*
X95855492Y-127500000D01*
X95835646Y-127374696D01*
X95778050Y-127261658D01*
X95688342Y-127171950D01*
X95575304Y-127114354D01*
X95575302Y-127114353D01*
X95575301Y-127114353D01*
X95450000Y-127094508D01*
X95324698Y-127114353D01*
X95324696Y-127114353D01*
X95324696Y-127114354D01*
X95268177Y-127143152D01*
X95211656Y-127171951D01*
X95121951Y-127261656D01*
X95064353Y-127374698D01*
X95044508Y-127500000D01*
X94155492Y-127500000D01*
X94135646Y-127374696D01*
X94078050Y-127261658D01*
X93988342Y-127171950D01*
X93875304Y-127114354D01*
X93875302Y-127114353D01*
X93875301Y-127114353D01*
X93750000Y-127094508D01*
X93624698Y-127114353D01*
X93624696Y-127114353D01*
X93624696Y-127114354D01*
X93568177Y-127143152D01*
X93511656Y-127171951D01*
X93421951Y-127261656D01*
X93364353Y-127374698D01*
X93344508Y-127500000D01*
X90516392Y-127500000D01*
X90438342Y-127421950D01*
X90325304Y-127364354D01*
X90325302Y-127364353D01*
X90325301Y-127364353D01*
X90200000Y-127344508D01*
X90074698Y-127364353D01*
X89961656Y-127421951D01*
X89871951Y-127511656D01*
X89814353Y-127624698D01*
X89794508Y-127750000D01*
X77339114Y-127750000D01*
X77313435Y-127688005D01*
X77222984Y-127552637D01*
X77107863Y-127437516D01*
X76972495Y-127347065D01*
X76972494Y-127347064D01*
X76972492Y-127347063D01*
X76822085Y-127284763D01*
X76822075Y-127284760D01*
X76715145Y-127263491D01*
X76662403Y-127253000D01*
X76499597Y-127253000D01*
X76456070Y-127261658D01*
X76339924Y-127284760D01*
X76339914Y-127284763D01*
X76189507Y-127347063D01*
X76054140Y-127437513D01*
X75939013Y-127552640D01*
X75848563Y-127688007D01*
X75786263Y-127838414D01*
X75786260Y-127838424D01*
X75772920Y-127905492D01*
X75754500Y-127998097D01*
X75527400Y-127998097D01*
X75527400Y-127231170D01*
X75549074Y-127178844D01*
X75601400Y-127157170D01*
X75634993Y-127165235D01*
X75693696Y-127195146D01*
X75693695Y-127195146D01*
X75710827Y-127197859D01*
X75819000Y-127214992D01*
X75944304Y-127195146D01*
X76057342Y-127137550D01*
X76147050Y-127047842D01*
X76204646Y-126934804D01*
X76224492Y-126809500D01*
X76204646Y-126684196D01*
X76147050Y-126571158D01*
X76057342Y-126481450D01*
X75944304Y-126423854D01*
X75944302Y-126423853D01*
X75944301Y-126423853D01*
X75819000Y-126404008D01*
X75693698Y-126423853D01*
X75634995Y-126453764D01*
X75578532Y-126458207D01*
X75535465Y-126421424D01*
X75527400Y-126387829D01*
X75527400Y-124246670D01*
X75549074Y-124194344D01*
X75601400Y-124172670D01*
X75634993Y-124180735D01*
X75693696Y-124210646D01*
X75693695Y-124210646D01*
X75710827Y-124213359D01*
X75819000Y-124230492D01*
X75944304Y-124210646D01*
X76057342Y-124153050D01*
X76147050Y-124063342D01*
X76204646Y-123950304D01*
X76204694Y-123950000D01*
X89794508Y-123950000D01*
X89814353Y-124075301D01*
X89814353Y-124075302D01*
X89814354Y-124075304D01*
X89871950Y-124188342D01*
X89961658Y-124278050D01*
X90074696Y-124335646D01*
X90200000Y-124355492D01*
X90325304Y-124335646D01*
X90438342Y-124278050D01*
X90528050Y-124188342D01*
X90585646Y-124075304D01*
X90605492Y-123950000D01*
X90585646Y-123824696D01*
X90528050Y-123711658D01*
X90438342Y-123621950D01*
X90325304Y-123564354D01*
X90325302Y-123564353D01*
X90325301Y-123564353D01*
X90200000Y-123544508D01*
X90074698Y-123564353D01*
X89961656Y-123621951D01*
X89871951Y-123711656D01*
X89814353Y-123824698D01*
X89794508Y-123950000D01*
X76204694Y-123950000D01*
X76224492Y-123825000D01*
X76204646Y-123699696D01*
X76147050Y-123586658D01*
X76057342Y-123496950D01*
X75944304Y-123439354D01*
X75944302Y-123439353D01*
X75944301Y-123439353D01*
X75819000Y-123419508D01*
X75693698Y-123439353D01*
X75634995Y-123469264D01*
X75578532Y-123473707D01*
X75535465Y-123436924D01*
X75527400Y-123403329D01*
X75527400Y-121198670D01*
X75549074Y-121146344D01*
X75601400Y-121124670D01*
X75634993Y-121132735D01*
X75693696Y-121162646D01*
X75693695Y-121162646D01*
X75710827Y-121165359D01*
X75819000Y-121182492D01*
X75944304Y-121162646D01*
X76057342Y-121105050D01*
X76147050Y-121015342D01*
X76204646Y-120902304D01*
X76224492Y-120777000D01*
X76204646Y-120651696D01*
X76147050Y-120538658D01*
X76057342Y-120448950D01*
X75944304Y-120391354D01*
X75944302Y-120391353D01*
X75944301Y-120391353D01*
X75819000Y-120371508D01*
X75693698Y-120391353D01*
X75634995Y-120421264D01*
X75578532Y-120425707D01*
X75535465Y-120388924D01*
X75527400Y-120355329D01*
X75527400Y-120150000D01*
X89794508Y-120150000D01*
X89814353Y-120275301D01*
X89814353Y-120275302D01*
X89814354Y-120275304D01*
X89871950Y-120388342D01*
X89961658Y-120478050D01*
X90074696Y-120535646D01*
X90200000Y-120555492D01*
X90325304Y-120535646D01*
X90438342Y-120478050D01*
X90528050Y-120388342D01*
X90585646Y-120275304D01*
X90605492Y-120150000D01*
X90585646Y-120024696D01*
X90528050Y-119911658D01*
X90438342Y-119821950D01*
X90325304Y-119764354D01*
X90325302Y-119764353D01*
X90325301Y-119764353D01*
X90200000Y-119744508D01*
X90074698Y-119764353D01*
X89961656Y-119821951D01*
X89871951Y-119911656D01*
X89814353Y-120024698D01*
X89794508Y-120150000D01*
X75527400Y-120150000D01*
X75527400Y-119150000D01*
X89794508Y-119150000D01*
X89814353Y-119275301D01*
X89814353Y-119275302D01*
X89814354Y-119275304D01*
X89871950Y-119388342D01*
X89961658Y-119478050D01*
X90074696Y-119535646D01*
X90200000Y-119555492D01*
X90325304Y-119535646D01*
X90337970Y-119529191D01*
X90394430Y-119524744D01*
X90423893Y-119542798D01*
X90982669Y-120101574D01*
X91004343Y-120153900D01*
X90982669Y-120206226D01*
X90963939Y-120219834D01*
X90861657Y-120271950D01*
X90771951Y-120361656D01*
X90714353Y-120474698D01*
X90694508Y-120600000D01*
X90714353Y-120725301D01*
X90714353Y-120725302D01*
X90714354Y-120725304D01*
X90771950Y-120838342D01*
X90861658Y-120928050D01*
X90963940Y-120980165D01*
X91000721Y-121023230D01*
X90996278Y-121079693D01*
X90982669Y-121098424D01*
X90572265Y-121508829D01*
X90508830Y-121572263D01*
X90498774Y-121596536D01*
X90498775Y-121596537D01*
X90474499Y-121655146D01*
X90474499Y-121753466D01*
X90474500Y-121753475D01*
X90474500Y-122325942D01*
X90452826Y-122378268D01*
X90301408Y-122529685D01*
X90249082Y-122551359D01*
X90237507Y-122550448D01*
X90200000Y-122544508D01*
X90074698Y-122564353D01*
X89961656Y-122621951D01*
X89871951Y-122711656D01*
X89814353Y-122824698D01*
X89794508Y-122950000D01*
X89814353Y-123075301D01*
X89814353Y-123075302D01*
X89814354Y-123075304D01*
X89871950Y-123188342D01*
X89961658Y-123278050D01*
X90074696Y-123335646D01*
X90200000Y-123355492D01*
X90325304Y-123335646D01*
X90337970Y-123329191D01*
X90394430Y-123324744D01*
X90423893Y-123342798D01*
X90982669Y-123901574D01*
X91004343Y-123953900D01*
X90982669Y-124006226D01*
X90963939Y-124019834D01*
X90861657Y-124071950D01*
X90771951Y-124161656D01*
X90714353Y-124274698D01*
X90694508Y-124400000D01*
X90714353Y-124525301D01*
X90714353Y-124525302D01*
X90714354Y-124525304D01*
X90771950Y-124638342D01*
X90861658Y-124728050D01*
X90963940Y-124780165D01*
X91000721Y-124823230D01*
X90996278Y-124879693D01*
X90982669Y-124898424D01*
X90572265Y-125308829D01*
X90508831Y-125372263D01*
X90508829Y-125372264D01*
X90501723Y-125389422D01*
X90474499Y-125455145D01*
X90474499Y-125553466D01*
X90474500Y-125553475D01*
X90474500Y-126125942D01*
X90452826Y-126178268D01*
X90301408Y-126329685D01*
X90249082Y-126351359D01*
X90237507Y-126350448D01*
X90200000Y-126344508D01*
X90074698Y-126364353D01*
X89961656Y-126421951D01*
X89871951Y-126511656D01*
X89814353Y-126624698D01*
X89794508Y-126750000D01*
X89814353Y-126875301D01*
X89814353Y-126875302D01*
X89814354Y-126875304D01*
X89871950Y-126988342D01*
X89961658Y-127078050D01*
X90074696Y-127135646D01*
X90200000Y-127155492D01*
X90325304Y-127135646D01*
X90438342Y-127078050D01*
X90528050Y-126988342D01*
X90585646Y-126875304D01*
X90605492Y-126750000D01*
X90599551Y-126712490D01*
X90612773Y-126657419D01*
X90620308Y-126648595D01*
X90668903Y-126600000D01*
X102819953Y-126600000D01*
X102835719Y-126750000D01*
X102838093Y-126772581D01*
X102891711Y-126937605D01*
X102891716Y-126937615D01*
X102978475Y-127087885D01*
X102978478Y-127087890D01*
X103094592Y-127216847D01*
X103234969Y-127318838D01*
X103234976Y-127318842D01*
X103393501Y-127389422D01*
X103563236Y-127425500D01*
X103563237Y-127425500D01*
X103736763Y-127425500D01*
X103736764Y-127425500D01*
X103906499Y-127389422D01*
X104065024Y-127318842D01*
X104111930Y-127284763D01*
X104205407Y-127216847D01*
X104205406Y-127216847D01*
X104205410Y-127216845D01*
X104321522Y-127087889D01*
X104408286Y-126937611D01*
X104461908Y-126772576D01*
X104480047Y-126600000D01*
X104819953Y-126600000D01*
X104835719Y-126750000D01*
X104838093Y-126772581D01*
X104891711Y-126937605D01*
X104891716Y-126937615D01*
X104978475Y-127087885D01*
X104978478Y-127087890D01*
X105094592Y-127216847D01*
X105234969Y-127318838D01*
X105234976Y-127318842D01*
X105393501Y-127389422D01*
X105563236Y-127425500D01*
X105563237Y-127425500D01*
X105736763Y-127425500D01*
X105736764Y-127425500D01*
X105906499Y-127389422D01*
X106065024Y-127318842D01*
X106111930Y-127284763D01*
X106205407Y-127216847D01*
X106205406Y-127216847D01*
X106205410Y-127216845D01*
X106321522Y-127087889D01*
X106408286Y-126937611D01*
X106461908Y-126772576D01*
X106480047Y-126600000D01*
X106461908Y-126427424D01*
X106441416Y-126364354D01*
X106408288Y-126262394D01*
X106408283Y-126262384D01*
X106321524Y-126112114D01*
X106321521Y-126112109D01*
X106205407Y-125983152D01*
X106065030Y-125881161D01*
X106065023Y-125881157D01*
X105906500Y-125810578D01*
X105906498Y-125810577D01*
X105772841Y-125782168D01*
X105736764Y-125774500D01*
X105563236Y-125774500D01*
X105533483Y-125780824D01*
X105393501Y-125810577D01*
X105393499Y-125810578D01*
X105234978Y-125881156D01*
X105234973Y-125881159D01*
X105094592Y-125983152D01*
X104978478Y-126112109D01*
X104978475Y-126112114D01*
X104891716Y-126262384D01*
X104891711Y-126262394D01*
X104838093Y-126427418D01*
X104838092Y-126427422D01*
X104838092Y-126427424D01*
X104819953Y-126600000D01*
X104480047Y-126600000D01*
X104461908Y-126427424D01*
X104441416Y-126364354D01*
X104408288Y-126262394D01*
X104408283Y-126262384D01*
X104321524Y-126112114D01*
X104321521Y-126112109D01*
X104205407Y-125983152D01*
X104065030Y-125881161D01*
X104065023Y-125881157D01*
X103906500Y-125810578D01*
X103906498Y-125810577D01*
X103772841Y-125782168D01*
X103736764Y-125774500D01*
X103563236Y-125774500D01*
X103533483Y-125780824D01*
X103393501Y-125810577D01*
X103393499Y-125810578D01*
X103234978Y-125881156D01*
X103234973Y-125881159D01*
X103094592Y-125983152D01*
X102978478Y-126112109D01*
X102978475Y-126112114D01*
X102891716Y-126262384D01*
X102891711Y-126262394D01*
X102838093Y-126427418D01*
X102838092Y-126427422D01*
X102838092Y-126427424D01*
X102819953Y-126600000D01*
X90668903Y-126600000D01*
X90817327Y-126451577D01*
X90817330Y-126451575D01*
X90827735Y-126441170D01*
X90827736Y-126441170D01*
X90891170Y-126377736D01*
X90900030Y-126356346D01*
X90905390Y-126343406D01*
X90905390Y-126343405D01*
X90911073Y-126329685D01*
X90925501Y-126294854D01*
X90925501Y-126205145D01*
X90925501Y-126199187D01*
X90925500Y-126199173D01*
X90925500Y-126130383D01*
X90947174Y-126078057D01*
X90999500Y-126056383D01*
X91033093Y-126064448D01*
X91074696Y-126085646D01*
X91074695Y-126085646D01*
X91091827Y-126088359D01*
X91200000Y-126105492D01*
X91325304Y-126085646D01*
X91438342Y-126028050D01*
X91528050Y-125938342D01*
X91585646Y-125825304D01*
X91605492Y-125700000D01*
X91585646Y-125574696D01*
X91545435Y-125495779D01*
X91540992Y-125439318D01*
X91559042Y-125409861D01*
X91918905Y-125050000D01*
X98394508Y-125050000D01*
X98414353Y-125175301D01*
X98414353Y-125175302D01*
X98414354Y-125175304D01*
X98471950Y-125288342D01*
X98561658Y-125378050D01*
X98674696Y-125435646D01*
X98800000Y-125455492D01*
X98925304Y-125435646D01*
X99038342Y-125378050D01*
X99128050Y-125288342D01*
X99185646Y-125175304D01*
X99205492Y-125050000D01*
X99185646Y-124924696D01*
X99128050Y-124811658D01*
X99038342Y-124721950D01*
X98925304Y-124664354D01*
X98925302Y-124664353D01*
X98925301Y-124664353D01*
X98800000Y-124644508D01*
X98674698Y-124664353D01*
X98561656Y-124721951D01*
X98471951Y-124811656D01*
X98414353Y-124924698D01*
X98394508Y-125050000D01*
X91918905Y-125050000D01*
X92091170Y-124877736D01*
X92125500Y-124794855D01*
X92125500Y-124705146D01*
X92125500Y-124600000D01*
X102819953Y-124600000D01*
X102838093Y-124772581D01*
X102891711Y-124937605D01*
X102891716Y-124937615D01*
X102978475Y-125087885D01*
X102978478Y-125087890D01*
X103094592Y-125216847D01*
X103234969Y-125318838D01*
X103234976Y-125318842D01*
X103393501Y-125389422D01*
X103563236Y-125425500D01*
X103563237Y-125425500D01*
X103736763Y-125425500D01*
X103736764Y-125425500D01*
X103906499Y-125389422D01*
X104065024Y-125318842D01*
X104078805Y-125308830D01*
X104205407Y-125216847D01*
X104205406Y-125216847D01*
X104205410Y-125216845D01*
X104321522Y-125087889D01*
X104408286Y-124937611D01*
X104461908Y-124772576D01*
X104480047Y-124600000D01*
X104819953Y-124600000D01*
X104838093Y-124772581D01*
X104891711Y-124937605D01*
X104891716Y-124937615D01*
X104978475Y-125087885D01*
X104978478Y-125087890D01*
X105094592Y-125216847D01*
X105234969Y-125318838D01*
X105234976Y-125318842D01*
X105393501Y-125389422D01*
X105563236Y-125425500D01*
X105563237Y-125425500D01*
X105736763Y-125425500D01*
X105736764Y-125425500D01*
X105906499Y-125389422D01*
X106065024Y-125318842D01*
X106078805Y-125308830D01*
X106205407Y-125216847D01*
X106205406Y-125216847D01*
X106205410Y-125216845D01*
X106321522Y-125087889D01*
X106408286Y-124937611D01*
X106461908Y-124772576D01*
X106480047Y-124600000D01*
X106461908Y-124427424D01*
X106445865Y-124378048D01*
X106408288Y-124262394D01*
X106408283Y-124262384D01*
X106399210Y-124246670D01*
X106365535Y-124188343D01*
X106321524Y-124112114D01*
X106321521Y-124112109D01*
X106205407Y-123983152D01*
X106065030Y-123881161D01*
X106065023Y-123881157D01*
X105906500Y-123810578D01*
X105906498Y-123810577D01*
X105772841Y-123782168D01*
X105736764Y-123774500D01*
X105563236Y-123774500D01*
X105533483Y-123780824D01*
X105393501Y-123810577D01*
X105393499Y-123810578D01*
X105234978Y-123881156D01*
X105234973Y-123881159D01*
X105094592Y-123983152D01*
X104978478Y-124112109D01*
X104978475Y-124112114D01*
X104891716Y-124262384D01*
X104891711Y-124262394D01*
X104838093Y-124427418D01*
X104838092Y-124427422D01*
X104838092Y-124427424D01*
X104827804Y-124525304D01*
X104819953Y-124600000D01*
X104480047Y-124600000D01*
X104461908Y-124427424D01*
X104445865Y-124378048D01*
X104408288Y-124262394D01*
X104408283Y-124262384D01*
X104399210Y-124246670D01*
X104365535Y-124188343D01*
X104321524Y-124112114D01*
X104321521Y-124112109D01*
X104205407Y-123983152D01*
X104065030Y-123881161D01*
X104065023Y-123881157D01*
X103906500Y-123810578D01*
X103906498Y-123810577D01*
X103772841Y-123782168D01*
X103736764Y-123774500D01*
X103563236Y-123774500D01*
X103533483Y-123780824D01*
X103393501Y-123810577D01*
X103393499Y-123810578D01*
X103234978Y-123881156D01*
X103234973Y-123881159D01*
X103094592Y-123983152D01*
X102978478Y-124112109D01*
X102978475Y-124112114D01*
X102891716Y-124262384D01*
X102891711Y-124262394D01*
X102838093Y-124427418D01*
X102838092Y-124427422D01*
X102838092Y-124427424D01*
X102827804Y-124525304D01*
X102819953Y-124600000D01*
X92125500Y-124600000D01*
X92125500Y-124005145D01*
X92102783Y-123950301D01*
X92091171Y-123922266D01*
X92091169Y-123922263D01*
X92023521Y-123854615D01*
X92023514Y-123854609D01*
X91868905Y-123700000D01*
X93344508Y-123700000D01*
X93364353Y-123825301D01*
X93364353Y-123825302D01*
X93364354Y-123825304D01*
X93421950Y-123938342D01*
X93511658Y-124028050D01*
X93624696Y-124085646D01*
X93750000Y-124105492D01*
X93875304Y-124085646D01*
X93988342Y-124028050D01*
X94078050Y-123938342D01*
X94135646Y-123825304D01*
X94155492Y-123700000D01*
X95044508Y-123700000D01*
X95064353Y-123825301D01*
X95064353Y-123825302D01*
X95064354Y-123825304D01*
X95121950Y-123938342D01*
X95211658Y-124028050D01*
X95324696Y-124085646D01*
X95450000Y-124105492D01*
X95575304Y-124085646D01*
X95645263Y-124050000D01*
X99494508Y-124050000D01*
X99514353Y-124175301D01*
X99514353Y-124175302D01*
X99514354Y-124175304D01*
X99571950Y-124288342D01*
X99661658Y-124378050D01*
X99774696Y-124435646D01*
X99900000Y-124455492D01*
X100025304Y-124435646D01*
X100138342Y-124378050D01*
X100228050Y-124288342D01*
X100285646Y-124175304D01*
X100305492Y-124050000D01*
X100289654Y-123950000D01*
X101844508Y-123950000D01*
X101864353Y-124075301D01*
X101864353Y-124075302D01*
X101864354Y-124075304D01*
X101921950Y-124188342D01*
X102011658Y-124278050D01*
X102124696Y-124335646D01*
X102250000Y-124355492D01*
X102375304Y-124335646D01*
X102488342Y-124278050D01*
X102578050Y-124188342D01*
X102635646Y-124075304D01*
X102655492Y-123950000D01*
X102635646Y-123824696D01*
X102578050Y-123711658D01*
X102488342Y-123621950D01*
X102375304Y-123564354D01*
X102375302Y-123564353D01*
X102375301Y-123564353D01*
X102250000Y-123544508D01*
X102124698Y-123564353D01*
X102011656Y-123621951D01*
X101921951Y-123711656D01*
X101864353Y-123824698D01*
X101844508Y-123950000D01*
X100289654Y-123950000D01*
X100285646Y-123924696D01*
X100228050Y-123811658D01*
X100138342Y-123721950D01*
X100025304Y-123664354D01*
X100025302Y-123664353D01*
X100025301Y-123664353D01*
X99900000Y-123644508D01*
X99774698Y-123664353D01*
X99661656Y-123721951D01*
X99571951Y-123811656D01*
X99514353Y-123924698D01*
X99494508Y-124050000D01*
X95645263Y-124050000D01*
X95688342Y-124028050D01*
X95778050Y-123938342D01*
X95835646Y-123825304D01*
X95855492Y-123700000D01*
X95835646Y-123574696D01*
X95778050Y-123461658D01*
X95688342Y-123371950D01*
X95575304Y-123314354D01*
X95575302Y-123314353D01*
X95575301Y-123314353D01*
X95450000Y-123294508D01*
X95324698Y-123314353D01*
X95211656Y-123371951D01*
X95121951Y-123461656D01*
X95064353Y-123574698D01*
X95044508Y-123700000D01*
X94155492Y-123700000D01*
X94135646Y-123574696D01*
X94078050Y-123461658D01*
X93988342Y-123371950D01*
X93875304Y-123314354D01*
X93875302Y-123314353D01*
X93875301Y-123314353D01*
X93750000Y-123294508D01*
X93624698Y-123314353D01*
X93511656Y-123371951D01*
X93421951Y-123461656D01*
X93364353Y-123574698D01*
X93344508Y-123700000D01*
X91868905Y-123700000D01*
X91247174Y-123078269D01*
X91225500Y-123025943D01*
X91225500Y-122364655D01*
X91247174Y-122312329D01*
X91287924Y-122291566D01*
X91325304Y-122285646D01*
X91438342Y-122228050D01*
X91528050Y-122138342D01*
X91585646Y-122025304D01*
X91605492Y-121900000D01*
X91585646Y-121774696D01*
X91545435Y-121695779D01*
X91540992Y-121639318D01*
X91559042Y-121609861D01*
X91918905Y-121250000D01*
X98394508Y-121250000D01*
X98414353Y-121375301D01*
X98414353Y-121375302D01*
X98414354Y-121375304D01*
X98471950Y-121488342D01*
X98561658Y-121578050D01*
X98674696Y-121635646D01*
X98800000Y-121655492D01*
X98925304Y-121635646D01*
X99038342Y-121578050D01*
X99128050Y-121488342D01*
X99185646Y-121375304D01*
X99205492Y-121250000D01*
X99185646Y-121124696D01*
X99128050Y-121011658D01*
X99038342Y-120921950D01*
X98925304Y-120864354D01*
X98925302Y-120864353D01*
X98925301Y-120864353D01*
X98800000Y-120844508D01*
X98674698Y-120864353D01*
X98561656Y-120921951D01*
X98471951Y-121011656D01*
X98414353Y-121124698D01*
X98394508Y-121250000D01*
X91918905Y-121250000D01*
X92091170Y-121077736D01*
X92125500Y-120994855D01*
X92125500Y-120905146D01*
X92125500Y-120303475D01*
X92125501Y-120303466D01*
X92125501Y-120205144D01*
X92091170Y-120122265D01*
X92091169Y-120122263D01*
X92023521Y-120054615D01*
X92023514Y-120054609D01*
X91868905Y-119900000D01*
X93344508Y-119900000D01*
X93364353Y-120025301D01*
X93364353Y-120025302D01*
X93364354Y-120025304D01*
X93421950Y-120138342D01*
X93511658Y-120228050D01*
X93624696Y-120285646D01*
X93750000Y-120305492D01*
X93875304Y-120285646D01*
X93988342Y-120228050D01*
X94078050Y-120138342D01*
X94135646Y-120025304D01*
X94155492Y-119900000D01*
X95044508Y-119900000D01*
X95064353Y-120025301D01*
X95064353Y-120025302D01*
X95064354Y-120025304D01*
X95121950Y-120138342D01*
X95211658Y-120228050D01*
X95324696Y-120285646D01*
X95450000Y-120305492D01*
X95575304Y-120285646D01*
X95645263Y-120250000D01*
X99494508Y-120250000D01*
X99514353Y-120375301D01*
X99514353Y-120375302D01*
X99514354Y-120375304D01*
X99571950Y-120488342D01*
X99661658Y-120578050D01*
X99774696Y-120635646D01*
X99900000Y-120655492D01*
X100025304Y-120635646D01*
X100138342Y-120578050D01*
X100228050Y-120488342D01*
X100285646Y-120375304D01*
X100305492Y-120250000D01*
X100285646Y-120124696D01*
X100228050Y-120011658D01*
X100138342Y-119921950D01*
X100025304Y-119864354D01*
X100025302Y-119864353D01*
X100025301Y-119864353D01*
X99900000Y-119844508D01*
X99774698Y-119864353D01*
X99661656Y-119921951D01*
X99571951Y-120011656D01*
X99514353Y-120124698D01*
X99494508Y-120250000D01*
X95645263Y-120250000D01*
X95688342Y-120228050D01*
X95778050Y-120138342D01*
X95835646Y-120025304D01*
X95855492Y-119900000D01*
X95835646Y-119774696D01*
X95778050Y-119661658D01*
X95688342Y-119571950D01*
X95575304Y-119514354D01*
X95575302Y-119514353D01*
X95575301Y-119514353D01*
X95450000Y-119494508D01*
X95324698Y-119514353D01*
X95324696Y-119514353D01*
X95324696Y-119514354D01*
X95304305Y-119524744D01*
X95211656Y-119571951D01*
X95121951Y-119661656D01*
X95064353Y-119774698D01*
X95044508Y-119900000D01*
X94155492Y-119900000D01*
X94135646Y-119774696D01*
X94078050Y-119661658D01*
X93988342Y-119571950D01*
X93875304Y-119514354D01*
X93875302Y-119514353D01*
X93875301Y-119514353D01*
X93750000Y-119494508D01*
X93624698Y-119514353D01*
X93624696Y-119514353D01*
X93624696Y-119514354D01*
X93604305Y-119524744D01*
X93511656Y-119571951D01*
X93421951Y-119661656D01*
X93364353Y-119774698D01*
X93344508Y-119900000D01*
X91868905Y-119900000D01*
X91347174Y-119378269D01*
X91325500Y-119325943D01*
X91325500Y-118471543D01*
X91347173Y-118419218D01*
X91428050Y-118338342D01*
X91485646Y-118225304D01*
X91505492Y-118100000D01*
X91485646Y-117974696D01*
X91428050Y-117861658D01*
X91347174Y-117780782D01*
X91334424Y-117750000D01*
X95194508Y-117750000D01*
X95214353Y-117875301D01*
X95214353Y-117875302D01*
X95214354Y-117875304D01*
X95271950Y-117988342D01*
X95361658Y-118078050D01*
X95474696Y-118135646D01*
X95600000Y-118155492D01*
X95725304Y-118135646D01*
X95838342Y-118078050D01*
X95928050Y-117988342D01*
X95985646Y-117875304D01*
X96005492Y-117750000D01*
X95985646Y-117624696D01*
X95928050Y-117511658D01*
X95838342Y-117421950D01*
X95725304Y-117364354D01*
X95725302Y-117364353D01*
X95725301Y-117364353D01*
X95600000Y-117344508D01*
X95474698Y-117364353D01*
X95361656Y-117421951D01*
X95271951Y-117511656D01*
X95214353Y-117624698D01*
X95194508Y-117750000D01*
X91334424Y-117750000D01*
X91325500Y-117728456D01*
X91325500Y-116090000D01*
X95924508Y-116090000D01*
X95944353Y-116215301D01*
X95944353Y-116215302D01*
X95944354Y-116215304D01*
X96001950Y-116328342D01*
X96091658Y-116418050D01*
X96204696Y-116475646D01*
X96330000Y-116495492D01*
X96455304Y-116475646D01*
X96568342Y-116418050D01*
X96658050Y-116328342D01*
X96715646Y-116215304D01*
X96735492Y-116090000D01*
X96715646Y-115964696D01*
X96658050Y-115851658D01*
X96568342Y-115761950D01*
X96455304Y-115704354D01*
X96455302Y-115704353D01*
X96455301Y-115704353D01*
X96330000Y-115684508D01*
X96204698Y-115704353D01*
X96091656Y-115761951D01*
X96001951Y-115851656D01*
X95944353Y-115964698D01*
X95924508Y-116090000D01*
X91325500Y-116090000D01*
X91325500Y-113982500D01*
X94019008Y-113982500D01*
X94038853Y-114107801D01*
X94038853Y-114107802D01*
X94038854Y-114107804D01*
X94096450Y-114220842D01*
X94186158Y-114310550D01*
X94299196Y-114368146D01*
X94424500Y-114387992D01*
X94549804Y-114368146D01*
X94662842Y-114310550D01*
X94752550Y-114220842D01*
X94810146Y-114107804D01*
X94829992Y-113982500D01*
X94824051Y-113944990D01*
X94837273Y-113889919D01*
X94844807Y-113881096D01*
X95278731Y-113447174D01*
X95331057Y-113425500D01*
X95753942Y-113425500D01*
X95806268Y-113447174D01*
X95827942Y-113499500D01*
X95806268Y-113551826D01*
X95806265Y-113551828D01*
X95795905Y-113562187D01*
X95743578Y-113583859D01*
X95732007Y-113582948D01*
X95694500Y-113577008D01*
X95569198Y-113596853D01*
X95456156Y-113654451D01*
X95366451Y-113744156D01*
X95308853Y-113857198D01*
X95289008Y-113982500D01*
X95308853Y-114107801D01*
X95308853Y-114107802D01*
X95308854Y-114107804D01*
X95366450Y-114220842D01*
X95456158Y-114310550D01*
X95569196Y-114368146D01*
X95694500Y-114387992D01*
X95819804Y-114368146D01*
X95932842Y-114310550D01*
X96022550Y-114220842D01*
X96080146Y-114107804D01*
X96099992Y-113982500D01*
X96094051Y-113944990D01*
X96107273Y-113889919D01*
X96114807Y-113881096D01*
X96248731Y-113747174D01*
X96301057Y-113725500D01*
X96525200Y-113725500D01*
X96577526Y-113747174D01*
X96599200Y-113799500D01*
X96591134Y-113833095D01*
X96578854Y-113857195D01*
X96578853Y-113857195D01*
X96559008Y-113982500D01*
X96578853Y-114107801D01*
X96578853Y-114107802D01*
X96578854Y-114107804D01*
X96636450Y-114220842D01*
X96726158Y-114310550D01*
X96839196Y-114368146D01*
X96964500Y-114387992D01*
X97089804Y-114368146D01*
X97202842Y-114310550D01*
X97283718Y-114229673D01*
X97336043Y-114208000D01*
X97808443Y-114208000D01*
X97860769Y-114229674D01*
X100602826Y-116971731D01*
X100624500Y-117024057D01*
X100624500Y-117783173D01*
X100624499Y-117783187D01*
X100624499Y-117878856D01*
X100648773Y-117937458D01*
X100658829Y-117961734D01*
X100658832Y-117961738D01*
X100732671Y-118035577D01*
X100732673Y-118035578D01*
X101302826Y-118605731D01*
X101324500Y-118658057D01*
X101324500Y-118899173D01*
X101324499Y-118899187D01*
X101324499Y-118905145D01*
X101324499Y-118994855D01*
X101335853Y-119022264D01*
X101358828Y-119077733D01*
X101358831Y-119077737D01*
X101432671Y-119151577D01*
X101432673Y-119151578D01*
X101652826Y-119371731D01*
X101674500Y-119424057D01*
X101674500Y-120499173D01*
X101674499Y-120499187D01*
X101674499Y-120594855D01*
X101691396Y-120635647D01*
X101708828Y-120677733D01*
X101708831Y-120677737D01*
X101782671Y-120751577D01*
X101782673Y-120751578D01*
X102754609Y-121723514D01*
X102754612Y-121723518D01*
X102758830Y-121727736D01*
X102822264Y-121791170D01*
X102905145Y-121825500D01*
X103083834Y-121825500D01*
X103136160Y-121847174D01*
X103157834Y-121899500D01*
X103136160Y-121951826D01*
X103127330Y-121959367D01*
X103094592Y-121983152D01*
X102978478Y-122112109D01*
X102978475Y-122112114D01*
X102891716Y-122262384D01*
X102891711Y-122262394D01*
X102838093Y-122427418D01*
X102838092Y-122427422D01*
X102838092Y-122427424D01*
X102819953Y-122600000D01*
X102828750Y-122683698D01*
X102838093Y-122772581D01*
X102891711Y-122937605D01*
X102891716Y-122937615D01*
X102978475Y-123087885D01*
X102978478Y-123087890D01*
X103047671Y-123164736D01*
X103092471Y-123214492D01*
X103094592Y-123216847D01*
X103234969Y-123318838D01*
X103234976Y-123318842D01*
X103393501Y-123389422D01*
X103563236Y-123425500D01*
X103563237Y-123425500D01*
X103736763Y-123425500D01*
X103736764Y-123425500D01*
X103906499Y-123389422D01*
X104065024Y-123318842D01*
X104071202Y-123314354D01*
X104158614Y-123250844D01*
X104205410Y-123216845D01*
X104321522Y-123087889D01*
X104408286Y-122937611D01*
X104409361Y-122934304D01*
X104444973Y-122824698D01*
X104461908Y-122772576D01*
X104480047Y-122600000D01*
X104461908Y-122427424D01*
X104424512Y-122312329D01*
X104408288Y-122262394D01*
X104408283Y-122262384D01*
X104321524Y-122112114D01*
X104321521Y-122112109D01*
X104205407Y-121983152D01*
X104172670Y-121959367D01*
X104143077Y-121911076D01*
X104156299Y-121856004D01*
X104204590Y-121826411D01*
X104216166Y-121825500D01*
X104525943Y-121825500D01*
X104578269Y-121847174D01*
X104888813Y-122157718D01*
X104910487Y-122210044D01*
X104900574Y-122247042D01*
X104891713Y-122262389D01*
X104891713Y-122262390D01*
X104838093Y-122427418D01*
X104838092Y-122427422D01*
X104838092Y-122427424D01*
X104819953Y-122600000D01*
X104828750Y-122683698D01*
X104838093Y-122772581D01*
X104891711Y-122937605D01*
X104891716Y-122937615D01*
X104978475Y-123087885D01*
X104978478Y-123087890D01*
X105047671Y-123164736D01*
X105092471Y-123214492D01*
X105094592Y-123216847D01*
X105234969Y-123318838D01*
X105234976Y-123318842D01*
X105393501Y-123389422D01*
X105563236Y-123425500D01*
X105563237Y-123425500D01*
X105736763Y-123425500D01*
X105736764Y-123425500D01*
X105906499Y-123389422D01*
X106065024Y-123318842D01*
X106071202Y-123314354D01*
X106158614Y-123250844D01*
X106205410Y-123216845D01*
X106321522Y-123087889D01*
X106408286Y-122937611D01*
X106409361Y-122934304D01*
X106444973Y-122824698D01*
X106461908Y-122772576D01*
X106480047Y-122600000D01*
X106461908Y-122427424D01*
X106424512Y-122312329D01*
X106408288Y-122262394D01*
X106408283Y-122262384D01*
X106321524Y-122112114D01*
X106321521Y-122112109D01*
X106205407Y-121983152D01*
X106065030Y-121881161D01*
X106065023Y-121881157D01*
X105906500Y-121810578D01*
X105906498Y-121810577D01*
X105772841Y-121782168D01*
X105736764Y-121774500D01*
X105563236Y-121774500D01*
X105533483Y-121780824D01*
X105393501Y-121810577D01*
X105393495Y-121810579D01*
X105291876Y-121855823D01*
X105235259Y-121857306D01*
X105209452Y-121840547D01*
X104851578Y-121482673D01*
X104851578Y-121482672D01*
X104777738Y-121408832D01*
X104777736Y-121408830D01*
X104753460Y-121398774D01*
X104753458Y-121398773D01*
X104753458Y-121398772D01*
X104694855Y-121374499D01*
X104605145Y-121374499D01*
X104596533Y-121374499D01*
X104596525Y-121374500D01*
X104216166Y-121374500D01*
X104163840Y-121352826D01*
X104142166Y-121300500D01*
X104163840Y-121248174D01*
X104172670Y-121240633D01*
X104205407Y-121216847D01*
X104205406Y-121216847D01*
X104205410Y-121216845D01*
X104321522Y-121087889D01*
X104408286Y-120937611D01*
X104411393Y-120928050D01*
X104440540Y-120838342D01*
X104461908Y-120772576D01*
X104480047Y-120600000D01*
X104461908Y-120427424D01*
X104440539Y-120361656D01*
X104408288Y-120262394D01*
X104408283Y-120262384D01*
X104321524Y-120112114D01*
X104321521Y-120112109D01*
X104205407Y-119983152D01*
X104172670Y-119959367D01*
X104143077Y-119911076D01*
X104156299Y-119856004D01*
X104204590Y-119826411D01*
X104216166Y-119825500D01*
X104525943Y-119825500D01*
X104578269Y-119847174D01*
X104888813Y-120157718D01*
X104910487Y-120210044D01*
X104900574Y-120247042D01*
X104891713Y-120262389D01*
X104891713Y-120262390D01*
X104838093Y-120427418D01*
X104838092Y-120427422D01*
X104838092Y-120427424D01*
X104819953Y-120600000D01*
X104833129Y-120725361D01*
X104838093Y-120772581D01*
X104891711Y-120937605D01*
X104891716Y-120937615D01*
X104978475Y-121087885D01*
X104978478Y-121087890D01*
X105094592Y-121216847D01*
X105234969Y-121318838D01*
X105234976Y-121318842D01*
X105393501Y-121389422D01*
X105563236Y-121425500D01*
X105563237Y-121425500D01*
X105736763Y-121425500D01*
X105736764Y-121425500D01*
X105906499Y-121389422D01*
X106065024Y-121318842D01*
X106069674Y-121315464D01*
X106205407Y-121216847D01*
X106205406Y-121216847D01*
X106205410Y-121216845D01*
X106321522Y-121087889D01*
X106408286Y-120937611D01*
X106411393Y-120928050D01*
X106440540Y-120838342D01*
X106461908Y-120772576D01*
X106480047Y-120600000D01*
X106461908Y-120427424D01*
X106440539Y-120361656D01*
X106408288Y-120262394D01*
X106408283Y-120262384D01*
X106321524Y-120112114D01*
X106321521Y-120112109D01*
X106205407Y-119983152D01*
X106065030Y-119881161D01*
X106065023Y-119881157D01*
X105906500Y-119810578D01*
X105906498Y-119810577D01*
X105759304Y-119779291D01*
X105736764Y-119774500D01*
X105563236Y-119774500D01*
X105540696Y-119779291D01*
X105393501Y-119810577D01*
X105393495Y-119810579D01*
X105291876Y-119855823D01*
X105235259Y-119857306D01*
X105209452Y-119840547D01*
X104851578Y-119482673D01*
X104851578Y-119482672D01*
X104777738Y-119408832D01*
X104777736Y-119408830D01*
X104753460Y-119398774D01*
X104753458Y-119398773D01*
X104753458Y-119398772D01*
X104694855Y-119374499D01*
X104605145Y-119374499D01*
X104596533Y-119374499D01*
X104596525Y-119374500D01*
X104216166Y-119374500D01*
X104163840Y-119352826D01*
X104142166Y-119300500D01*
X104163840Y-119248174D01*
X104172670Y-119240633D01*
X104205407Y-119216847D01*
X104205406Y-119216847D01*
X104205410Y-119216845D01*
X104321522Y-119087889D01*
X104408286Y-118937611D01*
X104461908Y-118772576D01*
X104480047Y-118600000D01*
X104819953Y-118600000D01*
X104822833Y-118627405D01*
X104838093Y-118772581D01*
X104891711Y-118937605D01*
X104891716Y-118937615D01*
X104978475Y-119087885D01*
X104978478Y-119087890D01*
X105094592Y-119216847D01*
X105234969Y-119318838D01*
X105234976Y-119318842D01*
X105393501Y-119389422D01*
X105563236Y-119425500D01*
X105563237Y-119425500D01*
X105736763Y-119425500D01*
X105736764Y-119425500D01*
X105906499Y-119389422D01*
X106065024Y-119318842D01*
X106090270Y-119300500D01*
X106205407Y-119216847D01*
X106205406Y-119216847D01*
X106205410Y-119216845D01*
X106321522Y-119087889D01*
X106408286Y-118937611D01*
X106461908Y-118772576D01*
X106480047Y-118600000D01*
X106461908Y-118427424D01*
X106455546Y-118407844D01*
X106408288Y-118262394D01*
X106408283Y-118262384D01*
X106321524Y-118112114D01*
X106321521Y-118112109D01*
X106236959Y-118018194D01*
X106205410Y-117983155D01*
X106205409Y-117983154D01*
X106205407Y-117983152D01*
X106065030Y-117881161D01*
X106065023Y-117881157D01*
X105906500Y-117810578D01*
X105906498Y-117810577D01*
X105766319Y-117780782D01*
X105736764Y-117774500D01*
X105563236Y-117774500D01*
X105533681Y-117780782D01*
X105393501Y-117810577D01*
X105393499Y-117810578D01*
X105234978Y-117881156D01*
X105234973Y-117881159D01*
X105094592Y-117983152D01*
X104978478Y-118112109D01*
X104978475Y-118112114D01*
X104891716Y-118262384D01*
X104891711Y-118262394D01*
X104838093Y-118427418D01*
X104838092Y-118427422D01*
X104838092Y-118427424D01*
X104819953Y-118600000D01*
X104480047Y-118600000D01*
X104461908Y-118427424D01*
X104455546Y-118407844D01*
X104408288Y-118262394D01*
X104408283Y-118262384D01*
X104321524Y-118112114D01*
X104321521Y-118112109D01*
X104236959Y-118018194D01*
X104205410Y-117983155D01*
X104205409Y-117983154D01*
X104205407Y-117983152D01*
X104065030Y-117881161D01*
X104065023Y-117881157D01*
X103906500Y-117810578D01*
X103906498Y-117810577D01*
X103766319Y-117780782D01*
X103736764Y-117774500D01*
X103563236Y-117774500D01*
X103533681Y-117780782D01*
X103393501Y-117810577D01*
X103393499Y-117810578D01*
X103234978Y-117881156D01*
X103234973Y-117881159D01*
X103094592Y-117983152D01*
X102978478Y-118112109D01*
X102978475Y-118112114D01*
X102891716Y-118262384D01*
X102891711Y-118262394D01*
X102838093Y-118427418D01*
X102838092Y-118427422D01*
X102838092Y-118427424D01*
X102819953Y-118600000D01*
X102822833Y-118627405D01*
X102838093Y-118772582D01*
X102861536Y-118844734D01*
X102857092Y-118901197D01*
X102814025Y-118937979D01*
X102757562Y-118933535D01*
X102738832Y-118919927D01*
X102397174Y-118578269D01*
X102375500Y-118525943D01*
X102375500Y-117353475D01*
X102375501Y-117353466D01*
X102375501Y-117255146D01*
X102341170Y-117172265D01*
X102341169Y-117172263D01*
X102273521Y-117104615D01*
X102273514Y-117104609D01*
X100918905Y-115750000D01*
X101744508Y-115750000D01*
X101764353Y-115875301D01*
X101764353Y-115875302D01*
X101764354Y-115875304D01*
X101821950Y-115988342D01*
X101911658Y-116078050D01*
X102024696Y-116135646D01*
X102150000Y-116155492D01*
X102275304Y-116135646D01*
X102388342Y-116078050D01*
X102478050Y-115988342D01*
X102517876Y-115910180D01*
X102824500Y-115910180D01*
X102824500Y-117289819D01*
X102833233Y-117333722D01*
X102865042Y-117381329D01*
X102866496Y-117383504D01*
X102916278Y-117416767D01*
X102960180Y-117425500D01*
X102960181Y-117425500D01*
X104339819Y-117425500D01*
X104339820Y-117425500D01*
X104383722Y-117416767D01*
X104433504Y-117383504D01*
X104466767Y-117333722D01*
X104475500Y-117289820D01*
X104475500Y-116600000D01*
X104819953Y-116600000D01*
X104838093Y-116772581D01*
X104891711Y-116937605D01*
X104891716Y-116937615D01*
X104978475Y-117087885D01*
X104978478Y-117087890D01*
X105094592Y-117216847D01*
X105234969Y-117318838D01*
X105234976Y-117318842D01*
X105393501Y-117389422D01*
X105563236Y-117425500D01*
X105563237Y-117425500D01*
X105736763Y-117425500D01*
X105736764Y-117425500D01*
X105906499Y-117389422D01*
X106065024Y-117318842D01*
X106080871Y-117307329D01*
X106205407Y-117216847D01*
X106205406Y-117216847D01*
X106205410Y-117216845D01*
X106321522Y-117087889D01*
X106408286Y-116937611D01*
X106461908Y-116772576D01*
X106480047Y-116600000D01*
X106461908Y-116427424D01*
X106455546Y-116407844D01*
X106408288Y-116262394D01*
X106408283Y-116262384D01*
X106321524Y-116112114D01*
X106321521Y-116112109D01*
X106205407Y-115983152D01*
X106065030Y-115881161D01*
X106065023Y-115881157D01*
X105906500Y-115810578D01*
X105906498Y-115810577D01*
X105770365Y-115781642D01*
X105736764Y-115774500D01*
X105563236Y-115774500D01*
X105533483Y-115780824D01*
X105393501Y-115810577D01*
X105393499Y-115810578D01*
X105234978Y-115881156D01*
X105234973Y-115881159D01*
X105094592Y-115983152D01*
X104978478Y-116112109D01*
X104978475Y-116112114D01*
X104891716Y-116262384D01*
X104891711Y-116262394D01*
X104838093Y-116427418D01*
X104819953Y-116600000D01*
X104475500Y-116600000D01*
X104475500Y-115910180D01*
X104466767Y-115866278D01*
X104433504Y-115816496D01*
X104424647Y-115810578D01*
X104383718Y-115783230D01*
X104379883Y-115781642D01*
X104339835Y-115741593D01*
X104339837Y-115684956D01*
X104379886Y-115644908D01*
X104396623Y-115640188D01*
X104425304Y-115635646D01*
X104538342Y-115578050D01*
X104628050Y-115488342D01*
X104685646Y-115375304D01*
X104705492Y-115250000D01*
X104685646Y-115124696D01*
X104628050Y-115011658D01*
X104538342Y-114921950D01*
X104425304Y-114864354D01*
X104425302Y-114864353D01*
X104425301Y-114864353D01*
X104300000Y-114844508D01*
X104174698Y-114864353D01*
X104061656Y-114921951D01*
X103971951Y-115011656D01*
X103914353Y-115124698D01*
X103894508Y-115250000D01*
X103914353Y-115375301D01*
X103914353Y-115375302D01*
X103914354Y-115375304D01*
X103966705Y-115478048D01*
X103971951Y-115488343D01*
X104061659Y-115578051D01*
X104172576Y-115634566D01*
X104209359Y-115677633D01*
X104204915Y-115734095D01*
X104161848Y-115770878D01*
X104138981Y-115774500D01*
X102960180Y-115774500D01*
X102938229Y-115778866D01*
X102916277Y-115783233D01*
X102866496Y-115816495D01*
X102866495Y-115816496D01*
X102833233Y-115866277D01*
X102824500Y-115910180D01*
X102517876Y-115910180D01*
X102535646Y-115875304D01*
X102555492Y-115750000D01*
X102535646Y-115624696D01*
X102478050Y-115511658D01*
X102388342Y-115421950D01*
X102275304Y-115364354D01*
X102275302Y-115364353D01*
X102275301Y-115364353D01*
X102150000Y-115344508D01*
X102024698Y-115364353D01*
X101911656Y-115421951D01*
X101821951Y-115511656D01*
X101764353Y-115624698D01*
X101744508Y-115750000D01*
X100918905Y-115750000D01*
X100318905Y-115150000D01*
X100844508Y-115150000D01*
X100864353Y-115275301D01*
X100864353Y-115275302D01*
X100864354Y-115275304D01*
X100921950Y-115388342D01*
X101011658Y-115478050D01*
X101124696Y-115535646D01*
X101250000Y-115555492D01*
X101375304Y-115535646D01*
X101488342Y-115478050D01*
X101578050Y-115388342D01*
X101635646Y-115275304D01*
X101655492Y-115150000D01*
X101635646Y-115024696D01*
X101578050Y-114911658D01*
X101488342Y-114821950D01*
X101375304Y-114764354D01*
X101375302Y-114764353D01*
X101375301Y-114764353D01*
X101250000Y-114744508D01*
X101124698Y-114764353D01*
X101011656Y-114821951D01*
X100921951Y-114911656D01*
X100864353Y-115024698D01*
X100844508Y-115150000D01*
X100318905Y-115150000D01*
X99568905Y-114400000D01*
X102944508Y-114400000D01*
X102964353Y-114525301D01*
X102964353Y-114525302D01*
X102964354Y-114525304D01*
X103021950Y-114638342D01*
X103111658Y-114728050D01*
X103224696Y-114785646D01*
X103350000Y-114805492D01*
X103475304Y-114785646D01*
X103588342Y-114728050D01*
X103678050Y-114638342D01*
X103735646Y-114525304D01*
X103755492Y-114400000D01*
X103735646Y-114274696D01*
X103678050Y-114161658D01*
X103588342Y-114071950D01*
X103475304Y-114014354D01*
X103475302Y-114014353D01*
X103475301Y-114014353D01*
X103350000Y-113994508D01*
X103224698Y-114014353D01*
X103111656Y-114071951D01*
X103021951Y-114161656D01*
X102964353Y-114274698D01*
X102944508Y-114400000D01*
X99568905Y-114400000D01*
X98718905Y-113550000D01*
X103894508Y-113550000D01*
X103914353Y-113675301D01*
X103914353Y-113675302D01*
X103914354Y-113675304D01*
X103971950Y-113788342D01*
X104061658Y-113878050D01*
X104174696Y-113935646D01*
X104300000Y-113955492D01*
X104425304Y-113935646D01*
X104538342Y-113878050D01*
X104628050Y-113788342D01*
X104685646Y-113675304D01*
X104705492Y-113550000D01*
X104685646Y-113424696D01*
X104628050Y-113311658D01*
X104538342Y-113221950D01*
X104425304Y-113164354D01*
X104425302Y-113164353D01*
X104425301Y-113164353D01*
X104300000Y-113144508D01*
X104174698Y-113164353D01*
X104061656Y-113221951D01*
X103971951Y-113311656D01*
X103914353Y-113424698D01*
X103894508Y-113550000D01*
X98718905Y-113550000D01*
X98251578Y-113082673D01*
X98251578Y-113082672D01*
X98177738Y-113008832D01*
X98177736Y-113008830D01*
X98153463Y-112998775D01*
X98153458Y-112998773D01*
X98153458Y-112998772D01*
X98094855Y-112974499D01*
X98005145Y-112974499D01*
X97996533Y-112974499D01*
X97996525Y-112974500D01*
X95260475Y-112974500D01*
X95260467Y-112974499D01*
X95251855Y-112974499D01*
X95162145Y-112974499D01*
X95103539Y-112998774D01*
X95103537Y-112998775D01*
X95103536Y-112998774D01*
X95079263Y-113008830D01*
X95015829Y-113072265D01*
X94525908Y-113562185D01*
X94473582Y-113583859D01*
X94462007Y-113582948D01*
X94424500Y-113577008D01*
X94299198Y-113596853D01*
X94186156Y-113654451D01*
X94096451Y-113744156D01*
X94038853Y-113857198D01*
X94019008Y-113982500D01*
X91325500Y-113982500D01*
X91325500Y-113811556D01*
X91347173Y-113759231D01*
X92406403Y-112700000D01*
X98594508Y-112700000D01*
X98614353Y-112825301D01*
X98614353Y-112825302D01*
X98614354Y-112825304D01*
X98671950Y-112938342D01*
X98761658Y-113028050D01*
X98874696Y-113085646D01*
X99000000Y-113105492D01*
X99125304Y-113085646D01*
X99238342Y-113028050D01*
X99328050Y-112938342D01*
X99385646Y-112825304D01*
X99405492Y-112700000D01*
X99385646Y-112574696D01*
X99328050Y-112461658D01*
X99238342Y-112371950D01*
X99125304Y-112314354D01*
X99125302Y-112314353D01*
X99125301Y-112314353D01*
X99000000Y-112294508D01*
X98874698Y-112314353D01*
X98761656Y-112371951D01*
X98671951Y-112461656D01*
X98614353Y-112574698D01*
X98594508Y-112700000D01*
X92406403Y-112700000D01*
X92418090Y-112688313D01*
X92470415Y-112666640D01*
X92481988Y-112667550D01*
X92519500Y-112673492D01*
X92644804Y-112653646D01*
X92757842Y-112596050D01*
X92847550Y-112506342D01*
X92905146Y-112393304D01*
X92924992Y-112268000D01*
X92905146Y-112142696D01*
X92847550Y-112029658D01*
X92757842Y-111939950D01*
X92679436Y-111900000D01*
X99344508Y-111900000D01*
X99364353Y-112025301D01*
X99364353Y-112025302D01*
X99364354Y-112025304D01*
X99421950Y-112138342D01*
X99511658Y-112228050D01*
X99624696Y-112285646D01*
X99750000Y-112305492D01*
X99875304Y-112285646D01*
X99988342Y-112228050D01*
X100078050Y-112138342D01*
X100135646Y-112025304D01*
X100155492Y-111900000D01*
X100135646Y-111774696D01*
X100078050Y-111661658D01*
X99988342Y-111571950D01*
X99875304Y-111514354D01*
X99875302Y-111514353D01*
X99875301Y-111514353D01*
X99750000Y-111494508D01*
X99624698Y-111514353D01*
X99511656Y-111571951D01*
X99421951Y-111661656D01*
X99364353Y-111774698D01*
X99344508Y-111900000D01*
X92679436Y-111900000D01*
X92644804Y-111882354D01*
X92644802Y-111882353D01*
X92644801Y-111882353D01*
X92519500Y-111862508D01*
X92394198Y-111882353D01*
X92281156Y-111939951D01*
X92191451Y-112029656D01*
X92191450Y-112029658D01*
X92136073Y-112138342D01*
X92133853Y-112142698D01*
X92114008Y-112268000D01*
X92119948Y-112305507D01*
X92106726Y-112360579D01*
X92099185Y-112369408D01*
X90972265Y-113496329D01*
X90908830Y-113559763D01*
X90898774Y-113584036D01*
X90898774Y-113584039D01*
X90893467Y-113596853D01*
X90874499Y-113642646D01*
X90874499Y-113740966D01*
X90874500Y-113740975D01*
X90874500Y-117728456D01*
X90852826Y-117780782D01*
X90771951Y-117861656D01*
X90764997Y-117875304D01*
X90720959Y-117961734D01*
X90714353Y-117974698D01*
X90694508Y-118100000D01*
X90714353Y-118225301D01*
X90714353Y-118225302D01*
X90714354Y-118225304D01*
X90771950Y-118338342D01*
X90852826Y-118419218D01*
X90874500Y-118471543D01*
X90874500Y-119176943D01*
X90852826Y-119229269D01*
X90800500Y-119250943D01*
X90748174Y-119229269D01*
X90610559Y-119091654D01*
X90589796Y-119050902D01*
X90585646Y-119024696D01*
X90585645Y-119024693D01*
X90541274Y-118937611D01*
X90528050Y-118911658D01*
X90438342Y-118821950D01*
X90325304Y-118764354D01*
X90325302Y-118764353D01*
X90325301Y-118764353D01*
X90200000Y-118744508D01*
X90074698Y-118764353D01*
X90074696Y-118764353D01*
X90074696Y-118764354D01*
X90058550Y-118772581D01*
X89961656Y-118821951D01*
X89871951Y-118911656D01*
X89814353Y-119024698D01*
X89794508Y-119150000D01*
X75527400Y-119150000D01*
X75527400Y-118150670D01*
X75549074Y-118098344D01*
X75601400Y-118076670D01*
X75634993Y-118084735D01*
X75693696Y-118114646D01*
X75693695Y-118114646D01*
X75709026Y-118117074D01*
X75819000Y-118134492D01*
X75944304Y-118114646D01*
X76057342Y-118057050D01*
X76147050Y-117967342D01*
X76204646Y-117854304D01*
X76224492Y-117729000D01*
X76204646Y-117603696D01*
X76147050Y-117490658D01*
X76057342Y-117400950D01*
X75944304Y-117343354D01*
X75944302Y-117343353D01*
X75944301Y-117343353D01*
X75819000Y-117323508D01*
X75693698Y-117343353D01*
X75693696Y-117343353D01*
X75693696Y-117343354D01*
X75652482Y-117364354D01*
X75634995Y-117373264D01*
X75578532Y-117377707D01*
X75535465Y-117340924D01*
X75527400Y-117307329D01*
X75527400Y-115102670D01*
X75549074Y-115050344D01*
X75601400Y-115028670D01*
X75634993Y-115036735D01*
X75693696Y-115066646D01*
X75693695Y-115066646D01*
X75710827Y-115069359D01*
X75819000Y-115086492D01*
X75944304Y-115066646D01*
X76057342Y-115009050D01*
X76147050Y-114919342D01*
X76204646Y-114806304D01*
X76224492Y-114681000D01*
X76204646Y-114555696D01*
X76147050Y-114442658D01*
X76057342Y-114352950D01*
X75944304Y-114295354D01*
X75944302Y-114295353D01*
X75944301Y-114295353D01*
X75819000Y-114275508D01*
X75693698Y-114295353D01*
X75693696Y-114295353D01*
X75693696Y-114295354D01*
X75663873Y-114310550D01*
X75634995Y-114325264D01*
X75578532Y-114329707D01*
X75535465Y-114292924D01*
X75527400Y-114259329D01*
X75527400Y-112054670D01*
X75549074Y-112002344D01*
X75601400Y-111980670D01*
X75634993Y-111988735D01*
X75693696Y-112018646D01*
X75693695Y-112018646D01*
X75710827Y-112021359D01*
X75819000Y-112038492D01*
X75944304Y-112018646D01*
X76057342Y-111961050D01*
X76147050Y-111871342D01*
X76204646Y-111758304D01*
X76224492Y-111633000D01*
X76204646Y-111507696D01*
X76147050Y-111394658D01*
X76057342Y-111304950D01*
X75944304Y-111247354D01*
X75944302Y-111247353D01*
X75944301Y-111247353D01*
X75819000Y-111227508D01*
X75693698Y-111247353D01*
X75634995Y-111277264D01*
X75578532Y-111281707D01*
X75535465Y-111244924D01*
X75527400Y-111211329D01*
X75527400Y-110850000D01*
X98394508Y-110850000D01*
X98414353Y-110975301D01*
X98414353Y-110975302D01*
X98414354Y-110975304D01*
X98471950Y-111088342D01*
X98561658Y-111178050D01*
X98674696Y-111235646D01*
X98800000Y-111255492D01*
X98925304Y-111235646D01*
X99038342Y-111178050D01*
X99128050Y-111088342D01*
X99147586Y-111050000D01*
X102994508Y-111050000D01*
X103014353Y-111175301D01*
X103014353Y-111175302D01*
X103014354Y-111175304D01*
X103071950Y-111288342D01*
X103161658Y-111378050D01*
X103274696Y-111435646D01*
X103400000Y-111455492D01*
X103525304Y-111435646D01*
X103638342Y-111378050D01*
X103728050Y-111288342D01*
X103785646Y-111175304D01*
X103805492Y-111050000D01*
X103785646Y-110924696D01*
X103728050Y-110811658D01*
X103638342Y-110721950D01*
X103525304Y-110664354D01*
X103525302Y-110664353D01*
X103525301Y-110664353D01*
X103400000Y-110644508D01*
X103274698Y-110664353D01*
X103161656Y-110721951D01*
X103071951Y-110811656D01*
X103014353Y-110924698D01*
X102994508Y-111050000D01*
X99147586Y-111050000D01*
X99185646Y-110975304D01*
X99205492Y-110850000D01*
X99185646Y-110724696D01*
X99128050Y-110611658D01*
X99038342Y-110521950D01*
X98925304Y-110464354D01*
X98925302Y-110464353D01*
X98925301Y-110464353D01*
X98800000Y-110444508D01*
X98674698Y-110464353D01*
X98561656Y-110521951D01*
X98471951Y-110611656D01*
X98414353Y-110724698D01*
X98394508Y-110850000D01*
X75527400Y-110850000D01*
X75527400Y-110100000D01*
X102194508Y-110100000D01*
X102214353Y-110225301D01*
X102214353Y-110225302D01*
X102214354Y-110225304D01*
X102271950Y-110338342D01*
X102361658Y-110428050D01*
X102474696Y-110485646D01*
X102600000Y-110505492D01*
X102725304Y-110485646D01*
X102838342Y-110428050D01*
X102928050Y-110338342D01*
X102985646Y-110225304D01*
X103005492Y-110100000D01*
X103894508Y-110100000D01*
X103914353Y-110225301D01*
X103914353Y-110225302D01*
X103914354Y-110225304D01*
X103971950Y-110338342D01*
X104061658Y-110428050D01*
X104174696Y-110485646D01*
X104300000Y-110505492D01*
X104425304Y-110485646D01*
X104538342Y-110428050D01*
X104628050Y-110338342D01*
X104685646Y-110225304D01*
X104705492Y-110100000D01*
X104685646Y-109974696D01*
X104628050Y-109861658D01*
X104538342Y-109771950D01*
X104425304Y-109714354D01*
X104425302Y-109714353D01*
X104425301Y-109714353D01*
X104300000Y-109694508D01*
X104174698Y-109714353D01*
X104061656Y-109771951D01*
X103971951Y-109861656D01*
X103914353Y-109974698D01*
X103894508Y-110100000D01*
X103005492Y-110100000D01*
X102985646Y-109974696D01*
X102928050Y-109861658D01*
X102838342Y-109771950D01*
X102725304Y-109714354D01*
X102725302Y-109714353D01*
X102725301Y-109714353D01*
X102600000Y-109694508D01*
X102474698Y-109714353D01*
X102361656Y-109771951D01*
X102271951Y-109861656D01*
X102214353Y-109974698D01*
X102194508Y-110100000D01*
X75527400Y-110100000D01*
X75527400Y-109070170D01*
X75549074Y-109017844D01*
X75601400Y-108996170D01*
X75634993Y-109004235D01*
X75693696Y-109034146D01*
X75693695Y-109034146D01*
X75709026Y-109036574D01*
X75819000Y-109053992D01*
X75944304Y-109034146D01*
X76057342Y-108976550D01*
X76147050Y-108886842D01*
X76204646Y-108773804D01*
X76214435Y-108712000D01*
X91429367Y-108712000D01*
X91447802Y-108840223D01*
X91447802Y-108840224D01*
X91447803Y-108840226D01*
X91501618Y-108958063D01*
X91586451Y-109055967D01*
X91695431Y-109126004D01*
X91819728Y-109162500D01*
X91949272Y-109162500D01*
X92073569Y-109126004D01*
X92182549Y-109055967D01*
X92267382Y-108958063D01*
X92321197Y-108840226D01*
X92339633Y-108712000D01*
X92699367Y-108712000D01*
X92717802Y-108840223D01*
X92717802Y-108840224D01*
X92717803Y-108840226D01*
X92771618Y-108958063D01*
X92856451Y-109055967D01*
X92965431Y-109126004D01*
X93089728Y-109162500D01*
X93219272Y-109162500D01*
X93343569Y-109126004D01*
X93452549Y-109055967D01*
X93537382Y-108958063D01*
X93591197Y-108840226D01*
X93609633Y-108712000D01*
X93969367Y-108712000D01*
X93987802Y-108840223D01*
X93987802Y-108840224D01*
X93987803Y-108840226D01*
X94041618Y-108958063D01*
X94126451Y-109055967D01*
X94235431Y-109126004D01*
X94359728Y-109162500D01*
X94489272Y-109162500D01*
X94613569Y-109126004D01*
X94722549Y-109055967D01*
X94807382Y-108958063D01*
X94861197Y-108840226D01*
X94879633Y-108712000D01*
X95239367Y-108712000D01*
X95257802Y-108840223D01*
X95257802Y-108840224D01*
X95257803Y-108840226D01*
X95311618Y-108958063D01*
X95396451Y-109055967D01*
X95505431Y-109126004D01*
X95629728Y-109162500D01*
X95759272Y-109162500D01*
X95883569Y-109126004D01*
X95992549Y-109055967D01*
X96077382Y-108958063D01*
X96131197Y-108840226D01*
X96149633Y-108712000D01*
X96509367Y-108712000D01*
X96527802Y-108840223D01*
X96527802Y-108840224D01*
X96527803Y-108840226D01*
X96581618Y-108958063D01*
X96666451Y-109055967D01*
X96775431Y-109126004D01*
X96899728Y-109162500D01*
X97029272Y-109162500D01*
X97153569Y-109126004D01*
X97262549Y-109055967D01*
X97347382Y-108958063D01*
X97401197Y-108840226D01*
X97419633Y-108712000D01*
X97401197Y-108583774D01*
X97347382Y-108465937D01*
X97262549Y-108368033D01*
X97188508Y-108320450D01*
X97153568Y-108297995D01*
X97029272Y-108261500D01*
X96899728Y-108261500D01*
X96775431Y-108297995D01*
X96666454Y-108368031D01*
X96666450Y-108368034D01*
X96581619Y-108465935D01*
X96527802Y-108583776D01*
X96509367Y-108712000D01*
X96149633Y-108712000D01*
X96131197Y-108583774D01*
X96077382Y-108465937D01*
X95992549Y-108368033D01*
X95918508Y-108320450D01*
X95883568Y-108297995D01*
X95759272Y-108261500D01*
X95629728Y-108261500D01*
X95505431Y-108297995D01*
X95396454Y-108368031D01*
X95396450Y-108368034D01*
X95311619Y-108465935D01*
X95257802Y-108583776D01*
X95239367Y-108712000D01*
X94879633Y-108712000D01*
X94861197Y-108583774D01*
X94807382Y-108465937D01*
X94722549Y-108368033D01*
X94648508Y-108320450D01*
X94613568Y-108297995D01*
X94489272Y-108261500D01*
X94359728Y-108261500D01*
X94235431Y-108297995D01*
X94126454Y-108368031D01*
X94126450Y-108368034D01*
X94041619Y-108465935D01*
X93987802Y-108583776D01*
X93969367Y-108712000D01*
X93609633Y-108712000D01*
X93591197Y-108583774D01*
X93537382Y-108465937D01*
X93452549Y-108368033D01*
X93378508Y-108320450D01*
X93343568Y-108297995D01*
X93219272Y-108261500D01*
X93089728Y-108261500D01*
X92965431Y-108297995D01*
X92856454Y-108368031D01*
X92856450Y-108368034D01*
X92771619Y-108465935D01*
X92717802Y-108583776D01*
X92699367Y-108712000D01*
X92339633Y-108712000D01*
X92321197Y-108583774D01*
X92267382Y-108465937D01*
X92182549Y-108368033D01*
X92108508Y-108320450D01*
X92073568Y-108297995D01*
X91949272Y-108261500D01*
X91819728Y-108261500D01*
X91695431Y-108297995D01*
X91586454Y-108368031D01*
X91586450Y-108368034D01*
X91501619Y-108465935D01*
X91447802Y-108583776D01*
X91429367Y-108712000D01*
X76214435Y-108712000D01*
X76224492Y-108648500D01*
X76204646Y-108523196D01*
X76147050Y-108410158D01*
X76057342Y-108320450D01*
X75944304Y-108262854D01*
X75944302Y-108262853D01*
X75944301Y-108262853D01*
X75819000Y-108243008D01*
X75693698Y-108262853D01*
X75634995Y-108292764D01*
X75578532Y-108297207D01*
X75535465Y-108260424D01*
X75527400Y-108226829D01*
X75527400Y-107381726D01*
X75527682Y-107375276D01*
X75534522Y-107297098D01*
X75754500Y-107297098D01*
X75754500Y-107459901D01*
X75786260Y-107619575D01*
X75786263Y-107619585D01*
X75848563Y-107769992D01*
X75848564Y-107769994D01*
X75848565Y-107769995D01*
X75939016Y-107905363D01*
X76054137Y-108020484D01*
X76189505Y-108110935D01*
X76339919Y-108173238D01*
X76499597Y-108205000D01*
X76499599Y-108205000D01*
X76662401Y-108205000D01*
X76662403Y-108205000D01*
X76822081Y-108173238D01*
X76972495Y-108110935D01*
X77107863Y-108020484D01*
X77222984Y-107905363D01*
X77313435Y-107769995D01*
X77375738Y-107619581D01*
X77407500Y-107459903D01*
X77407500Y-107297098D01*
X106298000Y-107297098D01*
X106298000Y-107459901D01*
X106329760Y-107619575D01*
X106329763Y-107619585D01*
X106392063Y-107769992D01*
X106392064Y-107769994D01*
X106392065Y-107769995D01*
X106482516Y-107905363D01*
X106597637Y-108020484D01*
X106733005Y-108110935D01*
X106883419Y-108173238D01*
X107043097Y-108205000D01*
X107043099Y-108205000D01*
X107205901Y-108205000D01*
X107205903Y-108205000D01*
X107365581Y-108173238D01*
X107515995Y-108110935D01*
X107651363Y-108020484D01*
X107766484Y-107905363D01*
X107856935Y-107769995D01*
X107919238Y-107619581D01*
X107951000Y-107459903D01*
X107951000Y-107297097D01*
X107919238Y-107137419D01*
X107919236Y-107137414D01*
X107856936Y-106987007D01*
X107766486Y-106851640D01*
X107766484Y-106851637D01*
X107651363Y-106736516D01*
X107591746Y-106696681D01*
X107515992Y-106646063D01*
X107365585Y-106583763D01*
X107365575Y-106583760D01*
X107258645Y-106562491D01*
X107205903Y-106552000D01*
X107043097Y-106552000D01*
X106997831Y-106561003D01*
X106883424Y-106583760D01*
X106883414Y-106583763D01*
X106733007Y-106646063D01*
X106597640Y-106736513D01*
X106482513Y-106851640D01*
X106392063Y-106987007D01*
X106329763Y-107137414D01*
X106329760Y-107137424D01*
X106298000Y-107297098D01*
X77407500Y-107297098D01*
X77407500Y-107297097D01*
X77375738Y-107137419D01*
X77375736Y-107137414D01*
X77313436Y-106987007D01*
X77222986Y-106851640D01*
X77222984Y-106851637D01*
X77107863Y-106736516D01*
X77048246Y-106696681D01*
X76972492Y-106646063D01*
X76822085Y-106583763D01*
X76822075Y-106583760D01*
X76715145Y-106562491D01*
X76662403Y-106552000D01*
X76499597Y-106552000D01*
X76454331Y-106561003D01*
X76339924Y-106583760D01*
X76339914Y-106583763D01*
X76189507Y-106646063D01*
X76054140Y-106736513D01*
X75939013Y-106851640D01*
X75848563Y-106987007D01*
X75786263Y-107137414D01*
X75786260Y-107137424D01*
X75754500Y-107297098D01*
X75534522Y-107297098D01*
X75534522Y-107297097D01*
X75542842Y-107201994D01*
X75545081Y-107189296D01*
X75558980Y-107137424D01*
X75589266Y-107024391D01*
X75593671Y-107012289D01*
X75665825Y-106857555D01*
X75672263Y-106846404D01*
X75770186Y-106706556D01*
X75778467Y-106696687D01*
X75899187Y-106575967D01*
X75909056Y-106567686D01*
X76048904Y-106469763D01*
X76060055Y-106463325D01*
X76214789Y-106391171D01*
X76226891Y-106386766D01*
X76391797Y-106342580D01*
X76404494Y-106340342D01*
X76577777Y-106325182D01*
X76584227Y-106324900D01*
X76639503Y-106324900D01*
X77429330Y-106324900D01*
X77481656Y-106346574D01*
G37*
G04 #@! TD.AperFunction*
M02*
