G04 #@! TF.GenerationSoftware,KiCad,Pcbnew,8.0.5*
G04 #@! TF.CreationDate,2024-10-22T05:21:46-04:00*
G04 #@! TF.ProjectId,WarpSE-Overclocking-Board,57617270-5345-42d4-9f76-6572636c6f63,1.0*
G04 #@! TF.SameCoordinates,Original*
G04 #@! TF.FileFunction,Paste,Top*
G04 #@! TF.FilePolarity,Positive*
%FSLAX46Y46*%
G04 Gerber Fmt 4.6, Leading zero omitted, Abs format (unit mm)*
G04 Created by KiCad (PCBNEW 8.0.5) date 2024-10-22 05:21:46*
%MOMM*%
%LPD*%
G01*
G04 APERTURE LIST*
G04 Aperture macros list*
%AMRoundRect*
0 Rectangle with rounded corners*
0 $1 Rounding radius*
0 $2 $3 $4 $5 $6 $7 $8 $9 X,Y pos of 4 corners*
0 Add a 4 corners polygon primitive as box body*
4,1,4,$2,$3,$4,$5,$6,$7,$8,$9,$2,$3,0*
0 Add four circle primitives for the rounded corners*
1,1,$1+$1,$2,$3*
1,1,$1+$1,$4,$5*
1,1,$1+$1,$6,$7*
1,1,$1+$1,$8,$9*
0 Add four rect primitives between the rounded corners*
20,1,$1+$1,$2,$3,$4,$5,0*
20,1,$1+$1,$4,$5,$6,$7,0*
20,1,$1+$1,$6,$7,$8,$9,0*
20,1,$1+$1,$8,$9,$2,$3,0*%
G04 Aperture macros list end*
%ADD10RoundRect,0.150000X-0.150000X-0.275000X0.150000X-0.275000X0.150000X0.275000X-0.150000X0.275000X0*%
%ADD11RoundRect,0.175000X0.175000X-0.450000X0.175000X0.450000X-0.175000X0.450000X-0.175000X-0.450000X0*%
%ADD12RoundRect,0.080000X0.380000X0.080000X-0.380000X0.080000X-0.380000X-0.080000X0.380000X-0.080000X0*%
%ADD13RoundRect,0.275000X-0.375000X-0.275000X0.375000X-0.275000X0.375000X0.275000X-0.375000X0.275000X0*%
%ADD14RoundRect,0.177500X0.177500X-0.559500X0.177500X0.559500X-0.177500X0.559500X-0.177500X-0.559500X0*%
%ADD15RoundRect,0.192500X-0.242500X0.192500X-0.242500X-0.192500X0.242500X-0.192500X0.242500X0.192500X0*%
%ADD16RoundRect,0.192500X0.192500X0.242500X-0.192500X0.242500X-0.192500X-0.242500X0.192500X-0.242500X0*%
%ADD17RoundRect,0.080000X-0.380000X-0.080000X0.380000X-0.080000X0.380000X0.080000X-0.380000X0.080000X0*%
%ADD18RoundRect,0.150000X-0.275000X0.150000X-0.275000X-0.150000X0.275000X-0.150000X0.275000X0.150000X0*%
G04 APERTURE END LIST*
D10*
X93400000Y-116900000D03*
X95000000Y-116900000D03*
D11*
X99600000Y-110850000D03*
X101500000Y-110850000D03*
X100550000Y-108750000D03*
D12*
X101250000Y-117050000D03*
X101250000Y-116400000D03*
X101250000Y-115750000D03*
X99550000Y-115750000D03*
X99550000Y-117050000D03*
D13*
X96600000Y-120250000D03*
X98800000Y-120250000D03*
X98800000Y-118550000D03*
X96600000Y-118550000D03*
X96600000Y-124050000D03*
X98800000Y-124050000D03*
X98800000Y-122350000D03*
X96600000Y-122350000D03*
D14*
X91884500Y-115125500D03*
X93154500Y-115125500D03*
X94424500Y-115125500D03*
X95694500Y-115125500D03*
X96964500Y-115125500D03*
X96964500Y-107505500D03*
X95694500Y-107505500D03*
X94424500Y-107505500D03*
X93154500Y-107505500D03*
X91884500Y-107505500D03*
D15*
X94600000Y-118550000D03*
X94600000Y-120050000D03*
D13*
X96600000Y-127850000D03*
X98800000Y-127850000D03*
X98800000Y-126150000D03*
X96600000Y-126150000D03*
D16*
X105650000Y-114400000D03*
X104150000Y-114400000D03*
D15*
X94600000Y-126150000D03*
X94600000Y-127650000D03*
D17*
X91100000Y-126300000D03*
X91100000Y-126950000D03*
X91100000Y-127600000D03*
X92800000Y-127600000D03*
X92800000Y-126300000D03*
D15*
X103450000Y-108750000D03*
X103450000Y-110250000D03*
D18*
X100800000Y-122350000D03*
X100800000Y-123950000D03*
D15*
X94600000Y-122350000D03*
X94600000Y-123850000D03*
D18*
X100800000Y-126150000D03*
X100800000Y-127750000D03*
D16*
X97800000Y-116900000D03*
X96300000Y-116900000D03*
D18*
X100800000Y-118550000D03*
X100800000Y-120150000D03*
D16*
X101300000Y-112750000D03*
X99800000Y-112750000D03*
D10*
X99550000Y-114250000D03*
X101150000Y-114250000D03*
X90600000Y-116900000D03*
X92200000Y-116900000D03*
D17*
X91100000Y-118700000D03*
X91100000Y-119350000D03*
X91100000Y-120000000D03*
X92800000Y-120000000D03*
X92800000Y-118700000D03*
X91100000Y-122500000D03*
X91100000Y-123150000D03*
X91100000Y-123800000D03*
X92800000Y-123800000D03*
X92800000Y-122500000D03*
M02*
