G04 #@! TF.GenerationSoftware,KiCad,Pcbnew,8.0.5*
G04 #@! TF.CreationDate,2024-10-22T05:21:46-04:00*
G04 #@! TF.ProjectId,WarpSE-Overclocking-Board,57617270-5345-42d4-9f76-6572636c6f63,1.0*
G04 #@! TF.SameCoordinates,Original*
G04 #@! TF.FileFunction,Legend,Top*
G04 #@! TF.FilePolarity,Positive*
%FSLAX46Y46*%
G04 Gerber Fmt 4.6, Leading zero omitted, Abs format (unit mm)*
G04 Created by KiCad (PCBNEW 8.0.5) date 2024-10-22 05:21:46*
%MOMM*%
%LPD*%
G01*
G04 APERTURE LIST*
G04 Aperture macros list*
%AMRoundRect*
0 Rectangle with rounded corners*
0 $1 Rounding radius*
0 $2 $3 $4 $5 $6 $7 $8 $9 X,Y pos of 4 corners*
0 Add a 4 corners polygon primitive as box body*
4,1,4,$2,$3,$4,$5,$6,$7,$8,$9,$2,$3,0*
0 Add four circle primitives for the rounded corners*
1,1,$1+$1,$2,$3*
1,1,$1+$1,$4,$5*
1,1,$1+$1,$6,$7*
1,1,$1+$1,$8,$9*
0 Add four rect primitives between the rounded corners*
20,1,$1+$1,$2,$3,$4,$5,0*
20,1,$1+$1,$4,$5,$6,$7,0*
20,1,$1+$1,$6,$7,$8,$9,0*
20,1,$1+$1,$8,$9,$2,$3,0*%
G04 Aperture macros list end*
%ADD10C,0.203200*%
%ADD11C,0.350000*%
%ADD12C,0.120000*%
%ADD13C,0.152400*%
%ADD14RoundRect,0.200000X-0.200000X-0.325000X0.200000X-0.325000X0.200000X0.325000X-0.200000X0.325000X0*%
%ADD15RoundRect,0.225000X0.225000X-0.500000X0.225000X0.500000X-0.225000X0.500000X-0.225000X-0.500000X0*%
%ADD16RoundRect,0.076200X-0.675000X-0.675000X0.675000X-0.675000X0.675000X0.675000X-0.675000X0.675000X0*%
%ADD17O,1.502400X1.502400*%
%ADD18RoundRect,0.120000X0.420000X0.120000X-0.420000X0.120000X-0.420000X-0.120000X0.420000X-0.120000X0*%
%ADD19RoundRect,0.325000X-0.425000X-0.325000X0.425000X-0.325000X0.425000X0.325000X-0.425000X0.325000X0*%
%ADD20RoundRect,0.215000X0.215000X-0.597000X0.215000X0.597000X-0.215000X0.597000X-0.215000X-0.597000X0*%
%ADD21RoundRect,0.237500X-0.287500X0.237500X-0.287500X-0.237500X0.287500X-0.237500X0.287500X0.237500X0*%
%ADD22RoundRect,0.237500X0.237500X0.287500X-0.237500X0.287500X-0.237500X-0.287500X0.237500X-0.287500X0*%
%ADD23RoundRect,0.120000X-0.420000X-0.120000X0.420000X-0.120000X0.420000X0.120000X-0.420000X0.120000X0*%
%ADD24RoundRect,0.200000X-0.325000X0.200000X-0.325000X-0.200000X0.325000X-0.200000X0.325000X0.200000X0*%
%ADD25C,1.448000*%
G04 APERTURE END LIST*
D10*
X78359000Y-128651000D02*
X78359000Y-126873000D01*
X82042000Y-106807000D02*
X78359000Y-106807000D01*
D11*
X81470400Y-125666500D02*
X81470500Y-125666500D01*
D10*
X82042000Y-119380000D02*
X78359000Y-119380000D01*
X78359000Y-128651000D02*
X82042000Y-128651000D01*
X78359000Y-118491000D02*
X82042000Y-118491000D01*
X78359000Y-118491000D02*
X78359000Y-116713000D01*
X82042000Y-128651000D02*
X82042000Y-126873000D01*
X78359000Y-121158000D02*
X78359000Y-119380000D01*
X82042000Y-108585000D02*
X82042000Y-106807000D01*
X78359000Y-108585000D02*
X78359000Y-106807000D01*
X82042000Y-116078000D02*
X82042000Y-114300000D01*
X82042000Y-126873000D02*
X78359000Y-126873000D01*
D11*
X80835400Y-120586500D02*
X80835500Y-120586500D01*
X78930400Y-112204500D02*
X78930500Y-112204500D01*
X79565400Y-112204500D02*
X79565500Y-112204500D01*
D10*
X78359000Y-126238000D02*
X82042000Y-126238000D01*
D11*
X78930400Y-110426500D02*
X78930500Y-110426500D01*
D10*
X82042000Y-114300000D02*
X78359000Y-114300000D01*
X82042000Y-110998000D02*
X82042000Y-109220000D01*
X78359000Y-110998000D02*
X82042000Y-110998000D01*
D11*
X79565400Y-108013500D02*
X79565500Y-108013500D01*
D10*
X78359000Y-116078000D02*
X82042000Y-116078000D01*
D11*
X79565400Y-109791500D02*
X79565500Y-109791500D01*
D10*
X78359000Y-110998000D02*
X78359000Y-109220000D01*
X78359000Y-116078000D02*
X78359000Y-114300000D01*
X82042000Y-124460000D02*
X78359000Y-124460000D01*
X82042000Y-118491000D02*
X82042000Y-116713000D01*
D11*
X78930400Y-108013500D02*
X78930500Y-108013500D01*
D10*
X82042000Y-109220000D02*
X78359000Y-109220000D01*
X78359000Y-121158000D02*
X82042000Y-121158000D01*
D11*
X81470400Y-127444500D02*
X81470500Y-127444500D01*
D10*
X82042000Y-121793000D02*
X78359000Y-121793000D01*
D11*
X80200400Y-115506500D02*
X80200500Y-115506500D01*
D10*
X82042000Y-111633000D02*
X78359000Y-111633000D01*
X78359000Y-113411000D02*
X82042000Y-113411000D01*
X78359000Y-113411000D02*
X78359000Y-111633000D01*
X78359000Y-126238000D02*
X78359000Y-124460000D01*
X82042000Y-123571000D02*
X82042000Y-121793000D01*
X82042000Y-121158000D02*
X82042000Y-119380000D01*
X78359000Y-123571000D02*
X82042000Y-123571000D01*
X78359000Y-123571000D02*
X78359000Y-121793000D01*
D11*
X80835400Y-122364500D02*
X80835500Y-122364500D01*
X80200400Y-117284500D02*
X80200500Y-117284500D01*
D10*
X82042000Y-126238000D02*
X82042000Y-124460000D01*
X78359000Y-108585000D02*
X82042000Y-108585000D01*
X82042000Y-113411000D02*
X82042000Y-111633000D01*
X82042000Y-116713000D02*
X78359000Y-116713000D01*
X87701755Y-117107790D02*
X87916041Y-118007790D01*
X87916041Y-118007790D02*
X88087469Y-117364933D01*
X88087469Y-117364933D02*
X88258898Y-118007790D01*
X88258898Y-118007790D02*
X88473184Y-117107790D01*
X88773183Y-117964933D02*
X88901755Y-118007790D01*
X88901755Y-118007790D02*
X89116040Y-118007790D01*
X89116040Y-118007790D02*
X89201755Y-117964933D01*
X89201755Y-117964933D02*
X89244612Y-117922075D01*
X89244612Y-117922075D02*
X89287469Y-117836361D01*
X89287469Y-117836361D02*
X89287469Y-117750647D01*
X89287469Y-117750647D02*
X89244612Y-117664933D01*
X89244612Y-117664933D02*
X89201755Y-117622075D01*
X89201755Y-117622075D02*
X89116040Y-117579218D01*
X89116040Y-117579218D02*
X88944612Y-117536361D01*
X88944612Y-117536361D02*
X88858897Y-117493504D01*
X88858897Y-117493504D02*
X88816040Y-117450647D01*
X88816040Y-117450647D02*
X88773183Y-117364933D01*
X88773183Y-117364933D02*
X88773183Y-117279218D01*
X88773183Y-117279218D02*
X88816040Y-117193504D01*
X88816040Y-117193504D02*
X88858897Y-117150647D01*
X88858897Y-117150647D02*
X88944612Y-117107790D01*
X88944612Y-117107790D02*
X89158897Y-117107790D01*
X89158897Y-117107790D02*
X89287469Y-117150647D01*
X83369398Y-128167790D02*
X82855112Y-128167790D01*
X83112255Y-128167790D02*
X83112255Y-127267790D01*
X83112255Y-127267790D02*
X83026541Y-127396361D01*
X83026541Y-127396361D02*
X82940826Y-127482075D01*
X82940826Y-127482075D02*
X82855112Y-127524933D01*
X82812255Y-112027790D02*
X83369398Y-112027790D01*
X83369398Y-112027790D02*
X83069398Y-112370647D01*
X83069398Y-112370647D02*
X83197969Y-112370647D01*
X83197969Y-112370647D02*
X83283684Y-112413504D01*
X83283684Y-112413504D02*
X83326541Y-112456361D01*
X83326541Y-112456361D02*
X83369398Y-112542075D01*
X83369398Y-112542075D02*
X83369398Y-112756361D01*
X83369398Y-112756361D02*
X83326541Y-112842075D01*
X83326541Y-112842075D02*
X83283684Y-112884933D01*
X83283684Y-112884933D02*
X83197969Y-112927790D01*
X83197969Y-112927790D02*
X82940826Y-112927790D01*
X82940826Y-112927790D02*
X82855112Y-112884933D01*
X82855112Y-112884933D02*
X82812255Y-112842075D01*
X84140827Y-112027790D02*
X83969398Y-112027790D01*
X83969398Y-112027790D02*
X83883684Y-112070647D01*
X83883684Y-112070647D02*
X83840827Y-112113504D01*
X83840827Y-112113504D02*
X83755112Y-112242075D01*
X83755112Y-112242075D02*
X83712255Y-112413504D01*
X83712255Y-112413504D02*
X83712255Y-112756361D01*
X83712255Y-112756361D02*
X83755112Y-112842075D01*
X83755112Y-112842075D02*
X83797969Y-112884933D01*
X83797969Y-112884933D02*
X83883684Y-112927790D01*
X83883684Y-112927790D02*
X84055112Y-112927790D01*
X84055112Y-112927790D02*
X84140827Y-112884933D01*
X84140827Y-112884933D02*
X84183684Y-112842075D01*
X84183684Y-112842075D02*
X84226541Y-112756361D01*
X84226541Y-112756361D02*
X84226541Y-112542075D01*
X84226541Y-112542075D02*
X84183684Y-112456361D01*
X84183684Y-112456361D02*
X84140827Y-112413504D01*
X84140827Y-112413504D02*
X84055112Y-112370647D01*
X84055112Y-112370647D02*
X83883684Y-112370647D01*
X83883684Y-112370647D02*
X83797969Y-112413504D01*
X83797969Y-112413504D02*
X83755112Y-112456361D01*
X83755112Y-112456361D02*
X83712255Y-112542075D01*
X85297969Y-112927790D02*
X85297969Y-112027790D01*
X85297969Y-112027790D02*
X85597969Y-112670647D01*
X85597969Y-112670647D02*
X85897969Y-112027790D01*
X85897969Y-112027790D02*
X85897969Y-112927790D01*
X86326540Y-112927790D02*
X86326540Y-112027790D01*
X86326540Y-112456361D02*
X86840826Y-112456361D01*
X86840826Y-112927790D02*
X86840826Y-112027790D01*
X87183683Y-112327790D02*
X87655112Y-112327790D01*
X87655112Y-112327790D02*
X87183683Y-112927790D01*
X87183683Y-112927790D02*
X87655112Y-112927790D01*
X83369398Y-118007790D02*
X82855112Y-118007790D01*
X83112255Y-118007790D02*
X83112255Y-117107790D01*
X83112255Y-117107790D02*
X83026541Y-117236361D01*
X83026541Y-117236361D02*
X82940826Y-117322075D01*
X82940826Y-117322075D02*
X82855112Y-117364933D01*
X84955112Y-118007790D02*
X84655112Y-117579218D01*
X84440826Y-118007790D02*
X84440826Y-117107790D01*
X84440826Y-117107790D02*
X84783683Y-117107790D01*
X84783683Y-117107790D02*
X84869398Y-117150647D01*
X84869398Y-117150647D02*
X84912255Y-117193504D01*
X84912255Y-117193504D02*
X84955112Y-117279218D01*
X84955112Y-117279218D02*
X84955112Y-117407790D01*
X84955112Y-117407790D02*
X84912255Y-117493504D01*
X84912255Y-117493504D02*
X84869398Y-117536361D01*
X84869398Y-117536361D02*
X84783683Y-117579218D01*
X84783683Y-117579218D02*
X84440826Y-117579218D01*
X85297969Y-117750647D02*
X85726541Y-117750647D01*
X85212255Y-118007790D02*
X85512255Y-117107790D01*
X85512255Y-117107790D02*
X85812255Y-118007790D01*
X86112255Y-118007790D02*
X86112255Y-117107790D01*
X86112255Y-117107790D02*
X86412255Y-117750647D01*
X86412255Y-117750647D02*
X86712255Y-117107790D01*
X86712255Y-117107790D02*
X86712255Y-118007790D01*
X82812255Y-109614790D02*
X83369398Y-109614790D01*
X83369398Y-109614790D02*
X83069398Y-109957647D01*
X83069398Y-109957647D02*
X83197969Y-109957647D01*
X83197969Y-109957647D02*
X83283684Y-110000504D01*
X83283684Y-110000504D02*
X83326541Y-110043361D01*
X83326541Y-110043361D02*
X83369398Y-110129075D01*
X83369398Y-110129075D02*
X83369398Y-110343361D01*
X83369398Y-110343361D02*
X83326541Y-110429075D01*
X83326541Y-110429075D02*
X83283684Y-110471933D01*
X83283684Y-110471933D02*
X83197969Y-110514790D01*
X83197969Y-110514790D02*
X82940826Y-110514790D01*
X82940826Y-110514790D02*
X82855112Y-110471933D01*
X82855112Y-110471933D02*
X82812255Y-110429075D01*
X83669398Y-109614790D02*
X84226541Y-109614790D01*
X84226541Y-109614790D02*
X83926541Y-109957647D01*
X83926541Y-109957647D02*
X84055112Y-109957647D01*
X84055112Y-109957647D02*
X84140827Y-110000504D01*
X84140827Y-110000504D02*
X84183684Y-110043361D01*
X84183684Y-110043361D02*
X84226541Y-110129075D01*
X84226541Y-110129075D02*
X84226541Y-110343361D01*
X84226541Y-110343361D02*
X84183684Y-110429075D01*
X84183684Y-110429075D02*
X84140827Y-110471933D01*
X84140827Y-110471933D02*
X84055112Y-110514790D01*
X84055112Y-110514790D02*
X83797969Y-110514790D01*
X83797969Y-110514790D02*
X83712255Y-110471933D01*
X83712255Y-110471933D02*
X83669398Y-110429075D01*
X85297969Y-110514790D02*
X85297969Y-109614790D01*
X85297969Y-109614790D02*
X85597969Y-110257647D01*
X85597969Y-110257647D02*
X85897969Y-109614790D01*
X85897969Y-109614790D02*
X85897969Y-110514790D01*
X86326540Y-110514790D02*
X86326540Y-109614790D01*
X86326540Y-110043361D02*
X86840826Y-110043361D01*
X86840826Y-110514790D02*
X86840826Y-109614790D01*
X87183683Y-109914790D02*
X87655112Y-109914790D01*
X87655112Y-109914790D02*
X87183683Y-110514790D01*
X87183683Y-110514790D02*
X87655112Y-110514790D01*
X83069398Y-124854790D02*
X83155112Y-124854790D01*
X83155112Y-124854790D02*
X83240826Y-124897647D01*
X83240826Y-124897647D02*
X83283684Y-124940504D01*
X83283684Y-124940504D02*
X83326541Y-125026218D01*
X83326541Y-125026218D02*
X83369398Y-125197647D01*
X83369398Y-125197647D02*
X83369398Y-125411933D01*
X83369398Y-125411933D02*
X83326541Y-125583361D01*
X83326541Y-125583361D02*
X83283684Y-125669075D01*
X83283684Y-125669075D02*
X83240826Y-125711933D01*
X83240826Y-125711933D02*
X83155112Y-125754790D01*
X83155112Y-125754790D02*
X83069398Y-125754790D01*
X83069398Y-125754790D02*
X82983684Y-125711933D01*
X82983684Y-125711933D02*
X82940826Y-125669075D01*
X82940826Y-125669075D02*
X82897969Y-125583361D01*
X82897969Y-125583361D02*
X82855112Y-125411933D01*
X82855112Y-125411933D02*
X82855112Y-125197647D01*
X82855112Y-125197647D02*
X82897969Y-125026218D01*
X82897969Y-125026218D02*
X82940826Y-124940504D01*
X82940826Y-124940504D02*
X82983684Y-124897647D01*
X82983684Y-124897647D02*
X83069398Y-124854790D01*
X84675969Y-125754790D02*
X84675969Y-124854790D01*
X85747397Y-124811933D02*
X84975969Y-125969075D01*
X86218826Y-124854790D02*
X86390254Y-124854790D01*
X86390254Y-124854790D02*
X86475969Y-124897647D01*
X86475969Y-124897647D02*
X86561683Y-124983361D01*
X86561683Y-124983361D02*
X86604540Y-125154790D01*
X86604540Y-125154790D02*
X86604540Y-125454790D01*
X86604540Y-125454790D02*
X86561683Y-125626218D01*
X86561683Y-125626218D02*
X86475969Y-125711933D01*
X86475969Y-125711933D02*
X86390254Y-125754790D01*
X86390254Y-125754790D02*
X86218826Y-125754790D01*
X86218826Y-125754790D02*
X86133112Y-125711933D01*
X86133112Y-125711933D02*
X86047397Y-125626218D01*
X86047397Y-125626218D02*
X86004540Y-125454790D01*
X86004540Y-125454790D02*
X86004540Y-125154790D01*
X86004540Y-125154790D02*
X86047397Y-124983361D01*
X86047397Y-124983361D02*
X86133112Y-124897647D01*
X86133112Y-124897647D02*
X86218826Y-124854790D01*
X87701755Y-124854790D02*
X87916041Y-125754790D01*
X87916041Y-125754790D02*
X88087469Y-125111933D01*
X88087469Y-125111933D02*
X88258898Y-125754790D01*
X88258898Y-125754790D02*
X88473184Y-124854790D01*
X88773183Y-125711933D02*
X88901755Y-125754790D01*
X88901755Y-125754790D02*
X89116040Y-125754790D01*
X89116040Y-125754790D02*
X89201755Y-125711933D01*
X89201755Y-125711933D02*
X89244612Y-125669075D01*
X89244612Y-125669075D02*
X89287469Y-125583361D01*
X89287469Y-125583361D02*
X89287469Y-125497647D01*
X89287469Y-125497647D02*
X89244612Y-125411933D01*
X89244612Y-125411933D02*
X89201755Y-125369075D01*
X89201755Y-125369075D02*
X89116040Y-125326218D01*
X89116040Y-125326218D02*
X88944612Y-125283361D01*
X88944612Y-125283361D02*
X88858897Y-125240504D01*
X88858897Y-125240504D02*
X88816040Y-125197647D01*
X88816040Y-125197647D02*
X88773183Y-125111933D01*
X88773183Y-125111933D02*
X88773183Y-125026218D01*
X88773183Y-125026218D02*
X88816040Y-124940504D01*
X88816040Y-124940504D02*
X88858897Y-124897647D01*
X88858897Y-124897647D02*
X88944612Y-124854790D01*
X88944612Y-124854790D02*
X89158897Y-124854790D01*
X89158897Y-124854790D02*
X89287469Y-124897647D01*
X83069398Y-119774790D02*
X83155112Y-119774790D01*
X83155112Y-119774790D02*
X83240826Y-119817647D01*
X83240826Y-119817647D02*
X83283684Y-119860504D01*
X83283684Y-119860504D02*
X83326541Y-119946218D01*
X83326541Y-119946218D02*
X83369398Y-120117647D01*
X83369398Y-120117647D02*
X83369398Y-120331933D01*
X83369398Y-120331933D02*
X83326541Y-120503361D01*
X83326541Y-120503361D02*
X83283684Y-120589075D01*
X83283684Y-120589075D02*
X83240826Y-120631933D01*
X83240826Y-120631933D02*
X83155112Y-120674790D01*
X83155112Y-120674790D02*
X83069398Y-120674790D01*
X83069398Y-120674790D02*
X82983684Y-120631933D01*
X82983684Y-120631933D02*
X82940826Y-120589075D01*
X82940826Y-120589075D02*
X82897969Y-120503361D01*
X82897969Y-120503361D02*
X82855112Y-120331933D01*
X82855112Y-120331933D02*
X82855112Y-120117647D01*
X82855112Y-120117647D02*
X82897969Y-119946218D01*
X82897969Y-119946218D02*
X82940826Y-119860504D01*
X82940826Y-119860504D02*
X82983684Y-119817647D01*
X82983684Y-119817647D02*
X83069398Y-119774790D01*
X84955112Y-120674790D02*
X84655112Y-120246218D01*
X84440826Y-120674790D02*
X84440826Y-119774790D01*
X84440826Y-119774790D02*
X84783683Y-119774790D01*
X84783683Y-119774790D02*
X84869398Y-119817647D01*
X84869398Y-119817647D02*
X84912255Y-119860504D01*
X84912255Y-119860504D02*
X84955112Y-119946218D01*
X84955112Y-119946218D02*
X84955112Y-120074790D01*
X84955112Y-120074790D02*
X84912255Y-120160504D01*
X84912255Y-120160504D02*
X84869398Y-120203361D01*
X84869398Y-120203361D02*
X84783683Y-120246218D01*
X84783683Y-120246218D02*
X84440826Y-120246218D01*
X85512255Y-119774790D02*
X85683683Y-119774790D01*
X85683683Y-119774790D02*
X85769398Y-119817647D01*
X85769398Y-119817647D02*
X85855112Y-119903361D01*
X85855112Y-119903361D02*
X85897969Y-120074790D01*
X85897969Y-120074790D02*
X85897969Y-120374790D01*
X85897969Y-120374790D02*
X85855112Y-120546218D01*
X85855112Y-120546218D02*
X85769398Y-120631933D01*
X85769398Y-120631933D02*
X85683683Y-120674790D01*
X85683683Y-120674790D02*
X85512255Y-120674790D01*
X85512255Y-120674790D02*
X85426541Y-120631933D01*
X85426541Y-120631933D02*
X85340826Y-120546218D01*
X85340826Y-120546218D02*
X85297969Y-120374790D01*
X85297969Y-120374790D02*
X85297969Y-120074790D01*
X85297969Y-120074790D02*
X85340826Y-119903361D01*
X85340826Y-119903361D02*
X85426541Y-119817647D01*
X85426541Y-119817647D02*
X85512255Y-119774790D01*
X86283683Y-120674790D02*
X86283683Y-119774790D01*
X86283683Y-119774790D02*
X86583683Y-120417647D01*
X86583683Y-120417647D02*
X86883683Y-119774790D01*
X86883683Y-119774790D02*
X86883683Y-120674790D01*
X82812255Y-107201790D02*
X83369398Y-107201790D01*
X83369398Y-107201790D02*
X83069398Y-107544647D01*
X83069398Y-107544647D02*
X83197969Y-107544647D01*
X83197969Y-107544647D02*
X83283684Y-107587504D01*
X83283684Y-107587504D02*
X83326541Y-107630361D01*
X83326541Y-107630361D02*
X83369398Y-107716075D01*
X83369398Y-107716075D02*
X83369398Y-107930361D01*
X83369398Y-107930361D02*
X83326541Y-108016075D01*
X83326541Y-108016075D02*
X83283684Y-108058933D01*
X83283684Y-108058933D02*
X83197969Y-108101790D01*
X83197969Y-108101790D02*
X82940826Y-108101790D01*
X82940826Y-108101790D02*
X82855112Y-108058933D01*
X82855112Y-108058933D02*
X82812255Y-108016075D01*
X83926541Y-107201790D02*
X84012255Y-107201790D01*
X84012255Y-107201790D02*
X84097969Y-107244647D01*
X84097969Y-107244647D02*
X84140827Y-107287504D01*
X84140827Y-107287504D02*
X84183684Y-107373218D01*
X84183684Y-107373218D02*
X84226541Y-107544647D01*
X84226541Y-107544647D02*
X84226541Y-107758933D01*
X84226541Y-107758933D02*
X84183684Y-107930361D01*
X84183684Y-107930361D02*
X84140827Y-108016075D01*
X84140827Y-108016075D02*
X84097969Y-108058933D01*
X84097969Y-108058933D02*
X84012255Y-108101790D01*
X84012255Y-108101790D02*
X83926541Y-108101790D01*
X83926541Y-108101790D02*
X83840827Y-108058933D01*
X83840827Y-108058933D02*
X83797969Y-108016075D01*
X83797969Y-108016075D02*
X83755112Y-107930361D01*
X83755112Y-107930361D02*
X83712255Y-107758933D01*
X83712255Y-107758933D02*
X83712255Y-107544647D01*
X83712255Y-107544647D02*
X83755112Y-107373218D01*
X83755112Y-107373218D02*
X83797969Y-107287504D01*
X83797969Y-107287504D02*
X83840827Y-107244647D01*
X83840827Y-107244647D02*
X83926541Y-107201790D01*
X85297969Y-108101790D02*
X85297969Y-107201790D01*
X85297969Y-107201790D02*
X85597969Y-107844647D01*
X85597969Y-107844647D02*
X85897969Y-107201790D01*
X85897969Y-107201790D02*
X85897969Y-108101790D01*
X86326540Y-108101790D02*
X86326540Y-107201790D01*
X86326540Y-107630361D02*
X86840826Y-107630361D01*
X86840826Y-108101790D02*
X86840826Y-107201790D01*
X87183683Y-107501790D02*
X87655112Y-107501790D01*
X87655112Y-107501790D02*
X87183683Y-108101790D01*
X87183683Y-108101790D02*
X87655112Y-108101790D01*
X87701755Y-122187790D02*
X87916041Y-123087790D01*
X87916041Y-123087790D02*
X88087469Y-122444933D01*
X88087469Y-122444933D02*
X88258898Y-123087790D01*
X88258898Y-123087790D02*
X88473184Y-122187790D01*
X88773183Y-123044933D02*
X88901755Y-123087790D01*
X88901755Y-123087790D02*
X89116040Y-123087790D01*
X89116040Y-123087790D02*
X89201755Y-123044933D01*
X89201755Y-123044933D02*
X89244612Y-123002075D01*
X89244612Y-123002075D02*
X89287469Y-122916361D01*
X89287469Y-122916361D02*
X89287469Y-122830647D01*
X89287469Y-122830647D02*
X89244612Y-122744933D01*
X89244612Y-122744933D02*
X89201755Y-122702075D01*
X89201755Y-122702075D02*
X89116040Y-122659218D01*
X89116040Y-122659218D02*
X88944612Y-122616361D01*
X88944612Y-122616361D02*
X88858897Y-122573504D01*
X88858897Y-122573504D02*
X88816040Y-122530647D01*
X88816040Y-122530647D02*
X88773183Y-122444933D01*
X88773183Y-122444933D02*
X88773183Y-122359218D01*
X88773183Y-122359218D02*
X88816040Y-122273504D01*
X88816040Y-122273504D02*
X88858897Y-122230647D01*
X88858897Y-122230647D02*
X88944612Y-122187790D01*
X88944612Y-122187790D02*
X89158897Y-122187790D01*
X89158897Y-122187790D02*
X89287469Y-122230647D01*
X87701755Y-119774790D02*
X87916041Y-120674790D01*
X87916041Y-120674790D02*
X88087469Y-120031933D01*
X88087469Y-120031933D02*
X88258898Y-120674790D01*
X88258898Y-120674790D02*
X88473184Y-119774790D01*
X88773183Y-120631933D02*
X88901755Y-120674790D01*
X88901755Y-120674790D02*
X89116040Y-120674790D01*
X89116040Y-120674790D02*
X89201755Y-120631933D01*
X89201755Y-120631933D02*
X89244612Y-120589075D01*
X89244612Y-120589075D02*
X89287469Y-120503361D01*
X89287469Y-120503361D02*
X89287469Y-120417647D01*
X89287469Y-120417647D02*
X89244612Y-120331933D01*
X89244612Y-120331933D02*
X89201755Y-120289075D01*
X89201755Y-120289075D02*
X89116040Y-120246218D01*
X89116040Y-120246218D02*
X88944612Y-120203361D01*
X88944612Y-120203361D02*
X88858897Y-120160504D01*
X88858897Y-120160504D02*
X88816040Y-120117647D01*
X88816040Y-120117647D02*
X88773183Y-120031933D01*
X88773183Y-120031933D02*
X88773183Y-119946218D01*
X88773183Y-119946218D02*
X88816040Y-119860504D01*
X88816040Y-119860504D02*
X88858897Y-119817647D01*
X88858897Y-119817647D02*
X88944612Y-119774790D01*
X88944612Y-119774790D02*
X89158897Y-119774790D01*
X89158897Y-119774790D02*
X89287469Y-119817647D01*
X84675969Y-128167790D02*
X84675969Y-127267790D01*
X85747397Y-127224933D02*
X84975969Y-128382075D01*
X86218826Y-127267790D02*
X86390254Y-127267790D01*
X86390254Y-127267790D02*
X86475969Y-127310647D01*
X86475969Y-127310647D02*
X86561683Y-127396361D01*
X86561683Y-127396361D02*
X86604540Y-127567790D01*
X86604540Y-127567790D02*
X86604540Y-127867790D01*
X86604540Y-127867790D02*
X86561683Y-128039218D01*
X86561683Y-128039218D02*
X86475969Y-128124933D01*
X86475969Y-128124933D02*
X86390254Y-128167790D01*
X86390254Y-128167790D02*
X86218826Y-128167790D01*
X86218826Y-128167790D02*
X86133112Y-128124933D01*
X86133112Y-128124933D02*
X86047397Y-128039218D01*
X86047397Y-128039218D02*
X86004540Y-127867790D01*
X86004540Y-127867790D02*
X86004540Y-127567790D01*
X86004540Y-127567790D02*
X86047397Y-127396361D01*
X86047397Y-127396361D02*
X86133112Y-127310647D01*
X86133112Y-127310647D02*
X86218826Y-127267790D01*
X83369398Y-123087790D02*
X82855112Y-123087790D01*
X83112255Y-123087790D02*
X83112255Y-122187790D01*
X83112255Y-122187790D02*
X83026541Y-122316361D01*
X83026541Y-122316361D02*
X82940826Y-122402075D01*
X82940826Y-122402075D02*
X82855112Y-122444933D01*
X84955112Y-123087790D02*
X84655112Y-122659218D01*
X84440826Y-123087790D02*
X84440826Y-122187790D01*
X84440826Y-122187790D02*
X84783683Y-122187790D01*
X84783683Y-122187790D02*
X84869398Y-122230647D01*
X84869398Y-122230647D02*
X84912255Y-122273504D01*
X84912255Y-122273504D02*
X84955112Y-122359218D01*
X84955112Y-122359218D02*
X84955112Y-122487790D01*
X84955112Y-122487790D02*
X84912255Y-122573504D01*
X84912255Y-122573504D02*
X84869398Y-122616361D01*
X84869398Y-122616361D02*
X84783683Y-122659218D01*
X84783683Y-122659218D02*
X84440826Y-122659218D01*
X85512255Y-122187790D02*
X85683683Y-122187790D01*
X85683683Y-122187790D02*
X85769398Y-122230647D01*
X85769398Y-122230647D02*
X85855112Y-122316361D01*
X85855112Y-122316361D02*
X85897969Y-122487790D01*
X85897969Y-122487790D02*
X85897969Y-122787790D01*
X85897969Y-122787790D02*
X85855112Y-122959218D01*
X85855112Y-122959218D02*
X85769398Y-123044933D01*
X85769398Y-123044933D02*
X85683683Y-123087790D01*
X85683683Y-123087790D02*
X85512255Y-123087790D01*
X85512255Y-123087790D02*
X85426541Y-123044933D01*
X85426541Y-123044933D02*
X85340826Y-122959218D01*
X85340826Y-122959218D02*
X85297969Y-122787790D01*
X85297969Y-122787790D02*
X85297969Y-122487790D01*
X85297969Y-122487790D02*
X85340826Y-122316361D01*
X85340826Y-122316361D02*
X85426541Y-122230647D01*
X85426541Y-122230647D02*
X85512255Y-122187790D01*
X86283683Y-123087790D02*
X86283683Y-122187790D01*
X86283683Y-122187790D02*
X86583683Y-122830647D01*
X86583683Y-122830647D02*
X86883683Y-122187790D01*
X86883683Y-122187790D02*
X86883683Y-123087790D01*
X87701755Y-114694790D02*
X87916041Y-115594790D01*
X87916041Y-115594790D02*
X88087469Y-114951933D01*
X88087469Y-114951933D02*
X88258898Y-115594790D01*
X88258898Y-115594790D02*
X88473184Y-114694790D01*
X88773183Y-115551933D02*
X88901755Y-115594790D01*
X88901755Y-115594790D02*
X89116040Y-115594790D01*
X89116040Y-115594790D02*
X89201755Y-115551933D01*
X89201755Y-115551933D02*
X89244612Y-115509075D01*
X89244612Y-115509075D02*
X89287469Y-115423361D01*
X89287469Y-115423361D02*
X89287469Y-115337647D01*
X89287469Y-115337647D02*
X89244612Y-115251933D01*
X89244612Y-115251933D02*
X89201755Y-115209075D01*
X89201755Y-115209075D02*
X89116040Y-115166218D01*
X89116040Y-115166218D02*
X88944612Y-115123361D01*
X88944612Y-115123361D02*
X88858897Y-115080504D01*
X88858897Y-115080504D02*
X88816040Y-115037647D01*
X88816040Y-115037647D02*
X88773183Y-114951933D01*
X88773183Y-114951933D02*
X88773183Y-114866218D01*
X88773183Y-114866218D02*
X88816040Y-114780504D01*
X88816040Y-114780504D02*
X88858897Y-114737647D01*
X88858897Y-114737647D02*
X88944612Y-114694790D01*
X88944612Y-114694790D02*
X89158897Y-114694790D01*
X89158897Y-114694790D02*
X89287469Y-114737647D01*
X83069398Y-114694790D02*
X83155112Y-114694790D01*
X83155112Y-114694790D02*
X83240826Y-114737647D01*
X83240826Y-114737647D02*
X83283684Y-114780504D01*
X83283684Y-114780504D02*
X83326541Y-114866218D01*
X83326541Y-114866218D02*
X83369398Y-115037647D01*
X83369398Y-115037647D02*
X83369398Y-115251933D01*
X83369398Y-115251933D02*
X83326541Y-115423361D01*
X83326541Y-115423361D02*
X83283684Y-115509075D01*
X83283684Y-115509075D02*
X83240826Y-115551933D01*
X83240826Y-115551933D02*
X83155112Y-115594790D01*
X83155112Y-115594790D02*
X83069398Y-115594790D01*
X83069398Y-115594790D02*
X82983684Y-115551933D01*
X82983684Y-115551933D02*
X82940826Y-115509075D01*
X82940826Y-115509075D02*
X82897969Y-115423361D01*
X82897969Y-115423361D02*
X82855112Y-115251933D01*
X82855112Y-115251933D02*
X82855112Y-115037647D01*
X82855112Y-115037647D02*
X82897969Y-114866218D01*
X82897969Y-114866218D02*
X82940826Y-114780504D01*
X82940826Y-114780504D02*
X82983684Y-114737647D01*
X82983684Y-114737647D02*
X83069398Y-114694790D01*
X84955112Y-115594790D02*
X84655112Y-115166218D01*
X84440826Y-115594790D02*
X84440826Y-114694790D01*
X84440826Y-114694790D02*
X84783683Y-114694790D01*
X84783683Y-114694790D02*
X84869398Y-114737647D01*
X84869398Y-114737647D02*
X84912255Y-114780504D01*
X84912255Y-114780504D02*
X84955112Y-114866218D01*
X84955112Y-114866218D02*
X84955112Y-114994790D01*
X84955112Y-114994790D02*
X84912255Y-115080504D01*
X84912255Y-115080504D02*
X84869398Y-115123361D01*
X84869398Y-115123361D02*
X84783683Y-115166218D01*
X84783683Y-115166218D02*
X84440826Y-115166218D01*
X85297969Y-115337647D02*
X85726541Y-115337647D01*
X85212255Y-115594790D02*
X85512255Y-114694790D01*
X85512255Y-114694790D02*
X85812255Y-115594790D01*
X86112255Y-115594790D02*
X86112255Y-114694790D01*
X86112255Y-114694790D02*
X86412255Y-115337647D01*
X86412255Y-115337647D02*
X86712255Y-114694790D01*
X86712255Y-114694790D02*
X86712255Y-115594790D01*
X87701755Y-127267790D02*
X87916041Y-128167790D01*
X87916041Y-128167790D02*
X88087469Y-127524933D01*
X88087469Y-127524933D02*
X88258898Y-128167790D01*
X88258898Y-128167790D02*
X88473184Y-127267790D01*
X88773183Y-128124933D02*
X88901755Y-128167790D01*
X88901755Y-128167790D02*
X89116040Y-128167790D01*
X89116040Y-128167790D02*
X89201755Y-128124933D01*
X89201755Y-128124933D02*
X89244612Y-128082075D01*
X89244612Y-128082075D02*
X89287469Y-127996361D01*
X89287469Y-127996361D02*
X89287469Y-127910647D01*
X89287469Y-127910647D02*
X89244612Y-127824933D01*
X89244612Y-127824933D02*
X89201755Y-127782075D01*
X89201755Y-127782075D02*
X89116040Y-127739218D01*
X89116040Y-127739218D02*
X88944612Y-127696361D01*
X88944612Y-127696361D02*
X88858897Y-127653504D01*
X88858897Y-127653504D02*
X88816040Y-127610647D01*
X88816040Y-127610647D02*
X88773183Y-127524933D01*
X88773183Y-127524933D02*
X88773183Y-127439218D01*
X88773183Y-127439218D02*
X88816040Y-127353504D01*
X88816040Y-127353504D02*
X88858897Y-127310647D01*
X88858897Y-127310647D02*
X88944612Y-127267790D01*
X88944612Y-127267790D02*
X89158897Y-127267790D01*
X89158897Y-127267790D02*
X89287469Y-127310647D01*
X93340767Y-111642245D02*
X93456881Y-111680949D01*
X93456881Y-111680949D02*
X93650405Y-111680949D01*
X93650405Y-111680949D02*
X93727814Y-111642245D01*
X93727814Y-111642245D02*
X93766519Y-111603540D01*
X93766519Y-111603540D02*
X93805224Y-111526130D01*
X93805224Y-111526130D02*
X93805224Y-111448721D01*
X93805224Y-111448721D02*
X93766519Y-111371311D01*
X93766519Y-111371311D02*
X93727814Y-111332606D01*
X93727814Y-111332606D02*
X93650405Y-111293902D01*
X93650405Y-111293902D02*
X93495586Y-111255197D01*
X93495586Y-111255197D02*
X93418176Y-111216492D01*
X93418176Y-111216492D02*
X93379471Y-111177787D01*
X93379471Y-111177787D02*
X93340767Y-111100378D01*
X93340767Y-111100378D02*
X93340767Y-111022968D01*
X93340767Y-111022968D02*
X93379471Y-110945559D01*
X93379471Y-110945559D02*
X93418176Y-110906854D01*
X93418176Y-110906854D02*
X93495586Y-110868149D01*
X93495586Y-110868149D02*
X93689109Y-110868149D01*
X93689109Y-110868149D02*
X93805224Y-110906854D01*
X94076157Y-110868149D02*
X94269681Y-111680949D01*
X94269681Y-111680949D02*
X94424500Y-111100378D01*
X94424500Y-111100378D02*
X94579319Y-111680949D01*
X94579319Y-111680949D02*
X94772843Y-110868149D01*
X95508233Y-111680949D02*
X95043776Y-111680949D01*
X95276004Y-111680949D02*
X95276004Y-110868149D01*
X95276004Y-110868149D02*
X95198595Y-110984264D01*
X95198595Y-110984264D02*
X95121185Y-111061673D01*
X95121185Y-111061673D02*
X95043776Y-111100378D01*
D12*
X94037221Y-116390000D02*
X94362779Y-116390000D01*
X94037221Y-117410000D02*
X94362779Y-117410000D01*
X98970000Y-109040000D02*
X98970000Y-111200000D01*
X98970000Y-109040000D02*
X99900000Y-109040000D01*
X102130000Y-109040000D02*
X101200000Y-109040000D01*
X102130000Y-109040000D02*
X102130000Y-110500000D01*
X102590000Y-115540000D02*
X103650000Y-115540000D01*
X102590000Y-116600000D02*
X102590000Y-115540000D01*
X99670000Y-117560000D02*
X101700000Y-117560000D01*
X101080000Y-115240000D02*
X99670000Y-115240000D01*
D13*
X95550000Y-120500000D02*
X95550000Y-121200000D01*
X95550000Y-121200000D02*
X96250000Y-121200000D01*
X95550000Y-124300000D02*
X95550000Y-125000000D01*
X95550000Y-125000000D02*
X96250000Y-125000000D01*
D12*
X90388500Y-108555500D02*
X91884500Y-108555500D01*
X90388500Y-114075500D02*
X90388500Y-108555500D01*
X90388500Y-114075500D02*
X91204500Y-114075500D01*
X91204500Y-115761500D02*
X91204500Y-114075500D01*
X96964500Y-108555500D02*
X98459500Y-108555500D01*
X96964500Y-114075500D02*
X98459500Y-114075500D01*
X98459500Y-114075500D02*
X98459500Y-108555500D01*
X94090000Y-119137221D02*
X94090000Y-119462779D01*
X95110000Y-119137221D02*
X95110000Y-119462779D01*
D13*
X95550000Y-128100000D02*
X95550000Y-128800000D01*
X95550000Y-128800000D02*
X96250000Y-128800000D01*
D12*
X105062779Y-113890000D02*
X104737221Y-113890000D01*
X105062779Y-114910000D02*
X104737221Y-114910000D01*
X94090000Y-126737221D02*
X94090000Y-127062779D01*
X95110000Y-126737221D02*
X95110000Y-127062779D01*
X91270000Y-128110000D02*
X92680000Y-128110000D01*
X92680000Y-125790000D02*
X90650000Y-125790000D01*
X102940000Y-109337221D02*
X102940000Y-109662779D01*
X103960000Y-109337221D02*
X103960000Y-109662779D01*
X100290000Y-122987221D02*
X100290000Y-123312779D01*
X101310000Y-122987221D02*
X101310000Y-123312779D01*
X94090000Y-122937221D02*
X94090000Y-123262779D01*
X95110000Y-122937221D02*
X95110000Y-123262779D01*
X100290000Y-126787221D02*
X100290000Y-127112779D01*
X101310000Y-126787221D02*
X101310000Y-127112779D01*
X97212779Y-116390000D02*
X96887221Y-116390000D01*
X97212779Y-117410000D02*
X96887221Y-117410000D01*
X100290000Y-119187221D02*
X100290000Y-119512779D01*
X101310000Y-119187221D02*
X101310000Y-119512779D01*
X100712779Y-112240000D02*
X100387221Y-112240000D01*
X100712779Y-113260000D02*
X100387221Y-113260000D01*
X100187221Y-113740000D02*
X100512779Y-113740000D01*
X100187221Y-114760000D02*
X100512779Y-114760000D01*
X91237221Y-116390000D02*
X91562779Y-116390000D01*
X91237221Y-117410000D02*
X91562779Y-117410000D01*
X91270000Y-120510000D02*
X92680000Y-120510000D01*
X92680000Y-118190000D02*
X90650000Y-118190000D01*
X91270000Y-124310000D02*
X92680000Y-124310000D01*
X92680000Y-121990000D02*
X90650000Y-121990000D01*
%LPC*%
D14*
X93400000Y-116900000D03*
X95000000Y-116900000D03*
D15*
X99600000Y-110850000D03*
X101500000Y-110850000D03*
X100550000Y-108750000D03*
D16*
X103650000Y-116600000D03*
D17*
X105650000Y-116600000D03*
X103650000Y-118600000D03*
X105650000Y-118600000D03*
X103650000Y-120600000D03*
X105650000Y-120600000D03*
X103650000Y-122600000D03*
X105650000Y-122600000D03*
X103650000Y-124600000D03*
X105650000Y-124600000D03*
X103650000Y-126600000D03*
X105650000Y-126600000D03*
D18*
X101250000Y-117050000D03*
X101250000Y-116400000D03*
X101250000Y-115750000D03*
X99550000Y-115750000D03*
X99550000Y-117050000D03*
D19*
X96600000Y-120250000D03*
X98800000Y-120250000D03*
X98800000Y-118550000D03*
X96600000Y-118550000D03*
X96600000Y-124050000D03*
X98800000Y-124050000D03*
X98800000Y-122350000D03*
X96600000Y-122350000D03*
D20*
X91884500Y-115125500D03*
X93154500Y-115125500D03*
X94424500Y-115125500D03*
X95694500Y-115125500D03*
X96964500Y-115125500D03*
X96964500Y-107505500D03*
X95694500Y-107505500D03*
X94424500Y-107505500D03*
X93154500Y-107505500D03*
X91884500Y-107505500D03*
D21*
X94600000Y-118550000D03*
X94600000Y-120050000D03*
D19*
X96600000Y-127850000D03*
X98800000Y-127850000D03*
X98800000Y-126150000D03*
X96600000Y-126150000D03*
D22*
X105650000Y-114400000D03*
X104150000Y-114400000D03*
D21*
X94600000Y-126150000D03*
X94600000Y-127650000D03*
D23*
X91100000Y-126300000D03*
X91100000Y-126950000D03*
X91100000Y-127600000D03*
X92800000Y-127600000D03*
X92800000Y-126300000D03*
D21*
X103450000Y-108750000D03*
X103450000Y-110250000D03*
D24*
X100800000Y-122350000D03*
X100800000Y-123950000D03*
D21*
X94600000Y-122350000D03*
X94600000Y-123850000D03*
D24*
X100800000Y-126150000D03*
X100800000Y-127750000D03*
D22*
X97800000Y-116900000D03*
X96300000Y-116900000D03*
D24*
X100800000Y-118550000D03*
X100800000Y-120150000D03*
D25*
X76581000Y-107378500D03*
D22*
X101300000Y-112750000D03*
X99800000Y-112750000D03*
D14*
X99550000Y-114250000D03*
X101150000Y-114250000D03*
D25*
X76581000Y-128079500D03*
D14*
X90600000Y-116900000D03*
X92200000Y-116900000D03*
D25*
X107124500Y-107378500D03*
D23*
X91100000Y-118700000D03*
X91100000Y-119350000D03*
X91100000Y-120000000D03*
X92800000Y-120000000D03*
X92800000Y-118700000D03*
X91100000Y-122500000D03*
X91100000Y-123150000D03*
X91100000Y-123800000D03*
X92800000Y-123800000D03*
X92800000Y-122500000D03*
%LPD*%
M02*
